<svg width="166" height="101" viewBox="0 0 166 101" fill="none" xmlns="http://www.w3.org/2000/svg">
<mask id="path-1-inside-1" fill="white">
<path d="M7.01534 53.7055C3.57517 53.7055 1.14188 53.7055 0.911133 53.6006L1.14188 49.9716C1.28871 49.9716 15.6577 50.8526 24.405 47.3076C29.5442 45.2099 32.5858 42.0425 36.7812 37.6374L38.2495 36.1061L40.8716 38.6442L39.4242 40.1546C35.082 44.7065 31.6419 48.2935 25.7684 50.6429C19.7294 52.6878 13.391 53.7088 7.01534 53.6635"/>
</mask>
<path d="M7.01534 53.7055C3.57517 53.7055 1.14188 53.7055 0.911133 53.6006L1.14188 49.9716C1.28871 49.9716 15.6577 50.8526 24.405 47.3076C29.5442 45.2099 32.5858 42.0425 36.7812 37.6374L38.2495 36.1061L40.8716 38.6442L39.4242 40.1546C35.082 44.7065 31.6419 48.2935 25.7684 50.6429C19.7294 52.6878 13.391 53.7088 7.01534 53.6635" fill="#1D1D1B"/>
<path d="M0.911133 53.6006L-0.0868518 53.5371L-0.130623 54.2255L0.49733 54.5109L0.911133 53.6006ZM1.14188 49.9716V48.9716H0.203442L0.143892 49.9082L1.14188 49.9716ZM24.405 47.3076L24.7806 48.2344L24.7829 48.2334L24.405 47.3076ZM36.7812 37.6374L36.0594 36.9452L36.057 36.9477L36.7812 37.6374ZM38.2495 36.1061L38.945 35.3876L38.2231 34.6888L37.5277 35.414L38.2495 36.1061ZM40.8716 38.6442L41.5936 39.3361L42.282 38.6178L41.5671 37.9257L40.8716 38.6442ZM39.4242 40.1546L38.7022 39.4626L38.7006 39.4643L39.4242 40.1546ZM25.7684 50.6429L26.0892 51.59L26.1148 51.5814L26.1398 51.5713L25.7684 50.6429ZM7.01534 52.7055C5.2926 52.7055 3.83155 52.7054 2.77199 52.6924C2.24108 52.6859 1.82182 52.6762 1.52536 52.6623C1.37579 52.6553 1.27047 52.6478 1.20328 52.6407C1.16915 52.6371 1.15729 52.6349 1.16074 52.6355C1.16281 52.6359 1.17659 52.6384 1.19808 52.6442C1.21562 52.6489 1.26366 52.6624 1.32494 52.6902L0.49733 54.5109C0.628994 54.5708 0.752965 54.5941 0.799092 54.6026C0.865219 54.6147 0.932659 54.6233 0.993862 54.6297C1.11735 54.6427 1.26686 54.6524 1.43161 54.6601C1.7638 54.6757 2.21113 54.6857 2.74742 54.6923C3.82222 54.7055 5.2979 54.7055 7.01534 54.7055V52.7055ZM1.90912 53.664L2.13986 50.0351L0.143892 49.9082L-0.0868518 53.5371L1.90912 53.664ZM1.14188 50.9716C1.12632 50.9716 4.86925 51.1918 9.5956 50.9679C14.3237 50.7439 20.2435 50.0731 24.7806 48.2344L24.0294 46.3808C19.8192 48.0871 14.1809 48.7484 9.50094 48.9701C4.81926 49.1919 1.30427 48.9716 1.14188 48.9716V50.9716ZM24.7829 48.2334C30.1466 46.0442 33.3225 42.719 37.5053 38.327L36.057 36.9477C31.8492 41.3659 28.9419 44.3757 24.0271 46.3817L24.7829 48.2334ZM37.5029 38.3295L38.9713 36.7982L37.5277 35.414L36.0594 36.9452L37.5029 38.3295ZM37.554 36.8246L40.1761 39.3627L41.5671 37.9257L38.945 35.3876L37.554 36.8246ZM40.1496 37.9523L38.7022 39.4626L40.1462 40.8465L41.5936 39.3361L40.1496 37.9523ZM38.7006 39.4643C34.3498 44.0253 31.0441 47.4555 25.397 49.7144L26.1398 51.5713C32.2397 49.1314 35.8143 45.3877 40.1478 40.8448L38.7006 39.4643ZM25.4477 49.6957C19.5143 51.7049 13.2867 52.708 7.02244 52.6635L7.00824 54.6635C13.4954 54.7095 19.9446 53.6707 26.0892 51.59L25.4477 49.6957Z" fill="black" mask="url(#path-1-inside-1)"/>
<mask id="path-3-inside-2" fill="white">
<path d="M140.681 16.3465C135.877 16.3684 131.091 15.7762 126.438 14.5844L127.298 11.0394C136.087 13.137 143.282 13.2629 149.26 11.375C154.601 9.24533 159.045 5.34163 161.846 0.320312L165.055 2.04038C161.832 7.91546 156.629 12.4569 150.372 14.8571C147.228 15.8109 143.965 16.3124 140.681 16.3465Z"/>
</mask>
<path d="M140.681 16.3465C135.877 16.3684 131.091 15.7762 126.438 14.5844L127.298 11.0394C136.087 13.137 143.282 13.2629 149.26 11.375C154.601 9.24533 159.045 5.34163 161.846 0.320312L165.055 2.04038C161.832 7.91546 156.629 12.4569 150.372 14.8571C147.228 15.8109 143.965 16.3124 140.681 16.3465Z" fill="#1D1D1B"/>
<path d="M126.438 14.5844L125.466 14.3486L125.233 15.3081L126.189 15.5531L126.438 14.5844ZM127.298 11.0394L127.53 10.0667L126.561 9.8354L126.326 10.8036L127.298 11.0394ZM149.26 11.375L149.561 12.3286L149.596 12.3175L149.63 12.3038L149.26 11.375ZM161.846 0.320312L162.318 -0.561084L161.452 -1.02558L160.973 -0.166818L161.846 0.320312ZM165.055 2.04038L165.932 2.52144L166.418 1.63605L165.528 1.15898L165.055 2.04038ZM150.372 14.8571L150.662 15.814L150.696 15.8036L150.73 15.7908L150.372 14.8571ZM140.676 15.3465C135.958 15.368 131.256 14.7864 126.686 13.6157L126.189 15.5531C130.925 16.7661 135.797 17.3688 140.685 17.3464L140.676 15.3465ZM127.409 14.8202L128.269 11.2751L126.326 10.8036L125.466 14.3486L127.409 14.8202ZM127.065 12.012C135.955 14.1336 143.348 14.2905 149.561 12.3286L148.959 10.4214C143.215 12.2352 136.219 12.1404 127.53 10.0667L127.065 12.012ZM149.63 12.3038C155.185 10.0891 159.807 6.02942 162.719 0.807443L160.973 -0.166818C158.284 4.65385 154.017 8.40156 148.89 10.4461L149.63 12.3038ZM161.374 1.20171L164.583 2.92177L165.528 1.15898L162.318 -0.561084L161.374 1.20171ZM164.179 1.55931C161.069 7.22693 156.05 11.608 150.014 13.9234L150.73 15.7908C157.208 13.3058 162.594 8.60399 165.932 2.52144L164.179 1.55931ZM150.081 13.9002C147.029 14.8264 143.86 15.3134 140.67 15.3465L140.691 17.3464C144.071 17.3114 147.428 16.7954 150.662 15.814L150.081 13.9002Z" fill="black" mask="url(#path-3-inside-2)"/>
<path d="M107.753 97.06L98.0202 69.3451L100.501 68.4741L110.233 96.1889L107.753 97.06Z" fill="#1D1D1B" stroke="black"/>
<mask id="path-6-inside-3" fill="white">
<path d="M98.3477 100.421C95.5324 100.483 92.7187 100.237 89.957 99.6865L90.6492 96.1205C96.5729 97.2141 102.672 96.8746 108.438 95.1303C114.204 93.386 119.468 90.2875 123.792 86.0936L126.351 88.6737C118.85 96.0331 108.813 100.237 98.3057 100.421"/>
</mask>
<path d="M98.3477 100.421C95.5324 100.483 92.7187 100.237 89.957 99.6865L90.6492 96.1205C96.5729 97.2141 102.672 96.8746 108.438 95.1303C114.204 93.386 119.468 90.2875 123.792 86.0936L126.351 88.6737C118.85 96.0331 108.813 100.237 98.3057 100.421" fill="#1D1D1B"/>
<path d="M89.957 99.6865L88.9754 99.4959L88.7858 100.473L89.7615 100.667L89.957 99.6865ZM90.6492 96.1205L90.8308 95.1371L89.8564 94.9572L89.6676 95.9299L90.6492 96.1205ZM123.792 86.0936L124.502 85.3894L123.806 84.6873L123.096 85.3758L123.792 86.0936ZM126.351 88.6737L127.052 89.3876L127.77 88.6834L127.061 87.9695L126.351 88.6737ZM98.3254 99.4209C95.5832 99.482 92.8425 99.2422 90.1526 98.7058L89.7615 100.667C92.5948 101.232 95.4816 101.485 98.37 101.42L98.3254 99.4209ZM90.9387 99.877L91.6309 96.311L89.6676 95.9299L88.9754 99.4959L90.9387 99.877ZM90.4677 97.1038C96.5482 98.2264 102.809 97.8779 108.728 96.0874L108.148 94.1731C102.535 95.8712 96.5976 96.2017 90.8308 95.1371L90.4677 97.1038ZM108.728 96.0874C114.646 94.2969 120.05 91.1164 124.489 86.8115L123.096 85.3758C118.887 89.4586 113.761 92.475 108.148 94.1731L108.728 96.0874ZM123.082 86.7978L125.641 89.378L127.061 87.9695L124.502 85.3894L123.082 86.7978ZM125.651 87.9599C118.332 95.1401 108.54 99.2417 98.2883 99.4208L98.3232 101.421C109.086 101.232 119.368 96.9261 127.052 89.3876L125.651 87.9599Z" fill="black" mask="url(#path-6-inside-3)"/>
<path d="M91.2891 64.8246C91.556 63.2809 92.2763 61.8515 93.3583 60.7186C94.4403 59.5857 95.8351 58.8005 97.365 58.463C98.8948 58.1256 100.491 58.2512 101.949 58.8239C103.407 59.3965 104.662 60.3902 105.553 61.6785C106.445 62.9668 106.932 64.4912 106.954 66.0577C106.976 67.6242 106.532 69.1618 105.677 70.4746C104.822 71.7873 103.595 72.8159 102.154 73.4292C100.712 74.0426 99.1207 74.2129 97.5819 73.9186C95.5505 73.53 93.7528 72.3593 92.5759 70.6584C91.399 68.9576 90.9369 66.8627 91.2891 64.8246Z" fill="#1D1D1B" stroke="black"/>
<mask id="path-9-inside-4" fill="white">
<path d="M99.1861 74.8502C98.6164 74.8535 98.0476 74.8043 97.487 74.7034C95.2359 74.2953 93.2375 73.0134 91.9281 71.1374C91.2835 70.2086 90.8292 69.1613 90.5916 68.056C90.3539 66.9506 90.3377 65.8092 90.5437 64.6975C90.834 63.0907 91.5746 61.5993 92.6794 60.397C93.7842 59.1946 95.2078 58.3308 96.7844 57.9059C98.361 57.481 100.026 57.5126 101.585 57.9969C103.145 58.4813 104.534 59.3986 105.593 60.6419C106.651 61.8853 107.335 63.4037 107.564 65.0204C107.793 66.6371 107.558 68.2856 106.887 69.7741C106.216 71.2627 105.136 72.53 103.772 73.4286C102.409 74.3272 100.819 74.8202 99.1861 74.8502ZM98.8714 58.2157C96.8801 58.2479 94.972 59.0204 93.5192 60.3828C92.0665 61.7452 91.1732 63.5998 91.0134 65.585C90.8537 67.5702 91.4389 69.5438 92.6551 71.121C93.8713 72.6981 95.6312 73.7659 97.5918 74.116C98.6918 74.3125 99.8207 74.2767 100.906 74.011C101.991 73.7454 103.009 73.2557 103.894 72.5733C104.779 71.891 105.511 71.0312 106.044 70.0491C106.577 69.067 106.898 67.9843 106.988 66.8706C107.078 65.7568 106.933 64.6366 106.564 63.5819C106.195 62.5273 105.61 61.5614 104.846 60.7464C104.081 59.9314 103.155 59.2852 102.126 58.8494C101.097 58.4136 99.9886 58.1977 98.8714 58.2157Z"/>
</mask>
<path d="M99.1861 74.8502C98.6164 74.8535 98.0476 74.8043 97.487 74.7034C95.2359 74.2953 93.2375 73.0134 91.9281 71.1374C91.2835 70.2086 90.8292 69.1613 90.5916 68.056C90.3539 66.9506 90.3377 65.8092 90.5437 64.6975C90.834 63.0907 91.5746 61.5993 92.6794 60.397C93.7842 59.1946 95.2078 58.3308 96.7844 57.9059C98.361 57.481 100.026 57.5126 101.585 57.9969C103.145 58.4813 104.534 59.3986 105.593 60.6419C106.651 61.8853 107.335 63.4037 107.564 65.0204C107.793 66.6371 107.558 68.2856 106.887 69.7741C106.216 71.2627 105.136 72.53 103.772 73.4286C102.409 74.3272 100.819 74.8202 99.1861 74.8502ZM98.8714 58.2157C96.8801 58.2479 94.972 59.0204 93.5192 60.3828C92.0665 61.7452 91.1732 63.5998 91.0134 65.585C90.8537 67.5702 91.4389 69.5438 92.6551 71.121C93.8713 72.6981 95.6312 73.7659 97.5918 74.116C98.6918 74.3125 99.8207 74.2767 100.906 74.011C101.991 73.7454 103.009 73.2557 103.894 72.5733C104.779 71.891 105.511 71.0312 106.044 70.0491C106.577 69.067 106.898 67.9843 106.988 66.8706C107.078 65.7568 106.933 64.6366 106.564 63.5819C106.195 62.5273 105.61 61.5614 104.846 60.7464C104.081 59.9314 103.155 59.2852 102.126 58.8494C101.097 58.4136 99.9886 58.1977 98.8714 58.2157Z" fill="#1D1D1B"/>
<path d="M97.487 74.7034L97.3086 75.6873L97.3098 75.6876L97.487 74.7034ZM91.9281 71.1374L91.1066 71.7076L91.1081 71.7097L91.9281 71.1374ZM90.5437 64.6975L91.527 64.8797L91.5278 64.8753L90.5437 64.6975ZM97.5918 74.116L97.416 75.1004L97.5918 74.116ZM99.1804 73.8502C98.672 73.8531 98.1645 73.8093 97.6641 73.7192L97.3098 75.6876C97.9308 75.7993 98.5608 75.8538 99.1917 75.8502L99.1804 73.8502ZM97.6653 73.7194C95.6741 73.3584 93.9064 72.2245 92.7482 70.565L91.1081 71.7097C92.5687 73.8023 94.7977 75.2322 97.3086 75.6873L97.6653 73.7194ZM92.7496 70.5671C92.1803 69.7469 91.7791 68.822 91.5692 67.8458L89.6139 68.2661C89.8793 69.5006 90.3866 70.6703 91.1066 71.7076L92.7496 70.5671ZM91.5692 67.8458C91.3594 66.8696 91.345 65.8615 91.527 64.8797L89.5604 64.5153C89.3304 65.7568 89.3485 67.0317 89.6139 68.2661L91.5692 67.8458ZM91.5278 64.8753C91.7844 63.4548 92.4391 62.1365 93.4158 61.0736L91.9431 59.7204C90.7101 61.0622 89.8836 62.7265 89.5596 64.5197L91.5278 64.8753ZM93.4158 61.0736C94.3924 60.0107 95.6508 59.247 97.0446 58.8714L96.5241 56.9403C94.7647 57.4145 93.176 58.3786 91.9431 59.7204L93.4158 61.0736ZM97.0446 58.8714C98.4383 58.4958 99.91 58.5237 101.289 58.9519L101.882 57.0419C100.142 56.5014 98.2836 56.4662 96.5241 56.9403L97.0446 58.8714ZM101.289 58.9519C102.667 59.3801 103.896 60.191 104.831 61.2901L106.354 59.9937C105.173 58.6061 103.622 57.5825 101.882 57.0419L101.289 58.9519ZM104.831 61.2901C105.767 62.3893 106.371 63.7315 106.574 65.1607L108.554 64.88C108.298 63.0758 107.535 61.3813 106.354 59.9937L104.831 61.2901ZM106.574 65.1607C106.776 66.5899 106.569 68.0472 105.975 69.3631L107.799 70.1852C108.548 68.524 108.81 66.6843 108.554 64.88L106.574 65.1607ZM105.975 69.3631C105.382 70.6789 104.427 71.7993 103.222 72.5937L104.323 74.2635C105.844 73.2607 107.05 71.8464 107.799 70.1852L105.975 69.3631ZM103.222 72.5937C102.017 73.3881 100.611 73.8239 99.1677 73.8504L99.2044 75.8501C101.026 75.8166 102.801 75.2664 104.323 74.2635L103.222 72.5937ZM98.8553 57.2159C96.6154 57.252 94.4692 58.121 92.8352 59.6534L94.2033 61.1123C95.4748 59.9199 97.1447 59.2437 98.8876 59.2156L98.8553 57.2159ZM92.8352 59.6534C91.2011 61.1858 90.1963 63.2718 90.0166 65.5048L92.0102 65.6652C92.15 63.9277 92.9319 62.3046 94.2033 61.1123L92.8352 59.6534ZM90.0166 65.5048C89.8369 67.7377 90.4952 69.9576 91.8632 71.7316L93.447 70.5103C92.3826 69.13 91.8704 67.4027 92.0102 65.6652L90.0166 65.5048ZM91.8632 71.7316C93.2312 73.5056 95.2108 74.7066 97.416 75.1004L97.7677 73.1316C96.0517 72.8251 94.5114 71.8907 93.447 70.5103L91.8632 71.7316ZM97.416 75.1004C98.6532 75.3214 99.923 75.2812 101.144 74.9824L100.668 73.0397C99.7183 73.2722 98.7303 73.3035 97.7677 73.1316L97.416 75.1004ZM101.144 74.9824C102.364 74.6835 103.509 74.1327 104.504 73.3652L103.283 71.7814C102.509 72.3786 101.618 72.8072 100.668 73.0397L101.144 74.9824ZM104.504 73.3652C105.5 72.5978 106.323 71.6306 106.923 70.526L105.165 69.5722C104.699 70.4318 104.058 71.1843 103.283 71.7814L104.504 73.3652ZM106.923 70.526C107.522 69.4213 107.884 68.2035 107.985 66.9508L105.991 66.7903C105.913 67.7651 105.631 68.7127 105.165 69.5722L106.923 70.526ZM107.985 66.9508C108.085 65.698 107.923 64.4381 107.508 63.2518L105.62 63.9121C105.943 64.8352 106.07 65.8156 105.991 66.7903L107.985 66.9508ZM107.508 63.2518C107.093 62.0655 106.435 60.9791 105.575 60.0623L104.116 61.4304C104.785 62.1437 105.297 62.9891 105.62 63.9121L107.508 63.2518ZM105.575 60.0623C104.715 59.1456 103.673 58.4188 102.516 57.9286L101.736 59.7702C102.637 60.1516 103.447 60.7171 104.116 61.4304L105.575 60.0623ZM102.516 57.9286C101.359 57.4384 100.112 57.1956 98.8553 57.2159L98.8876 59.2156C99.8653 59.1998 100.836 59.3887 101.736 59.7702L102.516 57.9286Z" fill="black" mask="url(#path-9-inside-4)"/>
</svg>
