<svg width="346" height="509" viewBox="0 0 346 509" fill="none" xmlns="http://www.w3.org/2000/svg">
<path d="M4.07188 243.7C2.60602 251.029 1.018 284.622 0.407227 300.502V508.427H341.22C349.16 454.068 352.947 182.133 304.574 126.431C289.915 104.443 249.604 80.6225 231.281 71.4608C225.417 53.8705 194.634 16.491 179.975 0L156.155 76.9578L88.359 95.2811C85.4273 90.8835 51.7124 59.2453 35.2215 43.9759C29.358 49.8393 25.4491 101.389 24.2275 126.431C-3.6239 158.68 -0.814326 218.047 4.07188 243.7Z" fill="white"/>
<mask id="path-2-inside-1" fill="white">
<path d="M81.0153 192.705C77.5752 192.705 75.1419 192.705 74.9111 192.601L75.1419 188.972C75.2887 188.972 89.6577 189.853 98.405 186.308C103.544 184.21 106.586 181.042 110.781 176.637L112.25 175.106L114.872 177.644L113.424 179.155C109.082 183.706 105.642 187.293 99.7684 189.643C93.7294 191.688 87.391 192.709 81.0153 192.663"/>
</mask>
<path d="M81.0153 192.705C77.5752 192.705 75.1419 192.705 74.9111 192.601L75.1419 188.972C75.2887 188.972 89.6577 189.853 98.405 186.308C103.544 184.21 106.586 181.042 110.781 176.637L112.25 175.106L114.872 177.644L113.424 179.155C109.082 183.706 105.642 187.293 99.7684 189.643C93.7294 191.688 87.391 192.709 81.0153 192.663" fill="#1D1D1B"/>
<path d="M74.9111 192.601L73.9131 192.537L73.8694 193.226L74.4973 193.511L74.9111 192.601ZM75.1419 188.972V187.972H74.2034L74.1439 188.908L75.1419 188.972ZM98.405 186.308L98.7806 187.234L98.7829 187.233L98.405 186.308ZM110.781 176.637L110.059 175.945L110.057 175.948L110.781 176.637ZM112.25 175.106L112.945 174.388L112.223 173.689L111.528 174.414L112.25 175.106ZM114.872 177.644L115.594 178.336L116.282 177.618L115.567 176.926L114.872 177.644ZM113.424 179.155L112.702 178.463L112.701 178.464L113.424 179.155ZM99.7684 189.643L100.089 190.59L100.115 190.581L100.14 190.571L99.7684 189.643ZM81.0153 191.705C79.2926 191.705 77.8316 191.705 76.772 191.692C76.2411 191.686 75.8218 191.676 75.5254 191.662C75.3758 191.655 75.2705 191.648 75.2033 191.641C75.1691 191.637 75.1573 191.635 75.1607 191.636C75.1628 191.636 75.1766 191.638 75.1981 191.644C75.2156 191.649 75.2637 191.662 75.3249 191.69L74.4973 193.511C74.629 193.571 74.753 193.594 74.7991 193.603C74.8652 193.615 74.9327 193.623 74.9939 193.63C75.1173 193.643 75.2669 193.652 75.4316 193.66C75.7638 193.676 76.2111 193.686 76.7474 193.692C77.8222 193.705 79.2979 193.705 81.0153 193.705V191.705ZM75.9091 192.664L76.1399 189.035L74.1439 188.908L73.9131 192.537L75.9091 192.664ZM75.1419 189.972C75.1263 189.972 78.8692 190.192 83.5956 189.968C88.3237 189.744 94.2435 189.073 98.7806 187.234L98.0294 185.381C93.8192 187.087 88.1809 187.748 83.5009 187.97C78.8193 188.192 75.3043 187.972 75.1419 187.972V189.972ZM98.7829 187.233C104.147 185.044 107.322 181.719 111.505 177.327L110.057 175.948C105.849 180.366 102.942 183.376 98.0271 185.382L98.7829 187.233ZM111.503 177.329L112.971 175.798L111.528 174.414L110.059 175.945L111.503 177.329ZM111.554 175.825L114.176 178.363L115.567 176.926L112.945 174.388L111.554 175.825ZM114.15 176.952L112.702 178.463L114.146 179.846L115.594 178.336L114.15 176.952ZM112.701 178.464C108.35 183.025 105.044 186.456 99.397 188.714L100.14 190.571C106.24 188.131 109.814 184.388 114.148 179.845L112.701 178.464ZM99.4477 188.696C93.5143 190.705 87.2867 191.708 81.0224 191.664L81.0082 193.663C87.4954 193.71 93.9446 192.671 100.089 190.59L99.4477 188.696Z" fill="black" mask="url(#path-2-inside-1)"/>
<mask id="path-4-inside-2" fill="white">
<path d="M214.681 155.346C209.877 155.368 205.091 154.776 200.438 153.584L201.298 150.039C210.087 152.137 217.282 152.263 223.26 150.375C228.601 148.245 233.045 144.342 235.846 139.32L239.055 141.04C235.832 146.915 230.629 151.457 224.372 153.857C221.228 154.811 217.965 155.312 214.681 155.346Z"/>
</mask>
<path d="M214.681 155.346C209.877 155.368 205.091 154.776 200.438 153.584L201.298 150.039C210.087 152.137 217.282 152.263 223.26 150.375C228.601 148.245 233.045 144.342 235.846 139.32L239.055 141.04C235.832 146.915 230.629 151.457 224.372 153.857C221.228 154.811 217.965 155.312 214.681 155.346Z" fill="#1D1D1B"/>
<path d="M200.438 153.584L199.466 153.349L199.233 154.308L200.189 154.553L200.438 153.584ZM201.298 150.039L201.53 149.067L200.561 148.835L200.326 149.804L201.298 150.039ZM223.26 150.375L223.561 151.329L223.596 151.317L223.63 151.304L223.26 150.375ZM235.846 139.32L236.318 138.439L235.452 137.974L234.973 138.833L235.846 139.32ZM239.055 141.04L239.932 141.521L240.418 140.636L239.528 140.159L239.055 141.04ZM224.372 153.857L224.662 154.814L224.696 154.804L224.73 154.791L224.372 153.857ZM214.676 154.346C209.958 154.368 205.256 153.786 200.686 152.616L200.189 154.553C204.925 155.766 209.797 156.369 214.685 156.346L214.676 154.346ZM201.409 153.82L202.269 150.275L200.326 149.804L199.466 153.349L201.409 153.82ZM201.065 151.012C209.955 153.134 217.348 153.29 223.561 151.329L222.959 149.421C217.215 151.235 210.219 151.14 201.53 149.067L201.065 151.012ZM223.63 151.304C229.185 149.089 233.807 145.029 236.719 139.807L234.973 138.833C232.284 143.654 228.017 147.402 222.89 149.446L223.63 151.304ZM235.374 140.202L238.583 141.922L239.528 140.159L236.318 138.439L235.374 140.202ZM238.179 140.559C235.069 146.227 230.05 150.608 224.014 152.923L224.73 154.791C231.208 152.306 236.594 147.604 239.932 141.521L238.179 140.559ZM224.081 152.9C221.029 153.826 217.86 154.313 214.67 154.347L214.691 156.346C218.071 156.311 221.428 155.795 224.662 154.814L224.081 152.9Z" fill="black" mask="url(#path-4-inside-2)"/>
<path d="M181.753 236.06L172.02 208.345L174.501 207.474L184.233 235.189L181.753 236.06Z" fill="#1D1D1B" stroke="black"/>
<mask id="path-7-inside-3" fill="white">
<path d="M172.349 239.421C169.533 239.483 166.72 239.237 163.958 238.686L164.65 235.12C170.574 236.214 176.673 235.875 182.439 234.13C188.205 232.386 193.469 229.288 197.793 225.094L200.352 227.674C192.851 235.033 182.814 239.237 172.307 239.421"/>
</mask>
<path d="M172.349 239.421C169.533 239.483 166.72 239.237 163.958 238.686L164.65 235.12C170.574 236.214 176.673 235.875 182.439 234.13C188.205 232.386 193.469 229.288 197.793 225.094L200.352 227.674C192.851 235.033 182.814 239.237 172.307 239.421" fill="#1D1D1B"/>
<path d="M163.958 238.686L162.976 238.496L162.787 239.473L163.762 239.667L163.958 238.686ZM164.65 235.12L164.832 234.137L163.857 233.957L163.669 234.93L164.65 235.12ZM197.793 225.094L198.503 224.389L197.807 223.687L197.097 224.376L197.793 225.094ZM200.352 227.674L201.053 228.388L201.771 227.683L201.062 226.97L200.352 227.674ZM172.326 238.421C169.584 238.482 166.844 238.242 164.154 237.706L163.762 239.667C166.596 240.232 169.483 240.485 172.371 240.42L172.326 238.421ZM164.94 238.877L165.632 235.311L163.669 234.93L162.976 238.496L164.94 238.877ZM164.469 236.104C170.549 237.226 176.81 236.878 182.728 235.087L182.149 233.173C176.536 234.871 170.599 235.202 164.832 234.137L164.469 236.104ZM182.728 235.087C188.647 233.297 194.051 230.116 198.49 225.811L197.097 224.376C192.888 228.459 187.762 231.475 182.149 233.173L182.728 235.087ZM197.083 225.798L199.642 228.378L201.062 226.97L198.503 224.389L197.083 225.798ZM199.652 226.96C192.333 234.14 182.541 238.242 172.289 238.421L172.324 240.421C183.087 240.232 193.369 235.926 201.053 228.388L199.652 226.96Z" fill="black" mask="url(#path-7-inside-3)"/>
<path d="M165.29 203.825C165.557 202.281 166.277 200.852 167.359 199.719C168.441 198.586 169.836 197.8 171.366 197.463C172.896 197.126 174.491 197.251 175.95 197.824C177.408 198.396 178.663 199.39 179.554 200.679C180.446 201.967 180.933 203.491 180.955 205.058C180.977 206.624 180.533 208.162 179.678 209.475C178.823 210.787 177.596 211.816 176.155 212.429C174.713 213.043 173.122 213.213 171.583 212.919C169.551 212.53 167.754 211.359 166.577 209.658C165.4 207.958 164.938 205.863 165.29 203.825Z" fill="#1D1D1B" stroke="black"/>
<mask id="path-10-inside-4" fill="white">
<path d="M173.186 213.85C172.616 213.853 172.048 213.804 171.487 213.703C169.236 213.295 167.238 212.013 165.928 210.137C165.283 209.209 164.829 208.161 164.592 207.056C164.354 205.951 164.338 204.809 164.544 203.698C164.834 202.091 165.575 200.599 166.679 199.397C167.784 198.195 169.208 197.331 170.784 196.906C172.361 196.481 174.026 196.513 175.585 196.997C177.145 197.481 178.534 198.399 179.593 199.642C180.651 200.885 181.335 202.404 181.564 204.02C181.793 205.637 181.558 207.286 180.887 208.774C180.216 210.263 179.136 211.53 177.772 212.429C176.409 213.327 174.819 213.82 173.186 213.85ZM172.871 197.216C170.88 197.248 168.972 198.02 167.519 199.383C166.066 200.745 165.173 202.6 165.013 204.585C164.854 206.57 165.439 208.544 166.655 210.121C167.871 211.698 169.631 212.766 171.592 213.116C172.692 213.312 173.821 213.277 174.906 213.011C175.991 212.745 177.009 212.256 177.894 211.573C178.779 210.891 179.511 210.031 180.044 209.049C180.577 208.067 180.898 206.984 180.988 205.871C181.078 204.757 180.933 203.637 180.564 202.582C180.195 201.527 179.61 200.561 178.846 199.746C178.081 198.931 177.155 198.285 176.126 197.849C175.097 197.414 173.989 197.198 172.871 197.216Z"/>
</mask>
<path d="M173.186 213.85C172.616 213.853 172.048 213.804 171.487 213.703C169.236 213.295 167.238 212.013 165.928 210.137C165.283 209.209 164.829 208.161 164.592 207.056C164.354 205.951 164.338 204.809 164.544 203.698C164.834 202.091 165.575 200.599 166.679 199.397C167.784 198.195 169.208 197.331 170.784 196.906C172.361 196.481 174.026 196.513 175.585 196.997C177.145 197.481 178.534 198.399 179.593 199.642C180.651 200.885 181.335 202.404 181.564 204.02C181.793 205.637 181.558 207.286 180.887 208.774C180.216 210.263 179.136 211.53 177.772 212.429C176.409 213.327 174.819 213.82 173.186 213.85ZM172.871 197.216C170.88 197.248 168.972 198.02 167.519 199.383C166.066 200.745 165.173 202.6 165.013 204.585C164.854 206.57 165.439 208.544 166.655 210.121C167.871 211.698 169.631 212.766 171.592 213.116C172.692 213.312 173.821 213.277 174.906 213.011C175.991 212.745 177.009 212.256 177.894 211.573C178.779 210.891 179.511 210.031 180.044 209.049C180.577 208.067 180.898 206.984 180.988 205.871C181.078 204.757 180.933 203.637 180.564 202.582C180.195 201.527 179.61 200.561 178.846 199.746C178.081 198.931 177.155 198.285 176.126 197.849C175.097 197.414 173.989 197.198 172.871 197.216Z" fill="#1D1D1B"/>
<path d="M171.487 213.703L171.309 214.687L171.31 214.688L171.487 213.703ZM165.928 210.137L165.107 210.708L165.108 210.71L165.928 210.137ZM164.544 203.698L165.527 203.88L165.528 203.875L164.544 203.698ZM171.592 213.116L171.416 214.1L171.592 213.116ZM173.18 212.85C172.672 212.853 172.164 212.809 171.664 212.719L171.31 214.688C171.931 214.799 172.561 214.854 173.192 214.85L173.18 212.85ZM171.665 212.719C169.674 212.358 167.906 211.224 166.748 209.565L165.108 210.71C166.569 212.802 168.798 214.232 171.309 214.687L171.665 212.719ZM166.75 209.567C166.18 208.747 165.779 207.822 165.569 206.846L163.614 207.266C163.879 208.501 164.387 209.67 165.107 210.708L166.75 209.567ZM165.569 206.846C165.359 205.87 165.345 204.862 165.527 203.88L163.56 203.515C163.33 204.757 163.348 206.032 163.614 207.266L165.569 206.846ZM165.528 203.875C165.784 202.455 166.439 201.136 167.416 200.074L165.943 198.72C164.71 200.062 163.884 201.727 163.56 203.52L165.528 203.875ZM167.416 200.074C168.392 199.011 169.651 198.247 171.045 197.871L170.524 195.94C168.765 196.414 167.176 197.379 165.943 198.72L167.416 200.074ZM171.045 197.871C172.438 197.496 173.91 197.524 175.289 197.952L175.882 196.042C174.142 195.501 172.284 195.466 170.524 195.94L171.045 197.871ZM175.289 197.952C176.667 198.38 177.896 199.191 178.831 200.29L180.354 198.994C179.173 197.606 177.622 196.582 175.882 196.042L175.289 197.952ZM178.831 200.29C179.767 201.389 180.371 202.732 180.574 204.161L182.554 203.88C182.298 202.076 181.535 200.381 180.354 198.994L178.831 200.29ZM180.574 204.161C180.776 205.59 180.569 207.047 179.975 208.363L181.799 209.185C182.548 207.524 182.81 205.684 182.554 203.88L180.574 204.161ZM179.975 208.363C179.382 209.679 178.427 210.799 177.222 211.594L178.323 213.264C179.844 212.261 181.05 210.846 181.799 209.185L179.975 208.363ZM177.222 211.594C176.017 212.388 174.611 212.824 173.168 212.85L173.204 214.85C175.026 214.817 176.801 214.266 178.323 213.264L177.222 211.594ZM172.855 196.216C170.615 196.252 168.469 197.121 166.835 198.653L168.203 200.112C169.475 198.92 171.145 198.244 172.888 198.216L172.855 196.216ZM166.835 198.653C165.201 200.186 164.196 202.272 164.017 204.505L166.01 204.665C166.15 202.928 166.932 201.305 168.203 200.112L166.835 198.653ZM164.017 204.505C163.837 206.738 164.495 208.958 165.863 210.732L167.447 209.51C166.383 208.13 165.87 206.403 166.01 204.665L164.017 204.505ZM165.863 210.732C167.231 212.506 169.211 213.707 171.416 214.1L171.768 212.132C170.052 211.825 168.511 210.891 167.447 209.51L165.863 210.732ZM171.416 214.1C172.653 214.321 173.923 214.281 175.144 213.982L174.668 212.04C173.718 212.272 172.73 212.304 171.768 212.132L171.416 214.1ZM175.144 213.982C176.364 213.684 177.509 213.133 178.504 212.365L177.283 210.781C176.509 211.379 175.618 211.807 174.668 212.04L175.144 213.982ZM178.504 212.365C179.5 211.598 180.323 210.631 180.923 209.526L179.165 208.572C178.699 209.432 178.058 210.184 177.283 210.781L178.504 212.365ZM180.923 209.526C181.522 208.421 181.884 207.204 181.985 205.951L179.991 205.79C179.913 206.765 179.631 207.713 179.165 208.572L180.923 209.526ZM181.985 205.951C182.085 204.698 181.923 203.438 181.508 202.252L179.62 202.912C179.943 203.835 180.07 204.816 179.991 205.79L181.985 205.951ZM181.508 202.252C181.093 201.065 180.435 199.979 179.575 199.062L178.116 200.43C178.785 201.144 179.297 201.989 179.62 202.912L181.508 202.252ZM179.575 199.062C178.715 198.146 177.673 197.419 176.516 196.929L175.736 198.77C176.637 199.152 177.447 199.717 178.116 200.43L179.575 199.062ZM176.516 196.929C175.359 196.438 174.112 196.196 172.855 196.216L172.888 198.216C173.865 198.2 174.836 198.389 175.736 198.77L176.516 196.929Z" fill="black" mask="url(#path-10-inside-4)"/>
</svg>
