<svg width="1440" height="302" viewBox="0 0 1440 302" fill="none" xmlns="http://www.w3.org/2000/svg">
<path opacity="0.7" d="M1440 302L0 288.805V98.0185L17.8882 49.0093L38.5 115.956L56.3882 72.5714L77 145.143L95.5 56.0799L124 141.208L144.205 56.0799L174.41 145.143L221 52.0512L245.963 145.143L305.5 58.7509L330.932 145.143L373.957 46.2981L389.068 139.608L449.981 46.2981L453.913 158.458L501.41 46.2981L516.522 124.528L564.261 54.7371L587.5 124.528L640.286 65.0443L668.571 145.143L720 79.1688L766 145.143L806 58.7509L855 127.294L879.5 58.7509L906 135.024L922.5 46.7887L936 179.072L999.503 85.0704L1041.75 179.072L1098 79.1688L1151.55 194.152L1185.75 102.085L1279.01 174.968L1366.21 0L1341.61 188.891L1390.81 79.1688L1440 273.321V302Z" fill="#D1E49B"/>
</svg>
