<svg width="276" height="95" viewBox="0 0 276 95" fill="none" xmlns="http://www.w3.org/2000/svg">
<path d="M274.609 60.4114C274.17 60.8552 273.646 61.2056 273.068 61.4416C272.491 61.6777 271.871 61.7944 271.247 61.7848C270.628 61.7896 270.014 61.6715 269.441 61.4373C268.868 61.2031 268.347 60.8574 267.908 60.4204C267.469 59.9834 267.122 59.4637 266.885 58.8914C266.649 58.3191 266.528 57.7055 266.531 57.0863C266.521 56.4597 266.637 55.8374 266.873 55.2568C267.109 54.6762 267.46 54.1491 267.904 53.707C268.337 53.2597 268.857 52.9055 269.432 52.6662C270.007 52.4269 270.625 52.3076 271.247 52.3156C271.873 52.3156 272.493 52.4391 273.07 52.6791C273.648 52.919 274.173 53.2707 274.614 53.714C275.056 54.1572 275.406 54.6833 275.644 55.262C275.881 55.8407 276.002 56.4607 276 57.0863C276.008 57.7062 275.888 58.3211 275.649 58.893C275.409 59.4649 275.055 59.9817 274.609 60.4114ZM274.247 54.0865C273.858 53.6871 273.393 53.3696 272.88 53.1528C272.366 52.936 271.814 52.8243 271.256 52.8243C270.699 52.8243 270.147 52.936 269.633 53.1528C269.12 53.3696 268.655 53.6871 268.266 54.0865C267.864 54.4742 267.548 54.941 267.336 55.4574C267.125 55.9738 267.023 56.5285 267.037 57.0863C267.037 57.6384 267.146 58.1851 267.358 58.6949C267.57 59.2047 267.88 59.6677 268.271 60.0573C268.662 60.4468 269.127 60.7552 269.637 60.9649C270.148 61.1745 270.695 61.2812 271.247 61.2788C272.366 61.2836 273.441 60.8452 274.236 60.0595C275.032 59.2737 275.485 58.2047 275.494 57.0863C275.5 56.5279 275.393 55.974 275.179 55.4583C274.964 54.9427 274.647 54.4759 274.247 54.0865ZM273.705 59.5078C273.515 59.6227 273.295 59.6792 273.073 59.6705C272.997 59.6757 272.921 59.6656 272.85 59.6407C272.779 59.6159 272.713 59.5768 272.657 59.5259C272.446 59.2935 272.308 59.0046 272.259 58.6946L272.115 58.1887C272.097 58.051 272.052 57.9184 271.982 57.7987C271.912 57.6789 271.818 57.5746 271.707 57.4919C271.596 57.4092 271.469 57.3499 271.334 57.3174C271.199 57.285 271.059 57.2802 270.922 57.3032H269.946V59.5801H269.368V54.3214H271.175C272.476 54.3214 273.127 54.7732 273.127 55.7129C273.129 55.9018 273.093 56.0893 273.021 56.2638C272.949 56.4384 272.842 56.5965 272.707 56.7283C272.572 56.8602 272.411 56.9632 272.235 57.0309C272.058 57.0987 271.87 57.1298 271.681 57.1225C272.314 57.2128 272.567 57.6104 272.729 58.2429V58.532C272.838 58.9838 273 59.2187 273.199 59.2187C273.32 59.2075 273.437 59.1705 273.542 59.1103L273.705 59.5078ZM271.338 54.8094H269.946V56.8695H271.012C272.061 56.8695 272.512 56.5442 272.512 55.8033C272.512 55.0624 272.115 54.8094 271.338 54.8094Z" fill="#00754A"/>
<path d="M219.311 42.9548L219.04 42.7018L218.57 43.3704L219.311 42.9548Z" fill="#6CC9F1"/>
<g style="mix-blend-mode:multiply">
<g style="mix-blend-mode:multiply">
<g style="mix-blend-mode:multiply">
<path d="M13.6083 67.1338L17.8911 67.3868L18.379 68.1819L14.819 67.8567L12.6505 71.8504L12.1987 71.1095L14.0781 67.7844L12.8131 67.6398L10.8072 68.9048L10.3916 68.2723L16.1563 64.64L16.5538 65.2725L13.6083 67.1338Z" fill="#00754A"/>
</g>
<g style="mix-blend-mode:multiply">
<path d="M19.6638 69.7363L20.3143 70.4953L16.2845 76.3323L15.7604 75.6817L16.917 74.0192L15.5616 72.3928L13.7545 73.2602L13.2305 72.6096L19.6638 69.7363ZM19.5553 70.4592L16.2122 72.0856L17.3507 73.477L19.5553 70.4592Z" fill="#00754A"/>
</g>
<g style="mix-blend-mode:multiply">
<path d="M22.0662 72.3927L20.8916 73.6577C20.2591 74.3263 20.2952 74.6877 21 75.3564C21.2728 75.6235 21.5692 75.8654 21.8855 76.0792L23.801 74.0191L24.3612 74.5432L19.6989 79.6211L19.1748 79.0248L21.4518 76.6033C21.1054 76.3511 20.7736 76.0796 20.4578 75.7901C20.2441 75.6567 20.0655 75.474 19.9371 75.2572C19.8087 75.0405 19.7343 74.796 19.7202 74.5445C19.706 74.293 19.7525 74.0417 19.8557 73.8119C19.9589 73.5821 20.1159 73.3805 20.3133 73.224L21.5602 71.9048L22.0662 72.3927Z" fill="#00754A"/>
</g>
<g style="mix-blend-mode:multiply">
<path d="M28.0286 77.2719L27.631 77.8321L25.4625 76.278L24.1795 78.0851L26.2034 79.5308L25.8059 80.091L23.7819 78.6272L22.3001 80.7054L24.4686 82.2776L24.071 82.8197L21.2881 80.8138L25.2637 75.2841L28.0286 77.2719Z" fill="#00754A"/>
</g>
<g style="mix-blend-mode:multiply">
<path d="M30.5778 81.0306C30.9754 80.3078 31.0476 79.585 30.2164 79.2235C29.0598 78.6091 28.1743 80.2355 27.7406 81.0306C27.0901 82.2414 26.3853 83.7052 27.4876 84.3015C28.59 84.8978 28.8791 84.1208 29.4935 83.163L30.1622 83.5245C29.3309 84.8617 28.4996 85.6026 27.2166 84.9159C25.4095 83.9762 26.2769 82.0968 27.0359 80.6692C27.7949 79.2416 28.843 77.7598 30.6501 78.6453C30.8805 78.7811 31.0803 78.9633 31.2367 79.1803C31.3931 79.3972 31.5028 79.6443 31.5589 79.9059C31.6149 80.1674 31.6161 80.4378 31.5623 80.6998C31.5085 80.9619 31.401 81.2099 31.2464 81.4282L30.5778 81.0306Z" fill="#00754A"/>
</g>
<g style="mix-blend-mode:multiply">
<path d="M32.4216 87.0119L31.7168 86.7408L33.9215 81.0123L32.277 80.3798L32.5119 79.7292L36.5237 81.2834L36.2707 81.9158L34.6262 81.2834L32.4216 87.0119Z" fill="#00754A"/>
</g>
<g style="mix-blend-mode:multiply">
<path d="M37.0819 81.4281L38.8891 81.8618C39.1315 81.8802 39.3666 81.9533 39.5767 82.0756C39.7869 82.1979 39.9665 82.3663 40.1022 82.5681C40.2379 82.7699 40.326 82.9998 40.36 83.2405C40.3941 83.4813 40.3731 83.7266 40.2986 83.9581C40.2559 84.281 40.0998 84.5783 39.8581 84.7968C39.6165 85.0152 39.305 85.1407 38.9794 85.1507C39.2933 85.3193 39.5389 85.5917 39.6741 85.9214C39.8092 86.251 39.8256 86.6174 39.7203 86.9578C39.6791 87.2179 39.5815 87.4659 39.4344 87.6843C39.2873 87.9027 39.0942 88.0863 38.8687 88.2223C38.6432 88.3583 38.3907 88.4434 38.1289 88.4715C37.8671 88.4997 37.6023 88.4703 37.353 88.3855L35.5459 87.9337L37.0819 81.4281ZM36.3591 87.5542L37.4434 87.8253C38.2385 88.024 38.6903 87.8253 38.8891 86.8675C38.9582 86.7081 38.9888 86.5346 38.9782 86.3612C38.9676 86.1878 38.9161 86.0194 38.828 85.8696C38.7399 85.7199 38.6177 85.593 38.4713 85.4995C38.3249 85.406 38.1584 85.3484 37.9855 85.3315L36.9554 85.0423L36.3591 87.5542ZM37.1181 84.4098L38.0397 84.6447C38.7626 84.8255 39.2505 84.6447 39.4493 83.8135C39.5073 83.6748 39.5313 83.5243 39.5191 83.3745C39.5069 83.2247 39.459 83.0799 39.3793 82.9525C39.2997 82.825 39.1906 82.7185 39.0613 82.642C38.9319 82.5654 38.7861 82.5209 38.636 82.5124L37.6602 82.2594L37.1181 84.4098Z" fill="#00754A"/>
</g>
<g style="mix-blend-mode:multiply">
<path d="M41.1494 85.8738C41.3121 84.3016 41.7638 82.368 43.7336 82.5849C45.7033 82.8017 45.7756 84.7715 45.5407 86.3256C45.36 88.1327 44.9263 89.9398 42.9384 89.6506C40.9506 89.3615 40.8783 87.7351 41.1313 85.8738H41.1494ZM43.6432 83.2354C42.4867 83.127 42.0891 84.2835 41.9445 85.8015C41.7457 87.7712 41.8361 88.8374 43.083 88.9639C44.3299 89.0904 44.6552 88.0785 44.8901 86.1087C45.0347 84.5907 44.8901 83.3619 43.6794 83.2354" fill="#00754A"/>
</g>
<g style="mix-blend-mode:multiply">
<path d="M52.3702 84.6446C52.3702 83.8134 51.9545 83.1809 51.0148 83.2712C49.6956 83.3977 49.8763 85.259 49.9667 86.1445C50.0932 87.5179 50.3281 89.1082 51.575 88.9998C52.5509 88.8913 52.6231 88.0781 52.6051 86.9397H53.346C53.346 88.5118 53.1472 89.5961 51.7015 89.7407C49.6956 89.9394 49.3342 87.9336 49.1716 86.3072C49.0089 84.6808 49.1716 82.8375 50.9787 82.6929C51.2542 82.6647 51.5327 82.6953 51.7955 82.783C52.0583 82.8706 52.2994 83.0132 52.5028 83.2012C52.7062 83.3893 52.8673 83.6185 52.9753 83.8736C53.0833 84.1287 53.1357 84.4038 53.1291 84.6808L52.3702 84.6446Z" fill="#00754A"/>
</g>
<g style="mix-blend-mode:multiply">
<path d="M57.7748 83.2353L56.3833 83.6509L56.2207 83.0726C57.1604 82.7835 57.6122 82.4763 57.4134 81.4281L57.9736 81.2474L59.9072 87.7892L59.1844 88.006L57.7748 83.2353Z" fill="#00754A"/>
</g>
<g style="mix-blend-mode:multiply">
<path d="M64.3534 82.1511C64.9136 83.4522 65.8533 85.6388 64.0462 86.4339C63.8518 86.5337 63.638 86.5904 63.4197 86.6C63.2013 86.6096 62.9834 86.572 62.7809 86.4896C62.5785 86.4072 62.3962 86.2821 62.2465 86.1228C62.0969 85.9635 61.9834 85.7737 61.9138 85.5665L62.6186 85.2773C62.6485 85.4016 62.7073 85.5171 62.7902 85.6144C62.8731 85.7117 62.9777 85.7881 63.0957 85.8374C63.2136 85.8867 63.3415 85.9075 63.469 85.8981C63.5965 85.8887 63.7199 85.8494 63.8294 85.7833C64.7148 85.3858 64.1908 83.8317 63.8294 82.8739C63.8305 83.1431 63.7545 83.407 63.6104 83.6343C63.4663 83.8617 63.2601 84.0431 63.0162 84.1569C62.786 84.2289 62.5438 84.254 62.3038 84.231C62.0638 84.2079 61.8309 84.137 61.6187 84.0225C61.4065 83.9079 61.2194 83.7521 61.0683 83.5642C60.9173 83.3762 60.8054 83.16 60.7392 82.9281C60.179 81.5909 60.5224 80.4343 61.4621 80.0187C63.1427 79.2958 63.9558 80.868 64.5161 82.1511H64.3534ZM61.7693 80.6331C60.9741 80.9764 61.1368 81.8619 61.4078 82.4402C61.6789 83.0185 62.1849 83.7774 62.9981 83.4341C63.8113 83.0907 63.739 82.3498 63.4499 81.627C63.1607 80.9041 62.6005 80.1452 61.7693 80.5066" fill="#00754A"/>
</g>
<g style="mix-blend-mode:multiply">
<path d="M66.2851 80.9039C67.044 80.4522 67.3693 79.9642 66.9175 79.1872C66.4658 78.4101 66.1405 78.3378 65.5261 78.6993C64.9117 79.0607 65.0201 79.7293 65.3634 80.3437L64.749 80.7052C64.5983 80.5049 64.4908 80.2754 64.4336 80.0314C64.3763 79.7873 64.3704 79.5341 64.4163 79.2876C64.4622 79.0412 64.5588 78.807 64.7001 78.5999C64.8414 78.3929 65.0242 78.2175 65.2369 78.0849C65.4235 77.9586 65.6351 77.8739 65.8573 77.8365C66.0794 77.7991 66.3071 77.8099 66.5247 77.8682C66.7423 77.9264 66.9449 78.0308 67.1187 78.1742C67.2925 78.3176 67.4334 78.4966 67.532 78.6993C67.7223 78.9678 67.8153 79.2933 67.7956 79.6219C67.7759 79.9505 67.6446 80.2625 67.4235 80.5064C67.7936 80.3889 68.194 80.4126 68.5477 80.5727C68.9013 80.7329 69.1832 81.0182 69.3391 81.3738C69.4908 81.583 69.5959 81.8223 69.6472 82.0756C69.6986 82.3288 69.695 82.5901 69.6368 82.8419C69.5786 83.0937 69.467 83.3301 69.3096 83.535C69.1523 83.74 68.9528 83.9089 68.7246 84.0302C67.6042 84.6989 66.6465 84.1748 66.0321 83.0905L66.6645 82.711C67.044 83.3616 67.5862 83.9218 68.4717 83.452C68.6115 83.3775 68.7334 83.2732 68.8286 83.1466C68.9239 83.0199 68.9902 82.8739 69.0229 82.7189C69.0556 82.5638 69.054 82.4035 69.0181 82.2492C68.9821 82.0948 68.9128 81.9502 68.815 81.8256C68.2187 80.7955 67.7127 80.8316 66.7188 81.4099L66.2851 80.9039Z" fill="#00754A"/>
</g>
<g style="mix-blend-mode:multiply">
<path d="M70.2612 78.5548C69.9441 78.7022 69.5837 78.7265 69.2497 78.6229C68.9158 78.5194 68.6322 78.2955 68.4541 77.9946C68.1905 77.6375 68.0795 77.1904 68.1456 76.7515C68.2117 76.3127 68.4494 75.918 68.8065 75.6544C69.1635 75.3908 69.6107 75.2798 70.0496 75.3459C70.4884 75.412 70.8831 75.6497 71.1467 76.0068C71.3584 76.2603 71.4744 76.5801 71.4744 76.9103C71.4744 77.2406 71.3584 77.5604 71.1467 77.8139C71.5117 77.6555 71.9225 77.638 72.2997 77.7648C72.6768 77.8917 72.9936 78.1538 73.1887 78.5006C73.3727 78.6879 73.5136 78.913 73.6018 79.1603C73.6899 79.4077 73.7231 79.6712 73.699 79.9326C73.6749 80.1941 73.5941 80.4471 73.4623 80.6742C73.3305 80.9012 73.1508 81.0969 72.9357 81.2474C72.7322 81.4131 72.4951 81.5325 72.2408 81.5972C71.9865 81.662 71.7211 81.6706 71.4632 81.6225C71.2052 81.5743 70.9608 81.4705 70.747 81.3184C70.5332 81.1662 70.3551 80.9694 70.2251 80.7414C69.9628 80.434 69.8188 80.0431 69.8188 79.6391C69.8188 79.235 69.9628 78.8442 70.2251 78.5367L70.2612 78.5548ZM69.1769 77.597C69.5745 78.1211 70.0443 78.3199 70.5503 77.9404C71.0563 77.5609 70.9298 77.0368 70.5503 76.567C70.1708 76.0971 69.7191 75.8622 69.2131 76.2417C68.7071 76.6212 68.7613 77.0911 69.2131 77.597H69.1769ZM71.0202 80.2535C71.5081 80.886 72.0322 81.2293 72.7189 80.7053C73.4056 80.1812 73.2249 79.6029 72.7189 78.8982C72.2129 78.1934 71.6707 77.9765 71.0383 78.4464C70.4058 78.9162 70.6045 79.6571 71.0383 80.2535" fill="#00754A"/>
</g>
<g style="mix-blend-mode:multiply">
<path d="M7.91647 45.1054L4.51911 42.2501L4.5914 41.2743L7.35627 43.75L11.621 41.7803L11.5488 42.6838L7.91647 44.2741L8.87424 45.1776L11.3319 45.3764L11.2596 46.1535L4.24805 45.5933L4.32033 44.7982L7.91647 45.1054Z" fill="#00754A"/>
</g>
<g style="mix-blend-mode:multiply">
<path d="M11.9457 40.4247L11.765 41.1837L4.91602 39.6477L5.33165 37.7321C5.34396 37.4504 5.42205 37.1754 5.55969 36.9292C5.69732 36.683 5.89067 36.4724 6.12426 36.3144C6.35786 36.1563 6.62521 36.0551 6.90493 36.0189C7.18464 35.9826 7.46894 36.0124 7.7351 36.1057C9.32535 36.4672 9.5422 37.5334 9.25307 38.7622L9.03622 39.7742L11.9457 40.4247ZM8.33145 39.6115L8.49409 38.8706C8.72901 37.8225 8.71094 37.0635 7.53632 36.9009C6.3617 36.7382 6.16292 37.1539 5.96413 38.0755L5.74728 39.0333L8.33145 39.6115Z" fill="#00754A"/>
</g>
<g style="mix-blend-mode:multiply">
<path d="M6.63281 33.0883L6.97616 32.1124L14.2046 32.6546L13.9155 33.4497L11.9457 33.287L11.1867 35.3833L12.9938 36.5579L12.7047 37.3711L6.63281 33.0883ZM7.33758 32.8172L10.5542 34.9496L11.1867 33.1425L7.33758 32.8172Z" fill="#00754A"/>
</g>
<g style="mix-blend-mode:multiply">
<path d="M11.7299 26.9078C10.989 26.5103 10.23 26.438 9.77821 27.2873C9.14573 28.4981 10.8263 29.4016 11.5853 29.8354C12.8503 30.504 14.3502 31.2088 14.9465 30.0703C15.5429 28.9318 14.7658 28.6246 13.7719 28.0102L14.1333 27.3235C15.5248 28.1547 16.3019 29.0222 15.5971 30.3413C14.6393 32.1484 12.6877 31.3352 11.2239 30.5582C9.76014 29.7811 8.20603 28.6246 9.10959 26.944C9.23902 26.6911 9.42115 26.4689 9.64371 26.2923C9.86628 26.1158 10.1241 25.989 10.3998 25.9205C10.6755 25.852 10.9627 25.8434 11.242 25.8952C11.5213 25.9471 11.7863 26.0582 12.019 26.2211L11.7299 26.9078Z" fill="#00754A"/>
</g>
<g style="mix-blend-mode:multiply">
<path d="M14.1321 24.7028L15.7223 22.5343L13.3008 20.7814L13.7526 20.1489L19.445 24.2872L18.9932 24.9197L16.2825 22.9499L14.7104 25.1185L17.403 27.0882L16.9512 27.7207L11.2588 23.5824L11.7286 22.9499L14.1321 24.7028Z" fill="#00754A"/>
</g>
<g style="mix-blend-mode:multiply">
<path d="M17.603 20.9984C16.4645 19.8599 15.2176 18.2335 16.6633 16.7878C18.1089 15.3421 19.7353 16.571 20.8919 17.7095C22.0484 18.8479 23.3134 20.5105 21.8677 21.9562C20.422 23.4018 18.9944 22.3718 17.603 20.9984ZM17.1512 17.2938C16.3018 18.1432 16.9705 19.2274 18.0909 20.3298C19.5366 21.7754 20.4582 22.3718 21.3617 21.4682C22.2653 20.5647 21.6689 19.6611 20.2233 18.1974C19.1209 17.095 18.0186 16.3903 17.1512 17.2938Z" fill="#00754A"/>
</g>
<g style="mix-blend-mode:multiply">
<path d="M22.4626 11.981L22.8963 12.5412L20.9085 14.0772L24.7938 19.0829L24.1793 19.5708L19.8604 14.0049L22.4626 11.981Z" fill="#00754A"/>
</g>
<g style="mix-blend-mode:multiply">
<path d="M25.391 14.2036C24.5778 12.8122 23.7826 10.9328 25.5536 9.90273C27.3246 8.87267 28.5896 10.481 29.4028 11.8725C30.3786 13.535 31.0292 15.1975 29.2582 16.2276C27.4872 17.2576 26.403 15.8842 25.391 14.2036ZM25.897 10.5894C24.8488 11.1858 25.2283 12.3965 26.0235 13.7519C27.0535 15.559 27.8306 16.336 28.8968 15.6855C29.9629 15.0349 29.6557 14.0049 28.6438 12.252C27.8486 10.8966 26.9632 9.95694 25.897 10.5894Z" fill="#00754A"/>
</g>
<g style="mix-blend-mode:multiply">
<path d="M32.8363 14.1857L32.0954 14.4929L29.4932 7.95117L31.3003 7.22833C31.539 7.07694 31.8098 6.98365 32.0911 6.95596C32.3724 6.92827 32.6563 6.96694 32.9199 7.06888C33.1835 7.17081 33.4196 7.33317 33.609 7.54289C33.7985 7.75262 33.9362 8.00387 34.0109 8.27645C34.6073 9.81249 33.8483 10.5715 32.6737 11.0413L31.7159 11.4208L32.8363 14.1857ZM31.4629 10.7703L32.1677 10.4992C33.1616 10.0836 33.7037 9.70406 33.2519 8.58365C32.8002 7.46325 32.258 7.60782 31.4448 7.95117L30.5232 8.31259L31.4629 10.7703Z" fill="#00754A"/>
</g>
<g style="mix-blend-mode:multiply">
<path d="M38.818 7.11989C38.6192 6.28862 38.1855 5.69227 37.2277 5.9272C35.9085 6.25248 36.3603 8.11379 36.5771 8.99927C36.9205 10.3907 37.3903 11.981 38.6553 11.6738C39.6311 11.4389 39.595 10.5895 39.3962 9.43298L40.1552 9.25227C40.4624 10.8425 40.3359 11.9991 38.8722 12.3424C36.8663 12.8484 36.1976 10.8425 35.8001 9.21613C35.4025 7.58973 35.2218 5.69227 37.1012 5.22243C37.3847 5.15334 37.68 5.14695 37.9662 5.20372C38.2525 5.26049 38.523 5.37904 38.7587 5.5511C38.9944 5.72317 39.1898 5.94461 39.3311 6.19995C39.4724 6.4553 39.5563 6.73841 39.5769 7.02953L38.818 7.11989Z" fill="#00754A"/>
</g>
<g style="mix-blend-mode:multiply">
<path d="M42.1429 8.0778L44.3114 4.22867L45.2872 4.12024L43.3536 7.28268L46.0824 11.1137L45.1788 11.2041L42.9561 7.93323L42.2332 9.05364L42.4862 11.4932L41.7092 11.5655L40.9863 4.57202L41.7634 4.48166L42.1429 8.0778Z" fill="#00754A"/>
</g>
<g style="mix-blend-mode:multiply">
<path d="M51.4316 4.28299L51.1063 11.3126H50.3292L50.6184 4.98776L48.2511 4.87933L48.0884 7.62613C48.0884 9.19831 47.8896 11.2403 46.5343 11.2403C46.3782 11.2575 46.2206 11.2575 46.0645 11.2403V10.5536C46.1601 10.5709 46.258 10.5709 46.3536 10.5536C47.0764 10.5536 47.1849 9.50552 47.2933 7.24664L47.4379 4.19263L51.4316 4.28299Z" fill="#00754A"/>
</g>
<g style="mix-blend-mode:multiply">
<path d="M57.1038 5.20451L56.9773 5.89121L54.2666 5.40329L53.851 7.6441L56.3809 8.11395L56.2544 8.81872L53.7245 8.34887L53.2366 10.933L55.9472 11.439L55.8207 12.1257L52.333 11.4932L53.6161 4.57202L57.1038 5.20451Z" fill="#00754A"/>
</g>
<g style="mix-blend-mode:multiply">
<path d="M58.5698 9.37876L62.1298 6.74038L63.0695 7.02952L60.0155 9.12576L60.9371 13.7339L60.0697 13.4628L59.3649 9.57754L58.2807 10.2823L57.5036 12.6135L56.7627 12.3786L58.9493 5.69226L59.7083 5.92718L58.5698 9.37876Z" fill="#00754A"/>
</g>
<g style="mix-blend-mode:multiply">
<path d="M66.3385 10.9511C66.718 10.1921 66.7541 9.43316 65.8867 9.01753C64.6579 8.42118 63.8085 10.1379 63.411 10.9692C62.7966 12.2703 62.1279 13.7883 63.3025 14.3485C64.2061 14.8003 64.7302 14.1136 65.3084 13.1016L66.0132 13.4449C65.2181 14.8545 64.3868 15.6677 63.0495 15.0171C61.2424 14.1136 61.9472 12.1438 62.6701 10.6439C63.3929 9.14403 64.4772 7.55377 66.2843 8.40311C66.5419 8.52448 66.7705 8.69981 66.9545 8.91721C67.1385 9.13462 67.2736 9.38903 67.3507 9.66321C67.4279 9.93739 67.4451 10.2249 67.4015 10.5064C67.3578 10.7878 67.2541 11.0566 67.0975 11.2945L66.3385 10.9511Z" fill="#00754A"/>
</g>
<g style="mix-blend-mode:multiply">
<path d="M66.4138 16.6071L65.7451 16.1553L69.6665 10.3184L71.2749 11.4026C71.5332 11.5142 71.7618 11.6846 71.9426 11.9002C72.1235 12.1158 72.2514 12.3706 72.3164 12.6444C72.3813 12.9182 72.3814 13.2034 72.3167 13.4772C72.2519 13.7511 72.1242 14.006 71.9435 14.2217C71.0399 15.5951 69.9737 15.3963 68.9076 14.6916L68.0582 14.1133L66.4138 16.6071ZM68.4558 13.535L69.0883 13.9506C69.9738 14.5651 70.6062 14.7819 71.2749 13.7699C71.9435 12.758 71.5098 12.3965 70.7327 11.9628L69.9195 11.4026L68.4558 13.535Z" fill="#00754A"/>
</g>
<g style="mix-blend-mode:multiply">
<path d="M77.2543 16.1553L76.7845 16.6793L74.7244 14.8722L73.2064 16.5709L75.14 18.2876L74.6702 18.8117L72.7366 17.113L71.0017 19.0828L73.0618 20.908L72.592 21.432L69.9355 19.1008L74.5979 13.8241L77.2543 16.1553Z" fill="#00754A"/>
</g>
<g style="mix-blend-mode:multiply">
<path d="M81.503 20.8718L76.6961 25.0101L77.0033 25.4077L75.1962 26.9256L74.7083 26.3654L75.9552 25.2992L73.3891 22.2633L72.1422 23.3476L71.6543 22.7693L73.4614 21.2513L73.7686 21.5947C75.2688 21.1719 76.6248 20.3471 77.69 19.2093L79.0634 18.0527L81.503 20.8718ZM79.0454 19.0647L77.6539 20.2574C76.7098 21.1543 75.5721 21.822 74.3288 22.2091L76.1359 24.3776L80.4007 20.7634L79.0454 19.0647Z" fill="#00754A"/>
</g>
<g style="mix-blend-mode:multiply">
<path d="M82.7672 26.5825C83.4901 26.1308 83.9238 25.5164 83.3997 24.7754C82.6769 23.6189 81.0505 24.6309 80.2554 25.1369C79.0627 25.8958 77.6893 26.8355 78.4483 27.9379C79.2072 29.0402 79.7855 28.4981 80.8156 27.9379L81.2312 28.6065C79.8036 29.3836 78.6832 29.6185 77.8881 28.3535C76.7857 26.5464 78.4844 25.3356 79.8939 24.4502C81.3035 23.5647 83.0564 22.8057 84.0864 24.4502C84.2425 24.6892 84.3452 24.959 84.3876 25.2413C84.4301 25.5236 84.4112 25.8117 84.3323 26.086C84.2535 26.3604 84.1164 26.6145 83.9306 26.8312C83.7447 27.0478 83.5143 27.2219 83.2552 27.3415L82.7672 26.5825Z" fill="#00754A"/>
</g>
<g style="mix-blend-mode:multiply">
<path d="M80.2911 32.5819L79.9658 31.8591L85.7124 29.2207L84.9534 27.5763L85.604 27.269L87.4472 31.2989L86.7967 31.588L86.0558 29.9436L80.2911 32.5819Z" fill="#00754A"/>
</g>
<g style="mix-blend-mode:multiply">
<path d="M87.97 32.7809L88.5121 34.588C88.6254 34.8124 88.6863 35.0595 88.6903 35.3108C88.6943 35.5622 88.6412 35.8111 88.5351 36.039C88.429 36.2669 88.2726 36.4677 88.0777 36.6264C87.8828 36.7851 87.6544 36.8976 87.4098 36.9553C87.0956 37.098 86.7407 37.1236 86.4093 37.0275C86.0779 36.9314 85.7918 36.7199 85.6027 36.4312C85.6314 36.8178 85.5163 37.2013 85.2795 37.5081C85.0427 37.815 84.7008 38.0235 84.3197 38.0938C84.069 38.2049 83.7963 38.2575 83.5223 38.2477C83.2483 38.2378 82.9801 38.1657 82.738 38.0369C82.496 37.908 82.2865 37.7258 82.1253 37.5039C81.9641 37.2821 81.8555 37.0265 81.8078 36.7565L81.2295 34.9494L87.97 32.7809ZM82.1511 35.3831L82.4945 36.4855C82.7475 37.2986 83.2354 37.5336 84.1209 37.2625C84.2966 37.2369 84.4638 37.1706 84.6093 37.0688C84.7548 36.967 84.8745 36.8326 84.9588 36.6763C85.0431 36.5201 85.0896 36.3462 85.0948 36.1688C85.0999 35.9913 85.0634 35.8151 84.9883 35.6542L84.6811 34.6061L82.1511 35.3831ZM85.3497 34.4434L85.6388 35.3831C85.8557 36.124 86.2533 36.4674 87.1207 36.1963C87.2718 36.1696 87.4146 36.1083 87.5381 36.0172C87.6615 35.9261 87.7622 35.8076 87.8322 35.6711C87.9022 35.5346 87.9397 35.3837 87.9416 35.2303C87.9436 35.0768 87.91 34.925 87.8435 34.7868L87.5363 33.7748L85.3497 34.4434Z" fill="#00754A"/>
</g>
<g style="mix-blend-mode:multiply">
<path d="M89.7968 39.8648L89.9594 40.8768L83.3274 43.967L83.1828 43.1176L85.0983 42.2502L84.755 40.0636L82.6768 39.8648L82.5322 39.0155L89.7968 39.8648ZM89.3089 40.4612L85.4778 40.1178L85.7669 41.9249L89.3089 40.4612Z" fill="#00754A"/>
</g>
<g style="mix-blend-mode:multiply">
<path d="M78.5018 82.2413C69.7074 90.0996 58.2852 94.3736 46.4923 94.2186C34.6994 94.0637 23.3936 89.4911 14.8086 81.4043C6.22363 73.3176 0.984079 62.305 0.125174 50.5423C-0.733732 38.7797 2.85049 27.1228 10.1697 17.8747C17.4888 8.62666 28.0105 2.46023 39.6559 0.593807C51.3012 -1.27261 63.223 1.29675 73.0657 7.79423C82.9085 14.2917 89.9562 24.2446 92.8163 35.6865C95.6764 47.1284 94.1409 59.2269 88.5132 69.5915C85.9303 74.3538 82.5433 78.6334 78.5018 82.2413ZM16.3374 12.758C7.82882 20.3494 2.421 30.8137 1.15032 42.1455C-0.120354 53.4773 2.8355 64.8795 9.4514 74.1668C16.0673 83.4541 25.8778 89.9733 37.0029 92.4749C48.1279 94.9765 59.7848 93.2846 69.7396 87.7235C79.6944 82.1623 87.2468 73.1231 90.9494 62.3381C94.652 51.5532 94.2443 39.7812 89.8045 29.2782C85.3647 18.7752 77.2051 10.2801 66.8895 5.42085C56.5738 0.561656 44.8278 -0.319792 33.9025 2.94544C27.3989 4.88914 21.4023 8.2391 16.3374 12.758Z" fill="#00754A"/>
</g>
<g style="mix-blend-mode:multiply">
<path d="M69.05 71.688C64.9333 75.3701 59.9535 77.9531 54.5723 79.1973C49.1911 80.4416 43.5829 80.3067 38.2677 78.8054C32.9525 77.304 28.1026 74.4847 24.1676 70.609C20.2327 66.7332 17.3402 61.9266 15.7584 56.6348C14.089 51.0141 13.9585 45.0484 15.3806 39.3601C16.8027 33.6718 19.7253 28.4693 23.8434 24.2956C27.9615 20.1218 33.1243 17.1297 38.793 15.6314C44.4617 14.133 50.4286 14.1834 56.0712 15.7773C61.7138 17.3711 66.8252 20.45 70.8723 24.6928C74.9193 28.9355 77.7536 34.1865 79.0794 39.898C80.4053 45.6095 80.1741 51.5722 78.4099 57.1639C76.6458 62.7556 73.4134 67.7714 69.05 71.688ZM25.7698 23.2937C23.0082 25.782 20.6973 28.7288 18.9389 32.0039C15.2122 38.9986 14.2411 47.1357 16.2171 54.811C18.1931 62.4863 22.9728 69.1428 29.614 73.4682C36.2552 77.7937 44.2758 79.4742 52.0948 78.1785C59.9137 76.8828 66.9635 72.7048 71.8544 66.4683C76.7452 60.2318 79.1223 52.3893 78.5168 44.4869C77.9113 36.5845 74.3673 29.1956 68.5835 23.777C62.7996 18.3583 55.1956 15.3031 47.2706 15.2137C39.3455 15.1242 31.6745 18.007 25.7698 23.2937Z" fill="#00754A"/>
</g>
</g>
</g>
<path d="M48.3786 48.0869L47.6738 48.0327L48.3244 50.4723L48.3786 48.0869Z" fill="#126E4A"/>
<path d="M47.6734 48.0329L47.6553 47.9606L47.6191 48.0148L47.6734 48.0329Z" fill="#126E4A"/>
<path d="M46.8062 47.0029L46.7695 46.9846V47.0396L46.8245 47.0213H46.8062V47.0029Z" fill="#126E4A"/>
<path d="M71.2196 62.5619C71.2196 62.1824 71.2196 57.1405 69.6112 55.7129L70.9666 54.5925C70.9666 54.5925 67.8764 48.7375 65.3103 47.9966L66.2681 46.6774C64.7521 45.6147 62.9749 44.9858 61.128 44.8584C59.281 44.731 57.4343 45.11 55.7869 45.9546L55.5339 46.0991C54.2241 46.8535 53.0106 47.7637 51.9197 48.8098C51.7383 49.0165 51.5694 49.2337 51.4137 49.4603L53.2208 50.6711C53.5174 50.8584 53.8557 50.9695 54.2056 50.9947C54.5555 51.0199 54.9062 50.9584 55.2267 50.8157L61.7684 47.9243C61.8195 48.0394 61.8475 48.1634 61.8506 48.2893C61.8538 48.4152 61.8321 48.5405 61.7868 48.658C61.7415 48.7755 61.6734 48.8829 61.5865 48.9741C61.4996 49.0652 61.3956 49.1384 61.2805 49.1893L55.1724 51.8999L57.4855 53.3818C57.6942 53.4925 57.9269 53.5504 58.1632 53.5504C58.3995 53.5504 58.6322 53.4925 58.8409 53.3818L63.7743 51.1952C63.8277 51.3123 63.857 51.439 63.8604 51.5677C63.8638 51.6964 63.8412 51.8245 63.794 51.9442C63.7467 52.064 63.6758 52.173 63.5855 52.2648C63.4952 52.3565 63.3873 52.4291 63.2683 52.4782L59.1119 54.2853L61.3527 55.7129C61.5714 55.8331 61.817 55.8962 62.0666 55.8962C62.3161 55.8962 62.5616 55.8331 62.7804 55.7129L65.7079 54.2673C65.82 54.4998 65.8354 54.7673 65.7507 55.0111C65.666 55.255 65.4882 55.4554 65.2561 55.5684L62.9972 56.6707L66.4126 58.8392C66.5029 58.9158 66.5622 59.0226 66.5795 59.1396C66.5969 59.2567 66.5711 59.376 66.507 59.4755C66.4429 59.575 66.3449 59.6478 66.2311 59.6803C66.1173 59.7129 65.9956 59.7029 65.8886 59.6524L62.5454 57.7008V60.1765C62.5431 60.3046 62.5155 60.4311 62.4643 60.5486C62.4131 60.6661 62.3392 60.7723 62.2469 60.8613C62.1546 60.9502 62.0457 61.0201 61.9264 61.0669C61.8071 61.1138 61.6797 61.1366 61.5515 61.1343V57.9176C61.5523 57.6661 61.4898 57.4184 61.3698 57.1974C61.2498 56.9763 61.0762 56.789 60.8648 56.6526L58.624 55.225V59.7428C58.6264 59.8709 58.6035 59.9983 58.5567 60.1176C58.5099 60.2369 58.44 60.3459 58.351 60.4382C58.2621 60.5304 58.1558 60.6043 58.0383 60.6555C57.9208 60.7068 57.7944 60.7343 57.6663 60.7367V55.3154C57.6588 55.0915 57.5974 54.8727 57.4873 54.6777C57.3772 54.4826 57.2216 54.317 57.0338 54.195L54.6845 52.6951L54.811 59.3452C54.8159 59.4716 54.7952 59.5977 54.7501 59.7159C54.7051 59.8342 54.6367 59.942 54.5489 60.0332C54.4612 60.1243 54.3559 60.1968 54.2395 60.2462C54.123 60.2957 53.9978 60.3212 53.8713 60.3211L53.7087 52.8216C53.7108 52.5933 53.6536 52.3684 53.5427 52.1688C53.4319 51.9693 53.2711 51.8019 53.0762 51.6831L50.8896 50.3097C50.6366 50.147 50.4017 49.9844 50.1668 49.8579L49.2993 49.2796L49.1367 49.1712L48.45 48.7736C60.0878 42.9367 58.1 32.2386 58.1 32.2386L56.582 31.9856C56.2923 29.3827 55.3473 26.8957 53.8352 24.7572L52.3714 25.2813C51.8112 23.3657 47.6368 20.2033 47.3115 20.0226C46.8055 20.3117 42.5408 23.0947 42.2336 24.956L40.6975 24.3958C39.0062 26.8392 37.9731 29.6773 37.6977 32.6362H36.4328C36.4328 32.6362 34.7341 38.2021 41.6372 41.8886C42.8952 42.5601 44.2302 43.0759 45.6128 43.4246H45.8116H46.0646L46.4622 43.533V41.4549C46.4775 41.0997 46.4007 40.7467 46.2392 40.43C46.0777 40.1133 45.837 39.8439 45.5406 39.6478L39.6313 35.6179C39.7021 35.5105 39.7939 35.4184 39.9011 35.3472C40.0083 35.276 40.1287 35.2271 40.2552 35.2035C40.3818 35.1799 40.5117 35.182 40.6374 35.2098C40.7631 35.2375 40.8818 35.2903 40.9867 35.3649L46.4983 39.1237V36.3769C46.4979 36.1416 46.4401 35.91 46.3299 35.7022C46.2196 35.4943 46.0604 35.3165 45.8658 35.1842L41.4023 32.1302C41.5516 31.9209 41.7762 31.7777 42.029 31.7305C42.2817 31.6833 42.5429 31.7359 42.7576 31.8772L46.661 34.4433V31.7868C46.6621 31.5377 46.5996 31.2925 46.4794 31.0743C46.3592 30.8561 46.1854 30.6722 45.9743 30.5399L43.2275 28.7328C43.2939 28.626 43.3808 28.5334 43.483 28.4602C43.5853 28.3869 43.7009 28.3345 43.8234 28.306C43.9459 28.2775 44.0729 28.2734 44.1969 28.2939C44.321 28.3144 44.4399 28.3592 44.5467 28.4256L46.679 29.7629V25.733C46.6835 25.6051 46.7364 25.4836 46.8269 25.393C46.9175 25.3025 47.039 25.2496 47.167 25.2451C47.2964 25.2451 47.4205 25.2965 47.512 25.388C47.6035 25.4795 47.6549 25.6036 47.6549 25.733V29.7629L49.7873 28.4979C49.8976 28.4326 50.0197 28.3897 50.1467 28.3716C50.2736 28.3535 50.4029 28.3606 50.527 28.3925C50.6512 28.4244 50.7679 28.4804 50.8704 28.5574C50.973 28.6344 51.0593 28.7309 51.1245 28.8413L48.3597 30.4677C48.1418 30.5955 47.9608 30.7775 47.8341 30.996C47.7075 31.2145 47.6395 31.462 47.6368 31.7146V34.371L51.4317 31.9133C51.5381 31.8432 51.6574 31.7951 51.7827 31.7717C51.9079 31.7482 52.0366 31.75 52.1611 31.777C52.2856 31.8039 52.4035 31.8554 52.5079 31.9285C52.6123 32.0015 52.7011 32.0947 52.769 32.2025L48.2332 35.13C48.0465 35.2518 47.8928 35.4178 47.7856 35.6132C47.6784 35.8087 47.6211 36.0275 47.6187 36.2504V39.0514L53.2027 35.4372C53.419 35.3004 53.6803 35.2541 53.9305 35.3082C54.1806 35.3622 54.3995 35.5124 54.54 35.7263L48.1789 39.8646C47.9908 39.9906 47.8353 40.1596 47.7253 40.3575C47.6153 40.5555 47.554 40.7768 47.5464 41.0031V43.7318V45.7016V47.1653C36.3424 38.8165 28.355 46.4606 28.355 46.4606L28.9875 47.8882C27.1804 48.4664 23.783 53.7793 23.783 53.7793L24.9757 54.8817C23.4939 55.9117 22.6807 61.3873 22.6807 61.7487C22.9879 61.9475 27.6321 64.1883 29.3308 63.7907L29.6922 65.5978C29.6922 65.5978 36.2159 65.399 38.2218 64.0256L38.9085 65.4894C38.9085 65.4894 44.7274 62.6884 44.8539 56.5803C44.8539 56.5803 44.8539 56.3996 44.8539 56.3093C44.7343 54.9162 44.4616 53.5405 44.0407 52.2072C44.0407 52.0987 44.0407 51.9903 44.0407 51.8819C44.0407 51.7554 44.0407 51.6108 43.9322 51.4662L41.9625 52.2975C41.6531 52.456 41.3884 52.6896 41.1927 52.9769C40.9969 53.2642 40.8764 53.596 40.8421 53.942L40.0831 61.062C39.9554 61.0508 39.8313 61.014 39.7181 60.954C39.6048 60.8939 39.5048 60.8117 39.4239 60.7123C39.343 60.6129 39.2829 60.4982 39.2472 60.3752C39.2114 60.2521 39.2007 60.1231 39.2157 59.9958L39.9205 53.3637L37.4809 54.6287C37.2725 54.7393 37.0945 54.8993 36.9622 55.0946C36.8299 55.2899 36.7474 55.5146 36.7219 55.7491L36.1617 61.1704C35.9057 61.143 35.6709 61.0156 35.5084 60.8159C35.346 60.6162 35.269 60.3604 35.2943 60.1042L35.7822 55.5684L33.4149 56.7972C33.1935 56.9121 33.0055 57.0823 32.8694 57.2913C32.7332 57.5003 32.6534 57.7409 32.6378 57.9899L32.421 61.2427C32.1652 61.2241 31.9271 61.1057 31.758 60.9129C31.5889 60.7202 31.5025 60.4686 31.5174 60.2126L31.6801 57.7008L28.0658 59.5079C28.0096 59.5512 27.9446 59.5818 27.8754 59.5975C27.8062 59.6132 27.7343 59.6135 27.6649 59.5986C27.5955 59.5836 27.5302 59.5537 27.4736 59.5109C27.4169 59.4681 27.3703 59.4134 27.3369 59.3507C27.3036 59.2881 27.2843 59.2189 27.2805 59.148C27.2767 59.0771 27.2884 59.0062 27.3147 58.9403C27.3411 58.8744 27.3816 58.815 27.4333 58.7663C27.485 58.7177 27.5467 58.6809 27.6141 58.6585L31.2283 56.8514L29.0959 55.5684C28.8796 55.4305 28.725 55.2144 28.6644 54.9651C28.6037 54.7159 28.6418 54.4529 28.7706 54.2311L31.5174 55.8937C31.7383 56.0171 31.9872 56.0819 32.2403 56.0819C32.4933 56.0819 32.7422 56.0171 32.9631 55.8937L35.3123 54.6648L31.2825 52.5144C31.0583 52.3888 30.8926 52.1798 30.8216 51.9328C30.7505 51.6858 30.7798 51.4207 30.903 51.1952L35.6376 53.8155C35.8358 53.9184 36.0558 53.9722 36.2791 53.9722C36.5025 53.9722 36.7225 53.9184 36.9207 53.8155L39.3783 52.5144L33.6317 49.2796C33.4075 49.154 33.2419 48.945 33.1708 48.6981C33.0998 48.4511 33.129 48.186 33.2522 47.9605L39.8301 51.5747C40.0338 51.6808 40.26 51.7362 40.4897 51.7362C40.7194 51.7362 40.9456 51.6808 41.1493 51.5747L43.5347 50.3097C43.5347 50.3097 44.7454 49.6591 45.1069 49.5146L45.3056 49.4061L46.0466 48.9724C46.0466 49.5387 46.0104 50.0808 45.9381 50.5988C45.7429 53.6926 46.5193 56.77 48.1588 59.4009C49.7982 62.0318 52.2188 64.0847 55.0821 65.2725L56.0218 63.8991C57.8289 65.0015 63.7201 65.5797 63.7201 65.5797L64.4068 63.7726C65.9428 64.4413 70.6774 62.7245 71.1473 62.4896L71.2196 62.5619Z" fill="#00754A"/>
<path d="M10.2468 56.8874C10.2468 57.1483 10.1694 57.4034 10.0245 57.6203C9.8795 57.8373 9.67347 58.0063 9.43242 58.1062C9.19137 58.206 8.92613 58.2322 8.67023 58.1813C8.41433 58.1304 8.17927 58.0047 7.99478 57.8202C7.81029 57.6357 7.68465 57.4007 7.63375 57.1448C7.58285 56.8889 7.60897 56.6236 7.70882 56.3826C7.80866 56.1415 7.97775 55.9355 8.19469 55.7906C8.41163 55.6456 8.66668 55.5682 8.92759 55.5682C9.27746 55.5682 9.613 55.7072 9.8604 55.9546C10.1078 56.202 10.2468 56.5375 10.2468 56.8874Z" fill="#00754A"/>
<path d="M152.033 34.4433C146.72 34.4433 141.407 36.413 141.407 41.9789C141.407 46.1172 144.154 48.7736 149.72 48.7736C153.641 48.7736 156.84 47.6352 158.521 44.3101C158.828 47.2195 160.635 48.7736 163.942 48.7736C165.238 48.7245 166.523 48.5243 167.773 48.1773L167.954 42.3584C166.002 42.3584 165.93 41.5271 165.93 40.1357V31.6423C165.93 25.3535 160.508 22.4441 154.075 22.4441C149.72 22.4441 145.744 23.5284 143.612 25.733C143.175 26.1307 142.823 26.6127 142.578 27.1501C142.333 27.6874 142.199 28.2688 142.184 28.8593C142.189 29.4257 142.306 29.9855 142.527 30.5067C142.749 31.0279 143.071 31.5002 143.476 31.8964C143.881 32.2927 144.359 32.6051 144.885 32.8158C145.411 33.0265 145.973 33.1312 146.539 33.1241C147.105 33.127 147.666 33.0152 148.188 32.7955C148.71 32.5758 149.181 32.2527 149.575 31.8457C149.968 31.4388 150.275 30.9564 150.477 30.4276C150.679 29.8988 150.772 29.3346 150.75 28.769C150.755 28.1444 150.619 27.5267 150.352 26.9619C151.338 26.7778 152.353 26.8216 153.32 27.09C154.286 27.3584 155.178 27.8442 155.928 28.5104C156.678 29.1765 157.266 30.0053 157.646 30.9334C158.027 31.8615 158.19 32.8642 158.123 33.865V35.0396C156.118 34.5931 154.069 34.3689 152.015 34.371L152.033 34.4433ZM157.671 41.1476C156.248 42.3728 154.416 43.0179 152.539 42.9547C151.148 42.9547 149.322 42.521 149.322 40.8043C149.322 38.7261 151.129 38.1479 153.623 38.1479C154.988 38.1567 156.346 38.3266 157.671 38.6538V41.1476Z" fill="#00754A"/>
<path d="M172.454 28.0098V56.9235H185.248C184.993 55.6824 184.39 54.5393 183.51 53.6275C182.63 52.7157 181.51 52.0726 180.278 51.7733V46.0989C182.53 47.8469 185.307 48.783 188.157 48.7554C194.789 48.7554 199.506 43.5329 199.506 35.1479C199.506 26.7629 194.952 22.4981 188.754 22.4981C187.122 22.4556 185.503 22.8003 184.03 23.5039C182.557 24.2075 181.271 25.25 180.278 26.5461V23.2029H168.568C168.724 24.2793 169.168 25.2937 169.851 26.1396C170.535 26.9854 171.434 27.6315 172.454 28.0098ZM180.278 30.9192C181.839 29.5105 183.836 28.6811 185.935 28.57C188.916 28.57 191.356 30.2506 191.356 35.5635C191.356 39.5211 190.272 42.5209 185.935 42.5209C183.965 42.5789 182.024 42.037 180.369 40.9668L180.278 30.9192Z" fill="#00754A"/>
<path d="M256.015 71.9588L263.388 60.4114H255.617L248.1 72.5371H247.756V60.4475H235.106C235.285 61.5285 235.797 62.5266 236.572 63.3013C237.346 64.076 238.344 64.5884 239.425 64.7665V86.2891H247.774V74.814L256.159 86.2891H266.351L256.015 71.9588Z" fill="#60B235"/>
<path d="M249.853 34.4433C244.54 34.4433 239.228 36.413 239.228 41.9789C239.228 46.1172 241.956 48.7736 247.522 48.7736C251.444 48.7736 254.66 47.6352 256.341 44.3101C256.63 47.2195 258.455 48.7736 261.762 48.7736C263.058 48.7245 264.344 48.5243 265.593 48.1773L265.774 42.3584C263.822 42.3584 263.75 41.5271 263.75 40.1357V31.6423C263.75 25.3535 258.329 22.4441 251.895 22.4441C247.54 22.4441 243.565 23.5284 241.414 25.733C240.98 26.1316 240.631 26.6142 240.389 27.1516C240.146 27.689 240.016 28.2699 240.005 28.8593C240.007 29.4248 240.121 29.9843 240.341 30.5053C240.561 31.0264 240.881 31.4989 241.285 31.8954C241.688 32.2919 242.165 32.6046 242.69 32.8155C243.215 33.0264 243.776 33.1313 244.342 33.1241C244.918 33.1444 245.493 33.0456 246.029 32.8337C246.566 32.6217 247.053 32.3014 247.46 31.8926C247.867 31.4838 248.186 30.9954 248.395 30.4579C248.605 29.9204 248.701 29.3454 248.679 28.769C248.687 28.142 248.545 27.5221 248.263 26.9619C249.244 26.8016 250.248 26.8652 251.201 27.1477C252.154 27.4302 253.031 27.9245 253.766 28.5935C254.501 29.2626 255.076 30.0891 255.446 31.0113C255.817 31.9335 255.975 32.9276 255.907 33.9192V35.0938C253.902 34.6474 251.853 34.4231 249.799 34.4252L249.853 34.4433ZM255.455 41.2019C254.026 42.4282 252.188 43.0731 250.305 43.009C248.914 43.009 247.107 42.5753 247.107 40.8585C247.107 38.7803 248.914 38.2021 251.407 38.2021C252.772 38.2109 254.131 38.3808 255.455 38.708V41.2019Z" fill="#00754A"/>
<path d="M125.45 49.0087C125.168 48.1342 124.661 47.3496 123.979 46.7341C123.296 46.1185 122.464 45.6939 121.565 45.503V43.6958C122.866 43.8223 124.095 43.8946 125.071 43.8946C132.823 43.8946 138.805 40.1539 138.805 31.8051C138.805 24.3056 133.167 19.4987 124.565 19.4987C123.698 19.4987 122.758 19.4987 121.565 19.6252V14.2039H109.674C110.021 15.0581 110.553 15.8252 111.23 16.45C111.908 17.0748 112.716 17.542 113.596 17.8181V19.6252C112.349 19.6252 111.174 19.4806 110.217 19.4806C101.615 19.4806 95.9766 24.2875 95.9766 31.787C95.9766 40.1358 101.958 43.8766 109.711 43.8766C111.009 43.8683 112.306 43.7899 113.596 43.6416V48.9003L125.45 49.0087ZM122.18 25.2272C126.408 25.2272 130.402 27.0343 130.402 31.8954C130.402 37.3168 126.535 38.4733 122.27 38.4733H121.511V25.2272H122.18ZM112.403 38.4733C108.138 38.4733 104.271 37.3348 104.271 31.8954C104.271 26.962 108.265 25.2272 112.494 25.2272H113.542V38.4191H112.403" fill="#00754A"/>
<path d="M203.933 47.7077H211.74V35.2387L216.8 43.4429H220.161L225.582 34.9315V47.7438H237.292C236.519 45.934 235.165 44.4334 233.443 43.4791V22.8781H225.655L218.571 33.9737L211.74 22.8781H199.976C200.297 23.8476 200.814 24.7408 201.495 25.5023C202.176 26.2639 203.006 26.8776 203.933 27.3055V47.7077Z" fill="#00754A"/>
<path d="M160.979 59.3993C152.684 59.3993 146.974 64.8206 146.974 73.4224C146.974 83.5242 153.732 86.8131 162.569 86.8131C166.214 86.7801 169.831 86.1702 173.285 85.006L172.779 79.0425C169.988 79.8206 167.11 80.2455 164.213 80.3075C160.256 80.3075 156.515 79.1329 155.72 74.8862H173.791C173.968 73.9447 174.059 72.989 174.062 72.031C174.062 64.3327 168.641 59.3812 160.961 59.3812L160.979 59.3993ZM155.684 71.0732C156.226 67.0614 158.105 65.6519 160.69 65.6519C163.274 65.6519 165.045 67.1879 165.045 71.0732H155.684Z" fill="#97C228"/>
<path d="M176.031 60.4114V66.9712H184.163V81.5907C182.053 82.4655 180.376 84.1424 179.501 86.253H196.976C196.076 84.1567 194.417 82.4783 192.331 81.5545V66.9712H200.409V60.4114H176.031Z" fill="#26ABE3"/>
<path d="M137.449 73.1516V72.7179C141.624 72.0493 142.979 69.8085 142.979 67.134C142.979 62.7788 139.365 60.285 132.48 60.285H114.029C114.306 61.3838 114.829 62.4053 115.559 63.2724C116.288 64.1396 117.205 64.8297 118.24 65.2907V86.2893H133.365C139.112 86.2893 144.334 85.187 144.334 79.0609C144.334 75.4467 142.094 73.4046 137.449 73.2239V73.1516ZM126.372 66.375H131.215C133.546 66.375 134.377 67.3327 134.377 68.9591C134.377 70.5855 132.968 71.6879 131.088 71.6879H126.426L126.372 66.375ZM131.034 80.9945H126.408V75.5732H131.649C134.359 75.5732 135.263 76.7297 135.263 78.3922C135.263 80.0548 133.907 81.0668 131.016 81.0668" fill="#F1870D"/>
<path d="M109.927 54.3217H97.5842C97.9841 55.2016 98.5563 55.9924 99.2671 56.6474C99.9779 57.3023 100.813 57.808 101.723 58.1347V79.1332H88.8921V54.3217H77.6338C77.6506 55.1882 77.9515 56.0254 78.4901 56.7044C79.0288 57.3834 79.7755 57.8669 80.6155 58.0804V86.2894H107.072C108.151 88.744 109.769 90.9242 111.806 92.6685L113.053 92.7588V79.079H109.963L109.927 54.3217Z" fill="#C60F78"/>
<path d="M231.166 81.681V60.4114H223.938L215.137 74.6514V60.4114H202.885C203.069 61.492 203.555 62.4984 204.287 63.314C205.02 64.1295 205.968 64.7209 207.023 65.0195V86.2891H214.251H214.378L223.54 71.5431L223.034 86.2891H235.286C234.954 85.2785 234.417 84.3475 233.708 83.5545C232.999 82.7615 232.133 82.1236 231.166 81.681Z" fill="#C60F78"/>
</svg>
