<svg width="163" height="279" viewBox="0 0 163 279" fill="none" xmlns="http://www.w3.org/2000/svg">
<path opacity="0.4" d="M129.282 172.808C139.117 195.723 141.593 234.483 145.078 254.464C145.464 256.681 147.654 258.052 149.842 257.524C151.836 257.043 153.143 255.134 152.883 253.099C148.836 221.415 146.763 184.599 142.237 169.683C134.132 143.063 75.5768 184.846 57.4908 112.267C54.0293 98.3761 54.9595 61.2659 69.0758 29.8206C72.9421 21.2081 64.7019 8.85033 55.5246 11.0642C52.9504 11.6852 50.7274 13.3426 49.474 15.6753C24.4677 62.2135 33.5823 101.841 37.717 117.037C52.3355 167.665 118.737 148.238 129.282 172.808Z" fill="url(#paint0_linear)"/>
<path opacity="0.4" d="M139.344 197.191C147.545 216.302 151.046 236.297 154.137 250.994C154.343 251.975 155.318 252.585 156.292 252.35C157.18 252.136 157.764 251.288 157.638 250.383C154.048 224.484 147.362 194.966 138.781 182.876C131.776 173.005 81.486 166.487 73.4291 135.025C70.5527 123.793 71.3423 93.723 82.7938 68.2522C85.9276 61.2818 79.26 51.2822 71.8306 53.0744C69.7458 53.5774 67.9456 54.9199 66.9309 56.8094C46.6956 94.4916 54.0765 126.581 57.4245 138.886C67.8793 174.155 130.807 177.294 139.344 197.191Z" fill="url(#paint1_linear)"/>
<path opacity="0.4" d="M129.408 203.923C146.784 215.356 151.003 236.218 154.136 250.995C154.344 251.976 155.319 252.586 156.293 252.351C157.181 252.136 157.766 251.285 157.625 250.382C153.621 224.733 136.69 201.389 124.042 193.658C108.786 184.332 60.7634 200.388 52.7065 168.927C49.83 157.694 50.6196 127.624 62.0711 102.153C65.205 95.183 58.5374 85.1834 51.108 86.9757C49.0231 87.4786 47.2229 88.8212 46.2083 90.7106C25.973 128.393 33.3538 160.482 36.7019 172.788C47.1566 208.056 100.482 184.89 129.408 203.923Z" fill="url(#paint2_linear)"/>
<defs>
<linearGradient id="paint0_linear" x1="84.4482" y1="-27.7048" x2="153.532" y2="258.667" gradientUnits="userSpaceOnUse">
<stop stop-color="#8DD6EF" stop-opacity="0"/>
<stop offset="1" stop-color="#8DD6EF"/>
</linearGradient>
<linearGradient id="paint1_linear" x1="95.2359" y1="21.6839" x2="151.179" y2="253.584" gradientUnits="userSpaceOnUse">
<stop stop-color="#8DD6EF" stop-opacity="0"/>
<stop offset="1" stop-color="#8DD6EF"/>
</linearGradient>
<linearGradient id="paint2_linear" x1="95.2366" y1="21.6844" x2="151.179" y2="253.584" gradientUnits="userSpaceOnUse">
<stop stop-color="#8DD6EF" stop-opacity="0"/>
<stop offset="1" stop-color="#8DD6EF"/>
</linearGradient>
</defs>
</svg>
