<svg width="270" height="210" viewBox="0 0 270 210" fill="none" xmlns="http://www.w3.org/2000/svg">
<path d="M50.4401 34.888C50.4401 34.888 46.4195 0.310242 158.852 0.310242C271.285 0.310242 268.946 35.1073 269.238 38.5431C265.166 77.379 258.967 115.962 250.67 154.119C241.825 188.039 231.005 203.464 206.808 206.827C182.611 210.19 126.979 212.529 103.001 203.172C79.0235 193.815 69.0815 168.082 65.8649 148.929C62.6484 129.776 49.9284 43.7335 50.5132 34.888" fill="#0079AF"/>
<path d="M199.478 157.85C199.478 157.218 199.478 148.826 196.778 146.45L199.053 144.585C199.053 144.585 193.866 134.84 189.559 133.607L191.166 131.411C188.622 129.642 185.639 128.595 182.538 128.383C179.438 128.171 176.338 128.802 173.573 130.208L173.148 130.448C170.95 131.704 168.912 133.219 167.081 134.96C166.777 135.304 166.493 135.666 166.232 136.043L169.265 138.058C169.763 138.37 170.331 138.555 170.918 138.597C171.506 138.639 172.094 138.536 172.632 138.299L183.613 133.486C183.699 133.678 183.746 133.884 183.751 134.094C183.757 134.303 183.72 134.512 183.644 134.707C183.568 134.903 183.454 135.082 183.308 135.234C183.162 135.385 182.988 135.507 182.794 135.592L172.541 140.104L176.424 142.57C176.774 142.754 177.165 142.851 177.562 142.851C177.958 142.851 178.349 142.754 178.699 142.57L186.98 138.93C187.07 139.125 187.119 139.336 187.125 139.551C187.131 139.765 187.093 139.978 187.013 140.177C186.934 140.377 186.815 140.558 186.663 140.711C186.512 140.863 186.331 140.984 186.131 141.066L179.154 144.074L182.916 146.45C183.283 146.65 183.695 146.755 184.114 146.755C184.533 146.755 184.945 146.65 185.312 146.45L190.226 144.044C190.414 144.431 190.44 144.876 190.298 145.282C190.156 145.688 189.857 146.021 189.468 146.209L185.676 148.044L191.409 151.654C191.561 151.781 191.66 151.959 191.689 152.154C191.718 152.348 191.675 152.547 191.568 152.713C191.46 152.878 191.295 152.999 191.104 153.054C190.913 153.108 190.709 153.091 190.529 153.007L184.918 149.759V153.879C184.914 154.093 184.867 154.303 184.781 154.499C184.695 154.694 184.571 154.871 184.416 155.019C184.262 155.167 184.079 155.284 183.878 155.362C183.678 155.44 183.464 155.478 183.249 155.474V150.12C183.251 149.701 183.146 149.289 182.944 148.921C182.743 148.553 182.451 148.241 182.097 148.014L178.335 145.638V153.158C178.339 153.371 178.301 153.583 178.222 153.781C178.144 153.98 178.026 154.161 177.877 154.315C177.728 154.469 177.549 154.592 177.352 154.677C177.155 154.762 176.943 154.808 176.727 154.812V145.788C176.715 145.416 176.612 145.052 176.427 144.727C176.242 144.402 175.981 144.127 175.666 143.923L171.722 141.427L171.935 152.496C171.943 152.706 171.908 152.916 171.832 153.113C171.757 153.31 171.642 153.489 171.495 153.641C171.347 153.793 171.171 153.913 170.975 153.996C170.78 154.078 170.57 154.12 170.357 154.12L170.084 141.638C170.088 141.258 169.992 140.883 169.806 140.551C169.62 140.219 169.35 139.94 169.023 139.743L165.352 137.457C164.928 137.186 164.533 136.915 164.139 136.705L162.683 135.742L162.41 135.562L161.257 134.9C180.792 125.185 177.455 107.378 177.455 107.378L174.907 106.957C174.421 102.625 172.835 98.4851 170.297 94.9257L167.84 95.798C166.899 92.6097 159.892 87.346 159.346 87.0452C158.497 87.5264 151.338 92.1585 150.822 95.2566L148.244 94.3241C145.405 98.3911 143.671 103.115 143.208 108.04H141.085C141.085 108.04 138.234 117.304 149.821 123.44C151.933 124.558 154.174 125.416 156.495 125.997H156.828H157.253L157.92 126.177V122.718C157.946 122.127 157.817 121.539 157.546 121.012C157.275 120.485 156.871 120.037 156.373 119.71L146.454 113.003C146.573 112.824 146.727 112.671 146.907 112.552C147.087 112.434 147.289 112.352 147.502 112.313C147.714 112.274 147.932 112.277 148.143 112.323C148.354 112.37 148.553 112.457 148.729 112.582L157.981 118.838V114.266C157.98 113.875 157.883 113.489 157.698 113.143C157.513 112.797 157.246 112.501 156.919 112.281L149.427 107.198C149.678 106.849 150.055 106.611 150.479 106.532C150.903 106.454 151.341 106.541 151.702 106.777L158.254 111.048V106.626C158.256 106.212 158.151 105.803 157.949 105.44C157.748 105.077 157.456 104.771 157.101 104.551L152.491 101.543C152.602 101.365 152.748 101.211 152.92 101.089C153.091 100.967 153.285 100.88 153.491 100.833C153.697 100.785 153.91 100.778 154.118 100.812C154.326 100.847 154.526 100.921 154.705 101.032L158.284 103.257V96.55C158.292 96.3369 158.381 96.1347 158.533 95.984C158.685 95.8333 158.889 95.7453 159.103 95.7378C159.321 95.7378 159.529 95.8234 159.683 95.9757C159.836 96.128 159.922 96.3346 159.922 96.55V103.257L163.502 101.152C163.687 101.043 163.892 100.972 164.105 100.942C164.318 100.912 164.535 100.923 164.744 100.976C164.952 101.03 165.148 101.123 165.32 101.251C165.492 101.379 165.637 101.54 165.747 101.723L161.105 104.431C160.74 104.643 160.436 104.946 160.223 105.31C160.011 105.674 159.897 106.086 159.892 106.506V110.927L166.262 106.837C166.441 106.72 166.641 106.64 166.851 106.601C167.062 106.562 167.278 106.565 167.487 106.61C167.696 106.655 167.894 106.74 168.069 106.862C168.244 106.984 168.393 107.139 168.507 107.318L160.893 112.191C160.58 112.394 160.322 112.67 160.142 112.995C159.962 113.32 159.866 113.685 159.862 114.056V118.718L169.235 112.702C169.598 112.474 170.037 112.397 170.457 112.487C170.876 112.577 171.244 112.827 171.48 113.183L160.802 120.071C160.486 120.281 160.225 120.562 160.041 120.892C159.856 121.221 159.753 121.59 159.74 121.966V126.508V129.787V132.223C140.933 118.327 127.526 131.05 127.526 131.05L128.588 133.426C125.554 134.389 119.851 143.232 119.851 143.232L121.853 145.066C119.366 146.781 118.001 155.895 118.001 156.496C118.517 156.827 126.312 160.557 129.164 159.895L129.771 162.903C129.771 162.903 140.721 162.572 144.088 160.286L145.241 162.723C145.241 162.723 155.008 158.06 155.221 147.894C155.221 147.894 155.221 147.593 155.221 147.443C155.02 145.124 154.562 142.834 153.856 140.615C153.856 140.434 153.856 140.254 153.856 140.073C153.856 139.863 153.856 139.622 153.674 139.382L150.367 140.765C149.848 141.029 149.404 141.418 149.075 141.896C148.746 142.374 148.544 142.927 148.487 143.502L147.213 155.353C146.998 155.335 146.79 155.274 146.6 155.174C146.41 155.074 146.242 154.937 146.106 154.771C145.97 154.606 145.869 154.415 145.809 154.21C145.749 154.005 145.731 153.791 145.757 153.579L146.94 142.54L142.844 144.645C142.495 144.83 142.196 145.096 141.974 145.421C141.752 145.746 141.613 146.12 141.57 146.51L140.63 155.534C140.2 155.488 139.806 155.276 139.534 154.944C139.261 154.611 139.132 154.186 139.174 153.759L139.993 146.209L136.019 148.255C135.648 148.446 135.332 148.729 135.104 149.077C134.875 149.425 134.741 149.826 134.715 150.24L134.351 155.654C133.922 155.623 133.522 155.426 133.238 155.105C132.954 154.784 132.809 154.366 132.834 153.94L133.107 149.759L127.04 152.767C126.946 152.839 126.837 152.89 126.721 152.916C126.605 152.942 126.484 152.942 126.367 152.918C126.251 152.893 126.141 152.843 126.046 152.772C125.951 152.7 125.873 152.609 125.817 152.505C125.761 152.401 125.729 152.286 125.722 152.168C125.716 152.05 125.735 151.932 125.78 151.822C125.824 151.712 125.892 151.613 125.979 151.532C126.065 151.451 126.169 151.39 126.282 151.353L132.349 148.345L128.77 146.209C128.406 145.98 128.147 145.62 128.045 145.205C127.943 144.791 128.007 144.353 128.224 143.984L132.834 146.751C133.205 146.956 133.623 147.064 134.048 147.064C134.472 147.064 134.89 146.956 135.261 146.751L139.204 144.706L132.44 141.126C132.064 140.917 131.786 140.569 131.666 140.158C131.547 139.747 131.596 139.306 131.803 138.93L139.75 143.292C140.083 143.463 140.452 143.553 140.827 143.553C141.202 143.553 141.571 143.463 141.904 143.292L146.03 141.126L136.383 135.742C136.007 135.533 135.729 135.185 135.61 134.774C135.49 134.363 135.54 133.922 135.746 133.546L146.788 139.562C147.13 139.739 147.51 139.831 147.895 139.831C148.281 139.831 148.66 139.739 149.002 139.562L153.006 137.457C153.006 137.457 155.039 136.374 155.645 136.133L155.979 135.953L157.223 135.231C157.223 136.173 157.162 137.076 157.041 137.938C156.713 143.087 158.016 148.21 160.768 152.589C163.52 156.968 167.583 160.384 172.39 162.362L173.967 160.076C177 161.91 186.889 162.873 186.889 162.873L188.042 159.865C190.62 160.978 198.568 158.121 199.357 157.729L199.478 157.85Z" fill="white"/>
<path d="M57.7554 62.5219C56.9045 64.6993 55.2326 66.4555 53.0998 67.4126C50.9669 68.3696 48.5435 68.4511 46.3513 67.6392C39.041 65.7385 38.0906 54.2612 26.3941 54.2612C16.6714 54.2612 15.8672 72.537 16.1596 78.2391C16.452 83.9411 16.1596 99.5853 38.9678 114.791C58.4133 127.803 61.776 128.169 68.5746 141.327C72.773 150.723 74.3638 161.077 73.1802 171.3C69.1841 160.54 62.6073 150.925 54.0272 143.301C37.5058 130.727 23.2506 121.37 15.5747 114.498C10.1853 109.42 6.00221 103.199 3.33293 96.2916C0.663658 89.3844 -0.423973 81.9667 0.149948 74.5839C0.149948 53.4571 9.2879 37.2282 26.6865 36.9357C32.2481 37.2876 37.6556 38.9066 42.4957 41.6687C47.3357 44.4308 51.4801 48.2631 54.612 52.8724L57.7554 62.5219Z" fill="#0079AF"/>
<path d="M100.266 139.378L63.4684 128.399L55.8595 131.06L36.5252 181.741L85.2974 196.38L104.507 145.699L100.266 139.378Z" fill="#784C9F"/>
<path d="M78.6091 167.246C112.696 116.951 60.2706 72.897 104.507 28.0451" stroke="#784C9F"/>
<path d="M265.514 36.4238C265.514 54.6265 218.435 69.3203 160.391 69.3203C102.347 69.3203 55.3416 54.6996 55.3416 36.4238C55.3416 18.148 102.566 7.18249 160.61 7.18249C218.655 7.18249 265.514 18.4404 265.514 36.4238Z" fill="#FCFCFC"/>
<path d="M88.4648 39.6821C88.4648 48.1692 123.288 57.0916 161.917 57.0916C200.546 57.0916 230.086 52.3583 231.96 44.0888C235.141 29.5084 199.466 22.3271 160.837 22.3271C122.208 22.3271 88.4648 31.2494 88.4648 39.6821Z" stroke="#0091D2" stroke-width="0.75"/>
<path d="M113.959 38.6771C113.959 43.9276 138.04 47.8212 165.508 47.8212C192.976 47.8212 213.617 43.9276 213.617 38.6771C213.617 33.4266 191.578 31.5977 164.111 31.5977C136.643 31.5977 113.959 33.4856 113.959 38.6771Z" stroke="#0091D2" stroke-width="0.75"/>
</svg>
