<svg width="117" height="130" viewBox="0 0 117 130" fill="none" xmlns="http://www.w3.org/2000/svg">
<rect width="5.04813" height="34.7059" transform="matrix(-1 0 0 1 68.7812 95.2834)" fill="#5F2305"/>
<path fill-rule="evenodd" clip-rule="evenodd" d="M31.5508 25.4881C31.5508 28.0097 32.0041 30.4457 32.8484 32.746C30.7222 34.4245 28.8886 36.3438 27.4149 38.4492C11.9443 40.0855 0 50.7761 0 63.7203C0 74.2196 7.85837 83.2361 19.0828 87.1409C20.6495 100.034 34.1091 110.109 50.4813 110.109C60.5727 110.109 69.5576 106.281 75.333 100.325C78.7903 101.377 82.5366 101.952 86.4492 101.952C103.874 101.952 118 90.541 118 76.4643C118 71.8218 116.464 67.4692 113.779 63.7203C116.464 59.9713 118 55.6187 118 50.9762C118 39.1866 108.091 29.2665 94.6345 26.3543C94.6464 26.0667 94.6524 25.778 94.6524 25.4881C94.6524 11.4114 80.5266 0 63.1016 0C45.6766 0 31.5508 11.4114 31.5508 25.4881Z" fill="#C4C4C4"/>
<path fill-rule="evenodd" clip-rule="evenodd" d="M31.5508 25.4881C31.5508 28.0097 32.0041 30.4457 32.8484 32.746C30.7222 34.4245 28.8886 36.3438 27.4149 38.4492C11.9443 40.0855 0 50.7761 0 63.7203C0 74.2196 7.85837 83.2361 19.0828 87.1409C20.6495 100.034 34.1091 110.109 50.4813 110.109C60.5727 110.109 69.5576 106.281 75.333 100.325C78.7903 101.377 82.5366 101.952 86.4492 101.952C103.874 101.952 118 90.541 118 76.4643C118 71.8218 116.464 67.4692 113.779 63.7203C116.464 59.9713 118 55.6187 118 50.9762C118 39.1866 108.091 29.2665 94.6345 26.3543C94.6464 26.0667 94.6524 25.778 94.6524 25.4881C94.6524 11.4114 80.5266 0 63.1016 0C45.6766 0 31.5508 11.4114 31.5508 25.4881Z" fill="url(#paint0_linear)"/>
<defs>
<linearGradient id="paint0_linear" x1="79.8235" y1="112.636" x2="38.9919" y2="-75.3224" gradientUnits="userSpaceOnUse">
<stop stop-color="#8CBB06"/>
<stop offset="0.949051" stop-color="#FFF869"/>
</linearGradient>
</defs>
</svg>
