<svg width="149" height="165" viewBox="0 0 149 165" fill="none" xmlns="http://www.w3.org/2000/svg">
<rect x="62.1494" y="120.316" width="6.37433" height="43.8235" fill="#5F2305"/>
<path fill-rule="evenodd" clip-rule="evenodd" d="M109.16 32.1841C109.16 35.3681 108.588 38.4442 107.522 41.3487C110.207 43.4682 112.522 45.8917 114.383 48.5502C133.918 50.6165 149 64.1155 149 80.4603C149 93.7179 139.077 105.103 124.904 110.034C122.926 126.315 105.93 139.035 85.2567 139.035C72.5141 139.035 61.1688 134.203 53.8761 126.682C49.5105 128.01 44.7801 128.736 39.8396 128.736C17.8368 128.736 0 114.327 0 96.5524C0 90.6902 1.94007 85.1942 5.32981 80.4603C1.94007 75.7265 0 70.2304 0 64.3683C0 49.4813 12.5118 36.9551 29.5039 33.2778C29.4888 32.9148 29.4813 32.5502 29.4813 32.1841C29.4813 14.4093 47.3181 0 69.3209 0C91.3236 0 109.16 14.4093 109.16 32.1841Z" fill="#C4C4C4"/>
<path fill-rule="evenodd" clip-rule="evenodd" d="M109.16 32.1841C109.16 35.3681 108.588 38.4442 107.522 41.3487C110.207 43.4682 112.522 45.8917 114.383 48.5502C133.918 50.6165 149 64.1155 149 80.4603C149 93.7179 139.077 105.103 124.904 110.034C122.926 126.315 105.93 139.035 85.2567 139.035C72.5141 139.035 61.1688 134.203 53.8761 126.682C49.5105 128.01 44.7801 128.736 39.8396 128.736C17.8368 128.736 0 114.327 0 96.5524C0 90.6902 1.94007 85.1942 5.32981 80.4603C1.94007 75.7265 0 70.2304 0 64.3683C0 49.4813 12.5118 36.9551 29.5039 33.2778C29.4888 32.9148 29.4813 32.5502 29.4813 32.1841C29.4813 14.4093 47.3181 0 69.3209 0C91.3236 0 109.16 14.4093 109.16 32.1841Z" fill="url(#paint0_linear)"/>
<defs>
<linearGradient id="paint0_linear" x1="48.2059" y1="142.227" x2="99.7644" y2="-95.1105" gradientUnits="userSpaceOnUse">
<stop stop-color="#8CBB06"/>
<stop offset="0.949051" stop-color="#FFF869"/>
</linearGradient>
</defs>
</svg>
