<svg width="137" height="233" viewBox="0 0 137 233" fill="none" xmlns="http://www.w3.org/2000/svg">
<rect x="62.6504" y="121.084" width="6.62649" height="111.445" fill="#5F2305"/>
<path fill-rule="evenodd" clip-rule="evenodd" d="M102 32.5C102 34.1598 101.862 35.7906 101.596 37.3835C108.287 40.796 113.641 45.7626 116.883 51.6556C128.724 56.5899 137 67.8717 137 81C137 90.8801 132.312 99.7144 124.946 105.584C120.9 120.021 104.923 130.8 85.8285 130.8C76.8603 130.8 68.5796 128.422 61.8998 124.404C55.6253 127.691 48.142 129.6 40.1068 129.6C17.9564 129.6 0 115.094 0 97.2001C0 91.2986 1.9531 85.7656 5.36562 81C1.9531 76.2344 0 70.7014 0 64.7999C0 49.7219 12.7495 37.0494 30.0146 33.4343C30.0049 33.124 30 32.8125 30 32.5C30 14.5507 46.1177 0 66 0C85.8822 0 102 14.5507 102 32.5Z" fill="#C4C4C4"/>
<path fill-rule="evenodd" clip-rule="evenodd" d="M102 32.5C102 34.1598 101.862 35.7906 101.596 37.3835C108.287 40.796 113.641 45.7626 116.883 51.6556C128.724 56.5899 137 67.8717 137 81C137 90.8801 132.312 99.7144 124.946 105.584C120.9 120.021 104.923 130.8 85.8285 130.8C76.8603 130.8 68.5796 128.422 61.8998 124.404C55.6253 127.691 48.142 129.6 40.1068 129.6C17.9564 129.6 0 115.094 0 97.2001C0 91.2986 1.9531 85.7656 5.36562 81C1.9531 76.2344 0 70.7014 0 64.7999C0 49.7219 12.7495 37.0494 30.0146 33.4343C30.0049 33.124 30 32.8125 30 32.5C30 14.5507 46.1177 0 66 0C85.8822 0 102 14.5507 102 32.5Z" fill="url(#paint0_linear)"/>
<defs>
<linearGradient id="paint0_linear" x1="48.5294" y1="143.181" x2="100.434" y2="-95.7486" gradientUnits="userSpaceOnUse">
<stop stop-color="#8CBB06"/>
<stop offset="0.949051" stop-color="#FFF869"/>
</linearGradient>
</defs>
</svg>
