<svg width="168" height="159" viewBox="0 0 168 159" fill="none" xmlns="http://www.w3.org/2000/svg">
<path fill-rule="evenodd" clip-rule="evenodd" d="M44.0104 46.5322C44.4308 49.7097 45.4081 52.704 46.8554 55.462C44.4558 57.9318 42.4649 60.6562 40.9587 63.5553C21.7355 68.1966 8.46543 83.66 10.6234 99.9723C12.3737 113.204 23.7803 123.257 38.5766 126.306C42.7006 142.293 61.3418 152.744 81.9739 150.015C94.6911 148.333 105.376 142.012 111.661 133.543C116.193 134.292 121.01 134.393 125.941 133.741C147.9 130.836 163.799 114.1 161.452 96.3606C160.678 90.5101 158.017 85.2811 154.009 81.0042C156.767 75.8322 157.977 70.0908 157.203 64.2403C155.238 49.3828 141.097 38.5333 123.653 37.1068C123.62 36.7425 123.58 36.3777 123.531 36.0125C121.185 18.273 101.481 6.24721 79.5217 9.15213C57.5627 12.0571 41.6637 28.7927 44.0104 46.5322Z" fill="#C4C4C4"/>
<path fill-rule="evenodd" clip-rule="evenodd" d="M44.0104 46.5322C44.4308 49.7097 45.4081 52.704 46.8554 55.462C44.4558 57.9318 42.4649 60.6562 40.9587 63.5553C21.7355 68.1966 8.46543 83.66 10.6234 99.9723C12.3737 113.204 23.7803 123.257 38.5766 126.306C42.7006 142.293 61.3418 152.744 81.9739 150.015C94.6911 148.333 105.376 142.012 111.661 133.543C116.193 134.292 121.01 134.393 125.941 133.741C147.9 130.836 163.799 114.1 161.452 96.3606C160.678 90.5101 158.017 85.2811 154.009 81.0042C156.767 75.8322 157.977 70.0908 157.203 64.2403C155.238 49.3828 141.097 38.5333 123.653 37.1068C123.62 36.7425 123.58 36.3777 123.531 36.0125C121.185 18.273 101.481 6.24721 79.5217 9.15213C57.5627 12.0571 41.6637 28.7927 44.0104 46.5322Z" fill="url(#paint0_linear)"/>
<defs>
<linearGradient id="paint0_linear" x1="119.372" y1="148.309" x2="36.5819" y2="-81.7502" gradientUnits="userSpaceOnUse">
<stop stop-color="#8CBB06"/>
<stop offset="0.949051" stop-color="#FFF869"/>
</linearGradient>
</defs>
</svg>
