<svg width="88" height="75" viewBox="0 0 88 75" fill="none" xmlns="http://www.w3.org/2000/svg">
<path fill-rule="evenodd" clip-rule="evenodd" d="M48.6086 1.09609C40.0493 1.35332 32.9413 6.81454 30.5767 14.1703C26.2174 15.917 22.6414 18.7436 20.375 22.1982C9.25566 23.7132 0.875057 31.6801 1.15554 41.0133C1.38305 48.5836 7.24454 54.9145 15.4223 57.4866C16.8314 66.7491 26.7543 73.721 38.5589 73.3663C45.8351 73.1476 52.2305 70.1933 56.2656 65.7738C58.7814 66.4572 61.4951 66.7909 64.3164 66.7061C76.8802 66.3285 86.8179 57.7946 86.5129 47.645C86.4123 44.2974 85.21 41.1922 83.193 38.5471C85.0471 35.786 86.0604 32.6146 85.9598 29.2675C85.6892 20.2639 77.4493 13.0135 66.8215 11.7545C63.6692 5.26251 56.6389 0.854757 48.6086 1.09609Z" fill="#C4C4C4"/>
<path fill-rule="evenodd" clip-rule="evenodd" d="M48.6086 1.09609C40.0493 1.35332 32.9413 6.81454 30.5767 14.1703C26.2174 15.917 22.6414 18.7436 20.375 22.1982C9.25566 23.7132 0.875057 31.6801 1.15554 41.0133C1.38305 48.5836 7.24454 54.9145 15.4223 57.4866C16.8314 66.7491 26.7543 73.721 38.5589 73.3663C45.8351 73.1476 52.2305 70.1933 56.2656 65.7738C58.7814 66.4572 61.4951 66.7909 64.3164 66.7061C76.8802 66.3285 86.8179 57.7946 86.5129 47.645C86.4123 44.2974 85.21 41.1922 83.193 38.5471C85.0471 35.786 86.0604 32.6146 85.9598 29.2675C85.6892 20.2639 77.4493 13.0135 66.8215 11.7545C63.6692 5.26251 56.6389 0.854757 48.6086 1.09609Z" fill="url(#paint0_linear)"/>
<defs>
<linearGradient id="paint0_linear" x1="59.7708" y1="74.553" x2="26.2579" y2="-60.0844" gradientUnits="userSpaceOnUse">
<stop stop-color="#8CBB06"/>
<stop offset="0.949051" stop-color="#FFF869"/>
</linearGradient>
</defs>
</svg>
