<svg width="47" height="46" viewBox="0 0 47 46" fill="none" xmlns="http://www.w3.org/2000/svg">
<path d="M2.05061 3.80406C1.66357 3.94259 1.0134 3.44758 0.7367 3.18277C1.52692 4.62823 2.98308 7.78193 2.48605 8.83306C1.98901 9.88418 2.01584 12.094 2.09138 13.0676L3.9604 16.7648L1.21292 17.4753L4.06736 21.6385L2.28749 22.0026L6.62633 29.4976L3.23972 30.7097C3.64102 31.221 7.15343 33.7661 8.85947 34.9747L6.92427 35.6673L14.0516 39.6232L12.9286 40.2979L18.0289 43.1116L17.2345 43.9417C29.9437 48.3437 38.0354 41.3181 40.4926 37.255C44.7602 30.2699 45.732 24.1915 45.6845 22.0254L43.2655 22.8911C43.624 21.453 43.2043 17.6372 42.9497 15.9091L40.877 17.7425C41.2213 15.6545 38.0905 11.7357 36.482 10.0373L35.5322 11.1959C34.7154 9.52349 32.5165 7.0904 31.5192 6.08291L30.8979 7.39682L25.9173 2.63012L25.1585 5.08478L18.4158 1.49449L18.4693 3.93131C17.0169 2.92297 13.8307 2.40778 12.4192 2.27622L12.2996 4.22926C11.2342 3.0824 8.27212 3.39663 6.92427 3.6971L3.51984 4.09689C3.19136 3.94156 2.43765 3.66554 2.05061 3.80406Z" fill="white" stroke="#18181E"/>
</svg>
