<svg width="80" height="80" fill="none" xmlns="http://www.w3.org/2000/svg"><path d="M39.813 0C17.826 0 0 17.827 0 39.813c0 21.985 17.827 39.812 39.813 39.812 21.985 0 39.812-17.827 39.812-39.813C79.625 17.828 61.798 0 39.812 0zm1.981 59.114l.018 2.818a.72.72 0 01-.71.72h-2.525a.713.713 0 01-.71-.712v-2.79c-7.892-.587-11.607-5.083-12.007-9.97a.712.712 0 01.711-.774h4.106c.346 0 .649.249.702.587.453 2.817 2.648 4.923 6.585 5.447V41.759l-2.195-.56c-4.648-1.111-9.073-4.008-9.073-10.015 0-6.479 4.923-9.963 11.215-10.576v-2.932c0-.391.32-.711.71-.711h2.498c.39 0 .71.32.71.71v2.907c6.088.613 10.656 4.168 11.19 9.704a.71.71 0 01-.712.782h-3.99a.71.71 0 01-.702-.613c-.355-2.595-2.435-4.71-5.82-5.172v11.935l2.256.524c5.76 1.422 9.678 4.177 9.678 10.344 0 6.692-4.977 10.424-11.935 11.029zm-9.57-28.34c0 2.258 1.395 4.009 4.398 5.093.418.169.836.302 1.333.444v-11.02c-3.279.418-5.732 2.258-5.732 5.484zM42.575 42.79a12.587 12.587 0 01-.782-.196v11.882c3.786-.338 6.399-2.418 6.399-5.901 0-2.728-1.413-4.506-5.617-5.785z" fill="#FFA630"/></svg>