<svg width="79" height="80" fill="none" xmlns="http://www.w3.org/2000/svg"><path d="M72.875 68.438L20.038 15.6l-15-15L.161 5.25l12.975 12.975L7.25 35.25v30A3.75 3.75 0 0011 69h3.75a3.75 3.75 0 003.75-3.75V61.5h37.913L74.15 79.238l4.762-4.763-6.037-6.037zm-52.5-18.188a5.625 5.625 0 110-11.25 5.625 5.625 0 010 11.25zM14.75 31.5l2.925-8.737 8.738 8.737H14.75zm46.875-16.875L67.25 31.5H45.5l10.95 10.95c1.425-2.812 4.688-3.975 7.5-2.662 2.813 1.35 3.975 4.725 2.662 7.5-.562 1.087-1.5 2.1-2.662 2.662l10.8 10.8v-25.5l-7.8-22.5C66.162 10.5 64.025 9 61.625 9H23l5.625 5.625h33z" fill="#FFA630"/></svg>