<svg width="53" height="75" fill="none" xmlns="http://www.w3.org/2000/svg"><path d="M28.178.771a2.208 2.208 0 00-3.355 0C18.997 7.577 0 31.105 0 48.534 0 64.776 10.24 75 26.5 75 42.76 75 53 64.776 53 48.534 53 31.106 34.003 7.577 28.178.771zm1.266 64.672a2.21 2.21 0 01-2.192-1.901 2.203 2.203 0 01.106-1.04 2.186 2.186 0 012.1-1.47 11.06 11.06 0 007.79-3.233 11.03 11.03 0 003.238-7.782 2.183 2.183 0 011.472-2.097 2.21 2.21 0 012.945 2.085 15.445 15.445 0 01-4.533 10.911 15.485 15.485 0 01-10.926 4.527z" fill="#FFA630"/></svg>