<svg width="28" height="27" fill="none" xmlns="http://www.w3.org/2000/svg"><path fill-rule="evenodd" clip-rule="evenodd" d="M13.762 26.406c-7.32 0-13.254-5.91-13.254-13.203C.508 5.911 6.442 0 13.762 0c7.321 0 13.255 5.91 13.255 13.203 0 7.292-5.934 13.203-13.255 13.203zM7.484 19.63h2.924v-8.165H7.484v8.165zm1.482-12.1c-1 0-1.655.61-1.655 1.41 0 .785.635 1.411 1.616 1.411h.02c1.019 0 1.653-.626 1.653-1.41-.018-.8-.634-1.41-1.634-1.41zm11.984 7.42c0-2.51-1.443-3.676-3.366-3.676-1.553 0-2.246.792-2.634 1.348v-1.157h-2.924c.038.767 0 8.165 0 8.165h2.924v-4.56c0-.244.018-.489.095-.661.211-.489.693-.994 1.5-.994 1.058 0 1.481.749 1.481 1.847v4.367h2.924v-4.68zm-6.02-2.3c.005-.01.014-.019.02-.028v.027h-.02z" fill="#CBCBCB"/></svg>