<svg width="29" height="68" fill="none" xmlns="http://www.w3.org/2000/svg"><path d="M12.662 12.603h2.815c6.416 0 11.668 5.252 11.668 11.667v19.285c0 6.416-5.252 11.668-11.668 11.668h-2.815C6.246 55.223.994 49.971.994 43.555V24.27c0-6.415 5.252-11.667 11.668-11.667z" stroke="#252525"/><path d="M17.223 55.07h-6.306c-5.66 0-10.29-4.629-10.29-10.288V23.044c0-5.66 4.63-10.289 10.29-10.289h6.305c5.66 0 10.29 4.63 10.29 10.289v21.738c0 5.66-4.631 10.289-10.29 10.289h.001z" stroke="#252525" stroke-miterlimit="10" stroke-linecap="round" stroke-linejoin="round"/><path d="M14.165 29.621h-.191a2.317 2.317 0 01-2.312-2.312v-6.885a2.319 2.319 0 012.312-2.31h.191a2.319 2.319 0 012.312 2.312v6.885a2.32 2.32 0 01-2.312 2.312v-.002zm5.906 31.731l-5.94 5.94m-5.988-5.94l5.94 5.94M8.143 6.544l5.94-5.94m5.988 5.94l-5.94-5.94" stroke="#252525" stroke-miterlimit="10" stroke-linecap="round" stroke-linejoin="round"/></svg>