<svg width="61" height="59" fill="none" xmlns="http://www.w3.org/2000/svg"><path d="M11.829 16.598l4.164 2.114a5.289 5.289 0 004.81-.264l3.935-2.6a5.361 5.361 0 001.609-1.912c.38-.757.578-1.595.578-2.445l-.25-4.768a5.469 5.469 0 00-.832-2.364 5.367 5.367 0 00-1.792-1.728L19.887.464a5.259 5.259 0 00-4.81.253l-3.935 2.601a5.38 5.38 0 00-1.607 1.913 5.47 5.47 0 00-.58 2.443l.25 4.769c.08.854.361 1.677.817 2.4a5.354 5.354 0 001.807 1.755zm25.431 6.233l-4.164-2.038a5.564 5.564 0 00-4.8.249l-3.977 2.445a5.19 5.19 0 00-1.601 1.8 4.932 4.932 0 00-.585 2.295l.25 4.483c.09.793.376 1.554.831 2.222a5.236 5.236 0 001.792 1.625l4.165 1.988a5.533 5.533 0 004.8-.239l3.945-2.445a5.208 5.208 0 001.602-1.806c.38-.712.58-1.5.584-2.3l-.25-4.472a4.966 4.966 0 00-.828-2.194 5.255 5.255 0 00-1.764-1.613zm12.974 19.298l-4.447-2.13a5.914 5.914 0 00-5.137.256l-4.203 2.619a5.528 5.528 0 00-1.712 1.926 5.273 5.273 0 00-.622 2.459l.267 4.8c.106.835.412 1.635.894 2.338a5.618 5.618 0 001.885 1.717l4.447 2.129a5.953 5.953 0 005.137-.266l4.213-2.619a5.508 5.508 0 001.71-1.927 5.25 5.25 0 00.614-2.458l-.233-4.715a5.292 5.292 0 00-.89-2.387 5.586 5.586 0 00-1.923-1.742z" fill="#37392E" fill-opacity=".5"/><path d="M18.618 30.924l-.198-3.628c.005-.83.205-1.647.585-2.386.38-.74.929-1.38 1.602-1.872l7.676-4.951a5.373 5.373 0 014.801-.258l3.27 1.653a5.367 5.367 0 004.812-.248l3.937-2.553a5.3 5.3 0 001.606-1.87c.38-.74.579-1.557.581-2.388l-.25-4.651a5.265 5.265 0 00-.83-2.316 5.316 5.316 0 00-1.794-1.694L40.25 1.643a5.401 5.401 0 00-4.812.258l-4.02 2.502a5.292 5.292 0 00-1.6 1.87 5.248 5.248 0 00-.577 2.388l.188 3.628c0 .83-.198 1.647-.576 2.387a5.292 5.292 0 01-1.6 1.871l-7.677 4.95a5.363 5.363 0 01-4.811.249l-3.26-1.643a5.369 5.369 0 00-4.812.247l-3.937 2.543a5.293 5.293 0 00-1.606 1.87 5.25 5.25 0 00-.58 2.388l.25 4.662c.088.826.372 1.62.828 2.317a5.305 5.305 0 001.796 1.693L7.61 37.89a5.4 5.4 0 004.811-.258l3.937-2.543a5.304 5.304 0 001.625-1.818c.392-.723.61-1.526.635-2.347zm41.642-3.843a5.561 5.561 0 00-.836-2.382 5.431 5.431 0 00-1.794-1.748l-4.173-2.128a5.29 5.29 0 00-4.82.266l-3.944 2.618a5.435 5.435 0 00-1.608 1.926 5.55 5.55 0 00-.583 2.46l.198 3.746a5.55 5.55 0 01-.584 2.458 5.432 5.432 0 01-1.607 1.927l-7.68 5.087a5.281 5.281 0 01-4.82.266l-3.276-1.703a5.26 5.26 0 00-4.81.267l-3.985 2.607a5.455 5.455 0 00-1.605 1.928 5.569 5.569 0 00-.586 2.457l.25 4.8a5.53 5.53 0 00.834 2.38 5.39 5.39 0 001.796 1.74l4.173 2.181a5.23 5.23 0 004.81-.255l3.954-2.618a5.464 5.464 0 001.604-1.928c.38-.762.582-1.603.587-2.458l-.198-3.746a5.537 5.537 0 01.582-2.46 5.422 5.422 0 011.609-1.925l7.679-5.098a5.248 5.248 0 014.82-.255l3.266 1.692a5.252 5.252 0 004.82-.256l3.955-2.618a5.426 5.426 0 001.602-1.928 5.539 5.539 0 00.578-2.457l-.209-4.843z" fill="#37392E" fill-opacity=".5"/></svg>