<svg width="60" height="58" fill="none" xmlns="http://www.w3.org/2000/svg"><path d="M18.326 24.064l-8.979-5.1-8.99 5.1v10.177l8.99 5.089 8.979-5.089V24.064zm-1.933 9.083l-7.046 3.982-7.045-3.982v-7.988l7.045-3.994 7.046 3.994v7.988zm22.299-9.094L29.7 18.964l-8.979 5.089V34.23l8.979 5.1 8.99-5.1V24.053zm10.775-5.089l-9.577 5.1v10.177l9.577 5.089 9.59-5.089V24.064l-9.59-5.1zm7.516 14.183l-7.516 3.982-7.515-3.982v-7.988l7.515-3.994 7.516 3.994v7.988zm-45.845 7.989v10.776l9.003 5.387 8.967-5.387V41.136l-8.967-5.4-9.003 5.4zm16.003 9.654l-7 4.18-7.108-4.18v-8.495l7.108-4.229 7.024 4.229-.024 8.495zm3.165-9.654v10.776l8.979 5.387 8.99-5.387V41.136l-8.99-5.4-8.98 5.4zM46.33 50.79l-7.045 4.216-7.034-4.216v-8.495l7.034-4.229 7.045 4.229v8.495zM29.108 17.17V6.358L20.153.995l-9.015 5.363v10.775l9.015 5.425 8.955-5.388zM13.036 7.59l7.117-4.265 7.01 4.266v8.457l-7.01 4.18-7.117-4.217v-8.42zm35.239 9.617V6.395l-8.99-5.4-8.98 5.4V17.17l8.98 5.388 8.99-5.35zm-16.024-9.58L39.285 3.4l7.045 4.229v8.457l-7.045 4.217-7.034-4.217V7.628z" fill="#37392E" fill-opacity=".5"/></svg>