<svg width="60" height="59" fill="none" xmlns="http://www.w3.org/2000/svg"><path d="M9.974 10.782L.989 20.366l8.985 9.583 8.985-9.583-8.985-9.584z" fill="#37392E" fill-opacity=".5"/><path d="M19.358 19.772l-9.184-8.99a12.574 12.574 0 013.8 8.985 12.57 12.57 0 01-3.8 8.984l-9.185 8.98 9.185 8.99 9.184-8.99 9.185-8.98-9.185-8.98zm31.347 26.949l8.985-8.386-8.985-8.386-8.985 8.386 8.985 8.386z" fill="#37392E" fill-opacity=".5"/><path d="M41.314 37.744l9.188 8.977a12.566 12.566 0 01-3.803-8.982c0-3.369 1.368-6.6 3.803-8.982l9.188-8.988-9.188-8.987-9.188 8.987-9.178 8.988 9.178 8.987zM11.77 49.716l9.585 8.985 9.584-8.985-9.584-8.985-9.584 8.985z" fill="#37392E" fill-opacity=".5"/><path d="M21.06 40.325l-9.29 9.188a13.207 13.207 0 019.285-3.803c3.482 0 6.822 1.368 9.285 3.803l9.279 9.188 9.29-9.188-9.29-9.188-9.28-9.178-9.279 9.178zm27.848-31.34L39.923 0 30.94 8.985l8.984 8.985 8.985-8.985z" fill="#37392E" fill-opacity=".5"/><path d="M39.632 17.57l9.276-8.785c-2.462 2.328-5.8 3.636-9.282 3.636-3.48 0-6.82-1.308-9.281-3.636L21.058 0 11.77 8.785l9.287 8.785 9.287 8.785 9.287-8.785z" fill="#37392E" fill-opacity=".5"/></svg>