<svg width="57" height="58" fill="none" xmlns="http://www.w3.org/2000/svg"><path d="M51.892 1.396h-6.79a3.793 3.793 0 00-3.792 3.793v6.79a3.793 3.793 0 003.793 3.793h6.789a3.793 3.793 0 003.793-3.794V5.19a3.793 3.793 0 00-3.793-3.793z" fill="#37392E" fill-opacity=".5"/><path d="M23.835 16.892h6.25a11.46 11.46 0 016.98 2.89l.234.26a11.328 11.328 0 012.89 6.98v6.224a4.089 4.089 0 004.09 4.09h7.317a4.089 4.089 0 004.09-4.09v-7.318a4.089 4.089 0 00-4.09-4.088h-6.224a11.329 11.329 0 01-6.98-2.891l-.26-.235a11.407 11.407 0 01-2.89-6.979v-6.25a4.089 4.089 0 00-4.09-4.09h-7.317a4.088 4.088 0 00-4.089 4.09v7.318a4.089 4.089 0 004.089 4.088z" fill="#37392E" fill-opacity=".5"/><path d="M52.843 42.137h-6.137a11.01 11.01 0 01-6.852-3.003l-.69-.705a11.486 11.486 0 01-2.839-6.999v-6.267a4.171 4.171 0 00-1.183-2.892 3.998 3.998 0 00-2.832-1.208h-6.136a10.922 10.922 0 01-6.853-2.82l-.69-.705a11.486 11.486 0 01-2.839-6.999V4.298c0-1.087-.423-2.13-1.175-2.9a3.973 3.973 0 00-2.839-1.2H4.593a3.973 3.973 0 00-2.839 1.2 4.145 4.145 0 00-1.176 2.9v7.338c0 1.087.423 2.13 1.176 2.899a3.972 3.972 0 002.839 1.2h6.111c2.58.121 5.04 1.155 6.955 2.926l.69.705a11.566 11.566 0 012.839 6.998v6.268a4.17 4.17 0 001.183 2.89 3.998 3.998 0 002.831 1.21h6.137c2.514.16 4.9 1.181 6.776 2.898l.69.705a11.566 11.566 0 012.839 6.999V53.6a4.17 4.17 0 001.183 2.892 3.998 3.998 0 002.831 1.208h7.21a3.998 3.998 0 002.832-1.209 4.17 4.17 0 001.183-2.891v-7.364a4.17 4.17 0 00-1.192-2.9 3.998 3.998 0 00-2.848-1.2zm-39.918-.01H5.004c-2.444 0-4.426 1.698-4.426 3.793v6.79c0 2.095 1.982 3.793 4.426 3.793h7.92c2.445 0 4.426-1.698 4.426-3.793v-6.79c0-2.095-1.981-3.793-4.425-3.793z" fill="#37392E" fill-opacity=".5"/><path d="M32.429 41.007h-6.224a11.33 11.33 0 01-6.98-2.89l-.26-.235a11.406 11.406 0 01-2.891-7.031V24.6a4.09 4.09 0 00-3.959-4.037H4.667a4.089 4.089 0 00-4.089 4.088v7.318a4.09 4.09 0 004.09 4.09h6.25a11.46 11.46 0 016.979 2.89l.234.26a11.329 11.329 0 012.891 6.98v6.224a4.09 4.09 0 004.115 4.089h7.292a4.088 4.088 0 004.089-4.089v-7.318a4.089 4.089 0 00-4.09-4.089z" fill="#37392E" fill-opacity=".5"/></svg>