<svg width="27" height="27" fill="none" xmlns="http://www.w3.org/2000/svg"><path fill-rule="evenodd" clip-rule="evenodd" d="M13.515 26.406C6.195 26.406.26 20.496.26 13.203.26 5.911 6.194 0 13.515 0c7.32 0 13.255 5.91 13.255 13.203 0 7.292-5.934 13.203-13.255 13.203zm7.52-18.637a6.876 6.876 0 01-2.074.74 3.367 3.367 0 00-2.383-.963c-1.803 0-3.264 1.364-3.264 3.047 0 .239.028.472.084.694-2.712-.127-5.118-1.34-6.728-3.184-.282.45-.442.974-.442 1.532 0 1.058.576 1.991 1.452 2.537a3.43 3.43 0 01-1.478-.381v.038c0 1.477 1.125 2.709 2.618 2.988a3.464 3.464 0 01-1.475.053c.416 1.21 1.621 2.091 3.05 2.117a6.856 6.856 0 01-4.054 1.304 7.46 7.46 0 01-.78-.042 9.74 9.74 0 005.005 1.368c6.005 0 9.289-4.645 9.289-8.67 0-.133-.004-.264-.01-.395a6.416 6.416 0 001.629-1.577 6.894 6.894 0 01-1.875.48 3.112 3.112 0 001.436-1.686z" fill="#CBCBCB"/></svg>