<svg width="18" height="15" fill="none" xmlns="http://www.w3.org/2000/svg"><path d="M1.125 6.43h13.342l-4.083-4.672a1.038 1.038 0 01.146-1.51 1.165 1.165 0 011.586.139l5.625 6.428c.038.051.072.105.102.16 0 .054 0 .086.078.14.051.123.078.254.079.386a1.028 1.028 0 01-.079.385c0 .054 0 .086-.078.14-.03.055-.064.11-.102.16l-5.625 6.428a1.12 1.12 0 01-.388.285c-.15.067-.313.101-.478.101a1.16 1.16 0 01-.72-.246c-.114-.09-.208-.2-.277-.325a1.035 1.035 0 01-.08-.818 1.06 1.06 0 01.21-.368l4.085-4.671H1.124c-.298 0-.585-.113-.795-.314-.211-.2-.33-.473-.33-.757 0-.284.119-.557.33-.758.21-.2.497-.314.795-.314z" fill="#66C7FA"/></svg>