<svg width="1440" height="66" fill="none" xmlns="http://www.w3.org/2000/svg"><path d="M14.5 29.5L0 29v36.5h1440V0l-11 .5h-11l-15.5.5-16 .5-19.5.5-25.5.5h-25l-34 1.5-40.5.5-32.5 1-14 .5-12.5.5-15.5.5-17.5.5-17 .5-16.5.5-16 .5-13.5.5-13.5.5-12.5.5-14.5.5-17 .5-15 .5-19.5 1-18.5.5-18 1-14.5.5-17.5.5-16.5 1-15.5.5-14.5.5-13 .5-10.5.5-13.5 1-16.5.5-19.5 1-16.5 1-13.5.5-13 .5-15.5 1-17 1-16.5 1-14.5 1-15 1-16 1-16 .5-17 1-19 .5-17.5 1-20.5.5-17.5 1-18.224.5H525.5l-20.5.5-11.5.5h-12l-10.5.5h-34l-17 .5H308.5l-13-.5H271l-15-.5h-50l-20-.5-20.5-.5-22.5-.5-23-.5-21.5-1H78l-20-.5-21.5-1-22-1z" fill="#fff"/></svg>