<svg width="1440" height="41" fill="none" xmlns="http://www.w3.org/2000/svg"><path d="M11 40.5L0 41V0h1440v33.5l-11-.5h-10.5l-13.5-.5-19.5-.5-22-.5-24.5-.5-29-.5-21-.5-20-.5-19.5-.5H1223l-34.5-1-30.5-1h-29.5l-24-.5-29-1h-23L1028 25l-24-.5-18-.5h-76.5l-22.5-.5H629l-30.5.5H579l-28 .5h-47l-18.5.5-20.5.5h-18.5l-16 .5h-15l-18.5.5h-14l-16 .5h-12.5l-16 .5-14.5.5h-28l-12 .5-11.5.5-13 .5-13.5.5-14.5.5-15.5.5-12 .5-14.5.5-11.5.5-11.5.5-13.5.5-13 .5-12 .5-14.5.5L98 36l-17 .5-15.5 1-13 .5-13 1-14 .5-14.5 1z" fill="#fff"/></svg>