<svg width="52" height="52" fill="none" xmlns="http://www.w3.org/2000/svg"><path d="M46.84 11.565L34.52.97a3.97 3.97 0 00-5-.162l-5.34 4.043-3.36-3.396A3.978 3.978 0 0018 .28a3.98 3.98 0 00-2.82 1.176l-10 10.21a5.981 5.981 0 00-3.689 2.006A6.103 6.103 0 000 17.63v28.305c0 1.608.632 3.151 1.757 4.288A5.967 5.967 0 006 52h40a5.968 5.968 0 004.242-1.776A6.099 6.099 0 0052 45.934V17.63a6.105 6.105 0 00-1.45-4.015 5.982 5.982 0 00-3.71-2.05zM48 35.825h-4a3.979 3.979 0 01-2.829-1.184A4.066 4.066 0 0140 31.782c0-1.072.421-2.1 1.171-2.859A3.979 3.979 0 0144 27.74h4v8.087zM32 4.045l8.6 7.52h-9.78l-3.78-3.82 4.96-3.7zm-14 .262l7.18 7.259H10.82L18 4.306zm28 43.65H6c-.53 0-1.04-.213-1.414-.592A2.033 2.033 0 014 45.934V17.63c0-.536.21-1.05.586-1.43A1.99 1.99 0 016 15.608h40c.53 0 1.039.213 1.414.592.375.38.586.894.586 1.43v6.065h-4a7.957 7.957 0 00-5.657 2.369A8.132 8.132 0 0036 31.782c0 2.145.843 4.202 2.343 5.719A7.956 7.956 0 0044 39.869h4v6.066c0 .536-.211 1.05-.586 1.43a1.993 1.993 0 01-1.414.591z" fill="#fff"/><path d="M42.725 30.442c-.457.287-.716.666-.725 1.062 0 .397.263.777.732 1.058.47.28 1.105.438 1.768.438s1.299-.158 1.768-.438c.469-.28.732-.661.732-1.058.003-.297-.142-.588-.417-.835-.274-.248-.666-.44-1.124-.555a4.084 4.084 0 00-1.45-.085c-.488.059-.934.203-1.284.413z" fill="#fff"/></svg>