<svg width="34" height="34" fill="none" xmlns="http://www.w3.org/2000/svg"><path d="M22.25 16.8a5.25 5.25 0 11-10.5 0c0-.3.032-.591.086-.875H10v6.995c0 .486.394.88.88.88h12.242a.88.88 0 00.878-.88v-6.995h-1.836c.055.284.086.576.086.875zM17 20.3a3.502 3.502 0 10-.002-7.003A3.502 3.502 0 0017 20.3zm4.2-7.175h2.098a.527.527 0 00.527-.525v-2.098a.527.527 0 00-.527-.527H21.2a.527.527 0 00-.527.527V12.6a.53.53 0 00.527.525zM17 0a16.8 16.8 0 100 33.6A16.8 16.8 0 0017 0zm8.75 23.606a1.95 1.95 0 01-1.944 1.944H10.194a1.95 1.95 0 01-1.944-1.944V9.994a1.95 1.95 0 011.944-1.944h13.612a1.95 1.95 0 011.944 1.944v13.612z" fill="#fff"/></svg>