<svg width="139" height="55" fill="none" xmlns="http://www.w3.org/2000/svg"><g clip-path="url(#clip0)"><path d="M-.006 14.244c0-1.197.667-1.796 1.819-1.796h19.469c1.212 0 1.818.598 1.817 1.796v1.504c0 1.2-.605 1.857-1.817 1.857H5.517v12.87h12.43c1.211 0 1.817.599 1.819 1.797v1.498c0 1.198-.608 1.857-1.819 1.857H5.517v13.597h15.765c1.217 0 1.817.657 1.817 1.856v1.496c0 1.199-.605 1.797-1.817 1.797H1.818c-1.152 0-1.819-.598-1.819-1.795l-.005-38.334zm34.441-1.796h1.819c1.217 0 1.88.598 1.88 1.796v18.568l14.188-19.105c.546-.78 1.152-1.26 2.365-1.26h2.61c1.153 0 1.517 1.385.91 2.158L46.2 29.938l12.31 22.34c.485.898.06 2.095-1.154 2.095H54.99c-1.274 0-1.879-.358-2.425-1.436L42.68 34.489l-4.546 5.87v12.218c0 1.198-.666 1.796-1.88 1.796h-1.819c-1.152 0-1.818-.598-1.818-1.795V14.243c0-1.197.666-1.796 1.818-1.796zm38.864 5.15h-7.882c-1.218 0-1.82-.658-1.82-1.856v-1.497c0-1.198.606-1.797 1.82-1.797H86.76c1.213 0 1.82.598 1.818 1.796v1.504c0 1.2-.605 1.857-1.818 1.857h-7.945v34.973c0 1.197-.606 1.795-1.82 1.795h-1.816c-1.219 0-1.88-.598-1.88-1.795v-34.98zm22.43 7.069c0-8.565 5.457-12.878 12.734-12.878 7.276 0 12.733 4.313 12.733 12.878v27.912c0 1.197-.605 1.796-1.819 1.796h-1.82c-1.212 0-1.818-.599-1.818-1.796v-12.34h-14.553v12.339c0 1.197-.605 1.795-1.819 1.795H97.55c-1.212 0-1.82-.598-1.82-1.795V24.666zm5.457 10.422h14.553v-9.882c0-6.17-3.275-8.266-7.276-8.266-4.003 0-7.277 2.097-7.277 8.266v9.882zM131.29 0a7.685 7.685 0 00-4.24 1.31 7.614 7.614 0 00-2.795 3.428 7.567 7.567 0 00.352 6.49 7.624 7.624 0 002.196 2.515 7.692 7.692 0 007.483.902 7.634 7.634 0 003.426-2.806 7.583 7.583 0 001.287-4.225 7.623 7.623 0 00-2.27-5.394 7.681 7.681 0 00-2.497-1.648A7.725 7.725 0 00131.29 0zm0 12.138a4.567 4.567 0 01-2.519-.776 4.527 4.527 0 01-1.66-2.036 4.499 4.499 0 01-.245-2.61 4.517 4.517 0 011.25-2.307 4.567 4.567 0 015.547-.669 4.532 4.532 0 012.205 3.874 4.52 4.52 0 01-.778 2.519 4.57 4.57 0 01-3.8 2.005z" fill="#4CC6E1"/></g><defs><clipPath id="clip0"><path fill="#fff" d="M0 0h139v55H0z"/></clipPath></defs></svg>