<svg width="65" height="65" fill="none" xmlns="http://www.w3.org/2000/svg"><path d="M57.476 49.875c0-12.49 6.469-21.066 6.469-27.083 0-6.018-3.46-18.657-31.144-18.657-27.685 0-31.749 17.003-31.749 23.622 0 30.996 56.424 44.236 56.424 22.118z" fill="#EFEFEF"/><path d="M48.299 12.188h1.805v3.61H48.3v-3.61zm4.514 6.319h3.61v1.805h-3.61v-1.805z" fill="#A4AFC1"/><path d="M44.236 41.076a4.062 4.062 0 100-8.124 4.062 4.062 0 000 8.124zm8.577 13.091v-4.063a3.61 3.61 0 00-3.611-3.61h-9.93a3.61 3.61 0 00-3.612 3.61v4.063h17.153zM18.056 43.785a2.257 2.257 0 100-4.514 2.257 2.257 0 000 4.514zm5.868 10.382V51.91a3.61 3.61 0 00-3.611-3.611h-4.514a3.61 3.61 0 00-3.611 3.61v2.258h11.736z" fill="#F3F3F1"/><path d="M12.188 15.799V29.34a3.622 3.622 0 003.61 3.611h9.48l5.868 5.417v-5.417h1.805a3.622 3.622 0 003.611-3.61V15.798a3.622 3.622 0 00-3.61-3.611H15.798a3.622 3.622 0 00-3.611 3.61z" fill="#2FDF84"/><path d="M44.236 37.014c0-1.5.822-2.795 2.031-3.5a4.025 4.025 0 00-2.03-.563 4.062 4.062 0 00-4.063 4.063 4.062 4.062 0 004.062 4.062c.744 0 1.432-.214 2.031-.563a4.043 4.043 0 01-2.03-3.5zm-.902 9.479H39.27a3.61 3.61 0 00-3.611 3.611v4.063h4.062v-4.063a3.61 3.61 0 013.611-3.61zm-23.473-4.965c0-.343.089-.66.226-.95a2.248 2.248 0 00-2.031-1.307 2.258 2.258 0 000 4.514c.902 0 1.67-.54 2.03-1.308a2.208 2.208 0 01-.225-.95zm0 6.771H15.8a3.61 3.61 0 00-3.611 3.61v2.258h4.062V51.91a3.61 3.61 0 013.611-3.611z" fill="#D5DBE1"/><path d="M29.34 32.951h-4.062l5.868 5.417v-3.75L29.34 32.95zM16.25 29.34V15.8a3.622 3.622 0 013.611-3.611H15.8a3.622 3.622 0 00-3.611 3.61V29.34a3.622 3.622 0 003.61 3.611h4.063a3.622 3.622 0 01-3.611-3.61z" fill="#00B871"/><path d="M44.236 42.43a5.423 5.423 0 01-5.416-5.416 5.423 5.423 0 015.416-5.417 5.423 5.423 0 015.417 5.417 5.423 5.423 0 01-5.416 5.416zm0-8.124a2.712 2.712 0 00-2.708 2.708 2.712 2.712 0 002.709 2.708 2.712 2.712 0 002.708-2.708 2.712 2.712 0 00-2.709-2.709zm9.93 19.861h-2.708v-4.063a2.26 2.26 0 00-2.257-2.257h-9.93a2.26 2.26 0 00-2.258 2.257v4.063h-2.708v-4.063a4.97 4.97 0 014.965-4.965h9.931a4.97 4.97 0 014.965 4.965v4.063zm-23.02-14.445a1.35 1.35 0 01-.919-.36l-5.478-5.056H15.8a4.97 4.97 0 01-4.965-4.966V15.8a4.97 4.97 0 014.965-4.966h17.153a4.97 4.97 0 014.965 4.966v13.54a4.97 4.97 0 01-4.965 4.966H32.5v4.062c0 .538-.32 1.024-.81 1.242-.175.074-.36.112-.544.112zM15.8 13.542a2.26 2.26 0 00-2.257 2.257V29.34a2.26 2.26 0 002.257 2.257h9.48c.339 0 .667.128.918.36l3.595 3.318v-2.324c0-.747.607-1.354 1.354-1.354h1.806a2.26 2.26 0 002.257-2.257V15.8a2.26 2.26 0 00-2.257-2.257H15.799z" fill="#233862"/><path d="M25.73 26.632h-2.71v-1.768c0-1.697.882-3.318 2.42-4.447.472-.345.74-.876.74-1.459a1.806 1.806 0 00-3.61 0v1.354h-2.71v-1.354a4.518 4.518 0 014.514-4.514 4.518 4.518 0 014.514 4.514 4.538 4.538 0 01-1.847 3.644c-.49.357-1.313 1.13-1.313 2.262v1.768zm-7.674 18.507a3.615 3.615 0 01-3.611-3.611 3.615 3.615 0 013.611-3.611 3.615 3.615 0 013.611 3.61 3.615 3.615 0 01-3.611 3.612zm0-4.514a.905.905 0 00-.903.903c0 .496.406.903.903.903a.905.905 0 00.903-.903.905.905 0 00-.903-.903zm7.222 13.542H22.57V51.91a2.26 2.26 0 00-2.257-2.257h-4.514a2.26 2.26 0 00-2.257 2.257v2.257h-2.708V51.91a4.97 4.97 0 014.965-4.966h4.514a4.97 4.97 0 014.965 4.966v2.257zm-.903-23.473a1.354 1.354 0 100-2.708 1.354 1.354 0 000 2.708z" fill="#233862"/><path d="M3.611 51.458H61.39v2.709H3.611v-2.709z" fill="#233862"/></svg>