<svg width="65" height="65" fill="none" xmlns="http://www.w3.org/2000/svg"><path d="M14.65 10.046C11.391 22.102 2.907 28.692 1.336 34.502c-1.57 5.81-1.53 18.913 25.197 26.14 26.725 7.225 35.085-8.128 36.811-14.52 8.09-29.92-42.922-57.428-48.694-36.076z" fill="#EFEFEF"/><path d="M13.92 16.796l2.553-2.553 1.277 1.277-2.554 2.553-1.277-1.277zm-7.34 7.341l2.553-2.554 1.277 1.277-2.554 2.553-1.276-1.276zm0-8.937l1.276-1.276 2.554 2.553-1.277 1.277-2.553-2.553zm50.565 42.126a2.712 2.712 0 01-2.708-2.708 2.712 2.712 0 012.709-2.708 2.712 2.712 0 012.708 2.708 2.71 2.71 0 01-2.709 2.708zm0-3.61a.904.904 0 00-.902.902c0 .496.404.903.902.903a.904.904 0 00.903-.903.904.904 0 00-.903-.903z" fill="#A4AFC1"/><path d="M27.083 32.5L38.82 20.764 27.083 32.5zm16.702-12.187H39.27v-4.514l3.61-3.611V16.7h4.515l-3.611 3.611zm-6.32 22.569l3.16 2.708 5.868-6.32-9.028 3.612z" fill="#2FDF84"/><path d="M27.535 17.604c-.08 0-.157.011-.235.013-.08-.002-.155-.013-.235-.013-8.219 0-14.896 6.677-14.896 14.896 0 8.219 6.677 14.896 14.896 14.896h.034l.2-.31.201.31h.035c8.219 0 14.895-6.677 14.895-14.896 0-8.219-6.676-14.896-14.895-14.896z" fill="#F3F3F1"/><path d="M15.778 32.5c0-7.688 5.843-14.026 13.325-14.811a15.035 15.035 0 00-1.57-.085c-.08 0-.157.011-.235.013-.08-.002-.155-.013-.235-.013-8.219 0-14.896 6.677-14.896 14.896 0 8.219 6.677 14.896 14.896 14.896h.035l.2-.31.2.31h.035c.53 0 1.054-.03 1.57-.085-7.48-.785-13.325-7.123-13.325-14.811z" fill="#D5DBE1"/><path d="M42.43 52.813c5.734 0 10.383-4.649 10.383-10.383 0-5.733-4.649-10.381-10.382-10.381-5.734 0-10.382 4.648-10.382 10.382 0 5.733 4.648 10.382 10.382 10.382z" fill="#2FDF84"/><path d="M35.66 42.43c0-5.116 3.705-9.358 8.576-10.213a10.427 10.427 0 00-1.805-.168c-5.735 0-10.382 4.647-10.382 10.382 0 5.734 4.647 10.382 10.382 10.382.617 0 1.218-.064 1.805-.168-4.871-.856-8.576-5.098-8.576-10.215z" fill="#00B871"/><path d="M27.098 48.75c-8.994 0-16.284-7.289-16.284-16.25s7.29-16.25 16.25-16.25c4.34 0 8.42 1.692 11.488 4.761a16.39 16.39 0 013.344 4.85l-2.466 1.118a13.658 13.658 0 00-2.792-4.052 13.451 13.451 0 00-9.574-3.967c-7.468 0-13.542 6.074-13.542 13.542s6.074 13.541 13.542 13.541l.034 2.707z" fill="#233862"/><path d="M26.103 42.37a9.873 9.873 0 01-8.98-9.872c0-5.474 4.455-9.929 9.93-9.929a9.93 9.93 0 017.023 2.896 9.827 9.827 0 011.6 2.115l-2.36 1.332a7.05 7.05 0 00-1.152-1.527 7.233 7.233 0 00-5.112-2.107c-3.98 0-7.22 3.239-7.22 7.22a7.174 7.174 0 006.523 7.175l-.252 2.698z" fill="#233862"/><path d="M26.12 31.542l11.734-11.734 1.914 1.915-11.733 11.734-1.915-1.915z" fill="#233862"/><path d="M43.785 21.667H39.27a1.355 1.355 0 01-1.354-1.355V15.8c0-.36.142-.705.397-.957l3.611-3.612a1.357 1.357 0 011.475-.294c.506.21.836.704.836 1.252v3.16h3.16a1.352 1.352 0 01.957 2.311l-3.611 3.61a1.348 1.348 0 01-.957.398zm-3.16-2.709h2.598l.903-.902h-1.244a1.355 1.355 0 01-1.354-1.355v-1.244l-.903.903v2.598zm1.805 35.209c-6.47 0-11.736-5.265-11.736-11.737 0-6.47 5.265-11.736 11.737-11.736 2.84 0 5.58 1.028 7.718 2.896l-1.78 2.039a9.03 9.03 0 00-5.938-2.226c-4.978 0-9.028 4.05-9.028 9.027 0 4.978 4.05 9.028 9.028 9.028 4.977 0 9.027-4.05 9.027-9.028a8.94 8.94 0 00-.892-3.916l2.441-1.173c.77 1.594 1.16 3.31 1.16 5.09 0 6.47-5.265 11.736-11.736 11.736z" fill="#233862"/><path d="M40.625 46.944a1.35 1.35 0 01-.881-.326l-3.16-2.709 1.764-2.056 2.172 1.861 4.982-5.368 1.986 1.844-5.868 6.32a1.356 1.356 0 01-.995.434z" fill="#233862"/></svg>