<svg width="65" height="65" fill="none" xmlns="http://www.w3.org/2000/svg"><path d="M1.81 25.84c5.875 11.02 4.198 21.63 7.027 26.942 2.83 5.312 11.829 14.838 36.261 1.82C69.53 41.585 65.121 24.67 62.007 18.826 47.431-8.53-8.592 6.32 1.81 25.84z" fill="#EFEFEF"/><path d="M33.403 27.986v18.056a3.622 3.622 0 01-3.611 3.61H15.347a3.622 3.622 0 01-3.61-3.61V27.986a3.622 3.622 0 013.61-3.611h14.445a3.622 3.622 0 013.61 3.611z" fill="#F3F3F1"/><path d="M18.959 17.153h7.222v7.222h-7.222v-7.222zm24.374 18.055s9.93-4.19 9.93-12.573v-7.546l-9.93-3.353-9.93 3.353v7.545c0 8.384 9.93 12.574 9.93 12.574z" fill="#2FDF84"/><path d="M18.958 49.653h-3.61a3.622 3.622 0 01-3.612-3.611V27.986a3.622 3.622 0 013.611-3.611h3.611a3.622 3.622 0 00-3.61 3.611v18.056a3.622 3.622 0 003.61 3.61z" fill="#D5DBE1"/><path d="M18.959 17.153h3.61v7.222h-3.61v-7.222zm26.18 17.117c-1.066.631-1.806.938-1.806.938s-9.93-4.188-9.93-12.566v-7.547l9.93-3.359 1.806.614-8.125 2.745v7.547c0 6.102 5.272 9.985 8.125 11.628z" fill="#00B871"/><path d="M29.792 51.007H15.348a4.97 4.97 0 01-4.966-4.965V27.986a4.97 4.97 0 014.966-4.965h12.638v2.708H15.348a2.26 2.26 0 00-2.257 2.257v18.056a2.26 2.26 0 002.257 2.257h14.444a2.26 2.26 0 002.257-2.257v-12.64h2.708v12.64a4.97 4.97 0 01-4.965 4.965z" fill="#000"/><path d="M24.826 17.153h2.709v7.222h-2.709v-7.222zm-7.222 0h2.708v7.222h-2.708v-7.222z" fill="#000"/><path d="M13.993 15.799H29.34v2.708H13.993v-2.708zm0 32.5H16.7v6.32h-2.708v-6.32zm14.445 0h2.708v6.32h-2.709v-6.32zm14.895-11.736c-.18 0-.357-.037-.527-.107-.438-.188-10.757-4.646-10.757-13.822V15.09c0-.58.37-1.096.92-1.284l9.931-3.353c.282-.095.585-.095.867 0l9.93 3.353c.551.188.921.704.921 1.284v7.545c0 9.176-10.319 13.636-10.757 13.822a1.37 1.37 0 01-.528.106zm-8.576-20.5v6.573c0 6.349 6.632 10.111 8.575 11.077 1.94-.97 8.578-4.754 8.578-11.077v-6.574l-8.577-2.896-8.576 2.896z" fill="#000"/><path d="M42.43 27.535c-.025 0-.048 0-.073-.002a1.36 1.36 0 01-.984-.506l-3.611-4.514 2.116-1.693 2.666 3.333 5.25-5.249 1.915 1.916-6.32 6.32a1.365 1.365 0 01-.958.395zM26.18 45.59h-7.222a3.163 3.163 0 01-3.16-3.16v-5.416a3.163 3.163 0 013.16-3.16h7.223a3.163 3.163 0 013.16 3.16v5.416a3.163 3.163 0 01-3.16 3.16zm-7.222-9.028a.452.452 0 00-.451.452v5.416c0 .25.202.452.451.452h7.223a.451.451 0 00.451-.451v-5.417a.451.451 0 00-.451-.452h-7.223zm-1.354-8.124h9.93v2.708h-9.93v-2.709z" fill="#000"/><path d="M9.13 12.805a2.712 2.712 0 01-2.708-2.708A2.712 2.712 0 019.13 7.388a2.712 2.712 0 012.709 2.709 2.712 2.712 0 01-2.709 2.708zm0-3.611a.905.905 0 00-.902.903c0 .496.406.902.902.902a.905.905 0 00.903-.902.905.905 0 00-.903-.903z" fill="#A4AFC1"/></svg>