<svg width="65" height="65" fill="none" xmlns="http://www.w3.org/2000/svg"><path d="M15.125 7.524c12.49 0 21.066-6.47 27.084-6.47 6.018 0 18.656 3.46 18.656 31.145 0 27.684-17.002 31.747-23.622 31.747C6.247 63.947-6.992 7.524 15.125 7.524z" fill="#EFEFEF"/><path d="M55.763 12.242l1.276-1.277 2.554 2.554-1.277 1.276-2.553-2.553zm-7.337-7.341l1.276-1.277 2.554 2.554-1.277 1.277L48.426 4.9zm7.658 1.276l2.553-2.553 1.277 1.277-2.554 2.553-1.276-1.277z" fill="#A4AFC1"/><path d="M41.98 21.215H23.02a3.61 3.61 0 00-3.611 3.611v9.931a3.61 3.61 0 003.611 3.611h3.16v1.806a3.61 3.61 0 003.61 3.61h5.418a3.61 3.61 0 003.61-3.61v-1.806h3.16a3.61 3.61 0 003.611-3.611v-9.93a3.61 3.61 0 00-3.61-3.612z" fill="#2FDF84"/><path d="M49.201 12.188H15.8a3.61 3.61 0 00-3.611 3.61v33.403a3.61 3.61 0 003.61 3.611h33.403a3.61 3.61 0 003.611-3.61V15.798a3.61 3.61 0 00-3.61-3.611zm-3.61 22.569a3.61 3.61 0 01-3.612 3.611h-3.16v1.806a3.61 3.61 0 01-3.61 3.61h-5.417a3.61 3.61 0 01-3.611-3.61v-1.806h-3.16a3.61 3.61 0 01-3.611-3.611v-9.93a3.61 3.61 0 013.61-3.612h18.96a3.61 3.61 0 013.61 3.611v9.93z" fill="#F3F3F1"/><path d="M29.792 40.174v-1.806h-3.16a3.61 3.61 0 01-3.61-3.611v-9.93a3.61 3.61 0 013.61-3.612h-3.61a3.61 3.61 0 00-3.612 3.611v9.931a3.61 3.61 0 003.611 3.611h3.16v1.806a3.61 3.61 0 003.61 3.61h3.612a3.61 3.61 0 01-3.611-3.61z" fill="#00B871"/><path d="M15.799 49.201V15.8a3.61 3.61 0 013.61-3.611H15.8a3.61 3.61 0 00-3.611 3.61v33.403a3.61 3.61 0 003.61 3.611h3.612a3.61 3.61 0 01-3.611-3.61z" fill="#D5DBE1"/><path d="M35.208 45.14H29.79a4.97 4.97 0 01-4.965-4.966v-.452H23.02a4.97 4.97 0 01-4.965-4.965v-9.93a4.97 4.97 0 014.965-4.966h18.96a4.97 4.97 0 014.965 4.966v9.93a4.97 4.97 0 01-4.965 4.965h-1.806v.452a4.97 4.97 0 01-4.965 4.965zM23.02 22.57a2.26 2.26 0 00-2.256 2.257v9.93a2.26 2.26 0 002.256 2.257h3.16c.748 0 1.354.607 1.354 1.354v1.806a2.26 2.26 0 002.257 2.257h5.417a2.26 2.26 0 002.257-2.257v-1.806c0-.747.607-1.354 1.354-1.354h3.16a2.26 2.26 0 002.257-2.257v-9.93a2.26 2.26 0 00-2.257-2.257H23.02z" fill="#000"/><path d="M28.438 19.861h2.708v7.223h-2.709V19.86zm-4.965 0h2.708v7.223h-2.709V19.86zm15.347 0h2.708v7.223H38.82V19.86zm-4.966 0h2.708v7.223h-2.708V19.86z" fill="#233862"/><path d="M49.202 54.167H15.799a4.97 4.97 0 01-4.965-4.965V15.799a4.97 4.97 0 014.965-4.965h33.403a4.97 4.97 0 014.965 4.965v33.403a4.97 4.97 0 01-4.965 4.965zM15.799 13.542a2.26 2.26 0 00-2.257 2.257v33.403a2.26 2.26 0 002.257 2.257h33.403a2.26 2.26 0 002.257-2.258V15.8a2.26 2.26 0 00-2.257-2.257H15.799z" fill="#233862"/></svg>