<svg width="65" height="65" fill="none" xmlns="http://www.w3.org/2000/svg"><path d="M57.476 15.125c0 12.49 6.47 21.066 6.47 27.083 0 6.018-3.46 18.657-31.145 18.657-27.684 0-31.749-17.003-31.749-23.622 0-30.996 56.424-44.236 56.424-22.118z" fill="#EFEFEF"/><path d="M55.07 14.444a2.712 2.712 0 01-2.709-2.708 2.712 2.712 0 012.709-2.708 2.712 2.712 0 012.708 2.708 2.712 2.712 0 01-2.709 2.708zm0-3.61a.905.905 0 00-.903.902c0 .497.406.903.902.903a.905.905 0 00.903-.903.905.905 0 00-.903-.903z" fill="#A4AFC1"/><path d="M36.563 47.396H15.347a3.61 3.61 0 01-3.61-3.611V15.799a3.61 3.61 0 013.61-3.611h21.216a3.61 3.61 0 013.61 3.61v27.987a3.61 3.61 0 01-3.61 3.61z" fill="#F3F3F1"/><path d="M43.333 52.813s9.48-4.03 9.48-12.09v-7.255l-9.48-3.225-9.48 3.225v7.255c0 8.06 9.48 12.09 9.48 12.09z" fill="#2FDF84"/><path d="M37.916 40.723v-7.255l7.448-2.533-2.031-.692-9.48 3.225v7.255c0 8.06 9.48 12.09 9.48 12.09s.85-.367 2.031-1.082c-2.784-1.686-7.448-5.35-7.448-11.008z" fill="#00B871"/><path d="M15.799 43.785V15.799a3.61 3.61 0 013.61-3.611h-4.062a3.61 3.61 0 00-3.61 3.61v27.987a3.61 3.61 0 003.61 3.61h4.063a3.61 3.61 0 01-3.611-3.61z" fill="#D5DBE1"/><path d="M43.333 54.167c-.18 0-.36-.036-.53-.109-.42-.178-10.303-4.483-10.303-13.335v-7.255c0-.58.368-1.094.919-1.282l9.48-3.225c.28-.095.588-.095.87 0l9.479 3.225c.55.188.919.702.919 1.282v7.255c0 8.852-9.884 13.157-10.303 13.337-.17.07-.35.107-.53.107zm-8.125-19.73v6.284c0 6.018 6.24 9.636 8.125 10.59 1.885-.954 8.125-4.572 8.125-10.59v-6.284l-8.125-2.764-8.125 2.764z" fill="#233862"/><path d="M42.882 46.042a1.34 1.34 0 01-.957-.398l-3.611-3.61 1.915-1.916 2.508 2.508 4.478-5.973 2.165 1.625-5.417 7.222a1.353 1.353 0 01-1.081.542zM29.954 48.75H15.8a4.97 4.97 0 01-4.965-4.965V15.799a4.97 4.97 0 014.965-4.966h20.764a4.97 4.97 0 014.965 4.966v9.804H38.82v-9.805a2.26 2.26 0 00-2.257-2.256H15.799a2.26 2.26 0 00-2.257 2.257v27.986a2.26 2.26 0 002.257 2.257h14.155v2.708z" fill="#233862"/><path d="M17.604 25.278h17.153v2.708H17.604v-2.708zm0 7.222h9.93v2.708h-9.93V32.5zm0-14.444h8.125v2.708h-8.125v-2.708z" fill="#233862"/></svg>