<svg width="63" height="57" fill="none" xmlns="http://www.w3.org/2000/svg"><path d="M6.524 11.125c0 12.49-6.47 21.066-6.47 27.083 0 6.018 3.46 18.657 31.145 18.657 27.684 0 31.747-17.003 31.747-23.622.002-30.996-56.422-44.236-56.422-22.118z" fill="#EFEFEF"/><path d="M8.931 12.25a2.712 2.712 0 01-2.708-2.708A2.712 2.712 0 018.93 6.833a2.712 2.712 0 012.708 2.709A2.712 2.712 0 018.93 12.25zm0-3.611a.903.903 0 100 1.806.903.903 0 000-1.806z" fill="#A4AFC1"/><path d="M18.41 17.215v-3.61a3.622 3.622 0 013.611-3.612h26.18a3.622 3.622 0 013.612 3.611v3.611H18.41z" fill="#F3F3F1"/><path d="M51.813 17.215v11.736a3.622 3.622 0 01-3.611 3.612h-26.18a3.622 3.622 0 01-3.612-3.612V17.215h33.403z" fill="#2FDF84"/><path d="M40.98 47.007H14.798a3.61 3.61 0 01-3.611-3.611V28.049a3.61 3.61 0 013.61-3.611H40.98a3.61 3.61 0 013.611 3.61v15.348a3.61 3.61 0 01-3.61 3.611z" fill="#F3F3F1"/><path d="M21.117 36.174H18.41a1.806 1.806 0 01-1.805-1.806V31.66c0-.997.808-1.806 1.805-1.806h2.708c.997 0 1.806.81 1.806 1.806v2.708c0 .997-.809 1.806-1.806 1.806z" fill="#2FDF84"/><path d="M18.41 17.215h4.063v7.223H18.41v-7.223zm2.256 17.153V31.66a1.8 1.8 0 011.128-1.669 1.798 1.798 0 00-.677-.137H18.41c-.997 0-1.805.81-1.805 1.806v2.708c0 .997.808 1.806 1.805 1.806h2.708a1.8 1.8 0 00.677-.138 1.8 1.8 0 01-1.128-1.668z" fill="#00B871"/><path d="M26.084 9.993H22.02a3.622 3.622 0 00-3.61 3.611v3.611h4.062v-3.61a3.622 3.622 0 013.61-3.612zM15.25 43.396V28.049a3.61 3.61 0 013.611-3.611H14.8a3.61 3.61 0 00-3.611 3.61v15.348a3.61 3.61 0 003.61 3.611h4.063a3.61 3.61 0 01-3.611-3.611z" fill="#D5DBE1"/><path d="M40.98 48.361H14.8a4.97 4.97 0 01-4.966-4.965V28.048a4.97 4.97 0 014.965-4.965h26.18a4.97 4.97 0 014.966 4.966v15.347a4.97 4.97 0 01-4.965 4.965zM14.8 25.791a2.26 2.26 0 00-2.258 2.258v15.347a2.26 2.26 0 002.257 2.257h26.18a2.26 2.26 0 002.258-2.257V28.048a2.26 2.26 0 00-2.257-2.256H14.8z" fill="#233862"/><path d="M21.118 37.528H18.41a3.163 3.163 0 01-3.16-3.16V31.66a3.163 3.163 0 013.16-3.16h2.708a3.163 3.163 0 013.16 3.16v2.708a3.163 3.163 0 01-3.16 3.16zm-2.708-6.32a.452.452 0 00-.452.452v2.708c0 .25.203.451.452.451h2.708a.45.45 0 00.451-.45v-2.71a.452.452 0 00-.45-.45h-2.71zm-3.16 9.028h25.278v2.708H15.25v-2.708zm4.063-24.375H50.91v2.708H19.313v-2.708z" fill="#233862"/><path d="M50.674 33.236l-1.336-2.356c.7-.397 1.12-1.12 1.12-1.929V13.604a2.26 2.26 0 00-2.258-2.257H22.02a2.26 2.26 0 00-2.257 2.257v5.417h-2.708v-5.417A4.97 4.97 0 0122.02 8.64H48.2a4.97 4.97 0 014.966 4.965v15.347a4.933 4.933 0 01-2.492 4.285z" fill="#233862"/></svg>