<svg width="440" height="272" fill="none" xmlns="http://www.w3.org/2000/svg"><g clip-path="url(#clip0)"><path d="M419.055 270.712H85.5S22.5 208.5 40 137.347c34.169-58.74 54.111-30.581 58.272-73.016.142-1.437.028-2.858.028-4.245-.001-.331.005-.657.022-.982 1.279-24.37 17.271-40.12 38.374-49.182a92.076 92.076 0 012.059-.856c33.654-13.561 79.158-10.771 99.302.889 34.274 19.84 34.06 43.718 104.836 35.841 70.775-7.876 84.274 57.993 65.85 91.551-26.142 47.617 72.489 39.796 10.312 133.365z" fill="#EBF3FA"/><path d="M271.685 124.722l-9.213-9.019-9.042-8.851c-.44-.52-.531-1.046-.382-1.571.466-1.649 3.278-3.29 4.921-4.665l.165-.14c2.164-1.815 5.428-1.54 7.251.611l11.054 13.031h.002l3.278 3.864a5.113 5.113 0 01-.615 7.211l-.165.14c-2.165 1.815-5.429 1.541-7.254-.611zm2.681-58.042c-.108 1.148-1.412 2.999-3.757 3.275-11.847 1.402-19.226-2.315-19.569-2.31-9.009.043-15.386-3.22-17.317-1.531-.072.061-.051.195.05.384 1.767 3.408 29.1 26.068 29.498 28.582.419 2.655-50.842 15.145-50.842 15.145s-7.574-4.695-16.054-10.857c-4.301-3.12-8.833-6.618-12.728-10.075-3.93-3.477-7.215-6.919-8.971-9.882l-.009-.02a11.914 11.914 0 01-.763-1.483c-1.372-3.203-3.708-6.023-6.365-8.426-6.883-6.221-15.912-9.64-15.912-9.64l37.641-19.974s34.562 4.038 40.091 7.375c8.06 4.867 24.935 8.433 28.181 10.32 2.411 1.397 15.112 5.932 16.038 6.337.398.182.927 1.344.788 2.78z" fill="#FFB27D"/><path d="M177.36 34.143l-.03.22c-.154 1.127-.932 6.411-2.679 12.439v.002l-.198.67v.002l-.092.303v.001c-2.174 7.154-5.71 15.08-11.167 18.277h-.001c-.312.183-.632.35-.957.503a10.114 10.114 0 01-4.259.946s-4.786-.571-11.947-1.438c-.392-.047-.791-.098-1.198-.148-12.946-1.57-32.731-4.005-46.529-5.839-.001-.33.005-.657.022-.981 1.279-24.37 17.271-40.12 38.374-49.183a28174.854 28174.854 0 0129.239 17.408c.007.004.013.006.018.01.48.287.95.568 1.405.837l.029.017c6.153 3.676 9.97 5.954 9.97 5.954z" fill="#F99746"/><path d="M180.295 62.422c.016.034.038.064.044.098 3.538 22.238 16.523 18.57 16.523 18.57l-.488 18.28c-4.301-3.121-8.832-6.619-12.728-10.075-3.929-3.477-7.215-6.92-8.971-9.883a2.836 2.836 0 01-.771-1.503c-1.372-3.203-3.709-6.023-6.366-8.425a574.615 574.615 0 014.593-7.63c1.942-3.176 6.71-2.858 8.164.569z" fill="#EFA26F"/><path d="M165.953 27.306S153.807 37.75 148.805 45.09l3.625 6.251-6.166-.576s-3.14 11.332-1.435 15.159l16.814 1.574 19.383-30.841-15.073-9.352z" fill="#ED7D2B"/><path d="M145.937 68.494c-.498-4.545 3.935-13.826 3.935-13.826l14.91 2.959-11.478-12.03c2.592-5.333 8.807-13.472 12.651-18.293a226.8 226.8 0 013.241-3.978 933.076 933.076 0 0121.321 16.662c-4.508 1.736-8.725 6.452-12.235 11.662-5.832 8.657-9.71 18.683-9.71 18.683-8.95-.841-22.635-1.839-22.635-1.839z" fill="#DCEAFF"/><path d="M145.937 68.494c-.498-4.545 3.935-13.826 3.935-13.826l14.91 2.959-11.478-12.03c2.592-5.333 8.807-13.472 12.651-18.293.196 13.295 12.327 24.344 12.327 24.344-5.832 8.657-9.71 18.683-9.71 18.683-8.95-.84-22.635-1.837-22.635-1.837z" fill="#CBE1FD"/><path d="M162.508 39.177a1.82 1.82 0 011.629 1.993 1.825 1.825 0 01-2.004 1.62 1.82 1.82 0 01-1.629-1.994 1.823 1.823 0 012.004-1.62z" fill="#F99746"/><path d="M291.36 50.898L184.092 81.323l14.056 49 107.268-30.427-14.056-49z" fill="#82B378"/><path d="M299.628 58.145l-109.7 20.122 9.296 50.111 109.699-20.122-9.295-50.11z" fill="#A8D29F"/><path d="M303.063 100.57l-4.68-25.237-.002-.01-2.303-12.426-1.198.219-20.544 3.768h-.002l-.234.044-15.389 2.82-1.969.361h-.002l-16.499 3.027-43.376 7.953-.008.001-.028.006-.737.134-.022.002-.018.005-1.104.201 1.667 8.99 1.948 10.511 4.212 22.706 23.704-4.347 1.056-.194 3.93-.721.875-.161 1.153-.211 1.054-.194 2.01-.369 4.904-.899 1.392-.254 1.93-.354 1.684-.309 9.845-1.806h.002l1.999-.367 1.575-.288 13.63-2.499 12.247-2.245 4.476-.821 13.662-2.505-.84-4.531zm-6.095 3.952l-22.159 4.063h-.004l-2.646.485h-.002l-13.861 2.543-1.287.236-9.778 1.793-3.094.567-1.987.366-1.421.261-4.626.848-1.914.35-1.163.215-1.104.202-.886.161-3.917.72-1.11.205-16.965 3.109c-2.651.487-5.195-1.255-5.685-3.891l-2.65-14.299-2.741-14.774c-.49-2.636 1.262-5.168 3.913-5.655l40.038-7.34 18.746-3.437 5.336-.98h.004l6.713-1.23.219-.042h.001l16.867-3.092c2.651-.487 5.195 1.255 5.685 3.891l5.391 29.074a4.843 4.843 0 01-.15 2.364 4.875 4.875 0 01-3.763 3.287z" fill="#82B378"/><path d="M251.489 105.689c-6.999 1.152-13.612-3.556-14.77-10.516-1.158-6.96 3.576-13.536 10.575-14.688 7-1.152 13.613 3.556 14.771 10.516 1.158 6.96-3.578 13.536-10.576 14.688zm-26.767-2.948c-2.584.426-5.025-1.312-5.453-3.882-.428-2.569 1.32-4.997 3.904-5.422 2.584-.425 5.025 1.312 5.453 3.882.428 2.57-1.32 4.997-3.904 5.422zm51.008-9.355c-2.584.426-5.026-1.312-5.454-3.882-.427-2.569 1.32-4.997 3.904-5.422 2.584-.425 5.026 1.312 5.453 3.882.428 2.57-1.319 4.997-3.903 5.422z" fill="#82B378"/><path d="M237.618 126.049l-.405-1.084-2.72-7.287a4.816 4.816 0 01-.16-.517c-.61-2.41.7-4.959 3.094-5.843l.282-.104c2.567-.947 5.444.366 6.396 2.918l2.535 6.793.186.493.404 1.084c.952 2.553-.368 5.414-2.935 6.36l-.282.104c-2.565.947-5.443-.365-6.395-2.917z" fill="#FFB27D"/><path d="M237.497 120.149c-.453-1.217-1.255-3.418-1.416-4.593-.046-.332.141-.944.774-1.509.379-.34.919-.663 1.664-.901.35-.112.7-.204 1.06-.24a4.497 4.497 0 011.258.049c.374.069.714.328.892.7l.003.004c.589 1.253 1.307 2.942 1.703 4.419.276 1.023-.185 2.05-1.085 2.367l-.42.149-2.153.763c-.897.317-1.912-.216-2.28-1.208z" fill="#FFD3B6"/><path d="M237.497 120.149c-.453-1.217-1.255-3.418-1.416-4.593-.046-.332.141-.944.774-1.509.143-.06.295-.115.457-.167.35-.112.7-.203 1.06-.24a4.535 4.535 0 011.258.049c.375.07.714.326.892.7.001.001.001.004.003.004.589 1.253 1.307 2.942 1.703 4.42.176.655.051 1.31-.298 1.781l-2.153.763c-.897.317-1.912-.216-2.28-1.208z" fill="#FFC197"/><path d="M227.373 122.672l-1.489-5.613c-.453-1.706.58-3.471 2.295-3.92l.639-.167c1.716-.45 3.49.577 3.942 2.283l1.489 5.614c.453 1.706-.58 3.47-2.296 3.919l-.638.167c-1.716.451-3.489-.576-3.942-2.283z" fill="#FFB27D"/><path d="M227.672 119.646c-.268-1.032-.741-2.896-.787-3.871-.018-.354.29-1.063 1.231-1.519.228-.112.491-.208.797-.28a3.75 3.75 0 01.828-.118c.328-.005.648.039.964.132.283.084.527.32.638.638l.003.005c.371 1.071.813 2.508 1.02 3.749.145.858-.275 1.667-.988 1.863l-.509.14-1.527.419c-.705.195-1.451-.315-1.67-1.158z" fill="#FFD3B6"/><path d="M227.672 119.646c-.268-1.032-.741-2.896-.787-3.871-.018-.354.29-1.063 1.231-1.519a3.68 3.68 0 01.778-.107c.326-.004.648.04.963.133a.994.994 0 01.638.638c.002.003.002.004.004.004.37 1.072.812 2.509 1.018 3.75.121.711-.149 1.388-.648 1.711l-1.527.419c-.705.195-1.451-.315-1.67-1.158z" fill="#FFC197"/><path d="M248.417 125.956c-.015-.04-.027-.081-.04-.122l-1.839-7.359c-.81-3.236.974-6.561 3.962-7.392l1.53-.425c2.87-.797 5.85.986 6.797 3.995l.607 2.43 1.231 4.929c.81 3.236-.974 6.562-3.962 7.392l-1.531.426c-2.829.786-5.765-.939-6.755-3.874z" fill="#FFB27D"/><path d="M250.505 122.606l-1.589-3.581c-.002-.004-.003-.012-.005-.022a3.454 3.454 0 01-.085-.431c-.01-.06-.015-.122-.021-.182a.571.571 0 01.811-.562 3.585 3.585 0 002.432.22l.314-.081c.003 0 .006-.002.009-.004l1.021-.267a3.83 3.83 0 002.164-1.502c.497-.701 1.608-.513 1.833.315l.006.022.566 3.922c.257.97-.499 1.896-1.475 2.153l-1.163.306-2.48.651c-.98.252-2.08.014-2.338-.957z" fill="#FFD3B6"/><path d="M250.505 122.606l-1.589-3.581a25.903 25.903 0 01-.113-.71.571.571 0 01.811-.487 3.585 3.585 0 002.432.22l.314-.081c.003 0 .006-.002.009-.004l1.021-.267a3.83 3.83 0 001.993-1.278.996.996 0 01.397.564c.003.006.003.014.007.022l.565 3.921c.217.818-.287 1.602-1.031 1.984l-2.48.65c-.979.256-2.078.018-2.336-.953z" fill="#FFC197"/><path d="M225.642 57.988s-1.814-14.079 3.717-10.74c8.058 4.866 24.932 8.432 28.18 10.316 2.41 1.397 15.112 5.933 16.037 6.341.399.176 1.169 1.727.426 3.24-.508 1.039-1.776 2.95-3.976 3.8-7.892 3.052-18.642-3.303-18.986-3.3-9.008.043-17.762-.958-20.306-.595-.886.124-5.092-9.062-5.092-9.062z" fill="#FFB27D"/><path d="M274.52 64.137l-8.917-3.224s-.869 1.762-.442 2.87 8.686 3.06 9.359.354z" fill="#FFC197"/><path d="M147.779 174.565l1.775 1.433s4.854-1.731 5.951 4.005c0 0 .291 2.445-1.266 2.45-1.558.005-.914-.268-3.12-.203-2.205.064-4.034-1.092-4.355-2.871l-1.055-1.507 2.07-3.307z" fill="#EA8E50"/><path d="M147.579 177.64c1.417-1.47 1.303-2.557 1.303-2.557s-16.395-13.347-18.057-14.434c-1.133-.741-13.207-11.385-18.85-17.874-2.8-3.218-6.268-1.969-10.235-.838l-3.267.933c-3.945 1.125-4.972 6.612-1.735 9.278 9.116 7.508 24.282 15.954 27.119 17.73 7.044 4.406 20.833 9.641 20.833 9.641s1.673-.617 2.889-1.879z" fill="#1E3D70"/><path d="M166.288 259.642s3.978 2.964 10.075 1.398c0 0 4.914-1.114 5.993 1.323 0 0-7.538 3.808-9.446 4.849-1.438.785-2.937 2.025-3.999 2.982a1.984 1.984 0 01-2.862-.219 36.203 36.203 0 01-1.127-1.449c-1.163-1.566-3.87-6.626-3.87-6.626l5.236-2.258z" fill="#204272"/><path d="M168.382 170.909c10.864-10.802 10.864-28.316 0-39.119-10.863-10.802-28.476-10.802-39.339 0-10.864 10.803-10.864 28.317 0 39.119 10.863 10.803 28.476 10.803 39.339 0z" fill="#E2810E"/><path d="M165.956 170.91c10.863-10.803 10.863-28.317 0-39.119-10.864-10.803-28.477-10.803-39.34 0-10.864 10.802-10.864 28.316 0 39.119 10.863 10.802 28.476 10.802 39.34 0z" fill="#FFC76C"/><path d="M146.287 176.879c-6.77 0-13.134-2.622-17.922-7.381-4.786-4.759-7.422-11.09-7.422-17.821 0-6.732 2.636-13.061 7.422-17.822 4.787-4.759 11.152-7.381 17.922-7.381 6.77 0 13.134 2.622 17.922 7.381 4.787 4.759 7.423 11.09 7.423 17.822 0 6.731-2.636 13.06-7.423 17.821-4.788 4.759-11.152 7.381-17.922 7.381zm0-48.902c-13.142 0-23.833 10.631-23.833 23.7 0 13.068 10.691 23.699 23.833 23.699 13.141 0 23.833-10.631 23.833-23.699 0-13.069-10.692-23.7-23.833-23.7z" fill="#FFA412"/><path d="M149.776 158.991c.065-.543.045-1.03-.06-1.463a3.007 3.007 0 00-.623-1.215c-.31-.378-.725-.742-1.243-1.092-.52-.35-1.162-.707-1.928-1.074a40.202 40.202 0 01-3.562-1.946c-1.058-.657-1.946-1.374-2.662-2.155a7.408 7.408 0 01-1.573-2.626c-.331-.971-.421-2.091-.271-3.359.132-1.1.447-2.08.948-2.94a7.02 7.02 0 011.963-2.169c.808-.588 1.746-1.031 2.812-1.332 1.066-.301 2.237-.435 3.511-.401l.496-4.155 3.362.397-.503 4.213c1.187.298 2.241.743 3.164 1.337a8.13 8.13 0 012.279 2.159 8.045 8.045 0 011.262 2.895c.247 1.086.293 2.275.14 3.57l-6.073-.716c.185-1.554-.022-2.756-.624-3.608-.602-.851-1.485-1.347-2.648-1.484-.63-.074-1.183-.051-1.66.071a3.116 3.116 0 00-1.211.584c-.331.27-.591.604-.779 1.001-.19.397-.312.836-.369 1.313-.057.479-.04.921.055 1.325.094.405.293.793.596 1.163.304.37.722.734 1.255 1.093.532.358 1.201.743 2.004 1.152a45.858 45.858 0 013.523 1.99c1.051.662 1.933 1.386 2.649 2.172a7.492 7.492 0 011.572 2.636c.331.971.423 2.085.273 3.34-.137 1.139-.458 2.138-.965 2.997a6.934 6.934 0 01-1.973 2.149c-.808.573-1.749 1.002-2.828 1.28-1.077.279-2.253.404-3.528.371l-.461 3.863-3.341-.394.459-3.844a14.256 14.256 0 01-3.283-1.155 8.995 8.995 0 01-2.688-2.02c-.753-.83-1.315-1.832-1.688-3.004-.372-1.172-.464-2.535-.279-4.089l6.073.717c-.109.919-.071 1.702.114 2.346.186.646.474 1.179.864 1.598.389.42.852.737 1.389.951.536.215 1.09.355 1.665.422.659.078 1.247.062 1.764-.047.518-.11.961-.293 1.334-.551.372-.259.665-.582.882-.969a3.36 3.36 0 00.415-1.297z" fill="#FFA412"/><path d="M168.623 258.136s-2.423 5.555-8.015 4.534c0 0-11.412-9.371-19.239-19.105-2.543-3.162-4.707-6.362-5.979-9.291-5.19-11.95-19.201-29.774-28.108-38.808l22.285-8.017s7.139 14.278 16.636 31.818c6.847 12.636 14.915 26.967 22.42 38.869z" fill="#2B478B"/><path d="M146.204 219.267l-4.835 24.296c-2.543-3.162-4.707-6.362-5.979-9.29-5.19-11.95-19.201-29.775-28.108-38.808l22.285-8.018c.002.002 7.141 14.28 16.637 31.82z" fill="#233862"/><path d="M127.989 262.866s-.242 4.431 5.16 5.024c0 0 3.345.085 3.353 2.906l-16.273-.006s-.144-1.152-.255-3.589c-.086-1.871 1.823-6.765 1.823-6.765l6.192 2.43z" fill="#204272"/><path d="M122.259 187.449s9.927 10.848 16.23 30.392c3.428 10.632-6.286 37.368-8.179 46.657 0 0-6.516.55-10.971-1.163 0 0-.339-19.186 2.267-33.973 1.457-8.276-13.073-17.699-19.421-32.653-4.319-10.172.935-9.999 7.393-10.245l12.681.985z" fill="#2B478B"/><path d="M110.799 139.051c-5.523 3.102-16.832.241-16.832.241s4.594-5.221 2.505-13.629l4.337 2.19 4.658 2.352s.301 1.485.51 4.151c.054.687.101 1.454.134 2.292 2.838.857 4.688 2.403 4.688 2.403z" fill="#FFB07B"/><path d="M131.053 186.888c0 .966-1.118 1.427-1.356 1.475-2.227.404-8.449 2.81-14.053 3.363-4.718.492-9.099.025-13.912-.936-.637-.127-2.134-.527-2.24-1.136-.133-.663-18.566-37.363-4.237-53.129.336-.37 3.166.297 5.751.908 2.39.564 4.581.249 6.537-.531l2.426 1.27c2.979 1.651 8.616 7.515 9.275 12.117.334 2.339 1.681 4.072 2.07 6.131.145.761.292 1.506.442 2.231.294 1.421.596 2.774.908 4.062.843 3.48 1.732 6.476 2.606 9.065a96.162 96.162 0 002.656 6.946c1.057 2.48 1.949 4.332 2.506 5.752.395.992.621 1.777.621 2.412z" fill="#AEC3FF"/><path d="M130.434 184.47c-26.018-12.19-35.03-35.596-35.03-35.596s21.14 7.754 26.354 9.772c.293 1.421.596 2.775.908 4.062.843 3.48 1.731 6.477 2.606 9.065a96.312 96.312 0 002.655 6.946c1.056 2.478 1.949 4.333 2.507 5.751z" fill="#91B0F2"/><path d="M145.657 177.405l2.248.819s4.503-3.165 7.305 1.984c0 0 1.014 2.25-.591 2.738-1.605.489-1.022.029-3.278.775-2.256.747-4.479.21-5.331-1.392l-1.527-1.116 1.174-3.808z" fill="#FFB07B"/><path d="M147.507 180.567c.832-2.157 1.211-3.133 1.211-3.133s-16.989-13.77-18.721-14.951c-1.18-.806-12.923-9.534-18.647-16.336a12.024 12.024 0 00-11.65-4.015l-3.566.744c-4.307.898-5.706 6.318-2.366 9.166 9.408 8.021 25.277 17.322 28.235 19.257 7.345 4.803 23.59 11.534 23.59 11.534s1.262-.571 1.914-2.266z" fill="#AEC3FF"/><path d="M105.978 134.358c-5.431.302-8.964-4.156-8.964-4.156s2.455-1.354 3.794-2.349l4.658 2.352c.002.001.303 1.485.512 4.153z" fill="#EA8E50"/><path d="M108.292 128.812s-8.23 5.873-11.828.72c-3.6-5.153-7.085-7.865-1.984-11.833 5.103-3.967 7.508-2.715 9.131-1.286 1.62 1.431 6.73 10.738 4.681 12.399z" fill="#FFB07B"/><path d="M104.479 111.761c-.294-1.98-.958-3.375-.958-3.375s-.517 2.127-4.427 1.834c-3.91-.293-10.106.383-12.172 4.813a9.476 9.476 0 00-.353.87c-.374-.983-.465-2.455-.465-2.455-.743 1.908 0 4.293 0 4.293l-.03.21c-.863.725-1.587 2.981-1.587 2.981.26-.629.895-1.04 1.462-1.292-.017 3.447 1.388 6.818 3.856 7.82 3.61 1.467 3.58.348 7.209 2.742 0 0 .973-1.201.309-2.009-.664-.807-3.172-1.98-1.771-3.154 1.402-1.174 1.918.146 2.435-.66.516-.807-2.066-3.154 1.255-5.355 3.32-2.201 5.534-5.283 5.237-7.263z" fill="#233862"/><path d="M374.189 169.003s.57.391.784 1.24c.165.651-.005 1.656-.057 2.455-.109 1.701 2.258 4.201 3.788 5.07 1.53.869 0-3.622 0-4.709 0-1.088.437-1.883-.802-4.347-1.237-2.461-3.713.291-3.713.291z" fill="#FFB27D"/><path d="M339.671 127.419c-.452-5.715 5.792-9.634 10.723-6.662.101.061.201.123.301.186 7.381 4.724 21.556 23.935 23.656 27.761 2.186 3.982 5.079 20.992 5.079 20.992s-3.997 1.455-5.867-.055c0 0-6.255-14.751-8.552-17.281-2.421-2.665-24.823-14.981-25.037-20.205-.057-1.38-.168-3.041-.303-4.736z" fill="#ED7D2B"/><path d="M384.239 256.449s2.976 2.7 2.396 4.619c-.582 1.919-3.267 3.198-3.63 5.544-.363 2.346-1.814 3.625-3.121 3.625h-6.23s-.961-1.651 1.361-2.147c2.323-.498 3.199-3.254 3.053-5.812-.145-2.559.219-5.969.219-5.969l4.935-1.138 1.017 1.278zm-36.51 6.985s.534 6.146-.774 6.786l-16.721-.035s0-1.919 2.686-2.346c2.685-.427 7.403-1.99 8.202-5.473.8-3.482 6.607 1.068 6.607 1.068z" fill="#224275"/><path d="M333.613 176.613s.882 10.773 1.918 23.723c1.409 17.591 3.102 39.2 3.27 43.295.29 7.108 1.453 18.478 1.453 18.478s2.757 2.702 8.275 1.563c0 0 4.918-16.232 6.322-33.406l.065-.849c1.307-17.483 3.338-54.298 3.338-54.298l-24.641 1.494z" fill="#AEC3FF"/><path d="M333.613 176.613s.882 10.773 1.918 23.723l19.32 29.93.065-.849c1.307-17.483 3.338-54.298 3.338-54.298l-24.641 1.494z" fill="#91B0F2"/><path d="M337.639 177.894s15.896 39.017 26.349 57.354c10.454 18.337 13.719 23.454 13.719 23.454s5.989-2.346 6.532-3.945c0 0-3.997-35.399-10.997-44.028-3.954-4.876-8.601-19.509-8.818-24.626-.217-5.117-1.415-15.244-1.415-15.244l-25.37 7.035z" fill="#AEC3FF"/><path d="M351.346 119.364s-10.65 5.372-16.887 3.579c0 0 .855-1.117 2.421-2.301 1.004-.761 1.527-2.001 1.326-3.241-.062-.386-.116-.75-.159-1.09-.304-2.096-.258-3.6-.258-3.6l4.015-3.014 3.872-3.182c-.136 8.736 5.67 12.849 5.67 12.849z" fill="#FFB27D"/><path d="M361.924 173.944c-4.3 2.588-8.371 4.534-13.135 5.626-5.62 1.325-12.526.934-14.838 1.284a.965.965 0 01-.673-.17c-.182-.093-1.201-6.909-2.223-15.512-.046-.345-.093-.697-.112-1.046l-.015-.117a329.502 329.502 0 01-1.047-10.437c-.245-2.756-.45-5.481-.589-8.041-.178-3.203-.251-6.145-.178-8.564a34.92 34.92 0 01.197-2.964c.608-5.026 2.723-8.632 4.992-11.307l2.622-2.094c2.183.137 3.969-.293 6.073-1.673 2.3-1.506 4.781-3.124 5.25-2.855 3.525 1.918 6.395 6.888 8.445 13.45 1.175 3.778 2.077 8.065 2.654 12.604.185 1.408.343 2.854.464 4.293.024.266.042.532.065.794.275 3.934.727 7.622 1.229 10.915.673 4.441 1.44 8.16 1.982 10.78.273 1.335.48 2.365.602 3.104.113.649-1.185 1.572-1.765 1.93z" fill="#F99746"/><path d="M345.813 109.851s-2.62 4.98-7.766 6.46c-.464-2.642-.328-6.794-.328-6.794l4.084.182 4.01.152z" fill="#ED985F"/><path d="M334.701 110.724s9.624 3.914 11.976-1.983c2.353-5.899 5.18-9.365-.865-12.114-6.044-2.748-8.143-.966-9.419.813-1.273 1.779-4.133 12.115-1.692 13.284z" fill="#FFB27D"/><path d="M353.098 97.524c.115-.082.344-.119.816-.037 0 0-.318-.316-.814-.442.052-.667-.028-1.886-1.08-2.419 0 0 .526.456.445 1.158-.987-1.615-3.532-3.207-11.334-4.359-10.283-1.517-8.442 5.673-7.312 6.74 1.13 1.065 4.907-.284 7.299.466 2.391.75 2.045 4.356 2.76 5.026.714.669.586-.254 1.822-.501 1.234-.248.914 1.619.315 2.744-.6 1.124.57 3.055.57 3.055l1.938-1.308c1.938-1.307 5.03-8.016 4.671-9.678-.032-.148-.062-.296-.096-.445z" fill="#2C3A64"/><path d="M347.168 137.531s-8.678 6.564-17.876 8.004c-.178-3.202-.251-6.144-.178-8.564l18.054.56z" fill="#ED7D2B"/><path d="M295.815 114.863c-.087-.18-.027-6.319-3.077-6.811-1.99-.32-7.147-1.689-7.098 1.065.019 1.083 6.474 7.763 6.474 7.763l3.701-2.017z" fill="#FFB27D"/><path d="M348.995 126.841c3.85 4.268 1.284 11.153-4.449 11.769-.117.012-.235.023-.354.033-8.748.706-33.641-6.382-37.086-8.278-5.719-3.146-15.521-13.093-15.521-13.093s2.287-3.57 4.694-3.501c0 0 13.123 8.312 17.822 9.306 3.17.672 28.399-3.841 31.76.182a131.454 131.454 0 003.134 3.582z" fill="#F99746"/><path d="M378.632 170.571s.467 1.022.798 1.82c.331.797.513 2.281.258 2.136-.255-.145-1.166-1.204-1.457-1.743-.292-.538.401-2.213.401-2.213z" fill="#FFB27D"/><path opacity=".5" d="M232.306 186.295s-3.026-25.204-16.015-40.246c-1.725-1.999-5.03-.726-4.974 1.908l.003.134c.169 4.496 14.712 23.461 20.986 38.204zm1.578 7.216s-12.942-31.504-35.049-45.436c-1.348-.849-3.173-.542-4.078.767-.589.853-.852 2.182-.193 4.26 1.763 5.541 26.417 24.193 39.32 40.409zm-68.641 9.717c1.273-13.131 23.246-12.81 23.246-12.81s18.221 19.522 22.52 19.334c4.296-.189-12.301-19.715-12.301-19.715 8.018-2.163 30.495 4.262 30.495 4.262s3.067 25.851 7.187 24.616c4.119-1.235-3.891-22.753-3.891-22.753 8.292 1.02 17.221 8.929 17.221 8.929 11.754 13.35-6.092 27.669-6.092 27.669s1.258 8.936 8.526 18.201c0 0 1.568 1.674 3.382 4.659l-2.151.364a21.097 21.097 0 00-.868-1.561c0-.005-.004-.007-.007-.01-.004-.008-.009-.014-.012-.022-.205-.305-.496-.74-.859-1.268l-.002-.002-.001-.003c-.876-1.167-1.482-2.038-1.879-2.673-.002-.002-.003-.003-.003-.007-2.656-3.683-6.389-8.435-8.467-9.213 0 0 .18-.373.293-1.059l-.293 1.059c-2.34 8.468-20.527 12.889-31.142 12.531-10.615-.357-6.635-3.99-1.911-9.593 4.725-5.602 16.508-6.328 19.613-8.737 3.105-2.409-2.204-3.395-8.953-1.716-6.749 1.68-9.006 9.057-19.872 11.972-10.867 2.915-22.817-16.323-22.817-16.323 8.03 1.063 20.99-5.434 21.069-8.137.079-2.704-20.127.981-23.418.731-3.289-.249-9.885-5.593-8.613-18.725zm165.645 4.338c.213-9.705-15.872-11.359-15.872-11.359s-15.011 12.699-18.135 12.192c-3.125-.507 10.702-13.349 10.702-13.349-5.672-2.27-22.653.493-22.653.493s-4.488 18.627-7.391 17.371c-2.902-1.255 4.821-16.291 4.821-16.291-6.147.033-13.36 5.043-13.36 5.043-9.75 8.745 2.046 20.742 2.046 20.742s-1.695 6.422-7.81 12.567c0 0-1.292 1.087-2.877 3.113l1.54.451c.247-.373.503-.731.77-1.067l.004-.006.011-.014c.176-.206.427-.498.737-.854l.002-.001.001-.002c.742-.778 1.26-1.361 1.605-1.791l.003-.005c2.261-2.462 5.401-5.615 6.987-6.004 0 0-.1-.288-.122-.799.04.255.079.52.122.799.975 6.388 13.879 11.182 21.666 11.833 7.787.651 5.195-2.346 2.231-6.845-2.966-4.5-11.512-6.044-13.572-8.071-2.059-2.028 1.906-2.291 6.691-.484s5.792 7.392 13.479 10.455c7.688 3.062 18.092-9.967 18.092-9.967-5.96.089-14.866-5.774-14.688-7.755.177-1.984 14.621 2.446 17.047 2.545 2.427.101 7.711-3.236 7.923-12.94z" fill="#AFCDFB"/><path d="M236.12 266.024v2.863c0 .228.084.439.227.616.15.186.365.331.619.413a1.628 1.628 0 00.475.074h54.598c.704 0 1.284-.467 1.32-1.046l.002-.057v-2.863c0-.019 0-.038-.002-.056-.036-.58-.616-1.047-1.32-1.047h-54.598a1.628 1.628 0 00-.475.074 1.306 1.306 0 00-.619.413.975.975 0 00-.227.616z" fill="#FFC76C"/><path d="M262.931 269.99h29.25c.628 0 1.146-.467 1.177-1.046l.002-.057v-2.863c0-.019 0-.038-.002-.056-.031-.58-.549-1.047-1.177-1.047h-25.658c-.41 1.492-1.366 3.556-3.592 5.069z" fill="#FFAE39"/><path d="M242.764 269.989h.621v-5.068h-.621v5.068zm2.1 0h.621v-5.068h-.621v5.068zm2.52 0h.621v-5.068h-.621v5.068zm3.861 0h.621v-5.068h-.621v5.068zm4.083 0h.621v-5.068h-.621v5.068zm6.258 0h.621v-5.068h-.621v5.068zm5.861 0h.621v-5.068h-.621v5.068zm5.233 0h.621v-5.068h-.621v5.068zm-31.916 0h.621v-5.068h-.621v5.068zm-1.32 0h.621v-5.068h-.621v5.068zm-1.275 0h.621v-5.068h-.621v5.068zm-.96-5.05v5.033c.076.011.154.018.233.018h.389v-5.069h-.389c-.079 0-.157.007-.233.018zm-.862.47v4.094c.151.186.366.331.62.413v-4.92a1.324 1.324 0 00-.62.413z" fill="#FFA412"/><path d="M241.959 260.956v2.863a.98.98 0 00.226.616c.151.186.366.331.62.413a1.628 1.628 0 00.475.074h54.598c.703 0 1.283-.467 1.32-1.047l.001-.056v-2.863l-.001-.057c-.037-.581-.617-1.046-1.32-1.046H243.28c-.035 0-.07.002-.104.003a.327.327 0 00-.045.004.41.41 0 00-.049.006l-.035.005a1.446 1.446 0 00-.242.056c-.011.004-.022.008-.035.011a.938.938 0 00-.138.057l-.033.016-.062.033a.774.774 0 00-.068.042l-.051.035-.003.003a1.23 1.23 0 00-.128.107c-.01.008-.019.018-.027.026l-.026.026-.049.057a.968.968 0 00-.226.616z" fill="#FFC76C"/><path d="M268.768 264.922h29.25c.629 0 1.146-.467 1.177-1.047l.002-.056v-2.863c0-.019 0-.038-.002-.057-.031-.581-.549-1.046-1.177-1.046h-25.657a2.935 2.935 0 01-.036.125c-.428 1.481-1.389 3.472-3.557 4.944z" fill="#FFAE39"/><path d="M248.602 264.92h.621v-5.068h-.621v5.068zm2.1 0h.621v-5.068h-.621v5.068zm2.519 0h.621v-5.068h-.621v5.068zm3.86 0h.621v-5.068h-.621v5.068zm4.083 0h.621v-5.068h-.621v5.068zm6.26 0h.621v-5.068h-.621v5.068zm5.86 0h.621v-5.068h-.621v5.068zm5.233 0h.621v-5.068h-.621v5.068zm-31.915 0h.621v-5.068h-.621v5.068zm-1.322 0h.621v-5.068h-.621v5.068zm-1.275 0h.621v-5.068h-.621v5.068zm-.959-5.049v5.033c.076.011.154.017.233.017h.388v-5.068h-.388c-.079 0-.157.005-.233.018zm-.861.469v4.095c.15.186.366.331.619.413v-4.92a1.316 1.316 0 00-.619.412z" fill="#FFA412"/><path d="M239.137 256.012v2.863a.98.98 0 00.226.616c.151.186.366.331.62.413a1.628 1.628 0 00.475.074h54.598c.218 0 .426-.046.608-.125.387-.168.662-.493.707-.871l.004-.049.002-.057v-2.862c0-.019 0-.038-.002-.057-.036-.58-.616-1.046-1.319-1.046h-54.598a1.553 1.553 0 00-.475.074 1.314 1.314 0 00-.62.413.97.97 0 00-.226.614z" fill="#FFC76C"/><path d="M265.949 259.978h29.25c.196 0 .38-.046.543-.125.346-.168.591-.493.631-.871l.005-.049.001-.057v-2.862l-.001-.057c-.032-.58-.55-1.046-1.177-1.046h-25.659c-.399 1.451-1.313 3.444-3.412 4.944-.061.039-.121.082-.181.123z" fill="#FFAE39"/><path d="M245.78 259.977h.621v-5.068h-.621v5.068zm2.1 0h.621v-5.068h-.621v5.068zm2.521 0h.621v-5.068h-.621v5.068zm3.86 0h.621v-5.068h-.621v5.068zm4.083 0h.621v-5.068h-.621v5.068zm6.258 0h.621v-5.068h-.621v5.068zm5.861 0h.621v-5.068h-.621v5.068zm5.233 0h.621v-5.068h-.621v5.068zm-31.915 0h.621v-5.068h-.621v5.068zm-1.32 0h.621v-5.068h-.621v5.068zm-1.276 0h.621v-5.068h-.621v5.068zm-.96-5.05v5.033c.076.011.154.018.233.018h.388v-5.068h-.388c-.079 0-.157.006-.233.017zm-.861.47v4.094c.15.186.366.331.619.413v-4.92a1.316 1.316 0 00-.619.413z" fill="#FFA412"/><path d="M237.83 250.944v2.863a.98.98 0 00.226.616c.151.186.366.331.62.413a1.628 1.628 0 00.475.074h54.598c.703 0 1.283-.467 1.319-1.047l.002-.056v-2.863c0-.019 0-.038-.002-.057-.033-.537-.532-.975-1.163-1.038a1.58 1.58 0 00-.156-.008h-54.598c-.079 0-.157.006-.233.018a1.446 1.446 0 00-.242.056 1.314 1.314 0 00-.62.413.977.977 0 00-.226.616z" fill="#FFC76C"/><path d="M264.64 254.91h29.25c.627 0 1.145-.467 1.177-1.047l.002-.056v-2.863c0-.019 0-.038-.002-.057-.028-.537-.475-.975-1.038-1.038a1.28 1.28 0 00-.139-.008h-25.658l-.002.008c-.412 1.49-1.366 3.55-3.59 5.061z" fill="#FFAE39"/><path d="M244.473 254.908h.621v-5.068h-.621v5.068zm2.1 0h.622v-5.068h-.622v5.068zm2.519 0h.621v-5.068h-.621v5.068zm3.861 0h.621v-5.068h-.621v5.068zm4.082 0h.622v-5.068h-.622v5.068zm6.261 0h.621v-5.068h-.621v5.068zm5.86 0h.621v-5.068h-.621v5.068zm5.233 0h.621v-5.068h-.621v5.068zm-31.915 0h.621v-5.068h-.621v5.068zm-1.322 0h.621v-5.068h-.621v5.068zm-1.274 0h.621v-5.068h-.621v5.068zm-.96-5.049v5.033c.076.011.154.017.233.017h.388v-5.068h-.388a1.272 1.272 0 00-.233.018zm-.861.469v4.095c.15.186.365.331.619.413v-4.92a1.311 1.311 0 00-.619.412z" fill="#FFA412"/><path d="M241.844 245.884v2.862c0 .229.084.44.227.616.15.186.366.331.619.413.078.025.159.044.243.057.025.003.05.008.076.009a.3.3 0 00.043.003l.042.004.07.001h54.598c.703 0 1.283-.466 1.32-1.046l.001-.057v-2.862l-.001-.057a.328.328 0 00-.004-.046c-.052-.466-.457-.852-.99-.966a1.484 1.484 0 00-.325-.034h-54.599c-.039 0-.079.001-.119.005l-.052.004c-.021.003-.041.007-.062.008a1.553 1.553 0 00-.242.057 1.314 1.314 0 00-.62.413.974.974 0 00-.225.616z" fill="#FFC76C"/><path d="M268.655 249.849h29.25c.627 0 1.145-.466 1.177-1.046l.001-.057v-2.862l-.001-.057c0-.016-.002-.031-.003-.046-.048-.477-.425-.869-.915-.972-.017-.004-.033-.008-.05-.009a1.31 1.31 0 00-.209-.017h-25.659l-.009.036c-.414 1.487-1.369 3.524-3.57 5.024-.004 0-.009.003-.012.006z" fill="#FFAE39"/><path d="M248.487 249.848h.621v-5.069h-.621v5.069zm2.099 0h.622v-5.069h-.622v5.069zm2.522 0h.621v-5.069h-.621v5.069zm3.859 0h.622v-5.069h-.622v5.069zm4.084 0h.621v-5.069h-.621v5.069zm6.258 0h.621v-5.069h-.621v5.069zm5.861 0h.621v-5.069h-.621v5.069zm5.233 0h.621v-5.069h-.621v5.069zm-31.916 0h.621v-5.069h-.621v5.069zm-1.32 0h.621v-5.069h-.621v5.069zm-1.276 0h.622v-5.069h-.622v5.069zm-.96-5.05v5.034c.076.011.154.017.233.017h.388v-5.068h-.388a1.285 1.285 0 00-.233.017zm-.861.47v4.095c.15.186.366.331.619.413v-4.921a1.308 1.308 0 00-.619.413z" fill="#FFA412"/><path d="M241.959 240.85v2.863a.98.98 0 00.226.616c.151.186.366.331.62.413.06.02.123.036.188.047h.002l.052.009c.076.011.154.018.233.018h54.598c.057 0 .116-.003.171-.01.022-.001.045-.005.065-.008.594-.089 1.052-.513 1.084-1.028l.001-.057v-2.863l-.001-.056c-.037-.58-.617-1.047-1.32-1.047H243.28c-.035 0-.07.002-.104.004l-.045.003-.049.004a1.553 1.553 0 00-.277.062c-.011.003-.022.008-.035.011-.011.003-.022.008-.033.013-.022.007-.045.017-.067.026a1.165 1.165 0 00-.071.035c-.021.011-.041.02-.062.033a.6.6 0 00-.068.043c-.017.011-.035.022-.051.034l-.003.003a1.053 1.053 0 00-.128.108c-.01.007-.019.017-.027.025-.008.009-.018.017-.026.027a.97.97 0 00-.275.672z" fill="#FFC76C"/><path d="M268.768 244.816h29.25c.024 0 .046 0 .07-.002a.972.972 0 00.076-.006c.562-.065 1.004-.503 1.033-1.038l.001-.057v-2.863l-.001-.056c-.032-.58-.55-1.047-1.177-1.047h-25.657l-.036.125c-.425 1.468-1.376 3.439-3.505 4.907-.019.013-.036.026-.054.037z" fill="#FFAE39"/><path d="M248.602 244.817h.621v-5.068h-.621v5.068zm2.1 0h.621v-5.068h-.621v5.068zm2.519 0h.621v-5.068h-.621v5.068zm3.86 0h.621v-5.068h-.621v5.068zm4.083 0h.621v-5.068h-.621v5.068zm6.26 0h.621v-5.068h-.621v5.068zm5.86 0h.621v-5.068h-.621v5.068zm5.233 0h.621v-5.068h-.621v5.068zm-31.915 0h.621v-5.068h-.621v5.068zm-1.322 0h.621v-5.068h-.621v5.068zm-1.275 0h.621v-5.068h-.621v5.068zm-.959-5.051v5.034c.076.011.154.017.233.017h.388v-5.068h-.388a1.285 1.285 0 00-.233.017zm-.861.469v4.094c.15.186.366.331.619.413v-4.92a1.318 1.318 0 00-.619.413z" fill="#FFA412"/><path d="M239.137 235.908v2.863a.98.98 0 00.226.616c.151.185.366.33.62.412a1.553 1.553 0 00.475.074h54.598c.218 0 .426-.045.608-.124.387-.169.662-.493.707-.873l.004-.049.002-.056v-2.863c0-.019 0-.038-.002-.057-.036-.579-.616-1.046-1.319-1.046h-54.598a1.628 1.628 0 00-.475.074 1.314 1.314 0 00-.62.413.975.975 0 00-.226.616z" fill="#FFC76C"/><path d="M265.949 239.873h29.25c.196 0 .38-.045.543-.124a1.11 1.11 0 00.631-.873l.005-.049.001-.056v-2.863l-.001-.057c-.032-.579-.55-1.046-1.177-1.046h-25.659c-.399 1.451-1.313 3.444-3.412 4.944l-.181.124z" fill="#FFAE39"/><path d="M245.78 239.872h.621v-5.068h-.621v5.068zm2.1 0h.621v-5.068h-.621v5.068zm2.521 0h.621v-5.068h-.621v5.068zm3.86 0h.621v-5.068h-.621v5.068zm4.083 0h.621v-5.068h-.621v5.068zm6.258 0h.621v-5.068h-.621v5.068zm5.861 0h.621v-5.068h-.621v5.068zm5.233 0h.621v-5.068h-.621v5.068zm-31.915 0h.621v-5.068h-.621v5.068zm-1.32 0h.621v-5.068h-.621v5.068zm-1.276 0h.621v-5.068h-.621v5.068zm-.96-5.049v5.033c.076.011.154.017.233.017h.388v-5.068h-.388a1.286 1.286 0 00-.233.018zm-.861.469v4.095c.15.186.366.331.619.413v-4.92a1.321 1.321 0 00-.619.412z" fill="#FFA412"/><path d="M234.675 230.838v2.863c0 .228.084.439.227.616.15.186.366.331.619.413a1.616 1.616 0 00.476.074h54.597c.704 0 1.284-.467 1.32-1.046l.002-.057v-2.863c0-.019 0-.038-.002-.057-.033-.537-.531-.975-1.163-1.038a1.586 1.586 0 00-.157-.008h-54.597a1.616 1.616 0 00-.476.074 1.31 1.31 0 00-.619.413.977.977 0 00-.227.616z" fill="#FFC76C"/><path d="M261.486 234.804h29.25c.627 0 1.145-.467 1.177-1.046l.001-.057v-2.863l-.001-.057c-.029-.537-.476-.975-1.038-1.038a1.28 1.28 0 00-.139-.008h-25.659l-.001.008c-.411 1.492-1.366 3.551-3.59 5.061z" fill="#FFAE39"/><path d="M241.318 234.805h.622v-5.068h-.622v5.068zm2.1 0h.621v-5.068h-.621v5.068zm2.519 0h.621v-5.068h-.621v5.068zm3.862 0h.621v-5.068h-.621v5.068zm4.082 0h.621v-5.068h-.621v5.068zm6.259 0h.621v-5.068h-.621v5.068zm5.859 0h.621v-5.068h-.621v5.068zm5.233 0h.621v-5.068h-.621v5.068zm-31.913 0h.621v-5.068h-.621v5.068zm-1.322 0h.621v-5.068h-.621v5.068zm-1.276 0h.621v-5.068h-.621v5.068zm-.958-5.052v5.033c.076.011.154.018.233.018h.389v-5.069h-.389c-.079 0-.157.007-.233.018zm-.862.47v4.094c.151.186.366.331.62.413v-4.92a1.321 1.321 0 00-.62.413z" fill="#FFA412"/><path d="M241.844 225.778v2.862c0 .229.084.44.227.616.15.186.366.331.619.413.078.025.159.044.243.057.025.003.05.008.076.009.02.004.041.004.062.005l.03.002.065.001h54.597c.704 0 1.284-.466 1.32-1.046.002-.019.002-.038.002-.057v-2.862c0-.019 0-.038-.002-.057-.036-.58-.616-1.046-1.32-1.046h-54.599c-.024 0-.046 0-.07.002a1.553 1.553 0 00-.587.144l-.008.004-.067.034-.011.007a1.26 1.26 0 00-.19.132l-.038.033c-.002.002-.005.003-.006.006-.008.007-.016.013-.023.021l-.004.005a.36.36 0 00-.038.04.974.974 0 00-.278.675z" fill="#FFC76C"/><path d="M268.655 229.743h29.25c.627 0 1.145-.466 1.177-1.046l.001-.057v-2.862l-.001-.057c-.032-.58-.55-1.046-1.177-1.046h-25.659a1.49 1.49 0 01-.033.117c-.426 1.479-1.385 3.47-3.547 4.943a.026.026 0 01-.011.008z" fill="#FFAE39"/><path d="M248.487 229.744h.621v-5.068h-.621v5.068zm2.099 0h.622v-5.068h-.622v5.068zm2.522 0h.621v-5.068h-.621v5.068zm3.859 0h.622v-5.068h-.622v5.068zm4.084 0h.621v-5.068h-.621v5.068zm6.258 0h.621v-5.068h-.621v5.068zm5.861 0h.621v-5.068h-.621v5.068zm5.233 0h.621v-5.068h-.621v5.068zm-31.916 0h.621v-5.068h-.621v5.068zm-1.32 0h.621v-5.068h-.621v5.068zm-1.276 0h.622v-5.068h-.622v5.068zm-.96-5.052v5.034c.076.011.154.017.233.017h.388v-5.068h-.388c-.079 0-.157.006-.233.017zm-.861.47v4.095c.15.186.366.331.619.413v-4.921a1.33 1.33 0 00-.619.413z" fill="#FFA412"/><path d="M237.83 220.828v2.862c0 .229.084.44.226.616.151.186.366.331.62.413a1.553 1.553 0 00.475.074h54.598c.212 0 .412-.042.589-.116.398-.167.683-.498.726-.884.001-.015.003-.03.003-.046l.001-.057v-2.862l-.001-.057c-.033-.537-.533-.975-1.163-1.038a1.601 1.601 0 00-.157-.008h-54.598a1.58 1.58 0 00-.475.074 1.306 1.306 0 00-.619.413.978.978 0 00-.225.616z" fill="#FFC76C"/><path d="M264.64 224.792h29.25c.188 0 .368-.043.526-.117a1.114 1.114 0 00.651-.93l.002-.056v-2.863c0-.019 0-.038-.002-.057-.028-.537-.475-.975-1.038-1.038a1.28 1.28 0 00-.139-.008h-25.658l-.002.008c-.401 1.453-1.318 3.446-3.422 4.944a5.511 5.511 0 01-.168.117z" fill="#FFAE39"/><path d="M244.473 224.793h.621v-5.069h-.621v5.069zm2.1 0h.622v-5.069h-.622v5.069zm2.519 0h.621v-5.069h-.621v5.069zm3.861 0h.621v-5.069h-.621v5.069zm4.082 0h.622v-5.069h-.622v5.069zm6.261 0h.621v-5.069h-.621v5.069zm5.86 0h.621v-5.069h-.621v5.069zm5.233 0h.621v-5.069h-.621v5.069zm-31.915 0h.621v-5.069h-.621v5.069zm-1.322 0h.621v-5.069h-.621v5.069zm-1.274 0h.621v-5.069h-.621v5.069zm-.96-5.052v5.033c.076.011.154.018.233.018h.388v-5.069h-.388c-.081 0-.157.007-.233.018zm-.861.471v4.095c.15.186.365.331.619.413v-4.921a1.299 1.299 0 00-.619.413z" fill="#FFA412"/><path d="M236.12 215.766v2.862c0 .229.084.44.227.616.15.186.365.331.619.413.078.025.158.044.242.057.026.003.051.008.076.009a.322.322 0 00.043.003l.043.004.07.001h54.598c.703 0 1.283-.466 1.319-1.046l.002-.057v-2.862c0-.019 0-.038-.002-.057-.036-.58-.616-1.046-1.319-1.046H237.44a1.617 1.617 0 00-.476.074 1.31 1.31 0 00-.619.413.984.984 0 00-.225.616z" fill="#FFC76C"/><path d="M262.931 219.731h29.25c.628 0 1.146-.466 1.177-1.046l.002-.057v-2.862c0-.019 0-.038-.002-.057-.031-.58-.549-1.046-1.177-1.046h-25.658c-.409 1.49-1.361 3.548-3.581 5.06-.003.003-.007.007-.011.008z" fill="#FFAE39"/><path d="M242.764 219.732h.621v-5.068h-.621v5.068zm2.1 0h.621v-5.068h-.621v5.068zm2.52 0h.621v-5.068h-.621v5.068zm3.861 0h.621v-5.068h-.621v5.068zm4.083 0h.621v-5.068h-.621v5.068zm6.258 0h.621v-5.068h-.621v5.068zm5.861 0h.621v-5.068h-.621v5.068zm5.855-5.069h-.622v5.068h.622v-5.068zm-32.538 5.069h.621v-5.068h-.621v5.068zm-1.32 0h.621v-5.068h-.621v5.068zm-1.275 0h.621v-5.068h-.621v5.068zm-.96-5.052v5.034c.076.011.154.017.233.017h.389v-5.068h-.389c-.079 0-.157.006-.233.017zm-.862.47v4.095c.151.186.366.331.62.413v-4.921a1.339 1.339 0 00-.62.413z" fill="#FFA412"/><path d="M320.187 262.228c10.134-10.077 10.134-26.414 0-36.49-10.133-10.077-26.562-10.077-36.696-.001-10.133 10.077-10.133 26.414 0 36.491 10.134 10.076 26.563 10.076 36.696 0z" fill="#E2810E"/><path d="M322.452 262.227c10.133-10.076 10.133-26.413 0-36.49-10.134-10.076-26.563-10.076-36.696 0-10.134 10.077-10.134 26.414 0 36.49 10.133 10.077 26.562 10.077 36.696 0z" fill="#FFC76C"/><path d="M287.39 260.91c-4.465-4.439-6.925-10.344-6.925-16.624 0-6.279 2.458-12.183 6.925-16.622 4.464-4.44 10.402-6.887 16.718-6.887 6.315 0 12.251 2.445 16.716 6.887 4.465 4.439 6.925 10.344 6.925 16.622 0 6.278-2.459 12.183-6.925 16.624-4.465 4.44-10.403 6.887-16.716 6.887-6.316 0-12.252-2.447-16.718-6.887zm-5.514-16.622c0 12.189 9.974 22.107 22.232 22.107s22.231-9.918 22.231-22.107-9.973-22.107-22.231-22.107c-12.258 0-22.232 9.916-22.232 22.107z" fill="#FFA412"/><path d="M307.369 251.11a3.91 3.91 0 00-.055-1.366 2.829 2.829 0 00-.58-1.133c-.29-.353-.677-.692-1.161-1.018a14.367 14.367 0 00-1.799-1.002 37.469 37.469 0 01-3.322-1.815c-.987-.613-1.816-1.282-2.483-2.01a6.88 6.88 0 01-1.467-2.45c-.309-.906-.393-1.95-.252-3.133.122-1.026.417-1.94.884-2.742a6.567 6.567 0 011.832-2.024c.754-.547 1.629-.961 2.624-1.242.995-.28 2.086-.406 3.274-.375l.463-3.875 3.137.37-.469 3.929c1.106.277 2.09.693 2.952 1.248a7.597 7.597 0 012.126 2.013 7.595 7.595 0 011.179 2.701c.229 1.013.274 2.122.13 3.329l-5.666-.668c.173-1.448-.021-2.57-.583-3.366-.561-.794-1.385-1.255-2.468-1.383-.588-.069-1.105-.047-1.548.066a2.876 2.876 0 00-1.128.545 2.673 2.673 0 00-.728.933c-.177.37-.291.78-.345 1.226a3.58 3.58 0 00.051 1.237c.087.378.272.738.556 1.085.283.345.673.685 1.171 1.019.497.334 1.12.692 1.869 1.075a43.31 43.31 0 013.288 1.857c.979.618 1.803 1.294 2.471 2.028a6.98 6.98 0 011.466 2.459c.309.906.394 1.944.255 3.115-.127 1.062-.426 1.994-.9 2.795a6.466 6.466 0 01-1.84 2.005c-.752.536-1.631.934-2.637 1.194-1.005.262-2.103.377-3.291.347l-.429 3.603-3.117-.367.428-3.586a13.248 13.248 0 01-3.063-1.077 8.37 8.37 0 01-2.508-1.885c-.702-.775-1.228-1.707-1.573-2.802-.347-1.094-.434-2.365-.261-3.813l5.665.668c-.103.857-.066 1.587.106 2.188.173.602.442 1.1.807 1.491.364.392.795.688 1.296.887.499.2 1.017.331 1.553.394.614.072 1.162.058 1.644-.044a3.395 3.395 0 001.244-.516c.347-.241.621-.542.824-.904.198-.359.324-.764.378-1.211z" fill="#FFA412"/><path d="M241.697 238.933s-3.275 4.584-6.278 4.647c-3.002.065-7.569-2.125-7.569-2.125s-2.757-6.109-.888-8.499c0 0 1.875-.818 3.836.627.336.25.678.562 1.015.967.476.569 1.01.892 1.577 1.062 2.142.647 4.685-.876 5.635.595.556.856 1.16 1.499 1.656 1.951.588.52 1.016.775 1.016.775zM199.005 272s11.574-27.889 32.408-28.419c0 0 19.23 2.125 20.3 28.419h-52.708z" fill="#FFEDDC"/><path d="M225.706 244.433s8.351 1.846 10.927.761c0 0 .39-3.473-3.127-2.986-2.407.334-3.975-.818-4.897-1.284-1.306-.66-3.25 2.056-2.903 3.509z" fill="#2B478B"/><path d="M232.974 239.199c-.534.399-2.174-5.615-2.174-5.615.336.251.678.563 1.015.967.476.569 1.01.892 1.577 1.062.003.175.1 3.199-.418 3.586zm7.707-1.041c-.118.069-3.98 2.369-4.503 2.369-.534 0 2.847-4.318 2.847-4.318.556.854 1.16 1.497 1.656 1.949z" fill="#E5C1A1"/><path d="M210.313 264.209c-.214-.181 8.191-12.306 10.505-12.394 2.315-.088 7.516 2.656 11.282 3.011 3.766.354 7.417-.709 8.128 1.505.713 2.213 2.671 10.06 1.469 11.316-1.203 1.256-26.763.489-31.384-3.438z" fill="#F9DDBF"/><path d="M239.712 95.564l-.79-4.424 1.712-.303.783 4.38c.225 1.26.976 1.802 2.022 1.617 1.045-.185 1.567-.928 1.348-2.156l-.792-4.435 1.712-.302.78 4.369c.418 2.344-.699 3.729-2.792 4.099-2.089.369-3.576-.567-3.983-2.845zm7.742-5.932l3.616-.638c.89-.157 1.633-.038 2.158.326.42.292.673.692.773 1.245.157.874-.223 1.443-.726 1.85.962.185 1.612.606 1.802 1.668.253 1.416-.778 2.328-2.535 2.639l-3.704.653-1.384-7.743zm3.808 2.557c.757-.134 1.191-.461 1.085-1.059-.09-.508-.544-.726-1.266-.598l-1.69.299.293 1.637 1.578-.279zm1.012 3.04c.756-.135 1.165-.48 1.058-1.079-.093-.52-.54-.772-1.418-.617l-1.98.35.304 1.703 2.036-.358zm3.289-7.029l1.713-.303 1.383 7.744-1.712.302-1.384-7.743z" fill="#A8D29F"/><path d="M260.957 247.006c.401.456.453.968.254 1.514a.027.027 0 01-.004.007c-.367 1.01-1.581 2.137-2.991 3.263a14.97 14.97 0 00-.588.495l-.082.074c-1.315 1.205-.819 1.481-3.181 3.926-2.694 2.787-4.547 2.836-5.075 2.582-.447-.216.461-1.693 1.466-3.356l.145-.242.4-.667c1.177-1.999.874-2.936.595-5.912-.226-2.417-3.781-13.507-3.781-13.507l5.16-.884s1.554 8.829 3.267 10.189c.915.725 1.94.734 2.82 1.271.061.038.123.076.183.115.5.333 1.01.673 1.412 1.132z" fill="#FFB27D"/><path d="M260.956 247.005c.401.457.453.969.254 1.514l-.003.008c-.45 1.009-1.634 2.13-2.996 3.252-.178.147-.336.282-.476.408l-.107.096-.083.074c-1.315 1.205-.819 1.481-3.181 3.926-2.693 2.787-4.547 2.836-5.075 2.582-.446-.215.461-1.693 1.466-3.355.524-.191 2.959-1.176 4.8-3.518 1.621-2.058 2.703-4.701 3.808-6.233.061.038.123.076.183.115.498.333 1.008.673 1.41 1.131z" fill="#233862"/><path d="M219.342 243.801c-.318 1.583-2.588 1.32-5.126.703-2.539-.618-1.935.116-5.546-.281-3.61-.397-4.704-1.736-4.814-2.27-.099-.474 1.685-.641 3.599-.86.241-.027.482-.057.724-.087 2.161-.269 3.742-1.656 5.705-2.795 1.859-1.079 4.633-5.473 4.633-5.473l4.951.391s-2.598 3.924-3.603 5.631c-.591 1.003-.559 2.33-.486 3.355.04.558.076 1.127-.037 1.686z" fill="#FFB27D"/><path d="M214.216 244.504c-2.537-.616-1.935.116-5.546-.281-3.61-.397-4.704-1.736-4.814-2.27-.099-.474 1.685-.641 3.599-.86l.018.036s2.165 1.527 5.171 1.598c2.449.059 5.044-.639 6.737-.612.038.558.074 1.127-.038 1.684-.321 1.585-2.591 1.321-5.127.705zm24.102-32.188l4.63 12.386 6.043 16.172s1.639.157 3.209-.292c1.447-.416 3.106-1.503 3.106-1.503s-1.678-17.364-4.809-27.332c-.801-2.559-1.701-4.629-2.693-5.793-4.853-5.703-9.486 6.362-9.486 6.362z" fill="#233862"/><path d="M243.025 192.645c3.032-.973 11.681.275 20.37 1.967l1.819-2.984 18.766-1.457s6.193 13.656 2.803 22.357c-.498 1.279-1.488 2.099-3.177 2.127 0 .002-.272 0-.274 0 0 0-11.17-.006-14.796-.006-9.333 0-19.752-6.379-21.1-6.647-2.206-.44-3.088 3.948-5.295 8.555-2.205 4.606-20.737 20.402-20.737 20.402s-2.849.028-4.025-.412c-1.266-.471-1.728-1.083-1.728-1.083s20.534-40.625 27.374-42.819z" fill="#2B478B"/><path d="M259.986 165.684c5.919 4.786 20.178 13.081 20.257 13.045 0 0 4.568 2.72 7.684 1.386 5.195-2.226 9.183-10.017 1.998-18.638-3.584-4.299-6.554-5.715-5.857-11.431.755-6.193-2.057-13.979-9.224-14.305-.599-.027-4.229-.509-6.819.299-6.602 2.061-17.644 26.472-8.039 29.644z" fill="#233862"/><path d="M285.262 192.197c-.386 1.06-10.532 2.006-16.306 1.624-1.833-.118-3.23-.375-3.726-.8-2.06-1.779-1.854 2.133-2.136-16.583-.136-9.13 7.79-17.261 7.79-17.261s.633 3.899 8.496-.742c.278-.162 3.374 4.396 6.354 10.011 3.285 6.201-.076 22.661-.472 23.751z" fill="#AEC3FF"/><path d="M242.947 224.702l6.043 16.172s1.64.157 3.21-.292c1.446-.415 3.105-1.503 3.105-1.503s-1.678-17.364-4.808-27.332l-7.55 12.955z" fill="#2B478B"/><path d="M270.884 159.176s-7.177 1.752-9.038 4.827c-2.267 3.746-13.573 20.637-13.573 20.637s11.146 3.919 13.045 2.03c1.9-1.889 6.61-17.526 6.61-17.526l2.956-9.968z" fill="#AEC3FF"/><path d="M279.396 158.446c.03.005-2.896 2.685-5.04 3.458-.839.304-2.234.638-2.234.638s-1.118-1.126-1.136-1.142c-.995-.923.005-1.191-.145-2.936l-.024-.253c-.201-1.955-.769-4.094-.805-4.233l-.002-.006 6.946-1.974-.223.381c.426 3.586 1.72 5.963 2.663 6.067z" fill="#FFB27D"/><path d="M276.956 151.998c-.674 2.007-2.512 4.699-6.259 5.281-.361-2.154-.649-3.162-.686-3.301l-.001-.006 6.946-1.974z" fill="#ED975D"/><path d="M268.854 156.053s9.362-.619 8.885-6.41c-.476-5.792.409-9.773-5.588-9.622-5.998.152-6.975 2.455-7.287 4.427-.316 1.971 1.543 11.616 3.99 11.605z" fill="#FFB27D"/><path d="M267.172 139.917s2.326 6.787 7.849 7.577c4.029.575 5.629-.508 5.629-.508s-2.248-2.125-3.468-5.394a2.843 2.843 0 00-2.229-1.821c-2.868-.44-6.57-2.329-7.781.146z" fill="#233862"/><path d="M269.156 141.119s-1.672.672-2.838 3.153c-.637 1.356-1.098 4.586-.705 5.916 0 0-2.691-6.193-.743-8.983 2.068-2.961 4.286-.086 4.286-.086z" fill="#233862"/><path d="M270.842 158.465s.572 3.438 1.281 4.079c0 0-1.795-.66-2.647-2.968 0 0 .627-1.032 1.366-1.111zm-6.678 11.69s-5.229 6.236-4.584 8.495c.643 2.259 4.263 2.259 4.263 2.259s-.676-4.811 0-7.316c.675-2.505 1.1-3.586.321-3.438zm11.737 17.97s7.53-4.564 7.432-7.216c-.098-2.651.003-7.516.71-6.836.705.682 2.939 6.148 2.725 7.695-.216 1.547-7.819 12.353-8.762 12.328-6.714-.188-2.105-5.971-2.105-5.971zm2.037-31.272s-4.113 5.144-5.815 5.691c0 0 4.833 0 8.245-4.011 0 0-1.14-1.662-2.43-1.68z" fill="#91B0F2"/><path d="M277.628 186.38c2.119-10.268-4.533-20.3-14.858-22.407-10.325-2.108-20.414 4.506-22.533 14.774-2.12 10.267 4.532 20.299 14.857 22.407 10.325 2.108 20.414-4.507 22.534-14.774z" fill="#E2810E"/><path d="M275.919 186.563c2.212-10.248-4.348-20.338-14.654-22.538-10.305-2.2-20.452 4.324-22.665 14.571-2.212 10.247 4.348 20.338 14.654 22.538 10.305 2.2 20.452-4.324 22.665-14.571z" fill="#FFC76C"/><path d="M257.254 200.079a17.322 17.322 0 01-12.296-5.065c-3.285-3.266-5.094-7.608-5.094-12.227 0-4.619 1.809-8.961 5.094-12.227a17.322 17.322 0 0112.296-5.065c4.645 0 9.011 1.799 12.296 5.065 3.284 3.266 5.093 7.608 5.093 12.227 0 4.619-1.809 8.961-5.093 12.227a17.326 17.326 0 01-12.296 5.065zm0-33.552c-9.017 0-16.352 7.294-16.352 16.26 0 8.966 7.335 16.26 16.352 16.26 9.016 0 16.351-7.294 16.351-16.26 0-8.966-7.335-16.26-16.351-16.26z" fill="#FFA412"/><path d="M259.647 187.806c.045-.373.03-.707-.041-1.003a2.078 2.078 0 00-.426-.834 3.94 3.94 0 00-.854-.748 10.735 10.735 0 00-1.323-.737 27.818 27.818 0 01-2.443-1.335c-.726-.45-1.336-.943-1.827-1.477a5.078 5.078 0 01-1.079-1.803c-.228-.666-.29-1.433-.185-2.305.09-.754.307-1.427.649-2.016a4.843 4.843 0 011.347-1.489 6.054 6.054 0 011.93-.914c.732-.206 1.533-.298 2.41-.276l.34-2.85 2.307.273-.345 2.889a7.242 7.242 0 012.17.919 5.582 5.582 0 011.564 1.481c.409.58.697 1.241.867 1.986.169.746.201 1.562.095 2.449l-4.167-.492c.127-1.065-.016-1.89-.428-2.475-.413-.584-1.019-.923-1.816-1.018-.432-.05-.812-.034-1.139.048a2.136 2.136 0 00-.83.401 1.98 1.98 0 00-.535.687c-.13.273-.214.574-.254.903-.039.328-.027.632.038.909.064.277.201.544.409.799.209.253.496.504.86.75.366.245.824.509 1.375.791.891.456 1.697.912 2.418 1.366a8.694 8.694 0 011.817 1.49 5.12 5.12 0 011.078 1.809c.228.666.29 1.43.187 2.29-.094.782-.314 1.467-.663 2.056a4.75 4.75 0 01-1.353 1.475 5.856 5.856 0 01-1.939.879 8.736 8.736 0 01-2.421.255l-.317 2.65-2.292-.271.315-2.637a9.725 9.725 0 01-2.251-.793 6.183 6.183 0 01-1.846-1.386 5.505 5.505 0 01-1.158-2.061c-.255-.805-.319-1.739-.192-2.804l4.167.491c-.074.631-.049 1.168.079 1.611.127.442.325.808.593 1.096.268.288.584.506.952.652.367.147.748.245 1.142.29.452.054.856.043 1.211-.033.355-.076.66-.202.915-.378s.457-.399.606-.665c.15-.269.244-.567.283-.895z" fill="#FFA412"/><path d="M236.841 185.799s-.214-3.118.971-2.995c1.455.152 3 3.581 2.29 4.243-.708.663-3.247-.479-3.261-1.248zm40.586 7.216l-1.768-1.054s-1.097-.435-1.743-.344c-.647.092-2.18-.178-2.228.071-.047.249 1.474 1.363 1.474 1.363-.916 1.397-4.234 1.654-4.486 2.179-.305.638 1.193 1.237 2.006 1.583.813.347 2.893.663 4.093-.242.877-.664 2.319-1.537 2.319-1.537l.333-2.019z" fill="#FFB27D"/><path d="M279.379 158.437s7.428.483 9.284 3.363c1.857 2.882 7.821 19.29 6.856 24.313-.967 5.022-18.63 11.05-18.63 11.05s-.782-.674-.782-2.474c0-1.079.566-2.123.566-2.123s10.839-9.006 10.092-10.8c-2.755-6.623-7.386-23.329-7.386-23.329z" fill="#AEC3FF"/></g><defs><clipPath id="clip0"><path fill="#fff" d="M0 0h440v272H0z"/></clipPath></defs></svg>