<svg width="100" height="40" fill="none" xmlns="http://www.w3.org/2000/svg"><path d="M-.005 10.36c0-.872.48-1.307 1.309-1.307H15.31c.872 0 1.308.435 1.307 1.306v1.094c0 .873-.435 1.35-1.307 1.35H3.968v9.36h8.943c.871 0 1.307.436 1.308 1.308v1.089c0 .872-.437 1.35-1.308 1.35H3.968v9.89H15.31c.876 0 1.307.477 1.307 1.349v1.088c0 .872-.435 1.307-1.307 1.307H1.307C.48 39.544 0 39.11 0 38.238L-.005 10.36zm24.778-1.307h1.308c.876 0 1.353.435 1.353 1.306v13.504L37.641 9.968c.393-.567.83-.915 1.702-.915h1.877c.83 0 1.092 1.007.655 1.568l-8.637 11.152 8.856 16.247c.349.653.043 1.524-.83 1.524H39.56c-.917 0-1.352-.26-1.744-1.044l-7.112-13.417-3.27 4.27v8.885c0 .87-.48 1.306-1.353 1.306h-1.308c-.829 0-1.308-.435-1.308-1.306V10.36c0-.87.48-1.306 1.308-1.306zm27.96 3.745h-5.671c-.876 0-1.31-.478-1.31-1.35V10.36c0-.872.437-1.307 1.31-1.307h15.355c.873 0 1.309.435 1.308 1.306v1.094c0 .873-.435 1.35-1.309 1.35h-5.715v25.435c0 .87-.436 1.306-1.31 1.306h-1.306c-.877 0-1.352-.435-1.352-1.306v-25.44zm16.136 5.142c0-6.23 3.926-9.366 9.161-9.366 5.235 0 9.16 3.137 9.16 9.366v20.3c0 .87-.435 1.305-1.308 1.305h-1.309c-.872 0-1.308-.435-1.308-1.306v-8.974h-10.47v8.973c0 .87-.435 1.306-1.308 1.306H70.18c-.873 0-1.31-.435-1.31-1.306V17.94zm3.926 7.58h10.47v-7.188c0-4.486-2.356-6.011-5.235-6.011-2.88 0-5.235 1.525-5.235 6.011v7.187zM94.453 0a5.488 5.488 0 00-3.05.952 5.523 5.523 0 00-2.012 2.494 5.564 5.564 0 00.254 4.72 5.538 5.538 0 001.58 1.829 5.478 5.478 0 005.383.656 5.507 5.507 0 002.465-2.04c.604-.91.926-1.98.926-3.073a5.576 5.576 0 00-1.633-3.923A5.522 5.522 0 0094.453 0zm0 8.828a3.259 3.259 0 01-1.812-.565 3.282 3.282 0 01-1.195-1.48 3.307 3.307 0 01.723-3.576 3.266 3.266 0 012.633-.94 3.258 3.258 0 012.393 1.447 3.3 3.3 0 01.551 1.824 3.317 3.317 0 01-.56 1.831 3.293 3.293 0 01-1.477 1.212 3.253 3.253 0 01-1.256.247z" fill="#fff"/></svg>