<svg width="24" height="24" fill="none" xmlns="http://www.w3.org/2000/svg"><path fill-rule="evenodd" clip-rule="evenodd" d="M12 24c6.628 0 12-5.372 12-12S18.628 0 12 0 0 5.372 0 12s5.372 12 12 12zm0-22.8c5.965 0 10.8 4.835 10.8 10.8 0 5.965-4.835 10.8-10.8 10.8-5.965 0-10.8-4.835-10.8-10.8C1.2 6.035 6.035 1.2 12 1.2zM3 12.6h1.2a.6.6 0 100-1.2H3a.6.6 0 100 1.2zm18 0h-1.2a.6.6 0 110-1.2H21a.6.6 0 110 1.2zM11.4 3v1.2a.6.6 0 101.2 0V3a.6.6 0 10-1.2 0zm0 18v-1.2a.6.6 0 111.2 0V21a.6.6 0 11-1.2 0zm1.156-8.812a.599.599 0 01-.278.358L8.706 14.61a.6.6 0 11-.6-1.04l3.38-1.951 1.784-4.9a.6.6 0 111.127.41l-1.84 5.06z" fill="#66C7FA"/></svg>