<svg width="24" height="24" fill="none" xmlns="http://www.w3.org/2000/svg"><path d="M18.283 9.718a.4.4 0 00-.566 0L15.2 12.235V3.601h-.004a.4.4 0 00-.113-.283l-3.2-3.2A.396.396 0 0011.6.005V0H.4a.4.4 0 00-.4.4v23.2a.4.4 0 00.4.4h22a.4.4 0 00.4-.4v-6.234l.517.517A.4.4 0 0024 17.6v-2a.4.4 0 00-.117-.283l-5.6-5.6zM12 1.367L13.834 3.2H12V1.367zM.8.8h10.4v2.8a.4.4 0 00.4.4h2.8v9.034l-2.283 2.283A.4.4 0 0012 15.6v2a.4.4 0 00.683.283l.517-.517V23.2H.8V.801zm18 22.4h-1.6v-2.4h1.6v2.4zm3.2 0h-2.4v-2.8a.4.4 0 00-.4-.4h-2.4a.4.4 0 00-.4.4v2.8H14v-6.634l4-4 4 4V23.2zm1.2-6.566l-4.917-4.917a.4.4 0 00-.566 0L12.8 16.635v-.868l5.2-5.2 5.2 5.2v.868z" fill="#5CC3F6"/><path d="M16.8 16.8h-1.6a.4.4 0 00-.4.4v1.6a.4.4 0 00.4.4h1.6a.4.4 0 00.4-.4v-1.6a.4.4 0 00-.4-.4zm-.4 1.6h-.8v-.8h.8v.8zm2.8.8h1.6a.4.4 0 00.4-.4v-1.6a.4.4 0 00-.4-.4h-1.6a.4.4 0 00-.4.4v1.6a.4.4 0 00.4.4zm.4-1.6h.8v.8h-.8v-.8zm-10-12a4 4 0 10-8 0 4 4 0 008 0zm-7.2 0a3.2 3.2 0 116.4 0 3.2 3.2 0 01-6.4 0z" fill="#5CC3F6"/><path d="M6 8v-.474A1.197 1.197 0 005.6 5.2a.4.4 0 11.4-.4h.8A1.2 1.2 0 006 3.674V3.2h-.8v.474A1.197 1.197 0 005.6 6a.4.4 0 11-.4.4h-.8a1.2 1.2 0 00.8 1.126V8H6zm-.193 12.285l3.8-6.581.693.4-1.4 2.424.692.4 1.6-2.77a.399.399 0 00-.146-.548l-1.04-.6.2-.346a1.2 1.2 0 10-2.08-1.2l-4.4 7.621a.397.397 0 00-.045.12l-.508 2.48a.4.4 0 00.658.38l1.893-1.68a.398.398 0 00.083-.1zm3.56-8.567a.4.4 0 01.146.546l-.2.346-.693-.4.2-.346a.4.4 0 01.547-.144v-.002zM8.22 12.904l.693.4-3.6 6.235-.693-.4 3.6-6.235zm-3.865 7.005l.425.245-.58.514.155-.759zM18.466 3.786l-.566.565 1.132 1.132a.4.4 0 00.565 0L21.86 3.22l-.566-.566-1.98 1.98-.848-.848z" fill="#5CC3F6"/><path d="M23.762 1.634l-3.6-1.6a.4.4 0 00-.324 0l-3.6 1.6A.4.4 0 0016 2v2.4a3.032 3.032 0 00.934 2.203l2.778 2.877a.4.4 0 00.576 0l2.775-2.872A3.034 3.034 0 0024 4.4V2a.4.4 0 00-.238-.366zM23.2 4.4a2.266 2.266 0 01-.708 1.645L20 8.625l-2.492-2.58-.005-.005A2.259 2.259 0 0116.8 4.4V2.26L20 .838l3.2 1.422V4.4zm-18 17.2h6.4v.8H5.2v-.8z" fill="#5CC3F6"/></svg>