<svg width="26" height="26" fill="none" xmlns="http://www.w3.org/2000/svg"><mask id="a" maskUnits="userSpaceOnUse" x="0" y="0" width="26" height="26" fill="#000"><path fill="#fff" d="M0 0h26v26H0z"/><path d="M16.539 21.923c-2.57-.006-5.14-.013-7.71-.015-.05 0-.1.035-.15.052-.008-.073-.08-.09-.109-.063-.042.041-.053.112-.078.171-.604.727-.564 1.595-.524 2.456.016.345-.07.481-.45.476-1.508-.021-3.017-.02-4.525-.001-.367.004-.488-.112-.455-.469.085-.952-.183-1.822-.495-2.723-.632-1.827-.868-3.754-1.031-5.674-.096-1.126.394-2.113 1.178-2.934.19-.2.365-.421.583-.585.441-.33.61-.742.546-1.285-.04-.326-.022-.659-.03-.99.06-.33.064-.66-.005-.99.01-2.002.023-4.006.03-6.007.005-1.62.703-2.33 2.306-2.332 3.645 0 7.286.013 10.928-.01 1.015-.007 1.73.383 2.165 1.295l.115.879c-.01.974-.02 1.949-.028 2.924-.001.107-.02.224.088.3.175.125 1.342-.024 1.52-.199.51-.505 1.011-1.019 1.524-1.52.76-.742 1.806-.766 2.52-.068.735.72.719 1.77-.043 2.556-.115.119-.245.225-.347.354-.163.205-.582.388-.463.593.177.308.513.622.924.616.409-.005.484.148.477.513-.023.993-.007 1.987-.012 2.982 0 .172.06.408-.238.388-.633-.042-1.19.228-1.753.438-1.281.476-2.52.494-3.71-.244-.425-.264-.492-.075-.491.317.006 2.171-.025 4.344.016 6.515.018.969-.338 1.655-1.17 2.117l-1.103.167zm-8.612-2.398c.054-.08.051-.156-.015-.228l-.028-.435c.023-.337.025-.674-.085-1-.048-.788-.088-1.576-.148-2.362-.023-.301-.17-.533-.51-.544-.303-.01-.473.168-.545.448a18 18 0 00-.156.643c-.217.99-.549 1.944-.998 2.852-.328.662-1.051.868-1.621.499-.417-.27-.516-.68-.514-1.147.002-1.598-.01-3.196-.017-4.794.05-.063.05-.147-.017-.168-.124-.039-.17.072-.213.164-.532.442-.926.976-1.104 1.654-.06.064-.1.135-.066.228l-.053.323c-.067.068-.08.141-.024.221a.987.987 0 00-.006.545c-.053.117-.033.226.035.33l.072.436c-.039.083-.018.158.035.228.034.254.05.512.104.762.297 1.376.322 2.817 1.005 4.099.118.661.606.345.967.364.988.008 1.977.013 2.965.026.206.004.34-.045.421-.256.254-.65.5-1.297.495-2.009.065-.07.07-.146.016-.226a1.55 1.55 0 00.005-.654zm10.06.541c.055-.914.046-1.829.006-2.744a2.02 2.02 0 00-.004-.902c.048-.885.051-1.77-.001-2.655l-.061-.106c-.03.035-.06.07-.088.106-.486.304-.661.737-.597 1.305.041.364.009.736.007 1.104-.005.834-.251 1.081-1.092 1.082-2.156.003-4.31 0-6.467.001-1.244 0-1.244.002-.979 1.27.142.51-.002 1.02-.01 1.53-.017 1.182-.038 1.18 1.207 1.038 1.137.039 2.273.047 3.41-.005.3.071.6.067.902.005.915.04 1.83.049 2.744-.006.086.052.158.031.222-.04.406-.1.66-.353.76-.759.073-.064.094-.137.042-.224zm1.937-10.25c.223.341.416.351.718.038 1.036-1.071 2.104-2.112 3.156-3.168.18-.18.397-.342.36-.643.122-.486-.08-.843-.496-1.051-.395-.198-.797-.14-1.123.182-1.269 1.255-2.532 2.515-3.815 3.79.425.3.813.576 1.2.853zm-8.139-4.908c-1.932-.007-3.866-.012-5.798-.028-.265-.003-.35.085-.348.348.015 1.932.02 3.863.028 5.795-.061.33-.065.661.004.991a37.908 37.908 0 000 3.296c-.071.124-.053.252-.018.388.136-.1.163-.232.143-.378.03-.087.06-.173.094-.259.278-.682.693-.918 1.481-.842.52.05.94.487 1.043 1.115.043.271.052.548.057.824.006.226.09.327.33.325 1.578-.016 3.159-.021 4.738-.03.675.015 1.352.039 2.027.044.926.008.926.002.924-.923-.001-.634.003-.621-.62-.384-.606.23-1.172.64-1.881.456-.467-.292-.765-.712-.556-1.247.361-.928.539-1.965 1.405-2.63.182-.138.213-.255.044-.484-.528-.714-.461-1.383.158-2.033.38-.4.773-.788 1.17-1.17.169-.16.271-.324.267-.571a69.94 69.94 0 01-.007-2.263c.003-.245-.048-.37-.33-.366-1.121.02-2.244.023-3.365.032a2.52 2.52 0 00-.99-.006zm-7.64-.206l-.006.139c-.074 1.39-.078 2.78.006 4.17l-.006.139c-.015.144-.044.29-.044.434 0 2.517.002 5.033.003 7.55 0 .422-.003.844-.001 1.266 0 .181.062.33.256.374.192.044.321-.057.395-.223.163-.37.319-.741.474-1.114.052-.125.071-.25-.058-.346-.328-.245-.303-.602-.302-.952.002-.92.014-1.838 0-2.756-.025-1.559.06-3.119-.04-4.677.007-.016.022-.032.02-.047-.004-.03-.018-.06-.026-.09a1.008 1.008 0 00-.004-.635l.005-.14c.104-.897.022-1.797.045-2.696.02-.728.248-.987.95-.989 3.498-.005 6.996-.005 10.494 0 .684.002.934.26.942.936.008.62 0 1.24 0 1.882.77-.32.77-.32.77-1.05l-.001-2.704c-.002-.957-.417-1.378-1.38-1.38-1.676-.005-3.352-.012-5.027.004-1.489.013-2.977-.069-4.465.04-.047 0-.093.002-.14.003-.62-.094-1.244-.066-1.864-.03-.58.031-.999.45-1.03 1.031-.032.618-.063 1.242.034 1.861zm17.18 5.455c.195.167.328.133.45.135.269.004.523-.077.525.39.003.47-.253.389-.522.389-.294-.001-.591-.02-.883.004-.496.038-.893-.08-1.276-.446-.54-.515-1.109-1.038-1.929-1.093-.339-.023-.639.023-.778.374-.142.357.042.602.337.78.899.54 1.78 1.113 2.706 1.604 1.438.76 2.811.112 4.06-.479.535-.253.088-1.217.195-1.85a.51.51 0 00.002-.11c-.013-.215-1.09-1.177-1.293-1.144-.063.01-.123.074-.174.121-.472.438-.94.876-1.42 1.325zm-3.1 2.054c-.096-.07-.163-.125-.237-.17-.315-.191-.647-.356-.94-.574-.347-.258-.606-.314-.906.086-.292.39-.979.695-.926 1.071.06.41.653.742 1.002 1.117.166.18.299.227.492.024.431-.452.881-.885 1.322-1.327.061-.062.114-.133.194-.227zm-13.053 12c.551 0 1.104-.013 1.654.007.304.01.368-.116.364-.391-.003-.28-.084-.387-.379-.383-1.065.012-2.132.01-3.198-.005-.305-.005-.355.128-.36.396-.004.286.083.391.374.381.516-.016 1.03-.003 1.545-.004zM19.366 7.359c-.74-.222-1.294-.05-1.753.402-.668.659-1.328 1.323-1.992 1.984-.132.132-.256.273-.291.457-.056.29-.005.639.29.675.24.03.469-.24.485-.554.003-.037-.009-.074-.007-.11.022-.9.532-1.416 1.448-1.444.193-.005.346-.03.494-.174.433-.42.882-.826 1.326-1.236zm-4.69 5.969c-.173.428-.33.778-.457 1.138-.116.328-.01.532.36.413.387-.123.755-.304 1.154-.47l-1.057-1.081z"/></mask><path d="M16.539 21.923c-2.57-.006-5.14-.013-7.71-.015-.05 0-.1.035-.15.052-.008-.073-.08-.09-.109-.063-.042.041-.053.112-.078.171-.604.727-.564 1.595-.524 2.456.016.345-.07.481-.45.476-1.508-.021-3.017-.02-4.525-.001-.367.004-.488-.112-.455-.469.085-.952-.183-1.822-.495-2.723-.632-1.827-.868-3.754-1.031-5.674-.096-1.126.394-2.113 1.178-2.934.19-.2.365-.421.583-.585.441-.33.61-.742.546-1.285-.04-.326-.022-.659-.03-.99.06-.33.064-.66-.005-.99.01-2.002.023-4.006.03-6.007.005-1.62.703-2.33 2.306-2.332 3.645 0 7.286.013 10.928-.01 1.015-.007 1.73.383 2.165 1.295l.115.879c-.01.974-.02 1.949-.028 2.924-.001.107-.02.224.088.3.175.125 1.342-.024 1.52-.199.51-.505 1.011-1.019 1.524-1.52.76-.742 1.806-.766 2.52-.068.735.72.719 1.77-.043 2.556-.115.119-.245.225-.347.354-.163.205-.582.388-.463.593.177.308.513.622.924.616.409-.005.484.148.477.513-.023.993-.007 1.987-.012 2.982 0 .172.06.408-.238.388-.633-.042-1.19.228-1.753.438-1.281.476-2.52.494-3.71-.244-.425-.264-.492-.075-.491.317.006 2.171-.025 4.344.016 6.515.018.969-.338 1.655-1.17 2.117l-1.103.167zm-8.612-2.398c.054-.08.051-.156-.015-.228l-.028-.435c.023-.337.025-.674-.085-1-.048-.788-.088-1.576-.148-2.362-.023-.301-.17-.533-.51-.544-.303-.01-.473.168-.545.448a18 18 0 00-.156.643c-.217.99-.549 1.944-.998 2.852-.328.662-1.051.868-1.621.499-.417-.27-.516-.68-.514-1.147.002-1.598-.01-3.196-.017-4.794.05-.063.05-.147-.017-.168-.124-.039-.17.072-.213.164-.532.442-.926.976-1.104 1.654-.06.064-.1.135-.066.228l-.053.323c-.067.068-.08.141-.024.221a.987.987 0 00-.006.545c-.053.117-.033.226.035.33l.072.436c-.039.083-.018.158.035.228.034.254.05.512.104.762.297 1.376.322 2.817 1.005 4.099.118.661.606.345.967.364.988.008 1.977.013 2.965.026.206.004.34-.045.421-.256.254-.65.5-1.297.495-2.009.065-.07.07-.146.016-.226a1.55 1.55 0 00.005-.654zm10.06.541c.055-.914.046-1.829.006-2.744a2.02 2.02 0 00-.004-.902c.048-.885.051-1.77-.001-2.655l-.061-.106c-.03.035-.06.07-.088.106-.486.304-.661.737-.597 1.305.041.364.009.736.007 1.104-.005.834-.251 1.081-1.092 1.082-2.156.003-4.31 0-6.467.001-1.244 0-1.244.002-.979 1.27.142.51-.002 1.02-.01 1.53-.017 1.182-.038 1.18 1.207 1.038 1.137.039 2.273.047 3.41-.005.3.071.6.067.902.005.915.04 1.83.049 2.744-.006.086.052.158.031.222-.04.406-.1.66-.353.76-.759.073-.064.094-.137.042-.224zm1.937-10.25c.223.341.416.351.718.038 1.036-1.071 2.104-2.112 3.156-3.168.18-.18.397-.342.36-.643.122-.486-.08-.843-.496-1.051-.395-.198-.797-.14-1.123.182-1.269 1.255-2.532 2.515-3.815 3.79.425.3.813.576 1.2.853zm-8.139-4.908c-1.932-.007-3.866-.012-5.798-.028-.265-.003-.35.085-.348.348.015 1.932.02 3.863.028 5.795-.061.33-.065.661.004.991a37.908 37.908 0 000 3.296c-.071.124-.053.252-.018.388.136-.1.163-.232.143-.378.03-.087.06-.173.094-.259.278-.682.693-.918 1.481-.842.52.05.94.487 1.043 1.115.043.271.052.548.057.824.006.226.09.327.33.325 1.578-.016 3.159-.021 4.738-.03.675.015 1.352.039 2.027.044.926.008.926.002.924-.923-.001-.634.003-.621-.62-.384-.606.23-1.172.64-1.881.456-.467-.292-.765-.712-.556-1.247.361-.928.539-1.965 1.405-2.63.182-.138.213-.255.044-.484-.528-.714-.461-1.383.158-2.033.38-.4.773-.788 1.17-1.17.169-.16.271-.324.267-.571a69.94 69.94 0 01-.007-2.263c.003-.245-.048-.37-.33-.366-1.121.02-2.244.023-3.365.032a2.52 2.52 0 00-.99-.006zm-7.64-.206l-.006.139c-.074 1.39-.078 2.78.006 4.17l-.006.139c-.015.144-.044.29-.044.434 0 2.517.002 5.033.003 7.55 0 .422-.003.844-.001 1.266 0 .181.062.33.256.374.192.044.321-.057.395-.223.163-.37.319-.741.474-1.114.052-.125.071-.25-.058-.346-.328-.245-.303-.602-.302-.952.002-.92.014-1.838 0-2.756-.025-1.559.06-3.119-.04-4.677.007-.016.022-.032.02-.047-.004-.03-.018-.06-.026-.09a1.008 1.008 0 00-.004-.635l.005-.14c.104-.897.022-1.797.045-2.696.02-.728.248-.987.95-.989 3.498-.005 6.996-.005 10.494 0 .684.002.934.26.942.936.008.62 0 1.24 0 1.882.77-.32.77-.32.77-1.05l-.001-2.704c-.002-.957-.417-1.378-1.38-1.38-1.676-.005-3.352-.012-5.027.004-1.489.013-2.977-.069-4.465.04-.047 0-.093.002-.14.003-.62-.094-1.244-.066-1.864-.03-.58.031-.999.45-1.03 1.031-.032.618-.063 1.242.034 1.861zm17.18 5.455c.195.167.328.133.45.135.269.004.523-.077.525.39.003.47-.253.389-.522.389-.294-.001-.591-.02-.883.004-.496.038-.893-.08-1.276-.446-.54-.515-1.109-1.038-1.929-1.093-.339-.023-.639.023-.778.374-.142.357.042.602.337.78.899.54 1.78 1.113 2.706 1.604 1.438.76 2.811.112 4.06-.479.535-.253.088-1.217.195-1.85a.51.51 0 00.002-.11c-.013-.215-1.09-1.177-1.293-1.144-.063.01-.123.074-.174.121-.472.438-.94.876-1.42 1.325zm-3.1 2.054c-.096-.07-.163-.125-.237-.17-.315-.191-.647-.356-.94-.574-.347-.258-.606-.314-.906.086-.292.39-.979.695-.926 1.071.06.41.653.742 1.002 1.117.166.18.299.227.492.024.431-.452.881-.885 1.322-1.327.061-.062.114-.133.194-.227zm-13.053 12c.551 0 1.104-.013 1.654.007.304.01.368-.116.364-.391-.003-.28-.084-.387-.379-.383-1.065.012-2.132.01-3.198-.005-.305-.005-.355.128-.36.396-.004.286.083.391.374.381.516-.016 1.03-.003 1.545-.004zM19.366 7.359c-.74-.222-1.294-.05-1.753.402-.668.659-1.328 1.323-1.992 1.984-.132.132-.256.273-.291.457-.056.29-.005.639.29.675.24.03.469-.24.485-.554.003-.037-.009-.074-.007-.11.022-.9.532-1.416 1.448-1.444.193-.005.346-.03.494-.174.433-.42.882-.826 1.326-1.236zm-4.69 5.969c-.173.428-.33.778-.457 1.138-.116.328-.01.532.36.413.387-.123.755-.304 1.154-.47l-1.057-1.081z" fill="#66C7FA"/><path d="M16.539 21.923c-2.57-.006-5.14-.013-7.71-.015-.05 0-.1.035-.15.052-.008-.073-.08-.09-.109-.063-.042.041-.053.112-.078.171-.604.727-.564 1.595-.524 2.456.016.345-.07.481-.45.476-1.508-.021-3.017-.02-4.525-.001-.367.004-.488-.112-.455-.469.085-.952-.183-1.822-.495-2.723-.632-1.827-.868-3.754-1.031-5.674-.096-1.126.394-2.113 1.178-2.934.19-.2.365-.421.583-.585.441-.33.61-.742.546-1.285-.04-.326-.022-.659-.03-.99.06-.33.064-.66-.005-.99.01-2.002.023-4.006.03-6.007.005-1.62.703-2.33 2.306-2.332 3.645 0 7.286.013 10.928-.01 1.015-.007 1.73.383 2.165 1.295l.115.879c-.01.974-.02 1.949-.028 2.924-.001.107-.02.224.088.3.175.125 1.342-.024 1.52-.199.51-.505 1.011-1.019 1.524-1.52.76-.742 1.806-.766 2.52-.068.735.72.719 1.77-.043 2.556-.115.119-.245.225-.347.354-.163.205-.582.388-.463.593.177.308.513.622.924.616.409-.005.484.148.477.513-.023.993-.007 1.987-.012 2.982 0 .172.06.408-.238.388-.633-.042-1.19.228-1.753.438-1.281.476-2.52.494-3.71-.244-.425-.264-.492-.075-.491.317.006 2.171-.025 4.344.016 6.515.018.969-.338 1.655-1.17 2.117l-1.103.167zm-8.612-2.398c.054-.08.051-.156-.015-.228l-.028-.435c.023-.337.025-.674-.085-1-.048-.788-.088-1.576-.148-2.362-.023-.301-.17-.533-.51-.544-.303-.01-.473.168-.545.448a18 18 0 00-.156.643c-.217.99-.549 1.944-.998 2.852-.328.662-1.051.868-1.621.499-.417-.27-.516-.68-.514-1.147.002-1.598-.01-3.196-.017-4.794.05-.063.05-.147-.017-.168-.124-.039-.17.072-.213.164-.532.442-.926.976-1.104 1.654-.06.064-.1.135-.066.228l-.053.323c-.067.068-.08.141-.024.221a.987.987 0 00-.006.545c-.053.117-.033.226.035.33l.072.436c-.039.083-.018.158.035.228.034.254.05.512.104.762.297 1.376.322 2.817 1.005 4.099.118.661.606.345.967.364.988.008 1.977.013 2.965.026.206.004.34-.045.421-.256.254-.65.5-1.297.495-2.009.065-.07.07-.146.016-.226a1.55 1.55 0 00.005-.654zm10.06.541c.055-.914.046-1.829.006-2.744a2.02 2.02 0 00-.004-.902c.048-.885.051-1.77-.001-2.655l-.061-.106c-.03.035-.06.07-.088.106-.486.304-.661.737-.597 1.305.041.364.009.736.007 1.104-.005.834-.251 1.081-1.092 1.082-2.156.003-4.31 0-6.467.001-1.244 0-1.244.002-.979 1.27.142.51-.002 1.02-.01 1.53-.017 1.182-.038 1.18 1.207 1.038 1.137.039 2.273.047 3.41-.005.3.071.6.067.902.005.915.04 1.83.049 2.744-.006.086.052.158.031.222-.04.406-.1.66-.353.76-.759.073-.064.094-.137.042-.224zm1.937-10.25c.223.341.416.351.718.038 1.036-1.071 2.104-2.112 3.156-3.168.18-.18.397-.342.36-.643.122-.486-.08-.843-.496-1.051-.395-.198-.797-.14-1.123.182-1.269 1.255-2.532 2.515-3.815 3.79.425.3.813.576 1.2.853zm-8.139-4.908c-1.932-.007-3.866-.012-5.798-.028-.265-.003-.35.085-.348.348.015 1.932.02 3.863.028 5.795-.061.33-.065.661.004.991a37.908 37.908 0 000 3.296c-.071.124-.053.252-.018.388.136-.1.163-.232.143-.378.03-.087.06-.173.094-.259.278-.682.693-.918 1.481-.842.52.05.94.487 1.043 1.115.043.271.052.548.057.824.006.226.09.327.33.325 1.578-.016 3.159-.021 4.738-.03.675.015 1.352.039 2.027.044.926.008.926.002.924-.923-.001-.634.003-.621-.62-.384-.606.23-1.172.64-1.881.456-.467-.292-.765-.712-.556-1.247.361-.928.539-1.965 1.405-2.63.182-.138.213-.255.044-.484-.528-.714-.461-1.383.158-2.033.38-.4.773-.788 1.17-1.17.169-.16.271-.324.267-.571a69.94 69.94 0 01-.007-2.263c.003-.245-.048-.37-.33-.366-1.121.02-2.244.023-3.365.032a2.52 2.52 0 00-.99-.006zm-7.64-.206l-.006.139c-.074 1.39-.078 2.78.006 4.17l-.006.139c-.015.144-.044.29-.044.434 0 2.517.002 5.033.003 7.55 0 .422-.003.844-.001 1.266 0 .181.062.33.256.374.192.044.321-.057.395-.223.163-.37.319-.741.474-1.114.052-.125.071-.25-.058-.346-.328-.245-.303-.602-.302-.952.002-.92.014-1.838 0-2.756-.025-1.559.06-3.119-.04-4.677.007-.016.022-.032.02-.047-.004-.03-.018-.06-.026-.09a1.008 1.008 0 00-.004-.635l.005-.14c.104-.897.022-1.797.045-2.696.02-.728.248-.987.95-.989 3.498-.005 6.996-.005 10.494 0 .684.002.934.26.942.936.008.62 0 1.24 0 1.882.77-.32.77-.32.77-1.05l-.001-2.704c-.002-.957-.417-1.378-1.38-1.38-1.676-.005-3.352-.012-5.027.004-1.489.013-2.977-.069-4.465.04-.047 0-.093.002-.14.003-.62-.094-1.244-.066-1.864-.03-.58.031-.999.45-1.03 1.031-.032.618-.063 1.242.034 1.861zm17.18 5.455c.195.167.328.133.45.135.269.004.523-.077.525.39.003.47-.253.389-.522.389-.294-.001-.591-.02-.883.004-.496.038-.893-.08-1.276-.446-.54-.515-1.109-1.038-1.929-1.093-.339-.023-.639.023-.778.374-.142.357.042.602.337.78.899.54 1.78 1.113 2.706 1.604 1.438.76 2.811.112 4.06-.479.535-.253.088-1.217.195-1.85a.51.51 0 00.002-.11c-.013-.215-1.09-1.177-1.293-1.144-.063.01-.123.074-.174.121-.472.438-.94.876-1.42 1.325zm-3.1 2.054c-.096-.07-.163-.125-.237-.17-.315-.191-.647-.356-.94-.574-.347-.258-.606-.314-.906.086-.292.39-.979.695-.926 1.071.06.41.653.742 1.002 1.117.166.18.299.227.492.024.431-.452.881-.885 1.322-1.327.061-.062.114-.133.194-.227zm-13.053 12c.551 0 1.104-.013 1.654.007.304.01.368-.116.364-.391-.003-.28-.084-.387-.379-.383-1.065.012-2.132.01-3.198-.005-.305-.005-.355.128-.36.396-.004.286.083.391.374.381.516-.016 1.03-.003 1.545-.004zM19.366 7.359c-.74-.222-1.294-.05-1.753.402-.668.659-1.328 1.323-1.992 1.984-.132.132-.256.273-.291.457-.056.29-.005.639.29.675.24.03.469-.24.485-.554.003-.037-.009-.074-.007-.11.022-.9.532-1.416 1.448-1.444.193-.005.346-.03.494-.174.433-.42.882-.826 1.326-1.236zm-4.69 5.969c-.173.428-.33.778-.457 1.138-.116.328-.01.532.36.413.387-.123.755-.304 1.154-.47l-1.057-1.081z" stroke="#66C7FA" stroke-width=".2" mask="url(#a)"/></svg>