<svg width="24" height="30" fill="none" xmlns="http://www.w3.org/2000/svg"><path d="M18.698 20.02c.753-.3 1.521-.566 2.255-.907.752-.35 1.47-.362 2.203.012l.634.672c.452 1.417.2 2.095-1.063 2.88-1.67 1.036-3.338 2.073-5.006 3.11a29.816 29.816 0 00-3.263 1.986c-.483.28-.985.53-1.442.847-1 .694-2.035.892-3.167.358-.123-.058-.268-.073-.403-.109l-1.113-.442c-1.321-.718-2.752-.324-4.136-.402-.348-.02-.242.27-.252.456-.053.989-.062 1-1.064 1.003-.561.002-1.125-.015-1.685.001-.514.016-.716-.225-.713-.72.004-.605-.023-1.21-.037-1.815.07-.422.072-.845-.006-1.266a43 43 0 00.003-4.335c.072-.38.075-.757-.003-1.136-.09-.444.293-.453.542-.584l1.273.003c1.586.076 1.586.076 1.685 1.679.004.069.001.138.008.207.027.28.234.224.413.217a6.75 6.75 0 001.556.258 1 1 0 00.683.043l4.237-1.163a7.579 7.579 0 001.685-.464c.856-.22 1.747-.326 2.213.602.286.57.552.473.954.272.165-.083.334-.162.5-.244.868-.26 1.684-.651 2.51-1.02zm-15.885.648l-1.126-.005c-.093-.016-.175-.017-.163.115a29.368 29.368 0 00-.001 3.512c-.07.422-.072.844.003 1.265a18.574 18.574 0 00-.002 2.801c-.012.131.07.13.163.115.375-.002.751-.003 1.126-.006.095.021.135-.013.108-.11l.001-3.926-.002-1.269.001-2.382c.027-.097-.013-.131-.108-.11zm1.152 2.357L3.96 26.81c-.017.096-.015.176.118.162.237.064.472.058.708-.006.28.075.56.075.84 0 1.176.023 2.348.054 3.418.646.154.086.35.102.525.15.253.181.54.273.846.314.507.319 1.03.309 1.522.007 2.648-1.621 5.287-3.255 7.929-4.884.886-.52 1.788-1.014 2.65-1.568.69-.443.667-1.091.004-1.646-.271-.206-.559-.197-.86-.071-2.113.877-4.227 1.752-6.34 2.628l-2.1 1.033c-.728.25-1.46.489-2.18.757-.335.124-.571.227-.75-.245-.17-.453.027-.556.378-.68.947-.335 1.882-.7 2.827-1.04.358-.129.583-.34.46-.726-.121-.382-.423-.444-.792-.336-1.053.306-2.11.597-3.166.894-.424.018-.82.15-1.214.296-1.491.53-3.005.695-4.556.286-.266-.105-.317.014-.262.244zM10.84.014c1.278-.06 2.54.082 3.795.306.364.115.727.231 1.09.348.994.422 1.942.923 2.84 1.521l.697.553 1.777 1.937.75 1.171 1.04 2.582.234.991c.15 1.503.13 3-.152 4.487-.2.597-.397 1.194-.597 1.79-.315.572-.65 1.134-.944 1.716-.237.47-.518.605-.942.227-.12-.148-.23-.299-.137-.505 1.392-1.881 1.986-3.993 1.824-6.322a2.04 2.04 0 00-.097-.992c-.087-1.155-.47-2.215-1.038-3.216-.075-.34-.273-.61-.501-.862a7.214 7.214 0 00-1.974-2.25 3.352 3.352 0 00-1.057-.792c-.9-.618-1.85-1.122-2.947-1.292-.305-.187-.649-.208-.991-.24l-.417-.044c-.087-.076-.182-.1-.29-.054a5.79 5.79 0 00-1.96 0c-.106-.045-.203-.02-.288.055-.534.003-1.05.1-1.543.314-3.095.585-6.426 3.874-7.068 6.98-.213.393-.27.823-.297 1.26-.088.087-.09.19-.047.297a7.42 7.42 0 00-.002 2.657c.01.542.11 1.065.337 1.56.21.945.21.945 1.093.666.043-.014.084-.036.13-.048.562-.152.843.098.751.677-.058.362-.133.72-.2 1.081-.056.224-.118.447-.164.673-.208 1.043-.324 1.105-1.266.662-.707-.567-1.593-.864-2.27-1.479-.056-.422.146-.67.548-.74.652-.114.76-.45.449-.99-.068-.116-.11-.247-.165-.373l-.203-.978a.265.265 0 00-.065-.29l-.087-2.675.218-1.529c.54-1.831 1.305-3.54 2.597-4.989C4.96 2.005 7.018.833 9.426.241c.471-.076.943-.15 1.414-.227zM2.793 16.002c-.272.076-.428.106-.57.162-.135.054-.32.03-.39.223.201.196.439.451.688.395.282-.062.134-.43.272-.78z" fill="#5CC3F6"/><path d="M18.75 7.028c0 .423.002.845.004 1.268l-.005 4.344.005 1.127c-.081 1.385-.081 1.385-1.434 1.522a3.69 3.69 0 00-1.27-.006 43.47 43.47 0 00-4.22.005l-1.278-.051c-1.404.017-2.809.032-4.212.05-.414-.118-.858.039-1.263-.145-.297-.565-.116-1.172-.148-1.76-.034-.62-.02-1.24-.027-1.861l-.004-1.267.005-4.346c.06-.325.303-.451.583-.537 1.408.06 2.815.067 4.223-.006a3.76 3.76 0 001.27.003c1.454.062 2.908.073 4.362-.006a2.82 2.82 0 001.129.006c.443.014.886.034 1.33.04.847.012.922.084.93.92 0 .234.012.466.02.7zm-12.815-.42v2.243l.004 1.126-.005 4.066c-.016.091-.019.175.116.162h.276a3.77 3.77 0 001.27.001c1.455.067 2.908.074 4.363-.004a3.73 3.73 0 001.269.006 43.03 43.03 0 004.22-.003c.172.078.291.075.26-.165l.004-4.345-.004-1.126c.001-.654.003-1.308.006-1.96.015-.094.017-.175-.116-.163a14.722 14.722 0 00-2.53.004 3.756 3.756 0 00-1.281-.007 41.927 41.927 0 00-4.21.006 3.767 3.767 0 00-1.276-.006 12.38 12.38 0 00-2.251.003c-.132-.011-.13.07-.115.162z" fill="#5CC3F6"/><path d="M12.377 7.873l.801.793c.356.966-.404.618-.813.685-.135-.276-.278-.56-.661-.468-.222.054-.368.225-.351.454.027.363.245.526.613.477 1.563.52 1.795 1.668.549 2.78-.26.23-.126.917-.791.688-.085-.03-.262-.01-.265-.031-.106-.786-1.092-.958-1.205-1.731.424-.21.836-.31 1.194.128.11.135.222.182.414.073.191-.107.383-.238.397-.419.008-.114-.125-.318-.353-.362-.62-.12-1.123-.434-1.473-.97-.18-.768-.093-1.442.655-1.889.125-.074.244-.156.232-.32-.034-.456.293-.36.565-.393.412-.05.443.227.492.505z" fill="#5CC3F6"/></svg>