<svg width="23" height="28" fill="none" xmlns="http://www.w3.org/2000/svg"><path d="M15.431 21.962h0a.833.833 0 001.176-1.176.255.255 0 01.36-.361 1.343 1.343 0 01-1.898 1.898h.001l.07-.071.291-.29zm0 0c-.1-.1-.261-.1-.36 0h.36zm-.662-.332l-.099.017a.256.256 0 00.503-.089h0a.81.81 0 01-.015-.145.833.833 0 01.975-.817c.14.028.273-.07.297-.206h0a.256.256 0 00-.207-.296h0a1.348 1.348 0 00-.234-.023c-.74 0-1.342.602-1.342 1.342 0 .082.01.16.023.234l.099-.017zm0 0a1.218 1.218 0 01-.022-.217 1.243 1.243 0 011.458-1.221l-1.13 1.384a.155.155 0 01-.306.054z" fill="#66C7FA" stroke="#66C7FA" stroke-width=".2"/><path d="M19.91 21.197c-.039-.046-.932-1.088-2.167-1.728m2.167 1.728l-.076.065m.076-.065s0 0 0 0l-.076.065m.076-.065a.263.263 0 010 .34m-2.167-2.068l2.09 1.793m-2.09-1.793a.263.263 0 00-.355.113l.089.045m.266-.158l-3.612 3.846a.263.263 0 01-.122-.35m5.825-1.703a.163.163 0 010 .21m.076.065l-.076-.064m.076.064c-.04.048-.512.598-1.229 1.138-.714.538-1.686 1.076-2.724 1.076a4.179 4.179 0 01-1.826-.435l5.703-1.843m.076.064s0 0 0 0l-.076-.064m-5.825 1.491a.263.263 0 01.351-.122 3.66 3.66 0 001.597.383c.777 0 1.543-.37 2.169-.803a8.118 8.118 0 001.227-1.055c-.3-.314-.998-.989-1.852-1.43a.263.263 0 01-.113-.356l.089.046m-3.468 3.337s0 0 0 0l.09.044-.09-.044s0 0 0 0zm3.468-3.337a.163.163 0 01.22-.07l1.793 1.81c-.256-.276-1.005-1.034-1.943-1.52a.163.163 0 01-.07-.22zm-5.408 1.816h0a.276.276 0 01.015-.327 8.43 8.43 0 011.24-1.19c.722-.564 1.703-1.128 2.752-1.128.355 0 .73.069 1.114.203l-5.121 2.442zm0 0a6.33 6.33 0 001.537 1.512l-1.537-1.512zm5.287-2.1v-.001l-.096-.03m.096.03L12.16 21.18c.076-.093 1.885-2.28 3.915-2.28.342 0 .706.065 1.081.196a.17.17 0 01.103.216m.096.031s0 0 0 0l-.096-.03m.096.03l-.096-.03m-5.108 2.075c.022.034.567.836 1.511 1.486.028.02.06.029.091.029a.162.162 0 00.137-.077.174.174 0 00-.046-.236l-1.693-1.202z" fill="#66C7FA" stroke="#66C7FA" stroke-width=".2"/><path d="M18.544 18.483l-.101.11.101-.11a.305.305 0 00-.431.018l-5.051 5.497a.305.305 0 00.018.432h0a.306.306 0 00.43-.018h.001l5.051-5.498-.11-.102.11.102a.305.305 0 00-.018-.431z" fill="#66C7FA" stroke="#66C7FA" stroke-width=".3"/><path d="M7.735 24.753H2.578A2.58 2.58 0 010 22.175V2.578A2.58 2.58 0 012.578 0h13.409a2.58 2.58 0 012.578 2.578v9.283a.516.516 0 01-1.031 0V2.578a1.55 1.55 0 00-1.547-1.547H2.578a1.55 1.55 0 00-1.547 1.547v19.597a1.55 1.55 0 001.547 1.547h5.157a.516.516 0 010 1.031z" fill="#66C7FA"/><circle cx="15.772" cy="21.305" r="5.888" stroke="#66C7FA"/><circle cx="4.289" cy="4.861" r=".93" stroke="#66C7FA"/><circle cx="4.289" cy="9.436" r=".93" stroke="#66C7FA"/><circle cx="4.289" cy="14.011" r=".93" stroke="#66C7FA"/><path d="M7.386 4.575h7.586M7.386 9.15h7.586m-7.586 4.576h7.586" stroke="#66C7FA" stroke-linecap="round"/></svg>