<svg width="65" height="61" fill="none" xmlns="http://www.w3.org/2000/svg"><path d="M14.208 7.61C10.868 19.711 2.173 26.327.563 32.16c-1.61 5.833-1.568 18.988 25.822 26.242 27.39 7.254 35.957-8.159 37.726-14.576C72.402 13.788 20.123-13.827 14.208 7.61z" fill="#EFEFEF"/><path d="M44.176 24.278c-.5.471-.721 1.16-.573 1.83l4.755 22.06c.13.508-.037 1.052-.425 1.433-.907.906-2.443.725-3.11-.363l-8.196-15.154a2.006 2.006 0 00-3.053-.416l-10.381 9.425 2.331 5.22c.925 2.014-1.789 3.713-3.145 1.94l-3.96-5.31c-.148-.182-.296-.363-.5-.508-.148-.2-.333-.345-.518-.49l-5.422-3.879c-1.798-1.321-.092-3.995 1.98-3.081l5.33 2.284 9.621-10.17c.87-.906.648-2.356-.425-2.99l-15.47-8.03a1.915 1.915 0 01-.37-3.045 1.57 1.57 0 011.462-.417l22.52 4.658a2.03 2.03 0 001.869-.562l1.794-1.885 6.273-6.507c1.296-1.36 4.848-1.341 6.2-.018.684.67 1.017 1.867 1.017 3.045 0 1.196-.333 2.374-1.036 3.027L46.1 22.52l-1.925 1.758z" fill="#F3F3F1"/><path d="M43.603 51.05s10.178-4.206 10.178-12.622v-7.575l-10.178-3.367-10.177 3.366v7.576c0 8.416 10.177 12.623 10.177 12.623z" fill="#2FDF84"/><path d="M51.504 9.596c-.5.145-.925.399-1.24.725l-6.273 6.507-1.794 1.886a2.03 2.03 0 01-1.87.561l-2.016-.416a.72.72 0 00.185-.146l1.795-1.885 6.273-6.507c.999-1.051 3.312-1.269 4.94-.725zM32.611 29.1L22.99 39.269l-2.627-1.124L28.91 29.1c.87-.907.647-2.357-.426-2.991l-15.47-8.03a1.915 1.915 0 01-.37-3.045c.39-.38.944-.544 1.463-.417l2.201.453c-.888.888-.684 2.357.408 3.009l15.469 8.03c1.073.634 1.295 2.084.425 2.99zm-6.994 20.519a1.902 1.902 0 01-.5.852 1.75 1.75 0 01-.962.49 1.32 1.32 0 01-.703-.019 1.869 1.869 0 01-1.073-.689l-3.96-5.31c-.148-.182-.296-.363-.5-.508-.148-.2-.333-.345-.518-.49l-5.421-3.879a1.825 1.825 0 01-.704-1.051 1.44 1.44 0 01-.018-.689 1.69 1.69 0 01.5-.942 2.016 2.016 0 012.202-.4l1.35.58c-.185.236-.314.49-.351.762a1.44 1.44 0 00.018.689c.093.399.333.78.704 1.051l5.421 3.88c.185.144.37.29.518.489.204.145.352.326.5.507l3.497 4.677z" fill="#D5DBE1"/><path d="M45.454 50.108c-1.092.635-1.85.943-1.85.943s-10.178-4.206-10.178-12.616v-7.577l10.177-3.372 1.85.617-8.326 2.755v7.577c0 6.126 5.403 10.024 8.327 11.673z" fill="#00B871"/><path d="M23.867 52.354a3.251 3.251 0 01-2.607-1.294l-3.962-5.315a1.585 1.585 0 00-.335-.33l-5.809-4.2a3.12 3.12 0 01-1.313-2.273 3.16 3.16 0 01.923-2.509 3.43 3.43 0 013.764-.687l4.411 1.89 8.952-9.461a.58.58 0 00-.126-.903l-15.4-7.993c-.966-.566-1.555-1.456-1.679-2.48a3.23 3.23 0 01.987-2.737 2.986 2.986 0 012.773-.763l22.468 4.646a.62.62 0 00.583-.176l8.056-8.382c.889-.915 2.382-1.441 4.1-1.441 1.694 0 3.185.508 4.09 1.394.922.903 1.455 2.454 1.425 4.153-.03 1.631-.568 3.045-1.477 3.875l-6.635 6.14-1.906-1.978 6.643-6.145c.29-.265.583-.962.601-1.941.019-1.07-.303-1.882-.61-2.183-.306-.297-1.081-.598-2.128-.598-.918 0-1.736.232-2.082.591l-8.064 8.389a3.42 3.42 0 01-3.173.959L13.82 15.947c-.004.004-.2.054-.204.058a.57.57 0 00.113.908l15.405 7.996c.945.556 1.528 1.424 1.667 2.418a3.236 3.236 0 01-.88 2.704l-9.615 10.162a1.41 1.41 0 01-1.575.32l-5.33-2.283a.621.621 0 00-.663.114.452.452 0 00-.132.362.41.41 0 00.183.31l5.805 4.197c.324.226.623.516.925.9L23.5 49.45a.455.455 0 00.673.06.59.59 0 00.131-.664l-2.326-5.207a1.342 1.342 0 01.328-1.543l4.645-4.223 1.889 1.994-3.923 3.567 1.935 4.336a3.275 3.275 0 01-.732 3.68 3.224 3.224 0 01-2.252.904z" fill="#233862"/><path d="M43.603 52.356c-.183 0-.366-.037-.54-.107-.452-.187-11.025-4.664-11.025-13.876v-7.575c0-.584.38-1.1.944-1.287l10.177-3.366c.287-.096.6-.096.886 0l10.177 3.366c.565.187.944.705.944 1.287v7.575c0 9.212-10.575 13.69-11.025 13.876a1.43 1.43 0 01-.538.107zm-8.79-20.58v6.597c0 6.373 6.797 10.153 8.788 11.122 1.99-.975 8.791-4.772 8.791-11.122v-6.598l-8.79-2.907-8.788 2.907z" fill="#233862"/><path d="M42.678 43.293c-.026 0-.052 0-.078-.002a1.4 1.4 0 01-1.007-.508l-3.7-4.531 2.166-1.7 2.733 3.346 5.381-5.27 1.963 1.923-6.476 6.345a1.417 1.417 0 01-.982.397z" fill="#233862"/><path d="M34.832 8.41c-1.53 0-2.775-1.22-2.775-2.719 0-1.499 1.245-2.719 2.775-2.719 1.53 0 2.776 1.22 2.776 2.72 0 1.498-1.245 2.718-2.776 2.718zm0-3.625a.916.916 0 00-.925.906c0 .5.415.907.925.907a.917.917 0 00.926-.907c0-.5-.415-.906-.926-.906z" fill="#A4AFC1"/></svg>