<svg width="66" height="62" fill="none" xmlns="http://www.w3.org/2000/svg"><path d="M14.31 7.823C10.945 20.267 2.188 27.07.566 33.067c-1.622 5.997-1.579 19.522 26.007 26.98C54.16 67.506 62.79 51.66 64.571 45.061 72.922 14.177 20.268-14.216 14.31 7.823z" fill="#EFEFEF"/><path d="M51.874 9.866a2.81 2.81 0 00-1.249.745l-6.318 6.69L42.5 19.24a2.018 2.018 0 01-1.883.578l-2.031-.43c.075-.036.13-.092.186-.148l1.808-1.938 6.318-6.691c1.006-1.08 3.336-1.305 4.976-.745zM32.846 29.919l-9.69 10.455-2.647-1.155 8.61-9.3a1.996 1.996 0 00-.429-3.075l-15.58-8.256a1.992 1.992 0 01-.373-3.131c.392-.392.95-.56 1.473-.429l2.217.466c-.894.913-.69 2.423.41 3.094l15.58 8.256a1.996 1.996 0 01.43 3.075zm-7.044 21.097a1.97 1.97 0 01-.504.875 1.75 1.75 0 01-.969.504 1.303 1.303 0 01-.708-.019 1.88 1.88 0 01-1.08-.708l-3.99-5.46c-.148-.187-.297-.373-.502-.523-.15-.205-.336-.354-.522-.503l-5.46-3.988a1.88 1.88 0 01-.709-1.081 1.511 1.511 0 01-.019-.708 1.75 1.75 0 01.504-.97 2 2 0 012.217-.41l1.36.597c-.185.242-.316.503-.353.783-.056.242-.037.484.018.708.094.41.336.801.709 1.081l5.46 3.988c.186.15.373.298.522.503.205.15.354.336.503.522l3.523 4.809z" fill="#D5DBE1"/><path d="M24.038 53.826a3.262 3.262 0 01-2.626-1.33l-3.99-5.465a1.692 1.692 0 00-.34-.343l-5.847-4.314a3.23 3.23 0 01-1.324-2.341 3.28 3.28 0 01.93-2.576 3.41 3.41 0 013.791-.71l4.445 1.948 9.015-9.729a.602.602 0 00-.125-.93l-15.512-8.215c-.97-.581-1.565-1.496-1.688-2.547a3.355 3.355 0 01.991-2.814 2.977 2.977 0 012.787-.79l22.634 4.78a.634.634 0 00.589-.18l8.114-8.619c.893-.944 2.399-1.483 4.13-1.483 1.707 0 3.21.522 4.119 1.435.928.928 1.463 2.523 1.433 4.268-.03 1.677-.572 3.133-1.487 3.986l-6.128 5.774-1.916-2.035 6.132-5.778c.29-.272.585-.99.604-1.994.018-1.101-.306-1.934-.615-2.244-.308-.305-1.087-.615-2.144-.615-.926 0-1.748.239-2.096.606l-8.122 8.627a3.428 3.428 0 01-3.197.986l-22.673-4.79c-.004.004-.201.058-.205.06a.583.583 0 00-.173.494c.013.108.067.31.285.44l15.517 8.218c.952.574 1.54 1.467 1.679 2.49a3.373 3.373 0 01-.887 2.779l-9.686 10.45a1.409 1.409 0 01-1.586.331l-5.367-2.35a.606.606 0 00-.667.118.475.475 0 00-.134.37.43.43 0 00.186.321l5.846 4.313c.326.234.627.53.93.924l4.01 5.489c.11.147.256.18.336.186a.412.412 0 00.343-.125.615.615 0 00.13-.682l-2.342-5.355a1.398 1.398 0 01.33-1.586l7.473-6.932 1.903 2.05-6.744 6.256 1.949 4.458c.555 1.306.257 2.823-.738 3.783a3.222 3.222 0 01-2.272.932z" fill="#233862"/><path d="M35.095 9.848l1.318-1.318 2.636 2.636-1.318 1.317-2.636-2.635zM27.519 2.27L28.836.954l2.636 2.635-1.318 1.318-2.635-2.635zm7.905 1.32L38.06.954l1.318 1.318-2.636 2.636-1.318-1.318z" fill="#A4AFC1"/><path d="M43.916 27.95c-6.726 0-12.198 5.473-12.198 12.2 0 6.726 5.473 12.198 12.198 12.198 6.727 0 12.199-5.472 12.199-12.198 0-6.727-5.472-12.2-12.199-12.2zm0 2.223c2.352 0 4.515.818 6.222 2.184L36.124 46.37a9.928 9.928 0 01-2.184-6.22c0-5.501 4.476-9.977 9.977-9.977zm0 19.952a9.928 9.928 0 01-6.22-2.183l14.013-14.014a9.929 9.929 0 012.183 6.222c0 5.5-4.475 9.975-9.976 9.975z" fill="#233862"/></svg>