<svg width="65" height="73" fill="none" xmlns="http://www.w3.org/2000/svg"><path d="M12.592 7.5C26.902 7.5 36.728 0 43.624 0 50.519 0 65 4.01 65 36.104S45.519 72.907 37.935 72.907C2.42 72.91-12.75 7.5 12.592 7.5z" fill="#EFEFEF"/><path d="M50.084 32.267a1.03 1.03 0 01-1.034 1.047h-5.172v15.698c0 1.737-1.386 3.14-3.103 3.14H18.019c-1.717 0-3.104-1.403-3.104-3.14V33.314H9.744a1.03 1.03 0 01-1.035-1.047c0-.293.124-.586.331-.774l20.357-19.11 8.275 7.765v-5.672h6.206v11.491l3.103 2.91 2.772 2.616c.207.188.331.481.331.774z" fill="#F3F3F1"/><path d="M13.881 33.314H9.744a1.03 1.03 0 01-1.035-1.047c0-.293.124-.586.331-.774l20.357-19.11 2.068 1.946-18.287 17.164a1.065 1.065 0 00-.331.774 1.03 1.03 0 001.034 1.047zm8.275 18.838H18.02c-1.717 0-3.103-1.402-3.103-3.14V33.314h4.137v15.698c0 1.738 1.386 3.14 3.103 3.14z" fill="#D5DBE1"/><path d="M29.397 53.722H18.019c-2.566 0-4.655-2.112-4.655-4.71V34.884h-3.62c-1.426 0-2.586-1.175-2.586-2.617 0-.745.308-1.454.846-1.942L28.34 11.232a1.535 1.535 0 012.11 0l5.669 5.318v-2.074c0-.867.695-1.57 1.552-1.57h6.206c.856 0 1.551.703 1.551 1.57v10.807l2.61 2.449-2.113 2.3-3.103-2.916a1.583 1.583 0 01-.495-1.149v-9.921h-3.103v4.102c0 .624-.366 1.19-.93 1.44a1.534 1.534 0 01-1.676-.289l-7.222-6.775-18.342 17.22h3.86c.857 0 1.552.703 1.552 1.57v15.698c0 .867.697 1.57 1.552 1.57h11.378v3.14zm-19.29-21.088l-.012.01a.053.053 0 01.013-.01z" fill="#233862"/><path d="M2.825 5.108l1.463-1.48 2.925 2.96-1.463 1.48-2.925-2.96zM2.823 15.47l2.926-2.96 1.462 1.48-2.925 2.96-1.463-1.48zm8.779-8.88l2.926-2.96 1.462 1.48-2.925 2.96-1.463-1.48z" fill="#A4AFC1"/><path d="M41.213 55.745s10.18-4.346 10.18-13.041v-7.827L41.213 31.4l-10.18 3.477v7.826c0 8.696 10.18 13.042 10.18 13.042z" fill="#2FDF84"/><path d="M43.064 54.772c-1.092.655-1.85.974-1.85.974S31.032 51.4 31.032 42.71v-7.828l10.18-3.483 1.851.637-8.33 2.846v7.828c0 6.33 5.406 10.357 8.33 12.06z" fill="#00B871"/><path d="M41.213 57.15c-.185 0-.367-.038-.54-.11-.45-.196-11.028-4.82-11.028-14.337v-7.826c0-.6.38-1.136.944-1.331l10.18-3.478c.288-.099.6-.099.888 0l10.18 3.478c.565.195.944.73.944 1.331v7.826c0 9.518-10.578 14.143-11.027 14.336a1.39 1.39 0 01-.541.11zm-8.792-21.263v6.818c0 6.585 6.799 10.488 8.79 11.49 1.99-1.006 8.794-4.931 8.794-11.49v-6.818l-8.792-3.004-8.792 3.004z" fill="#233862"/><path d="M40.287 47.786c-.026 0-.05 0-.076-.002a1.39 1.39 0 01-1.008-.524L35.5 42.578l2.169-1.757 2.734 3.458 5.38-5.445 1.964 1.987-6.478 6.555a1.39 1.39 0 01-.983.41z" fill="#233862"/></svg>