<svg width="45" height="45" fill="none" xmlns="http://www.w3.org/2000/svg"><g clip-path="url(#clip0)"><path d="M22.442.376C10.318.376.456 10.239.456 22.362c0 12.122 9.862 21.985 21.986 21.985s21.986-9.863 21.986-21.985c0-12.123-9.862-21.986-21.986-21.986zm8.74 22.756l-12.825 8.244a.912.912 0 01-.934.034.915.915 0 01-.477-.804v-16.49a.915.915 0 011.411-.77l12.825 8.245a.918.918 0 010 1.54z" fill="#fff"/></g><defs><clipPath id="clip0"><path fill="#fff" transform="translate(.456 .376)" d="M0 0h43.971v43.971H0z"/></clipPath></defs></svg>