<svg width="38" height="41" fill="none" xmlns="http://www.w3.org/2000/svg"><rect y=".768" width="37.377" height="39.834" rx="10" fill="url(#paint0_linear)"/><path d="M16.158 21.708c0 .425-1.841.992-3.258.992s-2.975-.992-2.975-1.275c0-.425.992-1.7 3.258-1.842 1.275-.141 2.692.709 2.975 2.125zm6.659-2.125c-1.417-.141-2.692.709-2.975 2.125 0 .425 1.7.992 3.258.992s2.975-.992 2.975-1.275c0-.283-.992-1.7-3.258-1.842zM32.167 21c0 7.792-6.375 14.167-14.167 14.167S3.833 28.792 3.833 21 10.208 6.833 18 6.833 32.167 13.208 32.167 21zm-2.834-1.133c0-2.834-.991-3.825-4.675-3.825-3.683 0-4.816 1.558-6.658 1.558-1.842 0-2.833-1.558-6.658-1.558s-4.675.85-4.675 3.825c0 4.816 2.125 7.508 5.1 7.508 2.266 0 3.966-2.833 6.233-2.833 2.267 0 3.825 2.833 6.233 2.833 2.975 0 5.1-2.692 5.1-7.508z" fill="#fff"/><defs><linearGradient id="paint0_linear" x1="18.688" y1=".768" x2="18.688" y2="40.602" gradientUnits="userSpaceOnUse"><stop stop-color="#AD76FC"/><stop offset="1" stop-color="#C79EFE"/></linearGradient></defs></svg>