<svg width="38" height="40" fill="none" xmlns="http://www.w3.org/2000/svg"><rect x=".052" y=".149" width="37.377" height="39.834" rx="10" fill="url(#paint0_linear)"/><path d="M7.5 29.5v-8.25a11 11 0 1122 0v8.25h1.375v2.75H6.125V29.5H7.5zm2.75 0h16.5v-8.25a8.25 8.25 0 10-16.5 0v8.25zm6.875-24.75h2.75v4.125h-2.75V4.75zm12.07 3.861l1.944 1.944-2.915 2.917-1.946-1.945 2.917-2.916zM5.86 10.555l1.944-1.944 2.917 2.915-1.943 1.947-2.918-2.918zm5.764 10.695a6.875 6.875 0 016.875-6.875v2.75a4.125 4.125 0 00-4.125 4.125h-2.75z" fill="#fff"/><defs><linearGradient id="paint0_linear" x1="18.74" y1=".149" x2="18.74" y2="39.984" gradientUnits="userSpaceOnUse"><stop stop-color="#31C8B7"/><stop offset="1" stop-color="#39D2A1"/></linearGradient></defs></svg>