<svg width="38" height="41" fill="none" xmlns="http://www.w3.org/2000/svg"><rect x=".052" y=".786" width="37.377" height="39.834" rx="10" fill="url(#paint0_linear)"/><path d="M4.951 26.877a2.647 2.647 0 001.802 1.937L7.023 30H7v3h24v-3H11.024c.02-.139.017-.28-.01-.417l-.294-1.294 15.536-3.535.293 1.295a1.329 1.329 0 001.59 1l1.295-.295a1.327 1.327 0 001-1.59l-.376-1.655a2.643 2.643 0 00.788-2.524L29.96 17.1a2.64 2.64 0 00-1.893-1.96l-3.073-5.068a4.161 4.161 0 00-4.473-1.894L8.719 10.863a4.154 4.154 0 00-3.216 3.645l-.58 5.898a2.64 2.64 0 00-.855 2.586l.883 3.885zm4.53-1.032a1.992 1.992 0 11-.885-3.884 1.992 1.992 0 01.885 3.884zm16.833-3.828a1.992 1.992 0 11-1.056-3.842 1.992 1.992 0 011.056 3.842zm-16.93-8.229l11.803-2.687a1.16 1.16 0 011.245.527l2.378 3.92-.85.193-15.068 3.43-.852.194.448-4.563a1.158 1.158 0 01.896-1.014zM28.608 6L26.5 3l-.75 4.5 3.75 6L34 15l-3-3.809 3-1.399-3-1.4L34 3l-5.392 3z" fill="#fff"/><defs><linearGradient id="paint0_linear" x1="18.74" y1=".786" x2="18.74" y2="40.62" gradientUnits="userSpaceOnUse"><stop stop-color="#3140C8"/><stop offset="1" stop-color="#3C39D2"/></linearGradient></defs></svg>