<svg width="38" height="41" fill="none" xmlns="http://www.w3.org/2000/svg"><rect x=".052" y=".422" width="37.377" height="39.834" rx="10" fill="url(#paint0_linear)"/><path d="M18.985 6C10.705 6 4 12.72 4 21c0 8.28 6.705 15 14.985 15C27.28 36 34 29.28 34 21c0-8.28-6.72-15-15.015-15zM19 33c-6.63 0-12-5.37-12-12S12.37 9 19 9s12 5.37 12 12-5.37 12-12 12zm-.33-19.5h-.09c-.6 0-1.08.48-1.08 1.08v7.08c0 .525.27 1.02.735 1.29l6.225 3.735c.51.3 1.17.15 1.47-.36a1.065 1.065 0 00-.375-1.485l-5.805-3.45v-6.81c0-.6-.48-1.08-1.08-1.08z" fill="#fff"/><defs><linearGradient id="paint0_linear" x1="18.74" y1=".422" x2="18.74" y2="40.256" gradientUnits="userSpaceOnUse"><stop stop-color="#C88C31"/><stop offset="1" stop-color="#D2C339"/></linearGradient></defs></svg>