<svg width="38" height="41" fill="none" xmlns="http://www.w3.org/2000/svg"><rect y=".818" width="37.377" height="39.834" rx="10" fill="url(#paint0_linear)"/><path d="M26.832 22.969c-.272-.647-.582-1.38-.883-2.285-.79-2.369 1.734-4.953 1.758-4.977l-1.414-1.414c-.14.14-3.423 3.478-2.242 7.023.326.978.652 1.75.938 2.43A9.38 9.38 0 0126 28a6.24 6.24 0 01-4.19 5.293 8.52 8.52 0 00-2.103-8l-1.044-1.044-.582 1.357c-1.836 4.284-4.021 6.154-5.306 6.934A5.845 5.845 0 0110 28a9.624 9.624 0 01.929-3.629A11.333 11.333 0 0012 20v-1.778c.874.36 2 1.303 2 3.778v2.603l1.743-1.934c3.112-3.454 2.463-7.567 1.206-10.308A4.486 4.486 0 0120 17h2c0-5.537-4.579-7-7-7h-2l1.2 1.599c.137.185 2.862 3.927 1.353 7.688A4.943 4.943 0 0011 16h-1v4a9.624 9.624 0 01-.929 3.629A11.334 11.334 0 008 28c0 3.848 3.823 8 10 8s10-4.152 10-8a11.377 11.377 0 00-1.168-5.031zM14.835 33.526a16.5 16.5 0 004.367-5.598 6.105 6.105 0 01.257 5.971c-.484.065-.971.099-1.459.101a10.328 10.328 0 01-3.165-.474z" fill="#fff"/><defs><linearGradient id="paint0_linear" x1="18.688" y1=".818" x2="18.688" y2="40.653" gradientUnits="userSpaceOnUse"><stop stop-color="#6ACBFC"/><stop offset="1" stop-color="#4FB5F5"/></linearGradient></defs></svg>