<svg width="38" height="41" fill="none" xmlns="http://www.w3.org/2000/svg"><rect y=".793" width="37.377" height="39.834" rx="10" fill="url(#paint0_linear)"/><path d="M4.578 35.422h27.844V25.109h-2.063v8.25H6.641v-8.25H4.578v10.313zm0-13.293l3.182 1.64 3.47-3.019 3.619 3.257 3.651-3.084 3.651 3.084 3.62-3.257 3.469 3.018 3.182-1.64V7.579H4.578v14.55zM6.641 9.64h23.718v11.23l-.82.423-3.791-3.298-3.64 3.275-3.608-3.047-3.608 3.047-3.64-3.275-3.79 3.298-.821-.423V9.641z" fill="#fff"/><defs><linearGradient id="paint0_linear" x1="18.688" y1=".793" x2="18.688" y2="40.628" gradientUnits="userSpaceOnUse"><stop stop-color="#FE8D62"/><stop offset="1" stop-color="#FFAD88"/></linearGradient></defs></svg>