<svg width="1440" height="80" fill="none" xmlns="http://www.w3.org/2000/svg"><path d="M1429 .5h11V80H0V30l8 1 12 1.5L37 35l25 3 25.5 2.5L111 43l29.5 2.5L170 48l31.5 2.5 24 1.5 27 2 21 1 28 1 24.5 1 31.5 1 25.5.5 19 .5 24 .5h50l20-.5 12.5-.5L532 58h30.5l17.5-.5 25-1 20.5-1 18.5-1 16.5-1 22.5-1 18.5-1.5 24.5-2 21-1.5 22.5-2L787 44l15.5-1.5 12-1L831 40l14.5-1.5 16.5-2 20.5-2.5 14-2 20.5-3 18.5-3 20.5-3 16.5-2 17.5-2 19-2 17-2 18.5-1.5 21.5-2 20.5-1.5 20-1.5 23-1.5 23.5-1.5 20.5-1 19-1 19-1 22-1 29-.5 24-.5 24-.5h105l13.5.5z" fill="#fff"/></svg>