<svg width="17" height="17" fill="none" xmlns="http://www.w3.org/2000/svg"><g clip-path="url(#clip0)"><path d="M16.55 6.082l-5.226-.799L8.98.293c-.175-.372-.786-.372-.961 0l-2.342 4.99-5.226.799a.531.531 0 00-.3.896l3.797 3.891-.897 5.502a.532.532 0 00.78.55l4.669-2.58 4.668 2.581a.532.532 0 00.781-.55l-.897-5.502 3.796-3.892a.532.532 0 00-.3-.896z" fill="url(#paint0_linear)"/></g><defs><linearGradient id="paint0_linear" x1="8.501" y1=".014" x2="8.501" y2="16.989" gradientUnits="userSpaceOnUse"><stop stop-color="#FEA782"/><stop offset="1" stop-color="#FE986F"/></linearGradient><clipPath id="clip0"><path fill="#fff" d="M0 0h17v17H0z"/></clipPath></defs></svg>