<svg width="60" height="60" fill="none" xmlns="http://www.w3.org/2000/svg"><g clip-path="url(#clip0)" fill="#fff"><path d="M31.633 28.443a1.133 1.133 0 10-1.649 1.555 1.133 1.133 0 001.65-1.555zm14.832-14a5.663 5.663 0 00-8.01-.231 5.673 5.673 0 00-.23 8.01 5.673 5.673 0 008.009.23 5.663 5.663 0 00.231-8.009zm-1.787 6.361a3.404 3.404 0 01-4.805-.138 3.404 3.404 0 01.139-4.806 3.398 3.398 0 014.805.139 3.398 3.398 0 01-.139 4.805z"/><path d="M59.65 1.999a1.13 1.13 0 00-.832-.356c-.256.002-6.36.071-13.683 2.423-5.868 1.883-10.794 4.68-14.642 8.311a43.164 43.164 0 00-2.51 2.58c-3.635-2.284-6.618-1.687-8.52-.739-4.38 2.184-7.232 8.375-7.361 12.858a1.134 1.134 0 001.91.856c2.341-2.208 5.143-1.985 6.056-1.838l.385.408a39.85 39.85 0 00-2.03 5.447 3.207 3.207 0 00.08 1.971 10.73 10.73 0 00-3.12 2.069c-3 2.831-3.798 9.92-3.83 10.22a1.133 1.133 0 001.182 1.253c.302-.015 7.425-.401 10.425-3.233a10.73 10.73 0 002.244-2.995 3.2 3.2 0 001.965.193 39.864 39.864 0 005.554-1.712l.386.409c.094.92.155 3.73-2.186 5.938a1.133 1.133 0 00.745 1.957c4.483.13 10.828-2.36 13.261-6.606 1.057-1.844 1.825-4.787-.245-8.548a43.132 43.132 0 002.72-2.357c3.849-3.632 6.925-8.389 9.143-14.137C59.52 9.196 59.94 3.106 59.957 2.85a1.13 1.13 0 00-.307-.851zM14.705 24.713c.802-3.385 2.953-7.063 5.769-8.466 1.881-.938 3.904-.783 6.023.458a45.82 45.82 0 00-4.983 7.62c-.016-.01-.213-.273-.59-.37-.154-.04-3.132-.77-6.22.758zm6.9 17.868c-1.603 1.513-5.28 2.228-7.599 2.497.402-2.3 1.33-5.93 2.932-7.441.897-.847 1.928-1.48 2.955-1.822l3.701 3.922c-.402 1.005-1.092 1.997-1.99 2.844zm5.265-3.365c-.33.075-.707-.06-.98-.35l-2.155-2.282-2.84-3.01c-.275-.291-.387-.674-.294-.999a36.78 36.78 0 011.54-4.285l9.095 9.637a36.78 36.78 0 01-4.366 1.29zm16.293 1.07c-1.564 2.73-5.36 4.666-8.785 5.271 1.145-2.011 1.46-4.605 1.108-6.194-.081-.368-.315-.56-.328-.582a45.838 45.838 0 007.895-4.534c1.117 2.188 1.155 4.216.11 6.04zM46.05 28.86a41.12 41.12 0 01-3.351 2.835 43.533 43.533 0 01-9.191 5.337L23.166 26.075a43.524 43.524 0 015.858-8.867 41.12 41.12 0 013.025-3.182c3.453-3.26 7.86-5.804 13.105-7.577l9.216 9.765c-2.072 5.134-4.868 9.387-8.32 12.646zm9.205-15.011l-7.688-8.146a50.944 50.944 0 019.997-1.734 50.952 50.952 0 01-2.309 9.88z"/><path d="M27.873 47.571a1.133 1.133 0 00-1.602-.046l-3.296 3.112a1.133 1.133 0 001.556 1.648l3.296-3.112c.455-.43.475-1.147.046-1.602zM12.319 31.09a1.133 1.133 0 00-1.602-.046l-3.297 3.11a1.133 1.133 0 001.555 1.649l3.297-3.11c.455-.43.476-1.147.046-1.603zm7.499 17.852a1.133 1.133 0 00-1.602-.046l-7.894 7.45a1.133 1.133 0 101.555 1.648l7.894-7.45c.456-.43.476-1.146.047-1.602zm-9.061-.262a1.133 1.133 0 00-1.602-.046l-7.894 7.45a1.133 1.133 0 101.555 1.648l7.894-7.45c.455-.43.476-1.146.047-1.602zm-.273-9.627a1.133 1.133 0 00-1.602-.047L.99 46.457a1.133 1.133 0 001.556 1.648l7.893-7.45c.455-.43.476-1.147.046-1.602zm26.093-15.277a1.133 1.133 0 00-1.602-.046l-1.648 1.555a1.133 1.133 0 001.556 1.648l1.648-1.555c.455-.43.475-1.147.046-1.602z"/></g><defs><clipPath id="clip0"><path fill="#fff" transform="rotate(1.656 1 69.19)" d="M0 0h58.016v58.016H0z"/></clipPath></defs></svg>