<svg width="43" height="42" fill="none" xmlns="http://www.w3.org/2000/svg"><mask id="a" maskUnits="userSpaceOnUse" x=".914" y="-1.163" width="42.564" height="38.644" fill="#000"><path fill="#fff" d="M.914-1.163h42.564v38.644H.914z"/><path d="M26.786 34.328l-.082-.12a.237.237 0 00-.156-.233 2.872 2.872 0 00-.553-.83.236.236 0 00-.155-.236.985.985 0 00-.316-.474.237.237 0 00-.158-.233 1.011 1.011 0 00-.317-.476.236.236 0 00-.155-.235.986.986 0 00-.316-.474.237.237 0 00-.158-.234 1.011 1.011 0 00-.318-.476.236.236 0 00-.154-.235.986.986 0 00-.316-.474.237.237 0 00-.158-.233c-.146-.266-.23-.58-.56-.698-.143-.046-.283-.069-.416.027l-.217-.003c-.207-.078-.412-.05-.615.01l-.205-.011c-.138-.044-.273-.066-.4.028a15.676 15.676 0 01-.218-.008 2.973 2.973 0 00-1.125.027.384.384 0 00-.315-.004c-.206-.075-.41-.046-.614.01l-.206-.01c-.106-.043-.21-.061-.303.029a.397.397 0 00-.317-.007c-.177-.087-.364-.036-.541-.023-.476.036-.855-.09-1.068-.55.022-.106-.03-.188-.092-.265a5.226 5.226 0 00-.5-1.39c.025-.105-.016-.188-.089-.26-.102-.478-.251-.94-.497-1.367l.005.007a.964.964 0 00-.207-.586l.01-.026-.02-.02c-.008-.187-.054-.361-.189-.501l.012-.03-.023-.02c-.13-.57-.38-1.098-.563-1.648-.114-.343-.325-.45-.625-.544-.936-.297-1.866-.614-2.796-.93-1.056-.358-2.103-.743-3.165-1.081-.967-.308-1.957-.547-2.873-.996-.437-.214-.47-.712-.086-1.015.188-.149.413-.208.636-.281.67-.223 1.382-.314 2.03-.614.654-.115 1.31-.23 1.915-.526l2.07-.615.214-.066a2.03 2.03 0 00.865-.25c.206.016.386-.06.557-.16.768-.169 1.532-.35 2.256-.671a.214.214 0 00.248-.046 11.405 11.405 0 001.98-.578c.148.022.274-.036.396-.108a.188.188 0 00.22-.07.357.357 0 00.34-.098c.21-.005.415-.029.582-.177l.005.003c.185.033.341-.046.499-.125l.213-.072c.086.026.16.012.217-.065.233-.002.45-.063.649-.184a4.01 4.01 0 001.208-.347 9.236 9.236 0 001.724-.496c.277-.017.536-.09.78-.223l.194-.046c.295-.055.594-.099.852-.27.174.035.322-.037.469-.113.472-.105.95-.19 1.383-.423a.369.369 0 00.346-.087c.495-.064.962-.225 1.423-.403l.215-.066c.409-.055.804-.15 1.167-.352l.03-.001c.318-.028.625-.1.905-.263.18.017.343-.043.498-.128.134-.006.27-.006.371-.117.032.011.055.002.07-.029.232.003.452-.034.635-.192l.024.007a1.2 1.2 0 00.659-.185c.263-.01.506-.097.742-.206.271-.031.534-.088.77-.234.162.03.297-.037.43-.117.201-.005.397-.035.561-.168a.334.334 0 00.307-.086.276.276 0 00.306-.104c.096.037.18.024.251-.056 1.144-.25 2.26-.598 3.371-.96.227-.026.447-.078.647-.192.156-.004.309-.019.43-.134.238.002.477-.063.712.027l.317.478c-.036.164-.07.328-.107.492-.262.337-.444.718-.605 1.11-.869 1.598-1.741 3.194-2.604 4.795-1.235 2.293-2.461 4.59-3.693 6.885-.047.089-.109.169-.078.278-.05.043-.119.074-.148.127-.987 1.85-1.971 3.701-2.955 5.552-.875 1.58-1.773 3.147-2.543 4.781-.238.177-.3.456-.411.706a.381.381 0 00-.14.29c-.207.203-.323.456-.4.73l-.095.197c-.208.203-.327.455-.404.73-.032.064-.062.129-.093.193-.123.045-.155.15-.176.262l-.354.215a1.161 1.161 0 01-.753-.336zm.342-1.934c-.015.009.078-.054 0 0 .011.118.063.24.176.253.138.017.165-.116.18-.23.04-.088.082-.175.123-.262l.075-.106c.18-.262.348-.53.44-.838.098-.024.113-.097.112-.182l.079-.184c.45-.634.782-1.333 1.109-2.036l.077-.186c.03-.015.04-.037.028-.069l-.016.003c.26-.148.303-.429.409-.672a.396.396 0 00.142-.286c.186-.135.232-.35.307-.547a.631.631 0 00.186-.379c.092-.022.118-.09.119-.175l.08-.186c.067-.093.146-.18.2-.28a727.97 727.97 0 001.758-3.285c.382-.721.757-1.447 1.135-2.17a.386.386 0 00.14-.285c.094-.022.12-.091.118-.176l.078-.188c.076-.038.12-.095.111-.184a.619.619 0 00.191-.375c.18-.182.298-.397.357-.644l.092-.198c.084-.027.123-.082.112-.172.142-.244.336-.46.386-.752.21-.2.324-.454.399-.729l.093-.196c.088-.023.122-.085.12-.17.112-.192.27-.36.29-.594a.425.425 0 00.208-.331c.121-.218.301-.405.333-.667.112-.05.158-.142.16-.26.123-.216.302-.403.337-.663.08-.028.124-.08.107-.17l.095-.19c.065-.043.103-.1.09-.183a.522.522 0 00.202-.382c.084-.026.123-.082.11-.17a.471.471 0 00.15-.325c.104-.042.155-.117.143-.23.03-.068.061-.133.092-.2.083-.026.125-.08.12-.17a.495.495 0 00.14-.32c.106-.043.157-.12.144-.237l.095-.196c.087-.023.121-.085.118-.171.163-.301.418-.563.416-.938.003-.023.006-.046.007-.069l-.07.058-.116.007c-.06-.037-.085-.013-.085.05-.264.331-.644.514-.971.765-2.397 1.84-4.799 3.674-7.194 5.518-1.545 1.19-3.082 2.393-4.623 3.59-.59.429-1.195.839-1.769 1.288-.693.543-1.354 1.128-2.11 1.584-1.155.697-1.192.834-.432 1.92.047.066.11.12.167.18.078.232.215.427.393.595.08.23.207.429.393.589.16.35.373.664.632.948a.866.866 0 00.313.47c.16.351.372.666.636.948.047.194.153.35.31.472.16.35.372.666.636.947.047.194.153.35.31.473.32.584.683 1.14 1.108 1.657a.368.368 0 00.2.293zm-6.967-9.333c.502-.229.921-.568 1.287-.977.936-.631 1.809-1.347 2.703-2.035 3.535-2.719 7.08-5.423 10.62-8.136.125-.097.3-.172.313-.39-.067.009-.104.006-.13.019-5.286 2.692-10.576 5.379-15.852 8.09-.436.223-.952.31-1.307.693l.004-.004c-.753.265-1.397.761-2.16 1.004-.204.065-.233.22-.185.44.123.584.367 1.113.642 1.633-.015.033-.008.059.023.078a.559.559 0 00.15.437l.076.227c-.005.126.013.242.122.325l.078.226c-.005.124.012.24.12.323l.072.228c0 .125.017.243.124.327l.076.226c-.007.125.011.242.122.324l.076.227c0 .117.005.29.116.293.237.006.286-.23.381-.397l.069-.116c.183-.082.274-.242.347-.416l.068-.115c.183-.082.273-.242.346-.417l.066-.116c.18-.084.276-.24.348-.416l.072-.114a6.446 6.446 0 001.082-1.394c.046-.026.088-.052.13-.077zm-8.365-6.323a1.67 1.67 0 00-.813.249l-3.436.868c-.1.025-.212.058-.227.168-.02.16.137.157.235.206.693.352 1.472.425 2.197.681 1.432.509 2.883.962 4.316 1.47.278.098.482.114.75-.016 1.333-.644 2.64-1.34 3.958-2.014 4.378-2.236 8.768-4.447 13.144-6.688.852-.437 1.74-.812 2.552-1.365-.246-.17-.45-.022-.638.031a5554.672 5554.672 0 00-18.06 5.217c-1.328.387-2.678.709-3.978 1.193zm6.572 10.706c1.252-.022 2.398-.04 3.543-.066.238-.006.163-.154.085-.273-.458-.7-.92-1.396-1.378-2.094-.108-.164-.212-.202-.346-.027-.61.79-1.223 1.578-1.904 2.46z"/></mask><path d="M26.786 34.328l-.082-.12a.237.237 0 00-.156-.233 2.872 2.872 0 00-.553-.83.236.236 0 00-.155-.236.985.985 0 00-.316-.474.237.237 0 00-.158-.233 1.011 1.011 0 00-.317-.476.236.236 0 00-.155-.235.986.986 0 00-.316-.474.237.237 0 00-.158-.234 1.011 1.011 0 00-.318-.476.236.236 0 00-.154-.235.986.986 0 00-.316-.474.237.237 0 00-.158-.233c-.146-.266-.23-.58-.56-.698-.143-.046-.283-.069-.416.027l-.217-.003c-.207-.078-.412-.05-.615.01l-.205-.011c-.138-.044-.273-.066-.4.028a15.676 15.676 0 01-.218-.008 2.973 2.973 0 00-1.125.027.384.384 0 00-.315-.004c-.206-.075-.41-.046-.614.01l-.206-.01c-.106-.043-.21-.061-.303.029a.397.397 0 00-.317-.007c-.177-.087-.364-.036-.541-.023-.476.036-.855-.09-1.068-.55.022-.106-.03-.188-.092-.265a5.226 5.226 0 00-.5-1.39c.025-.105-.016-.188-.089-.26-.102-.478-.251-.94-.497-1.367l.005.007a.964.964 0 00-.207-.586l.01-.026-.02-.02c-.008-.187-.054-.361-.189-.501l.012-.03-.023-.02c-.13-.57-.38-1.098-.563-1.648-.114-.343-.325-.45-.625-.544-.936-.297-1.866-.614-2.796-.93-1.056-.358-2.103-.743-3.165-1.081-.967-.308-1.957-.547-2.873-.996-.437-.214-.47-.712-.086-1.015.188-.149.413-.208.636-.281.67-.223 1.382-.314 2.03-.614.654-.115 1.31-.23 1.915-.526l2.07-.615.214-.066a2.03 2.03 0 00.865-.25c.206.016.386-.06.557-.16.768-.169 1.532-.35 2.256-.671a.214.214 0 00.248-.046 11.405 11.405 0 001.98-.578c.148.022.274-.036.396-.108a.188.188 0 00.22-.07.357.357 0 00.34-.098c.21-.005.415-.029.582-.177l.005.003c.185.033.341-.046.499-.125l.213-.072c.086.026.16.012.217-.065.233-.002.45-.063.649-.184a4.01 4.01 0 001.208-.347 9.236 9.236 0 001.724-.496c.277-.017.536-.09.78-.223l.194-.046c.295-.055.594-.099.852-.27.174.035.322-.037.469-.113.472-.105.95-.19 1.383-.423a.369.369 0 00.346-.087c.495-.064.962-.225 1.423-.403l.215-.066c.409-.055.804-.15 1.167-.352l.03-.001c.318-.028.625-.1.905-.263.18.017.343-.043.498-.128.134-.006.27-.006.371-.117.032.011.055.002.07-.029.232.003.452-.034.635-.192l.024.007a1.2 1.2 0 00.659-.185c.263-.01.506-.097.742-.206.271-.031.534-.088.77-.234.162.03.297-.037.43-.117.201-.005.397-.035.561-.168a.334.334 0 00.307-.086.276.276 0 00.306-.104c.096.037.18.024.251-.056 1.144-.25 2.26-.598 3.371-.96.227-.026.447-.078.647-.192.156-.004.309-.019.43-.134.238.002.477-.063.712.027l.317.478c-.036.164-.07.328-.107.492-.262.337-.444.718-.605 1.11-.869 1.598-1.741 3.194-2.604 4.795-1.235 2.293-2.461 4.59-3.693 6.885-.047.089-.109.169-.078.278-.05.043-.119.074-.148.127-.987 1.85-1.971 3.701-2.955 5.552-.875 1.58-1.773 3.147-2.543 4.781-.238.177-.3.456-.411.706a.381.381 0 00-.14.29c-.207.203-.323.456-.4.73l-.095.197c-.208.203-.327.455-.404.73-.032.064-.062.129-.093.193-.123.045-.155.15-.176.262l-.354.215a1.161 1.161 0 01-.753-.336zm.342-1.934c-.015.009.078-.054 0 0 .011.118.063.24.176.253.138.017.165-.116.18-.23.04-.088.082-.175.123-.262l.075-.106c.18-.262.348-.53.44-.838.098-.024.113-.097.112-.182l.079-.184c.45-.634.782-1.333 1.109-2.036l.077-.186c.03-.015.04-.037.028-.069l-.016.003c.26-.148.303-.429.409-.672a.396.396 0 00.142-.286c.186-.135.232-.35.307-.547a.631.631 0 00.186-.379c.092-.022.118-.09.119-.175l.08-.186c.067-.093.146-.18.2-.28a727.97 727.97 0 001.758-3.285c.382-.721.757-1.447 1.135-2.17a.386.386 0 00.14-.285c.094-.022.12-.091.118-.176l.078-.188c.076-.038.12-.095.111-.184a.619.619 0 00.191-.375c.18-.182.298-.397.357-.644l.092-.198c.084-.027.123-.082.112-.172.142-.244.336-.46.386-.752.21-.2.324-.454.399-.729l.093-.196c.088-.023.122-.085.12-.17.112-.192.27-.36.29-.594a.425.425 0 00.208-.331c.121-.218.301-.405.333-.667.112-.05.158-.142.16-.26.123-.216.302-.403.337-.663.08-.028.124-.08.107-.17l.095-.19c.065-.043.103-.1.09-.183a.522.522 0 00.202-.382c.084-.026.123-.082.11-.17a.471.471 0 00.15-.325c.104-.042.155-.117.143-.23.03-.068.061-.133.092-.2.083-.026.125-.08.12-.17a.495.495 0 00.14-.32c.106-.043.157-.12.144-.237l.095-.196c.087-.023.121-.085.118-.171.163-.301.418-.563.416-.938.003-.023.006-.046.007-.069l-.07.058-.116.007c-.06-.037-.085-.013-.085.05-.264.331-.644.514-.971.765-2.397 1.84-4.799 3.674-7.194 5.518-1.545 1.19-3.082 2.393-4.623 3.59-.59.429-1.195.839-1.769 1.288-.693.543-1.354 1.128-2.11 1.584-1.155.697-1.192.834-.432 1.92.047.066.11.12.167.18.078.232.215.427.393.595.08.23.207.429.393.589.16.35.373.664.632.948a.866.866 0 00.313.47c.16.351.372.666.636.948.047.194.153.35.31.472.16.35.372.666.636.947.047.194.153.35.31.473.32.584.683 1.14 1.108 1.657a.368.368 0 00.2.293zm-6.967-9.333c.502-.229.921-.568 1.287-.977.936-.631 1.809-1.347 2.703-2.035 3.535-2.719 7.08-5.423 10.62-8.136.125-.097.3-.172.313-.39-.067.009-.104.006-.13.019-5.286 2.692-10.576 5.379-15.852 8.09-.436.223-.952.31-1.307.693l.004-.004c-.753.265-1.397.761-2.16 1.004-.204.065-.233.22-.185.44.123.584.367 1.113.642 1.633-.015.033-.008.059.023.078a.559.559 0 00.15.437l.076.227c-.005.126.013.242.122.325l.078.226c-.005.124.012.24.12.323l.072.228c0 .125.017.243.124.327l.076.226c-.007.125.011.242.122.324l.076.227c0 .117.005.29.116.293.237.006.286-.23.381-.397l.069-.116c.183-.082.274-.242.347-.416l.068-.115c.183-.082.273-.242.346-.417l.066-.116c.18-.084.276-.24.348-.416l.072-.114a6.446 6.446 0 001.082-1.394c.046-.026.088-.052.13-.077zm-8.365-6.323a1.67 1.67 0 00-.813.249l-3.436.868c-.1.025-.212.058-.227.168-.02.16.137.157.235.206.693.352 1.472.425 2.197.681 1.432.509 2.883.962 4.316 1.47.278.098.482.114.75-.016 1.333-.644 2.64-1.34 3.958-2.014 4.378-2.236 8.768-4.447 13.144-6.688.852-.437 1.74-.812 2.552-1.365-.246-.17-.45-.022-.638.031a5554.672 5554.672 0 00-18.06 5.217c-1.328.387-2.678.709-3.978 1.193zm6.572 10.706c1.252-.022 2.398-.04 3.543-.066.238-.006.163-.154.085-.273-.458-.7-.92-1.396-1.378-2.094-.108-.164-.212-.202-.346-.027-.61.79-1.223 1.578-1.904 2.46z" fill="#66C7FA"/><path d="M26.786 34.328l-.082-.12a.237.237 0 00-.156-.233 2.872 2.872 0 00-.553-.83.236.236 0 00-.155-.236.985.985 0 00-.316-.474.237.237 0 00-.158-.233 1.011 1.011 0 00-.317-.476.236.236 0 00-.155-.235.986.986 0 00-.316-.474.237.237 0 00-.158-.234 1.011 1.011 0 00-.318-.476.236.236 0 00-.154-.235.986.986 0 00-.316-.474.237.237 0 00-.158-.233c-.146-.266-.23-.58-.56-.698-.143-.046-.283-.069-.416.027l-.217-.003c-.207-.078-.412-.05-.615.01l-.205-.011c-.138-.044-.273-.066-.4.028a15.676 15.676 0 01-.218-.008 2.973 2.973 0 00-1.125.027.384.384 0 00-.315-.004c-.206-.075-.41-.046-.614.01l-.206-.01c-.106-.043-.21-.061-.303.029a.397.397 0 00-.317-.007c-.177-.087-.364-.036-.541-.023-.476.036-.855-.09-1.068-.55.022-.106-.03-.188-.092-.265a5.226 5.226 0 00-.5-1.39c.025-.105-.016-.188-.089-.26-.102-.478-.251-.94-.497-1.367l.005.007a.964.964 0 00-.207-.586l.01-.026-.02-.02c-.008-.187-.054-.361-.189-.501l.012-.03-.023-.02c-.13-.57-.38-1.098-.563-1.648-.114-.343-.325-.45-.625-.544-.936-.297-1.866-.614-2.796-.93-1.056-.358-2.103-.743-3.165-1.081-.967-.308-1.957-.547-2.873-.996-.437-.214-.47-.712-.086-1.015.188-.149.413-.208.636-.281.67-.223 1.382-.314 2.03-.614.654-.115 1.31-.23 1.915-.526l2.07-.615.214-.066a2.03 2.03 0 00.865-.25c.206.016.386-.06.557-.16.768-.169 1.532-.35 2.256-.671a.214.214 0 00.248-.046 11.405 11.405 0 001.98-.578c.148.022.274-.036.396-.108a.188.188 0 00.22-.07.357.357 0 00.34-.098c.21-.005.415-.029.582-.177l.005.003c.185.033.341-.046.499-.125l.213-.072c.086.026.16.012.217-.065.233-.002.45-.063.649-.184a4.01 4.01 0 001.208-.347 9.236 9.236 0 001.724-.496c.277-.017.536-.09.78-.223l.194-.046c.295-.055.594-.099.852-.27.174.035.322-.037.469-.113.472-.105.95-.19 1.383-.423a.369.369 0 00.346-.087c.495-.064.962-.225 1.423-.403l.215-.066c.409-.055.804-.15 1.167-.352l.03-.001c.318-.028.625-.1.905-.263.18.017.343-.043.498-.128.134-.006.27-.006.371-.117.032.011.055.002.07-.029.232.003.452-.034.635-.192l.024.007a1.2 1.2 0 00.659-.185c.263-.01.506-.097.742-.206.271-.031.534-.088.77-.234.162.03.297-.037.43-.117.201-.005.397-.035.561-.168a.334.334 0 00.307-.086.276.276 0 00.306-.104c.096.037.18.024.251-.056 1.144-.25 2.26-.598 3.371-.96.227-.026.447-.078.647-.192.156-.004.309-.019.43-.134.238.002.477-.063.712.027l.317.478c-.036.164-.07.328-.107.492-.262.337-.444.718-.605 1.11-.869 1.598-1.741 3.194-2.604 4.795-1.235 2.293-2.461 4.59-3.693 6.885-.047.089-.109.169-.078.278-.05.043-.119.074-.148.127-.987 1.85-1.971 3.701-2.955 5.552-.875 1.58-1.773 3.147-2.543 4.781-.238.177-.3.456-.411.706a.381.381 0 00-.14.29c-.207.203-.323.456-.4.73l-.095.197c-.208.203-.327.455-.404.73-.032.064-.062.129-.093.193-.123.045-.155.15-.176.262l-.354.215a1.161 1.161 0 01-.753-.336zm.342-1.934c-.015.009.078-.054 0 0 .011.118.063.24.176.253.138.017.165-.116.18-.23.04-.088.082-.175.123-.262l.075-.106c.18-.262.348-.53.44-.838.098-.024.113-.097.112-.182l.079-.184c.45-.634.782-1.333 1.109-2.036l.077-.186c.03-.015.04-.037.028-.069l-.016.003c.26-.148.303-.429.409-.672a.396.396 0 00.142-.286c.186-.135.232-.35.307-.547a.631.631 0 00.186-.379c.092-.022.118-.09.119-.175l.08-.186c.067-.093.146-.18.2-.28a727.97 727.97 0 001.758-3.285c.382-.721.757-1.447 1.135-2.17a.386.386 0 00.14-.285c.094-.022.12-.091.118-.176l.078-.188c.076-.038.12-.095.111-.184a.619.619 0 00.191-.375c.18-.182.298-.397.357-.644l.092-.198c.084-.027.123-.082.112-.172.142-.244.336-.46.386-.752.21-.2.324-.454.399-.729l.093-.196c.088-.023.122-.085.12-.17.112-.192.27-.36.29-.594a.425.425 0 00.208-.331c.121-.218.301-.405.333-.667.112-.05.158-.142.16-.26.123-.216.302-.403.337-.663.08-.028.124-.08.107-.17l.095-.19c.065-.043.103-.1.09-.183a.522.522 0 00.202-.382c.084-.026.123-.082.11-.17a.471.471 0 00.15-.325c.104-.042.155-.117.143-.23.03-.068.061-.133.092-.2.083-.026.125-.08.12-.17a.495.495 0 00.14-.32c.106-.043.157-.12.144-.237l.095-.196c.087-.023.121-.085.118-.171.163-.301.418-.563.416-.938.003-.023.006-.046.007-.069l-.07.058-.116.007c-.06-.037-.085-.013-.085.05-.264.331-.644.514-.971.765-2.397 1.84-4.799 3.674-7.194 5.518-1.545 1.19-3.082 2.393-4.623 3.59-.59.429-1.195.839-1.769 1.288-.693.543-1.354 1.128-2.11 1.584-1.155.697-1.192.834-.432 1.92.047.066.11.12.167.18.078.232.215.427.393.595.08.23.207.429.393.589.16.35.373.664.632.948a.866.866 0 00.313.47c.16.351.372.666.636.948.047.194.153.35.31.472.16.35.372.666.636.947.047.194.153.35.31.473.32.584.683 1.14 1.108 1.657a.368.368 0 00.2.293zm-6.967-9.333c.502-.229.921-.568 1.287-.977.936-.631 1.809-1.347 2.703-2.035 3.535-2.719 7.08-5.423 10.62-8.136.125-.097.3-.172.313-.39-.067.009-.104.006-.13.019-5.286 2.692-10.576 5.379-15.852 8.09-.436.223-.952.31-1.307.693l.004-.004c-.753.265-1.397.761-2.16 1.004-.204.065-.233.22-.185.44.123.584.367 1.113.642 1.633-.015.033-.008.059.023.078a.559.559 0 00.15.437l.076.227c-.005.126.013.242.122.325l.078.226c-.005.124.012.24.12.323l.072.228c0 .125.017.243.124.327l.076.226c-.007.125.011.242.122.324l.076.227c0 .117.005.29.116.293.237.006.286-.23.381-.397l.069-.116c.183-.082.274-.242.347-.416l.068-.115c.183-.082.273-.242.346-.417l.066-.116c.18-.084.276-.24.348-.416l.072-.114a6.446 6.446 0 001.082-1.394c.046-.026.088-.052.13-.077zm-8.365-6.323a1.67 1.67 0 00-.813.249l-3.436.868c-.1.025-.212.058-.227.168-.02.16.137.157.235.206.693.352 1.472.425 2.197.681 1.432.509 2.883.962 4.316 1.47.278.098.482.114.75-.016 1.333-.644 2.64-1.34 3.958-2.014 4.378-2.236 8.768-4.447 13.144-6.688.852-.437 1.74-.812 2.552-1.365-.246-.17-.45-.022-.638.031a5554.672 5554.672 0 00-18.06 5.217c-1.328.387-2.678.709-3.978 1.193zm6.572 10.706c1.252-.022 2.398-.04 3.543-.066.238-.006.163-.154.085-.273-.458-.7-.92-1.396-1.378-2.094-.108-.164-.212-.202-.346-.027-.61.79-1.223 1.578-1.904 2.46z" stroke="#66C7FA" stroke-width=".6" mask="url(#a)"/><path d="M2.265 34.634h0c-.2.115-.412.183-.62.154-.215-.03-.397-.158-.541-.376h0a.718.718 0 01-.108-.623c.064-.206.226-.38.455-.513h0a990.361 990.361 0 015.657-3.25l-4.843 4.608zm0 0l2.785-1.598 2.786-1.599m-5.571 3.197l5.57-3.197m0 0c.206-.117.457-.291.493-.598a.804.804 0 00-.04-.457.849.849 0 00-.261-.333.694.694 0 00-.473-.165.98.98 0 00-.446.142l.728 1.411zm1.007-7.06h0c.296.072.517.26.59.573l-.146.034m-.444-.607l-5.106 4.002.003-.001c1.66-.792 3.319-1.583 4.977-2.378a2.67 2.67 0 00.457-.267c.27-.2.327-.497.26-.784l-.147.035m-.444-.607l-.005-.001c-.293-.061-.541.059-.74.154a2.497 2.497 0 01-.025.012m.77-.165l-.77.166m1.214.44c.058.245.008.473-.203.63l-1.01-1.07.064.135m1.15.306c-.06-.25-.231-.4-.48-.461-.243-.05-.45.048-.657.148l-.013.007m0 0l-1.566.748-2.237 1.07-.598 1.883a5.328 5.328 0 01-.427.183c-.21.08-.417.094-.6.02-.185-.073-.323-.224-.419-.427h0a.737.737 0 01-.042-.588.808.808 0 01.393-.413h0c.41-.218.833-.418 1.25-.615l.379-.18 2.236-1.068 1.566-.748m.065.135l-.065-.135s0 0 0 0m1.561 10.995h0c.038-.218.21-.394.394-.517l.649-.434a220.38 220.38 0 012.141-1.42l-3.184 2.37zm0 0v.003m0-.003v.003m0 0a.926.926 0 00.043.494c.06.146.161.26.291.355m-.334-.849l4.362-2.215m0 0h0c.14.221.184.441.123.649-.059.203-.21.366-.403.495h0a283.93 283.93 0 01-2.833 1.884h0a1.002 1.002 0 01-.426.171.68.68 0 01-.489-.135m4.027-3.064a.713.713 0 00-.52-.343m.52.343l-.52-.343M9.967 36.39l.088-.122m-.088.122s0 0 0 0l.088-.122m0 0c.26.189.514.112.745-.04l-.745.04zm3.419-3.285c-.212-.026-.439.041-.657.184l.657-.184zm-3.181-2.879l.023.005.023-.002.031.001h.002c.02 0 .048.002.078.001a.467.467 0 00.224-.054c.613-.343 1.223-.718 1.764-1.186h0c.306-.264.29-.665.072-.977h0a.816.816 0 00-.415-.324.664.664 0 00-.524.058h0c-.606.327-1.202.697-1.727 1.158h0a.697.697 0 00-.2.77c.092.26.324.478.65.55z" fill="#66C7FA" stroke="#66C7FA" stroke-width=".3"/></svg>