<svg width="70" height="40" fill="none" xmlns="http://www.w3.org/2000/svg"><g clip-path="url(#clip0)" fill="#75B9FF"><path d="M21.027 30.409a35.916 35.916 0 00-.549-.014c-.865.022-4.556-.017-5.643.09a3.737 3.737 0 00-.188.024c-.056-.01-3.303-.329-4.135-.493-1.19-1.057-2.33-2.153-2.875-3.718-.408-1.168-.949-1.19-1.58-.156-1.587.728-3.054.282-4.507-.435-.643-.318-1.575-.407-1.553-1.341.02-.901.5-1.657 1.365-2.075.884-.22 1.569-.759 2.21-1.378.427-.187.84-.382.343-.92-.837-1.752-1.68-3.5-2.51-5.257-.776-1.654-.235-2.728 1.545-2.987 1.78-.26 3.566-.48 5.352-.67 1.711-.183 3.195.374 4.39 1.61 1.605 1.662 3.172 3.363 4.764 5.04.504.532 1.015 1.106.319 1.77-.702.672-1.251.112-1.747-.415-1.526-1.612-3.062-3.216-4.573-4.842-.807-.867-1.766-1.341-2.953-1.213-1.559.17-3.109.407-4.667.575-.652.07-.632.346-.394.82.705 1.405 1.387 2.825 2.097 4.23.127.251.166.628.676.413 1.994-.834 4.09-.215 6.137-.371.435-.034.804.2.965.65.18.513-.025.9-.422 1.216-.324.253-.652.504-.976.758-.901.695-1.813 1.375-2.698 2.092-.26.212-.621.365-.577.85.161 1.752 2.135 3.843 3.918 4.108 1.068.16 2.136.123 3.203.022 3.5.252 6.999-.145 10.498-.047.463.014.904-.109 1.287-.421.96-.786 1.938-1.55 2.909-2.323 1.61-1.157 3.247-2.278 4.822-3.486 1.375-1.054 2.862-1.617 4.608-1.578 1.567.036 3.14-.031 4.706-.084.951-.034 1.783.178 2.174 1.13.405.987.047 1.807-.743 2.467-.388.327-.765.661-1.018 1.247.452-.08.907-.145 1.354-.248 5.753-1.333 11.463-2.82 16.945-5.067 1.153-.472 2.293-.99 3.308-1.727.887-.644.865-1.213-.072-1.782-.832-.507-1.75-.538-2.682-.351-1.627.326-3.258.647-4.883.993-1.206.256-2.412.488-3.302-.67-.899-1.165-.827-2.384.144-3.711-3.047-.182-5.87.086-8.685.476-7.226 1.004-14.347 2.555-21.412 4.362-.76.195-1.57.432-1.825-.56-.266-1.035.652-1.186 1.359-1.359 3.172-.778 6.35-1.53 9.677-2.328-2.151-2.36-4.195-4.621-6.264-6.858-.726-.783-1.353-1.575-.818-2.71.538-1.138 1.536-1.15 2.607-1.046 2.024.192 4.018.557 6.017.909 3.746.66 6.516 2.725 8.474 5.915.893 1.453 1.974 1.84 3.64 1.559 2.87-.483 5.788-.53 8.7-.274a8.366 8.366 0 013.532 1.108c1.736 1.012 3.358 2.267 5.518 2.348.663.025 1.293.466 1.82.94 1.497 1.347 1.48 3.134-.087 4.395-1.311 1.054-2.836 1.732-4.384 2.334-1.93.753-3.893 1.425-5.842 2.133-1.528.368-2.984 1.13-4.47 1.414-3.386.644-6.677 1.68-10.074 2.226-.912.148-1.606.524-2.266 1.165-1.48 1.442-3.028 2.809-4.55 4.209-.166.19-.335.376-.502.566l-4.27 3.6c-2.121 1.506-4.542 1.941-7.068 2.047-2.174.092-4.34.02-6.506-.15-.959-.076-1.674-.52-1.91-1.523-.22-.932.17-1.612.91-2.153.52-.38 1.009-.8 1.51-1.205 1.756-1.24 3.508-2.485 5.264-3.726-.053-.089-.108-.178-.161-.27-.904.047-1.816.089-2.726.13zm-2.8 6.78c2.595.214 4.797.24 7.001.122 2.268-.12 4.287-.792 6.098-2.284 4.639-3.823 8.898-8.051 13.171-12.265.042-.042.006-.162.006-.268-1.334 0-2.668.07-3.99-.016-1.717-.115-3.103.474-4.465 1.494-4.026 3.018-8.13 5.932-12.184 8.913-1.814 1.33-3.577 2.725-5.638 4.303zM43.875 11.65c-2.834-6.085-8.388-6.405-14.217-7.027 2.543 2.78 4.85 5.29 7.138 7.817.327.362.67.418 1.112.332 1.988-.382 3.982-.75 5.967-1.121zM2.973 24.056c3.227 1.146 4.27-1.988 6.308-3.224-2.903-.535-4.284 1.938-6.308 3.224zm58.206-9.41c-1.065-1.5-2.318-.719-3.508-.487-.405.08-.718.256-.607.733.11.474.5.485.879.41 1.06-.21 2.119-.43 3.236-.655z"/><path d="M21.207 18.886c-.607-.076-1.004-.355-1.023-.957-.02-.597.319-.965.915-.99.6-.025.962.337.993.917.033.603-.38.89-.885 1.03z"/></g><defs><clipPath id="clip0"><path fill="#fff" d="M0 0h69.268v39.344H0z"/></clipPath></defs></svg>