<svg width="17" height="17" fill="none" xmlns="http://www.w3.org/2000/svg"><g clip-path="url(#clip0)" fill="#79CEFB"><path d="M16.562 12.543l-2.113-2.113c-.564-.563-1.549-.564-2.113 0l-.353.353 4.227 4.226.352-.353a1.493 1.493 0 000-2.113zm-5.302-1.076a1.12 1.12 0 01-1.485-.076L5.597 7.21a1.121 1.121 0 01-.076-1.486L1.304 1.51c-1.814 2.114-1.743 5.3.26 7.302l6.61 6.614a5.347 5.347 0 007.303.259l-4.217-4.217zM6.558 2.536L4.445.423c-.564-.564-1.549-.565-2.113 0l-.353.352 4.227 4.226.352-.352a1.493 1.493 0 000-2.113z"/></g><defs><clipPath id="clip0"><path fill="#fff" d="M0 0h17v17H0z"/></clipPath></defs></svg>