<svg width="10" height="17" fill="none" xmlns="http://www.w3.org/2000/svg"><path d="M9.27 11.634c0 .984-.324 1.794-.972 2.43-.648.636-1.488 1.014-2.52 1.134V16.8H4.644v-1.584c-.984-.072-1.824-.342-2.52-.81a4.019 4.019 0 01-1.494-1.89l1.44-.828c.408 1.116 1.266 1.746 2.574 1.89V9.222c-.54-.192-.978-.366-1.314-.522a7.018 7.018 0 01-1.026-.666 2.627 2.627 0 01-.81-1.008c-.168-.408-.252-.876-.252-1.404 0-.972.324-1.764.972-2.376.648-.612 1.458-.966 2.43-1.062V.6h1.134v1.602c.72.096 1.362.348 1.926.756.564.408 1.002.96 1.314 1.656l-1.404.792c-.348-.876-.96-1.398-1.836-1.566v4.14c.552.204.99.384 1.314.54.324.156.678.378 1.062.666.384.276.666.618.846 1.026.18.408.27.882.27 1.422zM2.898 5.622c0 .456.138.828.414 1.116.276.288.72.558 1.332.81V3.822c-.528.072-.954.27-1.278.594-.312.312-.468.714-.468 1.206zm2.88 7.92c.576-.084 1.02-.294 1.332-.63.324-.348.486-.768.486-1.26s-.15-.882-.45-1.17c-.288-.3-.744-.582-1.368-.846v3.906z" fill="#000"/></svg>