<svg width="18" height="18" fill="none" xmlns="http://www.w3.org/2000/svg"><path d="M11.363 6.3a4.373 4.373 0 00-4.388 4.365v4.41a.675.675 0 00.675.675h1.575a.675.675 0 00.675-.675v-4.41a1.455 1.455 0 011.612-1.448 1.5 1.5 0 011.313 1.5v4.358a.675.675 0 00.675.675h1.575a.675.675 0 00.675-.675v-4.41A4.373 4.373 0 0011.363 6.3zm-6.413.675H2.925a.675.675 0 00-.675.675v7.425c0 .373.302.675.675.675H4.95a.675.675 0 00.675-.675V7.65a.675.675 0 00-.675-.675zm-1.012-1.35a1.688 1.688 0 100-3.375 1.688 1.688 0 000 3.375z" fill="#AAA"/></svg>