<svg width="314" height="76" fill="none" xmlns="http://www.w3.org/2000/svg"><path d="M313.5 38c0 4.953-4.162 9.823-12.086 14.357-7.886 4.513-19.331 8.594-33.516 12.027C239.535 71.25 200.327 75.5 157 75.5S74.465 71.249 46.102 64.384c-14.185-3.433-25.63-7.514-33.516-12.027C4.662 47.823.5 42.953.5 38c0-4.953 4.162-9.823 12.086-14.357 7.886-4.513 19.33-8.594 33.516-12.027C74.465 4.75 113.673.5 157 .5s82.535 4.251 110.898 11.116c14.185 3.433 25.63 7.514 33.516 12.027C309.338 28.177 313.5 33.047 313.5 38z" stroke="#F25822"/></svg>