<svg width="50" height="50" fill="none" xmlns="http://www.w3.org/2000/svg"><rect width="50" height="50" rx="10" fill="#EDFAE3"/><path d="M25.47 13C18.63 13 13 18.643 13 25.5S18.63 38 25.47 38C32.31 38 38 32.417 38 25.5 38 18.582 32.37 13 25.47 13zm10.17 11.408H31.1a18.02 18.02 0 00-3.027-8.738c4.055 1.031 7.082 4.49 7.566 8.738zm-13.5 2.245h6.66a16.768 16.768 0 01-3.33 8.495 16.769 16.769 0 01-3.329-8.495zm0-2.245a16.769 16.769 0 013.33-8.495c1.876 2.488 3.087 5.4 3.329 8.495H22.14zm.787-8.799a18.02 18.02 0 00-3.026 8.738h-4.54c.423-4.187 3.51-7.646 7.566-8.738zm-7.566 11.044h4.54a18.02 18.02 0 003.026 8.738c-4.055-1.032-7.143-4.49-7.566-8.738zm12.712 8.799a18.02 18.02 0 003.026-8.738h4.54c-.484 4.187-3.51 7.645-7.566 8.738z" fill="#65CE54"/></svg>