<svg width="50" height="50" fill="none" xmlns="http://www.w3.org/2000/svg"><rect width="50" height="50" rx="10" fill="#FFF8E3"/><path d="M24.5 12C17.613 12 12 17.613 12 24.5v8.75A3.761 3.761 0 0015.75 37H17a3.761 3.761 0 003.75-3.75V29.5A3.761 3.761 0 0017 25.75h-2.5V24.5c0-5.512 4.488-10 10-10s10 4.488 10 10v1.25H32a3.761 3.761 0 00-3.75 3.75v3.75A3.761 3.761 0 0032 37h1.25A3.761 3.761 0 0037 33.25V24.5C37 17.613 31.387 12 24.5 12zM17 28.25c.688 0 1.25.563 1.25 1.25v3.75c0 .688-.563 1.25-1.25 1.25h-1.25c-.688 0-1.25-.563-1.25-1.25v-5H17zm17.5 5c0 .688-.563 1.25-1.25 1.25H32c-.688 0-1.25-.563-1.25-1.25V29.5c0-.688.563-1.25 1.25-1.25h2.5v5z" fill="#FFC01E"/></svg>