<svg width="231" height="61" fill="none" xmlns="http://www.w3.org/2000/svg"><path d="M50.548 7.776C46.118 2.989 39.831 0 32.858 0 21.403 0 11.801 8.068 9.238 18.923L12.511 18a.294.294 0 01.351.17.303.303 0 01-.115.378c-2.61 1.644-5.276 3.606-7.524 5.552-8.31 7.345-6.907 14.805 5.66 9.724 8.058-3.08 5.113-5.828 4.069-7.039a.454.454 0 01-.112-.341.453.453 0 01.16-.32c.723-.62 2.515.013 3.506.262 1.456.365 2.91.769 4.355 1.177.137.038.27.015.386-.069l7.94-5.722a.451.451 0 00.192-.348.454.454 0 00-.146-.372c-1.164-1.098-4.47-3.95-5.066-4.467-.296-.257-1.303-1.112-2.371-2.038-1.081-.937-2.224-1.946-2.756-2.478a.456.456 0 01-.135-.373.453.453 0 01.197-.342c1.484-1.034 4.754.803 5.959 1.383.26.125.52.252.78.38 1.016.5 2.034 1.02 3.056 1.547a.44.44 0 00.435-.012l.745-.437a.751.751 0 011.033.281c.139.245.13.537.001.767a.458.458 0 00-.04.364.449.449 0 00.231.28c.879.453 1.759.901 2.64 1.337.277.137.784.474 1.151.57a.438.438 0 00.405-.09c2.271-1.89 6.753-4.715 9.684-5.16 1.628-.246 3.276-.076 3.776.924a.445.445 0 00.024.044c.602.94-.077 2.477-1.102 3.789-1.844 2.36-6.489 4.896-9.233 5.953a.45.45 0 00-.28.312c-.1.372-.067.987-.089 1.3-.07.994-.129 1.994-.183 2.994a.455.455 0 00.123.344.44.44 0 00.33.147c.26.002.513.14.652.384a.78.78 0 01-.276 1.051l-.745.438a.454.454 0 00-.228.377 166.365 166.365 0 01-.277 4.344c-.11 1.352-.18 5.152-1.803 5.941a.436.436 0 01-.39.002.45.45 0 01-.25-.305c-.372-1.462-1.138-5.992-1.279-6.775-.141-.784-.916-5.124-1.27-6.698a.45.45 0 00-.243-.314.436.436 0 00-.392-.005l-8.842 4.135a.45.45 0 00-.251.306c-.376 1.478-.76 2.96-1.176 4.426-.285 1.003-.463 3.222-1.363 3.533-.232.08-.485-.074-.574-.307-2.527-6.562-8.185.988-6.194 3.194.8.885 1.608 1.771 2.424 2.66 4.845 5.274 9.922 10.59 14.433 15.808a.46.46 0 00.353.171c.142 0 .26-.061.354-.169C40.157 52.61 52.94 41.3 56.317 30.061c.941-3.13 1.242-7.31.35-10.479-.311-1.105-6.289 2.165-5.98 1.45.362-.839 11.923-5.856 11.707-11.378-.118-3.002-4.595-4.372-11.846-1.878z" fill="#FF715B"/><path fill-rule="evenodd" clip-rule="evenodd" d="M169.71 14.948l.095.04a2.39 2.39 0 011.242 1.277 2.33 2.33 0 01-.006 1.778 587.663 587.663 0 00-1.91 5.035c-2.589 6.883-5.985 15.913-8.435 20.396a2.4 2.4 0 01-.857 1.069 2.285 2.285 0 01-1.293.402 2.36 2.36 0 01-1.315-.397 2.392 2.392 0 01-.871-1.074c-2.046-3.744-3.803-8.605-5.559-13.466-1.528-4.227-3.055-8.454-4.774-11.949a2.42 2.42 0 01.016-1.795 2.395 2.395 0 011.238-1.287l.008-.002a2.275 2.275 0 011.786-.01 2.432 2.432 0 011.291 1.28l8.18 20.1c.89-2.185 1.821-4.403 2.757-6.632 1.894-4.51 3.809-9.071 5.451-13.523a2.34 2.34 0 011.23-1.215 2.223 2.223 0 011.726-.027zm29.823 25.132h-14.924v-7.874h12.828c.651 0 1.235-.264 1.659-.691a2.39 2.39 0 00.68-1.688 2.4 2.4 0 00-.689-1.682 2.307 2.307 0 00-1.651-.695h-12.828v-7.764h14.562a2.31 2.31 0 001.66-.69 2.394 2.394 0 00.679-1.688c0-.663-.258-1.258-.681-1.687a2.315 2.315 0 00-1.657-.691h-16.9c-.638 0-1.228.266-1.655.7a2.386 2.386 0 00-.684 1.678v25.15c0 .659.264 1.25.684 1.677.427.434 1.017.7 1.655.7h17.262c.652 0 1.237-.263 1.657-.693.423-.43.682-1.023.682-1.685 0-.662-.258-1.256-.68-1.687a2.319 2.319 0 00-1.659-.69zm30.787.728a2.31 2.31 0 00-1.658-.69h-13.407v-22.81a2.4 2.4 0 00-.679-1.686 2.322 2.322 0 00-3.313.01 2.383 2.383 0 00-.685 1.677v25.186c0 .658.264 1.248.687 1.678.427.434 1.017.7 1.652.7h15.745c.652 0 1.238-.263 1.658-.69.422-.43.68-1.023.68-1.688 0-.664-.258-1.26-.68-1.687zm-125.122-.29a2.373 2.373 0 00-1.665-.474 1.114 1.114 0 01-.492-.14c-.313-.163-.716-.502-1.123-1.197a20.264 20.264 0 00-1.899-2.838 19.052 19.052 0 00-1.613-1.779l.313-.128c.377-.164.738-.347 1.08-.54l.005-.002c1.44-.84 2.547-1.976 3.294-3.366.743-1.38 1.127-3 1.127-4.815 0-.813-.057-1.596-.179-2.342a9.89 9.89 0 00-.581-2.113 9.355 9.355 0 00-.837-1.688 8.196 8.196 0 00-1.158-1.436 8.856 8.856 0 00-1.956-1.485 9.504 9.504 0 00-2.337-.932 9.18 9.18 0 00-2.26-.312H84.194c-.653 0-1.238.263-1.658.692a2.386 2.386 0 00-.681 1.685v25.187c0 .648.262 1.248.688 1.682a2.31 2.31 0 001.65.696c.648 0 1.229-.269 1.651-.698a2.399 2.399 0 00.689-1.68V19.687h8.387c.062 0 .59.014 1.276.209a5.13 5.13 0 011.17.489c.319.194.597.414.838.661.244.248.452.525.626.828.241.424.42.915.54 1.469.122.566.181 1.199.181 1.895 0 .997-.16 1.817-.499 2.478-.33.647-.838 1.162-1.54 1.569-.65.372-1.448.654-2.39.846-.958.194-2.061.292-3.308.292-.608 0-1.172.23-1.593.616a2.304 2.304 0 00-.743 1.535c-.066.61.101 1.19.433 1.646.335.46.838.794 1.442.911l.053.012h.046c.021 0 .3.091.835.35.326.158.717.374 1.148.662l.004.002a12.34 12.34 0 012.403 2.069c.75.827 1.433 1.781 2.048 2.85.599 1.06 1.276 1.806 1.934 2.338a6.644 6.644 0 001.845 1.057l.022.007a6.34 6.34 0 001.243.277 4.793 4.793 0 001.199 0 2.318 2.318 0 001.528-.943 2.423 2.423 0 00.438-1.762 2.334 2.334 0 00-.9-1.531zm25.079-25.223c.366.232.671.568.86.975 1.352 2.81 2.697 5.627 4.043 8.446 2.668 5.59 5.339 11.183 8.066 16.727.268.568.288 1.2.098 1.76a2.336 2.336 0 01-1.157 1.34l-.05.026a2.257 2.257 0 01-1.77.123 2.344 2.344 0 01-1.323-1.15 253.25 253.25 0 01-1.814-3.794l-.002-.003c-.304-.647-.609-1.293-.916-1.936a11.297 11.297 0 00-2.547-.382 13.423 13.423 0 00-2.977.24c-.962.176-1.945.446-2.95.809-1.003.362-2.027.82-3.068 1.377a31.423 31.423 0 00-3.227 2.008c-1.801 1.274-2.904 2.315-2.927 2.339a2.268 2.268 0 01-.737.493c-.282.117-.582.18-.868.18-.238 0-.494-.04-.747-.125a2.378 2.378 0 01-1.533-1.7 2.376 2.376 0 01.178-1.603l12.025-25.196c.208-.4.512-.732.874-.96a2.289 2.289 0 012.469.006zm-.363 17.708a20.54 20.54 0 012.451-.3 15.79 15.79 0 011.458-.021l-4.789-9.954-6.066 12.744a27.04 27.04 0 013.244-1.44c1.249-.457 2.488-.8 3.698-1.027l.004-.002z" fill="#2C2C2C"/></svg>