<svg width="630" height="129" viewBox="0 0 630 129" fill="none" xmlns="http://www.w3.org/2000/svg">
<path d="M630 142.5L0 136.288V46.4615L15.6522 0.3125L42.0652 75.7484V10.0748L76.3043 68.6486L96.8478 10.0748L107.609 68.6486L156.522 0.3125L144.783 68.6486L178.043 16.2872L170.217 75.7484L211.304 16.2872L198.587 84.6232L233.804 16.2872L225.978 68.6486L267.75 22.3416L292.5 68.6486L334.688 22.3416L340.435 75.7484L376.031 10.0748V48.9808L402.5 0.3125L409.5 84.6232L437.283 40.3653L455.766 84.6232L480.375 37.5867L503.804 91.7231L518.766 48.3759L559.565 114.798L597.717 0.3125L586.957 128.997L608.478 37.5867L630 128.997V142.5Z" fill="#CEF3B5"/>
<path d="M0 153.438L630 148.563V78.0842L614.348 41.875L587.935 101.063V49.5346L553.696 95.4925L533.152 49.5346L522.391 95.4925L473.478 41.875L485.217 95.4925L451.957 54.409L459.783 101.063L418.696 54.409L431.413 108.026L396.196 54.409L404.022 95.4925L362.25 59.1593L337.5 95.4925L315 71.1209L289.565 101.063L260.859 73.3011L253.969 103.941L226.406 59.1593L220.5 108.026L192.717 73.3011L174.234 108.026L149.625 71.1209L126.196 113.597L111.234 79.5863L70.4348 131.702L32.2826 41.875L43.0435 142.843L21.5217 71.1209L0 142.843V153.438Z" fill="#9BDE6F"/>
</svg>
