<svg width="630" height="130" viewBox="0 0 630 130" fill="none" xmlns="http://www.w3.org/2000/svg">
<path d="M630 142.375L0 136.163V46.3365L15.6522 0.1875L42.0652 75.6234V9.94979L76.3043 68.5236L96.8478 9.94979L107.609 68.5236L156.522 0.1875L144.783 68.5236L178.043 16.1622L170.217 75.6234L211.304 16.1622L198.587 84.4982L233.804 16.1622L225.978 68.5236L267.75 22.2166L292.5 68.5236L334.688 22.2166L340.435 75.6234L376.031 9.94979V48.8558L402.5 0.1875L409.5 84.4982L437.283 40.2403L455.766 84.4982L480.375 37.4617L503.804 91.5981L518.766 48.2509L559.565 114.673L597.717 0.1875L586.957 128.872L608.478 37.4617L630 128.872V142.375Z" fill="#9B67CA"/>
<path d="M0 153.312L630 148.438V77.9592L614.348 41.75L587.935 100.938V49.4096L553.696 95.3675L533.152 49.4096L522.391 95.3675L473.478 41.75L485.217 95.3675L451.957 54.284L459.783 100.938L418.696 54.284L431.413 107.901L396.196 54.284L404.022 95.3675L362.25 59.0343L337.5 95.3675L315 70.9959L289.565 100.938L260.859 73.1761L253.969 103.816L226.406 59.0343L220.5 107.901L192.717 73.1761L174.234 107.901L149.625 70.9959L126.196 113.472L111.234 79.4613L70.4348 131.577L32.2826 41.75L43.0435 142.718L21.5217 70.9959L0 142.718V153.312Z" fill="#784C9F"/>
</svg>
