<svg width="630" height="99" viewBox="0 0 630 99" fill="none" xmlns="http://www.w3.org/2000/svg">
<path d="M630 112.5L0 107.626V37.1467L15.6522 0.9375L42.0652 60.1257V8.59715L76.3043 54.555L96.8478 8.59715L107.609 54.555L156.522 0.9375L144.783 54.555L178.043 13.4715L170.217 60.1257L211.304 13.4715L198.587 67.089L233.804 13.4715L225.978 54.555L267.75 18.2218L292.5 54.555L334.688 18.2218L340.435 60.1257L376.031 13.4715V63.004L403.594 18.2218L409.5 67.089L437.283 32.3636L455.766 67.089L480.375 30.1834L503.804 72.6596L518.766 38.6488L559.565 90.7643L597.717 0.9375L586.957 101.906L608.478 30.1834L630 101.906V112.5Z" fill="#8CE1FF"/>
</svg>
