<svg width="630" height="99" viewBox="0 0 630 99" fill="none" xmlns="http://www.w3.org/2000/svg">
<path d="M630 112.188L0 107.313V36.8342L15.6522 0.625L42.0652 59.8132V8.28465L76.3043 54.2425L96.8478 8.28465L107.609 54.2425L156.522 0.625L144.783 54.2425L178.043 13.159L170.217 59.8132L211.304 13.159L198.587 66.7765L233.804 13.159L225.978 54.2425L267.75 17.9093L292.5 54.2425L334.688 17.9093L340.435 59.8132L376.031 13.159V62.6915L403.594 17.9093L409.5 66.7765L437.283 32.0511L455.766 66.7765L480.375 29.8709L503.804 72.3471L518.766 38.3363L559.565 90.4518L597.717 0.625L586.957 101.593L608.478 29.8709L630 101.593V112.188Z" fill="#E05DA9"/>
<path d="M0 123.125L630 118.251V47.7717L614.348 11.5625L587.935 70.7507V19.2221L553.696 65.18L533.152 19.2221L522.391 65.18L473.478 11.5625L485.217 65.18L451.957 24.0965L459.783 70.7507L418.696 24.0965L431.413 77.714L396.196 24.0965L404.022 65.18L362.25 28.8468L337.5 65.18L315 40.8084L289.565 70.7507L260.859 42.9886L253.969 73.629L226.406 28.8468L220.5 77.714L192.717 42.9886L174.234 77.714L149.625 40.8084L126.196 83.2846L111.234 49.2738L70.4348 101.389L32.2826 11.5625L43.0435 112.531L21.5217 40.8084L0 112.531V123.125Z" fill="#C84992"/>
</svg>
