<svg width="1440" height="843" viewBox="0 0 1440 843" fill="none" xmlns="http://www.w3.org/2000/svg">
<path opacity="0.7" d="M1440 252.501L0 242.182V92.9733L35.7764 16.3158L96.1491 141.621V32.5318L174.41 129.828L221.366 32.5318L245.963 129.828L357.764 16.3158L330.932 129.828L406.957 42.8511L389.068 141.621L482.981 42.8511L453.913 156.363L534.41 42.8511L516.522 129.828L612 52.9079L668.571 129.828L720 78.2314L778.137 141.621L843.75 82.8469L859.5 147.715L922.5 52.9079L936 156.363L999.503 82.8469L1041.75 156.363L1098 78.2314L1151.55 168.157L1185.75 96.1532L1279.01 153.153L1366.21 16.3158L1341.61 164.042L1390.81 78.2314L1440 230.072V252.501Z" fill="#D1E49B"/>
<g filter="url(#filter0_f)">
<path d="M0 841.863H1440V93.0012L1404.22 1L1343.85 107.819V20.4618L1265.59 93.6645L1218.63 20.4618L1194.04 93.6645L1082.24 1L1109.07 137.233L1033.04 32.8466L1050.93 151.387L957.019 32.8466L986.087 169.079L905.59 32.8466L923.478 137.233L828 44.9164L771.429 137.233L720 75.3087L661.863 151.387L596.25 80.848L580.5 158.7L517.5 44.9164L504 169.079L440.497 80.848L398.25 169.079L342 75.3087L288.447 183.233L254.25 96.8176L160.994 156.62L73.7888 1L94.5 141.98L49.1925 75.3087L0 146.926V841.863Z" fill="url(#paint0_linear)"/>
</g>
<defs>
<filter id="filter0_f" x="-1" y="0" width="1442" height="842.863" filterUnits="userSpaceOnUse" color-interpolation-filters="sRGB">
<feFlood flood-opacity="0" result="BackgroundImageFix"/>
<feBlend mode="normal" in="SourceGraphic" in2="BackgroundImageFix" result="shape"/>
<feGaussianBlur stdDeviation="0.5" result="effect1_foregroundBlur"/>
</filter>
<linearGradient id="paint0_linear" x1="779" y1="210.5" x2="780.624" y2="899.98" gradientUnits="userSpaceOnUse">
<stop stop-color="#73BE42"/>
<stop offset="1" stop-color="white" stop-opacity="0"/>
</linearGradient>
</defs>
</svg>
