<svg width="154" height="42" viewBox="0 0 154 42" fill="none" xmlns="http://www.w3.org/2000/svg">
<g clip-path="url(#clip0)">
<path fill-rule="evenodd" clip-rule="evenodd" d="M13.2852 2.03756V12.6441L21.0986 20.4567L28.9121 12.6441V2.03756C28.9121 0.99115 28.063 0.142883 27.0173 0.142883H15.1798C14.1334 0.142883 13.2852 0.99115 13.2852 2.03756Z" fill="#50E3C2"/>
<mask id="mask0" mask-type="alpha" maskUnits="userSpaceOnUse" x="0" y="0" width="154" height="42">
<path fill-rule="evenodd" clip-rule="evenodd" d="M0.78418 0.142944H153.746V41.0586H0.78418V0.142944Z" fill="white"/>
</mask>
<g mask="url(#mask0)">
<path fill-rule="evenodd" clip-rule="evenodd" d="M28.9113 12.6442L21.0986 20.4569L28.9113 28.2703H39.5178C40.5642 28.2703 41.4124 27.422 41.4124 26.3764V14.5381C41.4124 13.4917 40.5642 12.6442 39.5178 12.6442H28.9113Z" fill="#33C6A5"/>
<path fill-rule="evenodd" clip-rule="evenodd" d="M13.2846 12.6442H2.67806C1.63165 12.6442 0.78418 13.4917 0.78418 14.5381V26.3764C0.78418 27.422 1.63165 28.2703 2.67806 28.2703H13.2846L21.098 20.4569L13.2846 12.6442Z" fill="#009B77"/>
<path fill-rule="evenodd" clip-rule="evenodd" d="M28.9121 28.27L21.0994 20.4573L13.2852 28.27V38.8773C13.2852 39.9237 14.1342 40.7711 15.1798 40.7711H27.0173C28.0638 40.7711 28.9121 39.9237 28.9121 38.8773V28.27Z" fill="#8168F0"/>
<path d="M76.1085 12.111C78.5061 12.111 79.9936 13.5576 79.9936 15.9226C79.9936 18.2876 78.5143 19.7179 76.1085 19.7179H73.7926V23.05C73.7926 23.2288 73.6541 23.3832 73.459 23.3832H71.5492C71.2974 23.3832 71.208 23.1557 71.208 23.0419V12.4524C71.208 12.2248 71.4113 12.111 71.5492 12.111H76.1085ZM75.8403 17.3529C76.7751 17.3529 77.3196 16.8328 77.3196 15.9226C77.3196 15.0124 76.7832 14.4598 75.8403 14.4598H73.7926V17.3529H75.8403Z" fill="#18181E"/>
<path d="M57.2378 12.1111C57.384 12.1111 57.5629 12.225 57.5629 12.4525V14.1104C57.5629 14.2242 57.4653 14.3623 57.2215 14.3623H52.4672V16.4104H56.425C56.5795 16.4104 56.7664 16.5241 56.7664 16.7517V18.4096C56.7664 18.6616 56.5713 18.7591 56.425 18.7591H52.4591V21.0102H57.3759C57.571 21.0102 57.7173 21.1484 57.7173 21.3434V23.042C57.7173 23.2695 57.5222 23.3752 57.384 23.3752H50.2242C50.0616 23.3752 49.8828 23.2452 49.8828 23.0339V12.4444C49.8828 12.2818 50.0047 12.103 50.216 12.103H57.2378V12.1111Z" fill="#18181E"/>
<path d="M99.1891 12.1111C99.3351 12.1111 99.5139 12.225 99.5139 12.4525V14.021C99.5139 14.1348 99.417 14.3704 99.1727 14.3704H94.4183V16.4185H98.3765C98.5307 16.4185 98.7176 16.5322 98.7176 16.7598V18.4096C98.7176 18.6616 98.5225 18.7591 98.3765 18.7591H94.4102V21.0102H99.3276C99.5221 21.0102 99.6688 21.1484 99.6688 21.3434V23.042C99.6688 23.2695 99.4736 23.3752 99.3351 23.3752H92.1674C92.0049 23.3752 91.8262 23.2452 91.8262 23.0339V12.4444C91.8262 12.2818 91.9477 12.103 92.1592 12.103H99.1891V12.1111Z" fill="#18181E"/>
<path d="M89.8357 12.111C90.0466 12.111 90.1687 12.2899 90.1687 12.4443V14.0209C90.1687 14.1997 90.0384 14.3622 89.8275 14.3622H87.0396V23.0419C87.0396 23.2369 86.8854 23.3832 86.7066 23.3832H84.805C84.5689 23.3832 84.4632 23.1719 84.4632 23.0419V14.3703H81.6595C81.5053 14.3703 81.3184 14.2485 81.3184 14.029V12.4443C81.3184 12.2492 81.4808 12.111 81.6595 12.111H89.8357Z" fill="#18181E"/>
<path d="M110.462 22.9038C110.543 23.0907 110.429 23.3752 110.153 23.3752H107.967C107.942 23.3752 107.772 23.3914 107.658 23.1964L105.96 19.7749C105.594 19.0272 105.309 18.824 104.424 18.824H104.009V23.0419C104.009 23.2533 103.838 23.3833 103.676 23.3833H101.766C101.62 23.3833 101.425 23.2696 101.425 23.0419V12.4443C101.425 12.2168 101.628 12.1111 101.758 12.1111H103.676C103.83 12.1111 104.017 12.2249 104.017 12.4525V16.5078H104.269H104.415L107.528 12.2412C107.707 12.0624 107.715 12.1111 108.495 12.1111H109.982C110.283 12.1111 110.397 12.4362 110.267 12.6312L106.902 17.158C107.439 17.4587 107.918 18.0113 108.349 18.824L110.462 22.9038Z" fill="#18181E"/>
<path d="M133.112 12.1111C135.412 12.1111 136.859 13.4765 136.859 15.7602C136.859 17.345 136.249 18.434 135.054 18.9947C135.038 19.0029 135.063 18.9947 135.046 18.9947C135.079 19.0435 136.981 22.6925 136.981 22.6925C137.216 23.0745 137.11 23.3752 136.647 23.3752H134.558C134.348 23.3752 134.266 23.2045 134.25 23.1802L132.868 20.3113C132.503 19.5637 132.202 19.3767 131.3 19.3767H130.649V23.042C130.649 23.1883 130.536 23.3834 130.316 23.3834H128.407C128.203 23.3834 128.065 23.2126 128.065 23.0582V12.4606C128.065 12.2087 128.252 12.103 128.415 12.103H133.112V12.1111ZM134.177 15.7602C134.177 15.3457 134.063 14.9394 133.843 14.7037C133.608 14.4843 133.291 14.3704 132.86 14.3704H130.658V17.0686H132.86C133.291 17.0686 133.608 16.9549 133.843 16.7192C134.063 16.4916 134.177 16.1746 134.177 15.7602Z" fill="#18181E"/>
<path d="M141.183 19.4741C141.183 20.6363 141.881 21.2702 143.198 21.2702C144.547 21.2702 145.214 20.6688 145.214 19.4741V12.4443C145.214 12.2248 145.401 12.111 145.563 12.111H147.448C147.684 12.111 147.798 12.298 147.798 12.4443V19.4091C147.798 22.0097 146.164 23.6189 143.198 23.6189C140.264 23.6189 138.614 22.0178 138.614 19.4091V12.4443C138.614 12.2899 138.728 12.111 138.955 12.111H140.841C140.971 12.111 141.183 12.2004 141.183 12.4443V19.4741Z" fill="#18181E"/>
<path d="M124.757 23.3834C125.498 23.3834 126.098 22.783 126.098 22.0424C126.098 21.3019 125.498 20.7015 124.757 20.7015C124.017 20.7015 123.416 21.3019 123.416 22.0424C123.416 22.783 124.017 23.3834 124.757 23.3834Z" fill="#18181E"/>
<path d="M69.6645 22.7494C69.8269 23.1801 69.6808 23.3833 69.2339 23.3833H67.2504C67.0232 23.3833 66.9338 23.1964 66.9174 23.1476L66.4623 21.3028H62.7077L62.2282 23.1395C62.1957 23.2289 62.1063 23.3833 61.8869 23.3833H59.847C59.6356 23.3833 59.4325 23.1801 59.53 22.9119L62.8377 12.3468C62.8784 12.2574 62.9759 12.0949 63.1709 12.1111H65.9178C65.9827 12.1111 66.1614 12.103 66.259 12.3549L69.6645 22.7494ZM64.5689 14.3704L63.2766 19.1898H65.8933L64.5689 14.3704Z" fill="#18181E"/>
<path d="M121.815 22.7494C121.977 23.1801 121.831 23.3833 121.384 23.3833H119.402C119.174 23.3833 119.084 23.1964 119.068 23.1476L118.613 21.3028H114.858L114.379 23.1395C114.346 23.2289 114.257 23.3833 114.037 23.3833H111.998C111.786 23.3833 111.583 23.1801 111.68 22.9119L114.988 12.3468C115.029 12.2574 115.126 12.0949 115.321 12.1111H118.068C118.133 12.1111 118.312 12.103 118.409 12.3549L121.815 22.7494ZM116.719 14.3704L115.427 19.1898H118.044L116.719 14.3704Z" fill="#18181E"/>
<path d="M50.5127 32.3702C50.5127 33.5872 51.2753 34.3159 52.6526 34.3159C54.0222 34.3159 54.7849 33.5872 54.7849 32.3702V30.5407C54.7849 29.3236 54.0222 28.5949 52.6526 28.5949C51.2753 28.5949 50.5127 29.3236 50.5127 30.5407V32.3702ZM54.2246 32.3702C54.2246 33.2772 53.6721 33.7965 52.6526 33.7965C51.6333 33.7965 51.073 33.2772 51.073 32.3702V30.5407C51.073 29.6337 51.6333 29.1143 52.6526 29.1143C53.6721 29.1143 54.2246 29.6337 54.2246 30.5407V32.3702Z" fill="#18181E"/>
<path d="M57.1318 32.3702C57.1318 33.5872 57.9022 34.3159 59.264 34.3159C60.4391 34.3159 61.0694 33.8585 61.3495 32.9593C61.3806 32.8663 61.3495 32.8042 61.2561 32.7655L61.0149 32.6725C60.9216 32.6492 60.8515 32.6802 60.8126 32.7733C60.5947 33.4787 60.159 33.7965 59.264 33.7965C58.2602 33.7965 57.6999 33.2694 57.6999 32.3779V30.5329C57.6999 29.6337 58.2446 29.1143 59.264 29.1143C60.1433 29.1143 60.5791 29.4244 60.7971 30.1143C60.836 30.1996 60.8982 30.2306 60.9994 30.2073L61.2406 30.1221C61.3574 30.0833 61.3729 30.0368 61.334 29.9205C61.0538 29.029 60.4235 28.5949 59.264 28.5949C57.8867 28.5949 57.1318 29.3236 57.1318 30.5407V32.3702Z" fill="#18181E"/>
<path d="M63.3509 28.7034C63.2342 28.7034 63.1953 28.7422 63.1953 28.8585V29.0755C63.1953 29.1918 63.2342 29.2305 63.3509 29.2305H64.9229V34.0524C64.9229 34.1686 64.9619 34.2074 65.0784 34.2074H65.3352C65.4523 34.2074 65.4907 34.1686 65.4907 34.0524V29.2305H67.0631C67.1796 29.2305 67.2186 29.1918 67.2186 29.0755V28.8585C67.2186 28.7422 67.1796 28.7034 67.0631 28.7034H63.3509Z" fill="#18181E"/>
<path d="M71.0269 28.8042C70.9954 28.7189 70.9255 28.6802 70.8242 28.6802H70.5907C70.4899 28.6802 70.4276 28.7267 70.3961 28.8119L68.3107 34.0601C68.2723 34.1609 68.3032 34.2074 68.4121 34.2074H68.6223C68.8092 34.2074 68.8634 34.1841 68.8949 34.0678L69.4784 32.5949H71.9138L72.4973 34.0678C72.5206 34.1609 72.6144 34.2074 72.7774 34.2074H73.0034C73.1199 34.2074 73.1513 34.1609 73.1123 34.0601L71.0269 28.8042ZM71.7583 32.1298H69.6414L70.5831 29.75C70.6454 29.5561 70.6763 29.3778 70.6763 29.215H70.7153C70.7153 29.3623 70.7543 29.5406 70.8242 29.75L71.7583 32.1298Z" fill="#18181E"/>
<path d="M75.3625 28.7034C75.2461 28.7034 75.207 28.7422 75.207 28.8585V34.0524C75.207 34.1686 75.2461 34.2074 75.3625 34.2074H77.6425C78.6307 34.2074 79.2533 33.6647 79.2533 32.7268C79.2533 31.9825 78.9423 31.5329 78.3273 31.3701V31.3546C78.8177 31.1453 79.0588 30.7267 79.0588 30.1143C79.0588 29.2073 78.5143 28.7034 77.5569 28.7034H75.3625ZM78.4828 30.1841C78.4828 30.8275 78.1328 31.1531 77.487 31.1531H75.7673V29.2305H77.487C78.1486 29.2305 78.4828 29.5484 78.4828 30.1841ZM78.3972 33.4244C78.2184 33.595 77.954 33.6802 77.6192 33.6802H75.7673V31.657H77.6192C77.954 31.657 78.2184 31.7423 78.3972 31.9128C78.5766 32.0911 78.6622 32.3391 78.6622 32.6725C78.6622 33.0058 78.5766 33.2539 78.3972 33.4244Z" fill="#18181E"/>
<path d="M83.8235 28.8042C83.7927 28.7189 83.7222 28.6802 83.6215 28.6802H83.3879C83.2866 28.6802 83.2243 28.7267 83.1934 28.8119L81.108 34.0601C81.0689 34.1609 81.0998 34.2074 81.2087 34.2074H81.4189C81.6059 34.2074 81.66 34.1841 81.6915 34.0678L82.275 32.5949H84.7104L85.294 34.0678C85.3179 34.1609 85.411 34.2074 85.5747 34.2074H85.8001C85.9165 34.2074 85.948 34.1609 85.909 34.0601L83.8235 28.8042ZM84.555 32.1298H82.4387L83.3797 29.75C83.4421 29.5561 83.4735 29.3778 83.4735 29.215H83.5126C83.5126 29.3623 83.551 29.5406 83.6215 29.75L84.555 32.1298Z" fill="#18181E"/>
<path d="M91.3968 27.4243C91.4125 27.3701 91.3892 27.3236 91.3269 27.2925L91.1009 27.215C91.031 27.1996 90.992 27.2228 90.9687 27.277C90.8365 27.6724 90.5564 27.874 90.1208 27.874C89.6846 27.874 89.4045 27.6724 89.2805 27.277C89.2566 27.2228 89.2024 27.1996 89.1244 27.2228L88.9223 27.2925C88.8524 27.3158 88.8291 27.3546 88.8524 27.4243C89.0388 27.9825 89.4593 28.2615 90.1208 28.2615C90.7818 28.2615 91.2098 27.9825 91.3968 27.4243ZM91.7782 28.7034C91.7084 28.7034 91.6536 28.7267 91.6146 28.781L89.3736 32.029C89.0079 32.564 88.7196 33.0523 88.4943 33.4865H88.471C88.5333 32.9515 88.5641 32.3934 88.5641 31.8197V28.8585C88.5641 28.7422 88.5333 28.7034 88.4162 28.7034H88.1594C88.0429 28.7034 88.0039 28.7422 88.0039 28.8585V34.0524C88.0039 34.1686 88.0429 34.2074 88.1594 34.2074H88.4162C88.4867 34.2074 88.5409 34.1764 88.5799 34.1221L90.8756 30.7965C91.2413 30.2383 91.5214 29.781 91.7084 29.4244H91.7235C91.6536 29.9748 91.6227 30.5019 91.6227 31.0058V34.0524C91.6227 34.1686 91.6611 34.2074 91.7782 34.2074H92.0351C92.1515 34.2074 92.1905 34.1686 92.1905 34.0524V28.8585C92.1905 28.7422 92.1515 28.7034 92.0351 28.7034H91.7782Z" fill="#18181E"/>
<path d="M94.5158 28.7034C94.3994 28.7034 94.3604 28.7422 94.3604 28.8585V29.0755C94.3604 29.1918 94.3994 29.2305 94.5158 29.2305H96.0882V34.0524C96.0882 34.1686 96.1266 34.2074 96.2437 34.2074H96.5005C96.617 34.2074 96.656 34.1686 96.656 34.0524V29.2305H98.2278C98.3449 29.2305 98.3833 29.1918 98.3833 29.0755V28.8585C98.3833 28.7422 98.3449 28.7034 98.2278 28.7034H94.5158Z" fill="#18181E"/>
<path d="M100.705 28.7034C100.589 28.7034 100.55 28.7422 100.55 28.8585V34.0524C100.55 34.1686 100.589 34.2074 100.705 34.2074H103.958C104.059 34.2074 104.106 34.1531 104.106 34.0524V33.8353C104.106 33.7345 104.059 33.6802 103.958 33.6802H101.11V31.6802H103.507C103.608 31.6802 103.655 31.6259 103.655 31.5252V31.3081C103.655 31.2073 103.608 31.1531 103.507 31.1531H101.11V29.2305H103.857C103.958 29.2305 104.005 29.1763 104.005 29.0755V28.8585C104.005 28.7577 103.958 28.7034 103.857 28.7034H100.705Z" fill="#18181E"/>
<path d="M106.261 32.3702C106.261 33.5872 107.031 34.3159 108.393 34.3159C109.568 34.3159 110.199 33.8585 110.479 32.9593C110.51 32.8663 110.479 32.8042 110.385 32.7655L110.144 32.6725C110.051 32.6492 109.981 32.6802 109.942 32.7733C109.724 33.4787 109.288 33.7965 108.393 33.7965C107.389 33.7965 106.829 33.2694 106.829 32.3779V30.5329C106.829 29.6337 107.374 29.1143 108.393 29.1143C109.273 29.1143 109.708 29.4244 109.926 30.1143C109.965 30.1996 110.027 30.2306 110.129 30.2073L110.37 30.1221C110.486 30.0833 110.502 30.0368 110.463 29.9205C110.183 29.029 109.553 28.5949 108.393 28.5949C107.016 28.5949 106.261 29.3236 106.261 30.5407V32.3702Z" fill="#18181E"/>
<path d="M115.063 34.2074C116.153 34.2074 116.822 33.564 116.822 32.4864C116.822 31.4089 116.153 30.7733 115.063 30.7733H113.39V28.8585C113.39 28.7422 113.359 28.7034 113.242 28.7034H112.986C112.869 28.7034 112.83 28.7422 112.83 28.8585V34.0524C112.83 34.1686 112.869 34.2074 112.986 34.2074H115.063ZM115.017 31.2926C115.772 31.2926 116.239 31.7423 116.239 32.4864C116.239 33.2307 115.772 33.6802 115.017 33.6802H113.39V31.2926H115.017Z" fill="#18181E"/>
<path d="M123.331 28.7034C123.215 28.7034 123.176 28.7422 123.176 28.8585V30.4321C123.176 31.6337 123.082 32.4709 122.903 32.9206C122.717 33.3701 122.584 33.533 122.367 33.6802H122.094C121.978 33.6802 121.938 33.719 121.938 33.8353V35.2384C121.938 35.3547 121.978 35.3935 122.094 35.3935H122.343C122.445 35.3935 122.491 35.3392 122.491 35.2384V34.2074H126.654V35.2384C126.654 35.3547 126.685 35.3935 126.802 35.3935H127.051C127.168 35.3935 127.207 35.3547 127.207 35.2384V33.8353C127.207 33.719 127.168 33.6802 127.051 33.6802H126.561V28.8585C126.561 28.7422 126.522 28.7034 126.405 28.7034H123.331ZM125.993 29.2305V33.6802H123.051C123.253 33.4554 123.417 33.0988 123.542 32.626C123.658 32.1531 123.721 31.4244 123.721 30.4321V29.2305H125.993Z" fill="#18181E"/>
<path d="M129.249 32.3702C129.249 33.5872 130.012 34.3159 131.389 34.3159C132.758 34.3159 133.521 33.5872 133.521 32.3702V30.5407C133.521 29.3236 132.758 28.5949 131.389 28.5949C130.012 28.5949 129.249 29.3236 129.249 30.5407V32.3702ZM132.961 32.3702C132.961 33.2772 132.408 33.7965 131.389 33.7965C130.369 33.7965 129.809 33.2772 129.809 32.3702V30.5407C129.809 29.6337 130.369 29.1143 131.389 29.1143C132.408 29.1143 132.961 29.6337 132.961 30.5407V32.3702Z" fill="#18181E"/>
<path d="M140.669 28.7034C140.545 28.7034 140.514 28.7189 140.451 28.8352L138.537 32.2306L136.607 28.8274C136.56 28.7422 136.49 28.7034 136.389 28.7034H136.187C136.07 28.7034 136.031 28.7422 136.031 28.8585V34.0524C136.031 34.1686 136.07 34.2074 136.187 34.2074H136.405C136.522 34.2074 136.56 34.1686 136.56 34.0524V30.8973C136.56 30.4399 136.529 29.9825 136.474 29.5097H136.506C136.693 29.9825 136.879 30.3779 137.074 30.7035L138.272 32.8043C138.311 32.8818 138.374 32.9206 138.459 32.9206H138.615C138.7 32.9206 138.755 32.8818 138.793 32.8043L139.977 30.7267C140.21 30.3159 140.412 29.9128 140.575 29.5174H140.607C140.545 29.9593 140.514 30.4167 140.514 30.8895L140.506 34.0524C140.506 34.1686 140.545 34.2074 140.661 34.2074H140.895C141.012 34.2074 141.051 34.1686 141.051 34.0524V28.8585C141.051 28.7422 141.012 28.7034 140.895 28.7034H140.669Z" fill="#18181E"/>
<path d="M145.979 28.8042C145.948 28.7189 145.878 28.6802 145.777 28.6802H145.543C145.442 28.6802 145.38 28.7267 145.349 28.8119L143.263 34.0601C143.224 34.1609 143.256 34.2074 143.364 34.2074H143.575C143.761 34.2074 143.816 34.1841 143.847 34.0678L144.431 32.5949H146.866L147.45 34.0678C147.473 34.1609 147.567 34.2074 147.73 34.2074H147.956C148.072 34.2074 148.104 34.1609 148.065 34.0601L145.979 28.8042ZM146.711 32.1298H144.594L145.536 29.75C145.598 29.5561 145.629 29.3778 145.629 29.215H145.668C145.668 29.3623 145.707 29.5406 145.777 29.75L146.711 32.1298Z" fill="#18181E"/>
</g>
</g>
<defs>
<clipPath id="clip0">
<rect width="152.962" height="40.9158" fill="white" transform="translate(0.78418 0.142883)"/>
</clipPath>
</defs>
</svg>
