<svg width="249" height="386" viewBox="0 0 249 386" fill="none" xmlns="http://www.w3.org/2000/svg">
<rect x="104" y="201" width="11" height="185" fill="#5F2305"/>
<path fill-rule="evenodd" clip-rule="evenodd" d="M182.423 53.7842C182.423 59.1051 181.466 64.2455 179.685 69.0994C184.171 72.6413 188.041 76.6913 191.15 81.1342C223.796 84.587 249.001 107.146 249.001 134.46C249.001 156.616 232.418 175.643 208.732 183.882C205.426 211.09 177.024 232.348 142.476 232.348C121.181 232.348 102.221 224.271 90.0345 211.704C82.7389 213.923 74.8337 215.137 66.5775 215.137C29.8078 215.137 0 191.057 0 161.353C0 151.556 3.24212 142.371 8.90685 134.46C3.24212 126.55 0 117.365 0 107.568C0 82.6901 20.9091 61.757 49.3054 55.6118C49.2803 55.0051 49.2677 54.3959 49.2677 53.7842C49.2677 24.08 79.0754 0 115.845 0C152.615 0 182.423 24.08 182.423 53.7842Z" fill="#C4C4C4"/>
<path fill-rule="evenodd" clip-rule="evenodd" d="M182.423 53.7842C182.423 59.1051 181.466 64.2455 179.685 69.0994C184.171 72.6413 188.041 76.6913 191.15 81.1342C223.796 84.587 249.001 107.146 249.001 134.46C249.001 156.616 232.418 175.643 208.732 183.882C205.426 211.09 177.024 232.348 142.476 232.348C121.181 232.348 102.221 224.271 90.0345 211.704C82.7389 213.923 74.8337 215.137 66.5775 215.137C29.8078 215.137 0 191.057 0 161.353C0 151.556 3.24212 142.371 8.90685 134.46C3.24212 126.55 0 117.365 0 107.568C0 82.6901 20.9091 61.757 49.3054 55.6118C49.2803 55.0051 49.2677 54.3959 49.2677 53.7842C49.2677 24.08 79.0754 0 115.845 0C152.615 0 182.423 24.08 182.423 53.7842Z" fill="url(#paint0_linear)"/>
<defs>
<linearGradient id="paint0_linear" x1="80.5591" y1="237.682" x2="166.72" y2="-158.943" gradientUnits="userSpaceOnUse">
<stop stop-color="#8CBB06"/>
<stop offset="0.949051" stop-color="#FFF869"/>
</linearGradient>
</defs>
</svg>
