<svg width="138" height="233" viewBox="0 0 138 233" fill="none" xmlns="http://www.w3.org/2000/svg">
<rect x="62.6504" y="121.084" width="6.62649" height="111.445" fill="#5F2305"/>
<path fill-rule="evenodd" clip-rule="evenodd" d="M57 0C71.6321 0 84.1055 8.83521 88.8998 21.229C107.052 22.9752 121.483 34.5151 123.867 49.1228C132.428 55.0246 138 64.6403 138 75.5C138 85.8266 132.961 95.0283 125.106 100.981C125.65 103.108 125.935 105.311 125.935 107.568C125.935 125.462 107.979 139.968 85.8287 139.968C73.0006 139.968 61.5791 135.103 54.2376 127.532C49.8427 128.869 45.0805 129.6 40.1068 129.6C17.9564 129.6 0 115.094 0 97.2C0 91.2986 1.95308 85.7657 5.36556 81C1.95308 76.2344 0 70.7015 0 64.8001C0 51.8059 9.46895 40.5983 23.1367 35.4348C23.0462 34.4681 23 33.4892 23 32.5C23 14.5507 38.2223 0 57 0Z" fill="#C4C4C4"/>
<path fill-rule="evenodd" clip-rule="evenodd" d="M57 0C71.6321 0 84.1055 8.83521 88.8998 21.229C107.052 22.9752 121.483 34.5151 123.867 49.1228C132.428 55.0246 138 64.6403 138 75.5C138 85.8266 132.961 95.0283 125.106 100.981C125.65 103.108 125.935 105.311 125.935 107.568C125.935 125.462 107.979 139.968 85.8287 139.968C73.0006 139.968 61.5791 135.103 54.2376 127.532C49.8427 128.869 45.0805 129.6 40.1068 129.6C17.9564 129.6 0 115.094 0 97.2C0 91.2986 1.95308 85.7657 5.36556 81C1.95308 76.2344 0 70.7015 0 64.8001C0 51.8059 9.46895 40.5983 23.1367 35.4348C23.0462 34.4681 23 33.4892 23 32.5C23 14.5507 38.2223 0 57 0Z" fill="url(#paint0_linear)"/>
<defs>
<linearGradient id="paint0_linear" x1="48.5294" y1="143.181" x2="100.434" y2="-95.7486" gradientUnits="userSpaceOnUse">
<stop stop-color="#8CBB06"/>
<stop offset="0.949051" stop-color="#FFF869"/>
</linearGradient>
</defs>
</svg>
