<svg width="174" height="30" viewBox="0 0 174 30" fill="none" xmlns="http://www.w3.org/2000/svg">
<path d="M3.73594 13.3583H6.65759C7.14965 13.3583 7.58021 13.2614 7.88775 13.0353C8.22605 12.8416 8.37982 12.4864 8.37982 12.002C8.37982 11.4853 8.1953 11.0978 7.79549 10.8718C7.39569 10.6457 6.87286 10.5166 6.16552 10.5166C5.3044 10.5166 4.53555 10.678 3.85895 11.0009C3.21312 11.3239 2.65954 11.6791 2.19823 12.0989L0.352975 9.54781C0.998813 8.90197 1.85993 8.353 2.90557 7.86863C3.95122 7.38425 5.18138 7.1582 6.59608 7.1582C7.45719 7.1582 8.2568 7.25508 8.9949 7.48112C9.73301 7.67487 10.3481 7.9655 10.8709 8.353C11.3937 8.74051 11.7935 9.19259 12.1011 9.74156C12.3779 10.2905 12.5316 10.9041 12.5316 11.5822C12.5316 12.3249 12.3471 13.003 11.9781 13.6166C11.609 14.2301 11.0554 14.6822 10.3788 14.9728C11.1785 15.2312 11.7935 15.651 12.2548 16.2968C12.7162 16.9427 12.9314 17.6854 12.9314 18.5572C12.9314 19.3 12.7777 19.9458 12.4701 20.5271C12.1626 21.076 11.7013 21.5281 11.1477 21.9156C10.5941 22.2708 9.94829 22.5614 9.17943 22.7552C8.41057 22.9489 7.61097 23.0458 6.74985 23.0458C5.33516 23.0458 4.04348 22.8198 2.90557 22.3677C1.76767 21.9156 0.845042 21.3344 0.137695 20.6885L1.98295 18.0406C2.44426 18.4281 3.02859 18.8156 3.73594 19.1385C4.44328 19.4614 5.3044 19.6229 6.28854 19.6229C7.02664 19.6229 7.61097 19.4937 8.07228 19.2677C8.53359 19.0416 8.74887 18.6218 8.74887 18.0406C8.74887 17.4916 8.56435 17.1364 8.1953 16.9427C7.82624 16.7489 7.36493 16.652 6.81136 16.652H3.79745V13.3583H3.73594Z" fill="#0A215D"/>
<path d="M29.4465 7.64258V18.9125H31.2302V26.3396H27.4782V22.4646H18.0982V26.3396H14.3154V18.9125H15.9454C16.4067 18.2343 16.8065 17.5239 17.1448 16.7489C17.4524 15.9739 17.7291 15.1343 17.9137 14.1978C18.0982 13.2937 18.2827 12.2926 18.375 11.1947C18.498 10.0968 18.5903 8.93425 18.6825 7.64258H29.4465ZM25.3562 18.9125V11.1947H22.1885C22.0347 13.003 21.8195 14.4885 21.5119 15.6833C21.2044 16.8781 20.7738 17.976 20.251 18.9125H25.3562Z" fill="#0A215D"/>
<path d="M56.4179 10.5166C55.6798 10.5166 54.9109 10.678 54.2343 11.0009C53.5885 11.3239 53.0349 11.6791 52.5736 12.0989L50.7283 9.54781C51.3742 8.90197 52.2353 8.353 53.2809 7.86863C54.3266 7.38425 55.5568 7.1582 56.9714 7.1582C59.0935 7.1582 60.6619 7.77175 61.6768 8.99884C62.6917 10.2259 63.153 11.8728 63.153 13.9072V22.5292H59.1242L59.0012 21.1406C58.5092 21.7219 57.9248 22.1739 57.1867 22.4969C56.4486 22.8198 55.649 22.9812 54.7571 22.9812C54.2651 22.9812 53.7423 22.9167 53.1887 22.7552C52.6351 22.5937 52.143 22.3677 51.6817 22.0125C51.2204 21.6573 50.8206 21.1729 50.5131 20.5916C50.2055 20.0104 50.0518 19.2677 50.0518 18.3958C50.0518 17.5239 50.2055 16.7489 50.5438 16.0708C50.8821 15.3926 51.3127 14.8437 51.897 14.3916C52.4813 13.9395 53.1579 13.5843 53.9268 13.3583C54.6956 13.1322 55.5568 13.003 56.4794 13.003C56.9714 13.003 57.4635 13.003 57.9556 13.0353C58.4476 13.0676 58.7859 13.0999 58.9705 13.0999L59.0012 12.7447C59.0012 12.3572 58.9397 12.0343 58.7859 11.7759C58.6322 11.5176 58.4476 11.2593 58.2016 11.0978C57.9556 10.9041 57.6788 10.7749 57.3713 10.7103C57.1252 10.5489 56.7562 10.5166 56.4179 10.5166ZM59.0012 15.8447C58.8167 15.8124 58.6014 15.7801 58.3246 15.7479C58.0478 15.7156 57.7711 15.7156 57.4943 15.7156C56.2949 15.7156 55.4645 15.9093 54.9724 16.2645C54.4804 16.652 54.2343 17.1687 54.2343 17.8145C54.2343 19.0739 54.9417 19.6875 56.3256 19.6875C56.6639 19.6875 57.0022 19.6229 57.3097 19.526C57.648 19.3968 57.9248 19.2354 58.1709 19.0416C58.4169 18.8479 58.6322 18.5572 58.7859 18.2666C58.9397 17.9437 59.032 17.5885 59.032 17.1687V15.8447H59.0012Z" fill="#0A215D"/>
<path d="M66.2588 22.4646V7.61029H74.1934C75.6696 7.61029 76.8075 7.9655 77.5456 8.67592C78.3144 9.38635 78.6835 10.2905 78.6835 11.3884C78.6835 12.2603 78.4682 12.9707 78.0684 13.4874C77.6686 14.0041 77.1765 14.3916 76.6537 14.6176C77.4226 14.8437 78.0377 15.2635 78.5605 15.8447C79.0833 16.426 79.3601 17.2656 79.3601 18.3635C79.3601 19.752 78.8988 20.7854 77.9454 21.4635C76.992 22.1416 75.7618 22.4969 74.1934 22.4969H66.2588V22.4646ZM70.2568 13.5843H73.0862C74.1319 13.5843 74.6239 13.0999 74.6239 12.1312C74.6239 11.5822 74.4394 11.227 74.1319 11.0009C73.7936 10.8072 73.3323 10.678 72.7172 10.678H70.2261V13.5843H70.2568ZM70.2568 19.4291H73.6398C74.7162 19.4291 75.239 18.9448 75.239 17.9437C75.239 17.4593 75.116 17.1041 74.8392 16.8458C74.5624 16.5874 74.1626 16.4583 73.6398 16.4583H70.2568V19.4291Z" fill="#0A215D"/>
<path d="M94.5222 20.5271C93.9378 21.2052 93.1997 21.7542 92.2464 22.2385C91.3237 22.7229 90.1858 22.949 88.8941 22.949C87.7562 22.949 86.7414 22.7552 85.8187 22.3677C84.8961 21.9802 84.0965 21.4312 83.4507 20.7208C82.8048 20.0104 82.282 19.2031 81.913 18.2343C81.5439 17.2656 81.3594 16.2322 81.3594 15.102C81.3594 13.9718 81.5439 12.9385 81.913 11.9374C82.282 10.9687 82.8048 10.0968 83.4814 9.38635C84.158 8.67593 84.9576 8.09468 85.8802 7.70717C86.8029 7.28738 87.8485 7.09363 88.9557 7.09363C90.1858 7.09363 91.293 7.31967 92.2156 7.77176C93.169 8.22384 93.9378 8.8051 94.5529 9.48323L91.9696 12.4218C91.7235 12.0989 91.3545 11.776 90.8932 11.453C90.4319 11.1301 89.8168 10.9687 89.0787 10.9687C88.5251 10.9687 88.033 11.0655 87.6332 11.2916C87.2027 11.5176 86.8644 11.8082 86.5876 12.1635C86.3108 12.5187 86.0955 12.9385 85.9418 13.4228C85.788 13.9072 85.7265 14.3916 85.7265 14.876C85.7265 15.3604 85.788 15.877 85.9418 16.3614C86.0955 16.8458 86.3108 17.2979 86.5876 17.6854C86.8644 18.0729 87.2027 18.3635 87.6332 18.6218C88.0638 18.8479 88.5559 18.9771 89.1402 18.9771C89.8475 18.9771 90.4319 18.8156 90.8932 18.525C91.3545 18.2343 91.7543 17.8791 92.0618 17.5562L94.5222 20.5271Z" fill="#0A215D"/>
<path d="M106.332 22.4646V13.4228L100.089 22.4646H96.583V7.61029H100.643V16.3291L106.67 7.61029H110.392V22.4646H106.332Z" fill="#0A215D"/>
<path d="M125.922 7.64258V11.4853H121.432V22.4969H117.157V11.4853H112.667V7.64258H125.922Z" fill="#0A215D"/>
<path d="M137.947 22.4646V13.4228L131.704 22.4646H128.198V7.61029H132.289V16.3291L138.316 7.61029H142.038V22.4646H137.947Z" fill="#0A215D"/>
<path d="M47.9292 11.9697C47.6832 11.0332 47.2834 10.1936 46.7605 9.48322C46.2377 8.7728 45.6226 8.19155 44.8538 7.77175C44.0849 7.35196 43.2238 7.12592 42.2704 7.12592C41.4401 7.12592 40.6712 7.28738 39.9639 7.61029C39.2565 7.93321 38.6722 8.48218 38.1494 9.1926C38.1186 8.93426 38.1186 8.64364 38.0878 8.3853C38.0571 8.12696 38.0263 7.86863 37.9956 7.578H33.9053V28.9875H38.1494V22.3677C38.4876 22.4969 38.8875 22.626 39.318 22.7552C39.7486 22.8844 40.3021 22.949 40.9172 22.949C41.8091 22.949 42.701 22.7875 43.5621 22.4646C44.4232 22.1417 45.2228 21.6573 45.9302 20.9791C46.6375 20.301 47.1911 19.4937 47.6524 18.4927C48.083 17.4916 48.2982 16.2968 48.2982 14.9406C48.329 13.9072 48.206 12.9062 47.9292 11.9697ZM43.1315 18.0406C42.5164 18.8156 41.6246 19.1708 40.4252 19.1708C40.3637 19.1708 40.2714 19.1708 40.1791 19.1708C39.3488 19.1062 38.5492 19.526 38.1801 20.3333V20.3656V18.6218V14.6822C38.1801 14.327 38.2109 13.9718 38.2724 13.6166C38.3954 13.0353 38.6107 12.5187 38.9182 12.0989C39.1642 11.776 39.4718 11.4853 39.8408 11.2916C40.2099 11.0978 40.6404 10.9687 41.1633 10.9687C41.6861 10.9687 42.1166 11.0655 42.4857 11.2916C42.8547 11.5176 43.1315 11.8082 43.3776 12.1957C43.5928 12.5832 43.7774 13.003 43.8696 13.4874C43.9926 13.9718 44.0234 14.4562 44.0234 14.9729C44.0234 16.2645 43.7466 17.2979 43.1315 18.0406Z" fill="#0A215D"/>
<path d="M173.591 11.8406C173.345 10.4843 172.453 9.83847 171.5 10.0645C170.208 10.3551 168.055 14.1979 160.275 16.9427C153.878 19.2031 148.496 18.3635 146.927 18.1375C146.651 18.1052 146.558 18.2667 146.62 18.5896C146.835 19.8167 147.758 22.7229 148.896 23.175C150.187 23.6917 155.077 25.274 160.89 24.0469C165.072 23.175 167.963 21.4313 169.839 20.075C173.038 17.5562 174.083 14.4885 173.591 11.8406Z" fill="#FE610F"/>
<path d="M168.855 6.64157C169.839 4.9301 169.224 4.28426 168.64 4.21967C168.086 4.15509 167.594 4.15509 166.887 4.15509C166.887 4.15509 166.733 4.15509 166.672 4.15509C166.456 4.15509 165.964 4.15509 165.964 4.15509C163.535 4.21967 161.136 4.63947 158.922 5.3176C156.553 6.02802 154.247 7.12595 152.186 8.44991C150.095 9.77388 148.219 11.4208 146.528 13.2291C146.005 13.9072 146.097 15.4573 146.128 16.1031C146.159 16.5875 146.435 16.4583 146.866 16.3937C160.182 14.2948 167.625 8.77283 168.855 6.64157Z" fill="#FE610F"/>
<path d="M150.557 25.3063C153.048 27.9219 156.431 29.5365 160.213 29.5365C164.304 29.5365 167.994 27.6636 170.516 24.6927C167.348 26.4365 163.689 27.4053 159.875 27.4053C156.523 27.4376 153.417 26.6626 150.557 25.3063Z" fill="#FE610F"/>
<path d="M162.95 0.958169C162.028 0.764417 161.105 0.667542 160.152 0.667542C160.059 0.667542 159.967 0.667542 159.875 0.667542C154.585 0.732125 149.572 4.34882 147.573 9.41865C151.571 4.96237 156.953 1.89463 162.95 0.958169Z" fill="#FE610F"/>
</svg>
