<svg width="30" height="15" fill="none" xmlns="http://www.w3.org/2000/svg"><path fill-rule="evenodd" clip-rule="evenodd" d="M7.11 14.451L1.216 8.558a.926.926 0 010-1.309l5.892-5.893a.926.926 0 111.31 1.31L4.107 6.978h19.06a.926.926 0 110 1.852H4.108l4.312 4.312a.926.926 0 01-1.31 1.309z" fill="#fff"/><path fill-rule="evenodd" clip-rule="evenodd" d="M8.615 14.647c-.47.47-1.232.47-1.703 0L1.02 8.755a1.204 1.204 0 010-1.702L6.913 1.16a1.204 1.204 0 011.702 1.702L4.777 6.7h18.39a1.204 1.204 0 110 2.407H4.777l3.838 3.838c.47.47.47 1.232 0 1.702zm-1.31-.392a.648.648 0 00.917-.917L3.91 9.026a.278.278 0 01.196-.474h19.061a.648.648 0 100-1.296H4.107a.278.278 0 01-.197-.475L8.222 2.47a.648.648 0 10-.917-.916L1.413 7.445a.648.648 0 000 .917l5.892 5.893z" fill="#fff"/><path d="M26.87 7.904a.926.926 0 111.853 0 .926.926 0 01-1.852 0z" fill="#fff"/><path fill-rule="evenodd" clip-rule="evenodd" d="M27.796 8.551a.648.648 0 100-1.296.648.648 0 000 1.296zM29 7.903a1.204 1.204 0 11-2.407 0 1.204 1.204 0 012.407 0z" fill="#fff"/></svg>