<svg width="34" height="18" fill="none" xmlns="http://www.w3.org/2000/svg"><path fill-rule="evenodd" clip-rule="evenodd" d="M8.342 1.318L1.428 8.232a1.086 1.086 0 000 1.536l6.914 6.914a1.086 1.086 0 101.536-1.537L4.82 10.086h22.364a1.086 1.086 0 000-2.172H4.82l5.06-5.06a1.086 1.086 0 10-1.537-1.536z" fill="#2F8FFF"/><path fill-rule="evenodd" clip-rule="evenodd" d="M10.087 1.106a1.386 1.386 0 00-1.96 0L1.213 8.02a1.386 1.386 0 000 1.96l6.914 6.914a1.386 1.386 0 001.96-1.96L5.54 10.387h21.64a1.386 1.386 0 000-2.773H5.54l4.547-4.547a1.386 1.386 0 000-1.96zm-1.536.425a.786.786 0 111.112 1.112L4.604 7.702a.3.3 0 00.212.512H27.18a.786.786 0 110 1.573H4.816a.3.3 0 00-.212.512l5.06 5.059A.786.786 0 118.55 16.47L1.637 9.556a.786.786 0 010-1.112l6.914-6.913z" fill="#2F8FFF"/><path d="M31.526 9A1.086 1.086 0 1033.7 9a1.086 1.086 0 00-2.172 0z" fill="#2F8FFF"/><path fill-rule="evenodd" clip-rule="evenodd" d="M32.614 8.214a.786.786 0 110 1.573.786.786 0 010-1.573zM34 9.001a1.386 1.386 0 10-2.773 0A1.386 1.386 0 0034 9z" fill="#2F8FFF"/></svg>