<svg width="34" height="18" fill="none" xmlns="http://www.w3.org/2000/svg"><path fill-rule="evenodd" clip-rule="evenodd" d="M25.658 1.318l6.914 6.914a1.086 1.086 0 010 1.536l-6.914 6.914a1.086 1.086 0 11-1.536-1.537l5.059-5.059H6.817a1.086 1.086 0 010-2.172H29.18l-5.06-5.06a1.086 1.086 0 111.537-1.536z" fill="#2F8FFF"/><path fill-rule="evenodd" clip-rule="evenodd" d="M23.913 1.106a1.386 1.386 0 011.96 0l6.914 6.914c.541.541.541 1.42 0 1.96l-6.914 6.914a1.386 1.386 0 01-1.96-1.96l4.546-4.547H6.82a1.386 1.386 0 010-2.773h21.64l-4.547-4.547a1.386 1.386 0 010-1.96zm1.536.425a.786.786 0 10-1.112 1.112l5.059 5.059a.3.3 0 01-.212.512H6.82a.786.786 0 100 1.573h22.364a.3.3 0 01.212.512l-5.06 5.059a.786.786 0 101.113 1.112l6.914-6.914a.786.786 0 000-1.112l-6.914-6.913z" fill="#2F8FFF"/><path d="M2.474 9A1.086 1.086 0 11.3 9a1.086 1.086 0 012.173 0z" fill="#2F8FFF"/><path fill-rule="evenodd" clip-rule="evenodd" d="M1.386 8.214a.786.786 0 100 1.573.786.786 0 000-1.573zM0 9.001a1.386 1.386 0 112.773 0A1.386 1.386 0 010 9z" fill="#2F8FFF"/></svg>