<svg width="45" height="47" fill="none" xmlns="http://www.w3.org/2000/svg"><path d="M38.001 11.104a1 1 0 101-1.732l-1 1.732zM42.987 17a1 1 0 10-2 0h2zM6.016 10.518l-.5-.866.5.866zM25.5 44.268l.5.866-.5-.866zm13.486-7.786l-.5-.866.5.866zm-.5-.866L25 43.402l1 1.732 13.486-7.786-1-1.732zM20 43.402L6.516 35.616l-1 1.732L19 45.134l1-1.732zM4.016 31.286V15.714h-2v15.572h2zm2.5-19.902L20 3.598l-1-1.732L5.516 9.652l1 1.732zM25 3.598l13 7.506 1-1.732-13-7.506-1 1.732zM40.987 17v14.286h2V17h-2zM4.016 15.714a5 5 0 012.5-4.33l-1-1.732a7 7 0 00-3.5 6.062h2zm2.5 19.902a5 5 0 01-2.5-4.33h-2a7 7 0 003.5 6.062l1-1.732zM25 43.402a5 5 0 01-5 0l-1 1.732a7 7 0 007 0l-1-1.732zm14.486-6.054a7 7 0 003.5-6.062h-2a5 5 0 01-2.5 4.33l1 1.732zM20 3.598a5 5 0 015 0l1-1.732a7 7 0 00-7 0l1 1.732z" fill="#fff"/><circle cx="41.5" cy="12.8" r="1" fill="#fff"/><g clip-path="url(#clip0)"><path d="M24.282 19.524c.022-.025.122-.104.518-.104h1.298a.765.765 0 00.765-.765v-2.263a.766.766 0 00-.764-.764l-1.927-.003c-1.19 0-2.201.392-2.925 1.133-.72.737-1.1 1.767-1.1 2.977v1.221h-1.475a.766.766 0 00-.766.764v2.438c0 .421.344.764.766.764h1.474v5.689c0 .421.343.764.766.764h2.527a.766.766 0 00.765-.764v-5.689h1.802a.766.766 0 00.766-.764V21.72a.766.766 0 00-.772-.764h-1.796v-.964c0-.315.043-.428.078-.468z" fill="#fff" stroke="#2D75F6" stroke-width=".4"/></g><defs><clipPath id="clip0"><path fill="#fff" transform="translate(14.625 15.625)" d="M0 0h15.75v15.75H0z"/></clipPath></defs></svg>