<svg width="45" height="47" fill="none" xmlns="http://www.w3.org/2000/svg"><path d="M38.001 11.104a1 1 0 101-1.732l-1 1.732zM42.987 17a1 1 0 10-2 0h2zM6.016 10.518l-.5-.866.5.866zM25.5 44.268l.5.866-.5-.866zm13.486-7.786l-.5-.866.5.866zm-.5-.866L25 43.402l1 1.732 13.486-7.786-1-1.732zM20 43.402L6.516 35.616l-1 1.732L19 45.134l1-1.732zM4.016 31.286V15.714h-2v15.572h2zm2.5-19.902L20 3.598l-1-1.732L5.516 9.652l1 1.732zM25 3.598l13 7.506 1-1.732-13-7.506-1 1.732zM40.987 17v14.286h2V17h-2zM4.016 15.714a5 5 0 012.5-4.33l-1-1.732a7 7 0 00-3.5 6.062h2zm2.5 19.902a5 5 0 01-2.5-4.33h-2a7 7 0 003.5 6.062l1-1.732zM25 43.402a5 5 0 01-5 0l-1 1.732a7 7 0 007 0l-1-1.732zm14.486-6.054a7 7 0 003.5-6.062h-2a5 5 0 01-2.5 4.33l1 1.732zM20 3.598a5 5 0 015 0l1-1.732a7 7 0 00-7 0l1 1.732z" fill="#F9F9F9"/><circle cx="41.5" cy="12.8" r="1" fill="#F9F9F9"/><g clip-path="url(#clip0)" fill="#F9F9F9"><path d="M22.5 20.125a3.379 3.379 0 00-3.375 3.375 3.379 3.379 0 003.375 3.375 3.379 3.379 0 003.375-3.375 3.379 3.379 0 00-3.375-3.375z"/><path d="M29.686 16.314a6.132 6.132 0 00-4.362-1.814h-5.648a6.132 6.132 0 00-4.362 1.814 6.132 6.132 0 00-1.814 4.362v5.648c0 1.644.644 3.193 1.814 4.362a6.132 6.132 0 004.362 1.814h5.648a6.132 6.132 0 004.362-1.814 6.132 6.132 0 001.814-4.362v-5.648a6.132 6.132 0 00-1.814-4.362zM22.5 28.264a4.77 4.77 0 01-4.764-4.764 4.77 4.77 0 014.764-4.764 4.77 4.77 0 014.764 4.764 4.77 4.77 0 01-4.764 4.764zm5.277-9.295a.532.532 0 01-.745 0 .53.53 0 010-.746.53.53 0 01.745 0 .53.53 0 010 .746z"/></g><defs><clipPath id="clip0"><path fill="#fff" transform="translate(13.5 14.5)" d="M0 0h18v18H0z"/></clipPath></defs></svg>