<svg width="48" height="48" fill="none" xmlns="http://www.w3.org/2000/svg"><circle cx="24" cy="24" r="24" fill="#fff"/><path fill-rule="evenodd" clip-rule="evenodd" d="M31.418 18.159l5.657 5.657a.889.889 0 010 1.257l-5.657 5.657a.889.889 0 01-1.257-1.258l4.14-4.139H16.002a.889.889 0 010-1.778h18.299l-4.14-4.14a.889.889 0 011.257-1.256z" fill="#2F73F6"/><path fill-rule="evenodd" clip-rule="evenodd" d="M29.948 17.947a1.189 1.189 0 011.682 0l5.656 5.657a1.189 1.189 0 010 1.681l-5.656 5.657a1.189 1.189 0 01-1.682-1.681l3.628-3.628H16a1.189 1.189 0 010-2.377h17.575l-3.628-3.628a1.189 1.189 0 010-1.681zm1.257.424a.589.589 0 10-.832.833l4.139 4.14a.3.3 0 01-.212.511H16a.589.589 0 100 1.178h18.3a.3.3 0 01.212.512l-4.14 4.14a.589.589 0 10.833.833l5.657-5.657a.589.589 0 000-.833l-5.657-5.657z" fill="#2F73F6"/><path d="M12.446 24.445a.889.889 0 11-1.778 0 .889.889 0 011.778 0z" fill="#2F73F6"/><path fill-rule="evenodd" clip-rule="evenodd" d="M11.556 23.856a.589.589 0 100 1.178.589.589 0 000-1.178zm-1.189.589a1.189 1.189 0 112.378 0 1.189 1.189 0 01-2.378 0z" fill="#2F73F6"/></svg>