<svg width="48" height="48" fill="none" xmlns="http://www.w3.org/2000/svg"><circle cx="24" cy="24" r="24" transform="rotate(-180 24 24)" fill="#fff"/><path fill-rule="evenodd" clip-rule="evenodd" d="M16.582 29.841l-5.657-5.657a.889.889 0 010-1.257l5.657-5.657a.889.889 0 011.257 1.258l-4.14 4.139h18.299a.889.889 0 110 1.778H13.699l4.14 4.14a.889.889 0 01-1.257 1.256z" fill="#2F73F6"/><path fill-rule="evenodd" clip-rule="evenodd" d="M18.052 30.053a1.189 1.189 0 01-1.682 0l-5.657-5.657a1.189 1.189 0 010-1.681l5.657-5.657a1.189 1.189 0 111.682 1.681l-3.628 3.628H32a1.189 1.189 0 010 2.377H14.424l3.628 3.628a1.189 1.189 0 010 1.681zm-1.257-.424a.589.589 0 10.832-.833l-4.139-4.14a.3.3 0 01.212-.511H32a.589.589 0 100-1.178H13.7a.3.3 0 01-.212-.512l4.14-4.14a.589.589 0 10-.833-.833l-5.657 5.657a.589.589 0 000 .833l5.657 5.657z" fill="#2F73F6"/><path d="M35.554 23.555a.889.889 0 111.778 0 .889.889 0 01-1.778 0z" fill="#2F73F6"/><path fill-rule="evenodd" clip-rule="evenodd" d="M36.444 24.144a.589.589 0 100-1.178.589.589 0 000 1.178zm1.189-.589a1.189 1.189 0 11-2.378 0 1.189 1.189 0 012.378 0z" fill="#2F73F6"/></svg>