<svg width="45" height="47" fill="none" xmlns="http://www.w3.org/2000/svg"><path d="M38.001 11.104a1 1 0 101-1.732l-1 1.732zM42.987 17a1 1 0 10-2 0h2zM6.016 10.518l-.5-.866.5.866zM25.5 44.268l.5.866-.5-.866zm13.486-7.786l-.5-.866.5.866zm-.5-.866L25 43.402l1 1.732 13.486-7.786-1-1.732zM20 43.402L6.516 35.616l-1 1.732L19 45.134l1-1.732zM4.016 31.286V15.714h-2v15.572h2zm2.5-19.902L20 3.598l-1-1.732L5.516 9.652l1 1.732zM25 3.598l13 7.506 1-1.732-13-7.506-1 1.732zM40.987 17v14.286h2V17h-2zM4.016 15.714a5 5 0 012.5-4.33l-1-1.732a7 7 0 00-3.5 6.062h2zm2.5 19.902a5 5 0 01-2.5-4.33h-2a7 7 0 003.5 6.062l1-1.732zM25 43.402a5 5 0 01-5 0l-1 1.732a7 7 0 007 0l-1-1.732zm14.486-6.054a7 7 0 003.5-6.062h-2a5 5 0 01-2.5 4.33l1 1.732zM20 3.598a5 5 0 015 0l1-1.732a7 7 0 00-7 0l1 1.732z" fill="#F9F9F9"/><circle cx="41.5" cy="12.8" r="1" fill="#F9F9F9"/><g clip-path="url(#clip0)"><path d="M31.59 18.755a2.378 2.378 0 00-1.674-1.674c-1.486-.406-7.428-.406-7.428-.406s-5.942 0-7.428.39a2.427 2.427 0 00-1.673 1.69c-.39 1.485-.39 4.566-.39 4.566s0 3.096.39 4.566c.219.813.86 1.454 1.673 1.673 1.501.407 7.428.407 7.428.407s5.942 0 7.428-.391a2.379 2.379 0 001.674-1.673c.39-1.486.39-4.566.39-4.566s.016-3.097-.39-4.582zm-10.994 7.412v-5.692l4.942 2.846-4.942 2.846z" fill="#F9F9F9"/></g><defs><clipPath id="clip0"><path fill="#fff" transform="translate(12.375 13.375)" d="M0 0h20.25v20.25H0z"/></clipPath></defs></svg>