<svg width="472" height="363" fill="none" xmlns="http://www.w3.org/2000/svg"><path d="M36.528 303.611C4.26 264.232-21.599 241.205 26.7 173.614c42.863-59.958 87.75-35.558 129.592-21.99 30.355 9.848 60.518-8.268 98.833-69.267 52.249-83.202 233.358-32.745 200.343 95.266-15.977 61.944 8.352 31.912 15.708 126.104 7.356 94.192-392.402 51.437-434.647-.116z" fill="#EBF3FA"/><path d="M190.584 276.212s3.493-13.042 8.06-14.925c4.566-1.882 45.534-.807 47.28 1.076 1.881 1.882 4.03 12.236 4.03 12.236l1.88.806s-1.88-15.059-5.91-17.345c-4.029-2.286-46.743-2.42-50.101-.941-3.358 1.479-6.85 18.959-6.85 18.959h1.611v.134z" fill="#7A88B0"/><path d="M308.018 358.523c.038.019.096.039.154.077h32.302c-.309-1.156-1.349-3.238-5.05-3.835-5.011-.81-13.703-3.72-15.63-10.138l-.174-.636c-1.542-6.842-12.72 2.101-12.72 2.101s-.038.27-.077.732c-.27 2.506-.925 10.62 1.195 11.699z" fill="#2C3A64"/><path d="M350.746 242.518s-21.008 74.606-27.329 103.458c0 0-15.592 3.122-18.021-1.773 0 0 5.031-81.255 14.262-91.566 11.487-12.836 31.088-10.119 31.088-10.119z" fill="#2C3A64"/><path d="M352.482 166.91s-.559-3.334.309-6.109c.867-2.776 4.452-10.119 3.315-12.663-1.137-2.544-5.262-9.405-7.806-9.386-2.544.019 2.679 7.343 1.947 9.617-.713 2.294-.945 2.467-1.831 2.275-.887-.193-2.236-4.568-2.679-3.547-.444 1.022-.193 7.787.655 9.483.848 1.696-.887 11.217-.887 11.217l6.977-.887z" fill="#ED975D"/><path d="M354.503 165.407s-5.627-3.2-9.964-1.85c0 0-8.634 24.862-13.395 43.133-9.116-22.511-14.743-44.964-14.743-44.964s-11.063 15.283-15.053 25.44c-3.989 10.157 19.871 45.793 29.141 48.607 9.675 2.91 7.902 0 13.356-3.123 1.754-2.274 7.363-13.606 10.658-67.243z" fill="#FFA412"/><path d="M379.945 359.679c.039.019.097.039.155.058h32.301c-.308-1.156-1.368-3.238-5.049-3.835-5.011-.81-13.703-3.72-15.631-10.138l-.173-.636c-1.542-6.842-12.72 2.101-12.72 2.101s-.039.27-.078.732c-.269 2.525-.925 10.658 1.195 11.718z" fill="#2C3A64"/><path d="M357.009 240.707s-3.141 1.407-7.035 4.259c-.443-2.255-1.079-3.72-1.079-3.72-27.715-7.227-101.897-6.63-101.897-6.63s-15.958 3.99-11.274 27.214c4.317 21.374 75.55 11.467 98.543 5.069a81.76 81.76 0 001.561-.463c-1.831 13.607 10.986 33.034 22.202 50.9 9.252 14.725 17.134 29.642 17.134 29.642 4.645 2.891 20.237 1.215 20.237 1.215-9.849-27.831-38.392-107.486-38.392-107.486z" fill="#35488B"/><path d="M295.838 154.19s7.96 25.479 19.909 31.165c0 0 1.137-7.729-.809-13.607a192.504 192.504 0 004.201-3.334c4.048-3.373 6.11-5.531 6.11-5.531l-1.773-12.412-1.214-8.423a38.417 38.417 0 01-5.956 5.551c-10.311 7.69-20.468 6.591-20.468 6.591z" fill="#FFB27D"/><path d="M316.307 147.579s-4.009 11.025 2.833 20.835c4.047-3.373 6.11-5.532 6.11-5.532l-1.774-12.412c-4.297-2.389-7.169-2.891-7.169-2.891z" fill="#ED975D"/><path d="M328.275 165.311s-17.616-11.699-10.176-22.55c7.458-10.87 10.195-19.677 21.759-12.681s10.889 12.624 9.289 16.864c-1.618 4.22-16.093 21.123-20.872 18.367z" fill="#FFB27D"/><path d="M320.16 120.019c-.077-.289-.404-.674-1.291-1.156 0 0 .964-.116 1.947.347.828-1.195 2.621-3.161 5.088-2.641 0 0-1.484.058-2.313 1.369 3.835-1.407 10.234-.675 24.727 7.94 19.1 11.333 6.206 21.046 2.891 21.335-3.334.29-7.747-7.111-12.72-9.077-4.992-1.966-9.347 4.625-11.448 4.799-2.101.173-.617-1.234-2.332-3.315-1.715-2.082-3.739 1.503-4.279 4.24-.539 2.717-5.126 4.413-5.126 4.413l-1.427-4.837c-1.426-4.838 2.641-20.41 5.512-22.742.251-.27.502-.463.771-.675z" fill="#2B478B"/><path d="M317.289 196.629c-5.3 12.528-10.138 20.545-10.755 21.586-2.274 3.777-4.721 7.227-6.976 10.253-.077.097-.135.193-.212.289-4.414 5.936-11.159 7.575-10.947 9.059.424 2.987-7.112 10.137-19.543 13.317-14.417 3.681-31.146 5.455-35.366.579-1.407-1.639-1.889-4.645-1.735-8.384.308-7.883 10.234-39.626 10.234-39.626 16.98-51.382 65.586-51.382 65.586-51.382s-.944 12.316 10.986 16.575c.019.039 2.794 18.078-1.272 27.734z" fill="#FFB93E"/><path d="M345.831 233.19s7.305 2.583 9.309 3.835c2.004 1.253 6.611 7.555 7.131 9.772.52 2.216 1.118 8.711.752 9.791-.386 1.079-5.975-3.084-7.209-7.016-1.233-3.932-4.432-4.972-4.317-4.76.116.212 1.754 5.242 1.407 5.454-.347.212-1.831.597-3.18-2.216-1.349-2.814-4.009-4.857-3.507-7.748.501-2.891-.386-7.112-.386-7.112z" fill="#FFB27D"/><path d="M288.63 238.24c.424 2.987-7.362 9.733-19.794 12.913-10.368-20.623 9.348-67.842 9.348-67.842l21.354 45.196c-4.49 6.051-11.12 8.21-10.908 9.733z" fill="#FFA412"/><path d="M306.514 218.215c-2.274 3.778-4.722 7.227-6.976 10.253-.078.097-.135.193-.212.289-2.93-1.137-5.84-3.372-7.305-5.454-3.373-4.741-3.643-33.304-3.643-33.304s13.781 17.018 18.136 28.216z" fill="#FFA412"/><path d="M348.628 233.826s-33.303-9.328-50.399-13.414c1.504-20.179 6.437-81.159-24.611-56.74 0 0-2.352 65.355 12.701 78.596 0 0 48.317 1.021 57.53.462 0 0 2.698-1.407 3.372-2.332 2.14-2.968 1.407-6.572 1.407-6.572z" fill="#FFB93E"/><g filter="url(#filter0_d)"><path d="M278.408 106.927c-2.302 10.893-5.57 20.841-9.783 29.74a22.38 22.38 0 01-.596 1.213l-.309.617a35.621 35.621 0 01-.781 1.521l-.431.801c-.247.493-.514.966-.781 1.439-.268.493-.535.966-.802 1.439-.473.822-.945 1.623-1.418 2.445-.103.165-.185.309-.288.453-.246.411-.514.822-.781 1.233-.103.164-.205.308-.308.472-.247.391-.514.802-.781 1.192a6.745 6.745 0 00-.411.638c-.247.37-.514.76-.781 1.13-.144.206-.288.411-.432.596-.02.021-.02.041-.041.062-.247.37-.514.719-.781 1.068-.103.144-.205.268-.308.412-.247.349-.514.698-.781 1.027-.144.185-.288.37-.432.535-.246.328-.514.657-.781.986-.267.329-.534.678-.822 1.007a31.97 31.97 0 01-.781.925c-.185.226-.37.452-.575.678-.021.021-.021.041-.042.062-.041.041-.061.082-.102.123-.247.288-.514.576-.781.884-.555.637-1.131 1.254-1.706 1.87a27.8 27.8 0 01-.781.802 76.93 76.93 0 01-1.829 1.829c-.247.247-.514.493-.781.74-.453.432-.905.843-1.357 1.254l-.021.02c-.267.226-.534.473-.801.699-.247.226-.514.452-.781.658a84.732 84.732 0 01-4.296 3.412c-.246.185-.513.37-.781.555-1.048.76-2.137 1.5-3.226 2.199-.535.349-1.09.699-1.645 1.027a63.89 63.89 0 01-3.638 2.097 123.87 123.87 0 01-2.877 1.5 81.27 81.27 0 01-4.522 2.055c-.246.103-.513.206-.781.329-.452.185-.904.37-1.356.535l-1.973.74a82.509 82.509 0 01-4.501 1.479 47.97 47.97 0 01-1.624.473 89.417 89.417 0 01-6.454 1.562c-1.685.35-3.391.658-5.138.925-4.008.617-8.139 1.007-12.455 1.192-.699.041-1.398.062-2.117.062-1.028.02-2.076.041-3.124.041-1.254 0-2.528-.021-3.802-.041-10.729-.247-21.828-1.48-32.556-3.782a99.178 99.178 0 01-2.425-.534c-9.516-2.179-18.683-5.18-26.986-9.044a8.947 8.947 0 00-.638-.287 99.61 99.61 0 01-6.083-3.124c-21.848-12.147-35.639-31.015-29.617-57.035 9.516-40.407 65.975-83.671 116.412-94.276 73.703-15.518 90.515 33.871 79.17 87.37z" fill="#EBF3FA"/><path d="M237.322 173.642c-.534.35-1.089.699-1.644 1.028a63.621 63.621 0 01-3.638 2.096c-.945.514-1.911 1.007-2.877 1.501a82.007 82.007 0 01-4.522 2.055c-.247.103-.514.205-.781.329-.452.185-.904.37-1.356.534h-28.446a1.59 1.59 0 01-.76-.185 1.692 1.692 0 01-.884-1.295v-4.521a1.647 1.647 0 011.644-1.562h43.264v.02z" fill="#FFB93E"/><path d="M224.62 173.642v6.68c-.247.103-.514.206-.781.329v-7.009h.781zm-6.495.001h-.781v7.543h.781v-7.543z" fill="#FFA412"/><path d="M247.188 166.1c-.267.246-.534.472-.801.719-.247.226-.514.452-.781.658a84.596 84.596 0 01-4.296 3.411c-.247.185-.514.37-.781.555a68.425 68.425 0 01-3.227 2.2h-41.62a1.648 1.648 0 01-1.644-1.562v-4.419a1.63 1.63 0 011.439-1.542c.062 0 .123-.02.205-.02h51.506z" fill="#FFB93E"/><path d="M246.388 166.1v.719c-.247.226-.514.452-.781.658V166.1h.781zm-5.078 0v4.789c-.246.185-.514.37-.781.554V166.1h.781zm-7.769 0h-.781v7.543h.781V166.1zm-7.275 0h-.781v7.543h.781V166.1zm-6.515-.001h-.781v7.543h.781v-7.543z" fill="#FFA412"/><path d="M251.936 158.557v2.918a71.997 71.997 0 001.706-1.87v-1.048h-1.706zm0 0v2.918a71.997 71.997 0 001.706-1.87c.267-.288.514-.576.781-.884.041-.041.082-.082.103-.123.021-.021.041-.041.041-.062h-2.631v.021zm0 0v2.918a71.997 71.997 0 001.706-1.87c.267-.288.514-.576.781-.884.041-.041.082-.082.103-.123.021-.021.041-.041.041-.062h-2.631v.021zm0 0v2.918a71.997 71.997 0 001.706-1.87c.267-.288.514-.576.781-.884.041-.041.082-.082.103-.123.021-.021.041-.041.041-.062h-2.631v.021zm0 0v2.918a71.997 71.997 0 001.706-1.87c.267-.288.514-.576.781-.884.041-.041.082-.082.103-.123.021-.021.041-.041.041-.062h-2.631v.021zm0 0v2.918a71.997 71.997 0 001.706-1.87c.267-.288.514-.576.781-.884.041-.041.082-.082.103-.123.021-.021.041-.041.041-.062h-2.631v.021zm0 0v2.918a71.997 71.997 0 001.706-1.87v-1.048h-1.706zm-61.227 0c-.123 0-.247.02-.349.041-.021 0-.041 0-.041.02a1.691 1.691 0 00-1.213 1.316c0 .041-.021.082-.021.123v4.604c.021.082.021.144.041.226a1.653 1.653 0 001.583 1.233h56.48s.02 0 .02-.02c.452-.411.925-.822 1.357-1.254.267-.247.513-.493.781-.74a78.853 78.853 0 001.829-1.829c.267-.267.514-.535.781-.802.575-.616 1.151-1.233 1.706-1.87.267-.288.514-.576.781-.884a.56.56 0 00.103-.123c.02-.021.041-.041.041-.062h-63.879v.021z" fill="#FFB93E"/><path d="M226.882 166.1h-36.358c-.781 0-1.418-.699-1.459-1.562v-4.48c.061-.72.534-1.295 1.13-1.439.021 0 .041-.021.062-.021.082-.02.164-.02.267-.02h31.878c0 .02 0 .041.02.062.514 2.178 1.706 5.22 4.46 7.46-.021 0-.021 0 0 0zm25.052-7.543v2.918c-.246.267-.514.535-.781.802v-3.72h.781zm-2.61 0v5.549c-.247.247-.514.493-.781.74v-6.269h.781v-.02zm-3.124 0h-.781v7.543h.781v-7.543zm-4.79 0h-.781v7.543h.781v-7.543zm-5.075 0h-.781v7.543h.781v-7.543zm-7.789 0h-.781v7.543h.781v-7.543z" fill="#FFA412"/><path d="M221.268 158.557h-.781v7.543h.781v-7.543zm-6.493.001h-.781v7.543h.781v-7.543zm39.646-.001v.185c-.246.287-.513.575-.781.884v-1.049h.781v-.02z" fill="#FFA412"/><path d="M254.526 151.262v-.185h-.247v7.481h.288c.205-.226.39-.452.575-.678.268-.309.514-.617.781-.925v-5.714h-1.397v.021zm5.241.534c-.041-.062-.103-.123-.144-.185l-.021-.021-.02-.02-.041-.041c-.021-.021-.041-.041-.062-.041-.02-.021-.041-.042-.062-.042-.041-.02-.082-.061-.123-.082-.062-.041-.103-.061-.164-.102-.021-.021-.062-.021-.083-.042-.02 0-.02-.02-.041-.02-.02 0-.02-.021-.041-.021-.103-.041-.205-.061-.308-.082h-68.092c-.884 0-1.603.699-1.644 1.562v4.419c0 .041 0 .103.02.144a1.636 1.636 0 001.336 1.377c.021 0 .062 0 .082.02.062 0 .144.021.206.021h63.961c.02-.021.041-.041.041-.062.205-.226.39-.452.575-.678.268-.308.514-.616.781-.925l.823-1.007c.267-.329.513-.658.781-.986.143-.185.287-.37.431-.535.267-.329.514-.678.781-1.027.103-.144.206-.268.308-.411.268-.35.514-.699.781-1.069.021-.021.021-.041.042-.062-.083-.041-.083-.062-.103-.082zm-5.241-.534v-.185h-.247v7.481h.288c.205-.226.39-.452.575-.678.268-.309.514-.617.781-.925v-5.714h-1.397v.021z" fill="#FFB93E"/><path d="M226.738 158.619h-36.543c-.699-.102-1.254-.739-1.274-1.541v-4.439c.041-.864.678-1.562 1.459-1.562h31.878c.02.061.02.123.041.185.534 2.178 1.706 5.117 4.357 7.296.041.02.062.041.082.061zm25.055-7.543h-.781v7.543h.781v-7.543zm-2.612 0h-.781v7.543h.781v-7.543zm-3.124 0h-.781v7.543h.781v-7.543zm-4.789 0h-.781v7.543h.781v-7.543zm-5.076 0h-.781v7.543h.781v-7.543zm-7.79 0h-.781v7.543h.781v-7.543z" fill="#FFA412"/><path d="M221.126 151.076h-.781v7.543h.781v-7.543zm-6.494 0h-.781v7.543h.781v-7.543zm39.646 0h-.781v7.543h.781v-7.543zm1.644 0v5.899c-.247.308-.514.616-.781.925v-6.824h.781zm1.584 0v3.905c-.246.329-.514.658-.781.987v-4.892h.781zm1.193.021v2.302c-.247.349-.514.698-.781 1.027v-3.35h.74c.02.021.02.021.041.021z" fill="#FFA412"/><path d="M263.547 145.363v.801c-.103.165-.185.308-.288.452-.247.411-.514.822-.781 1.233-.103.165-.205.309-.308.473-.247.391-.514.802-.781 1.192-.144.206-.288.411-.411.637-.247.37-.514.761-.781 1.131h-66.14c-.267 0-.534-.062-.76-.185a1.642 1.642 0 01-.884-1.295v-4.501c.021-.185.062-.37.123-.535a1.647 1.647 0 011.521-1.007h67.846c.102 0 .205 0 .287.021.103.021.206.041.309.082.308.123.575.329.781.617.164.226.267.534.267.884z" fill="#FFB93E"/><path d="M230.233 151.261h-36.337a1.3 1.3 0 01-.679-.185c-.431-.247-.739-.74-.781-1.295v-4.501c.042-.863.679-1.562 1.46-1.562h31.877c.494 2.158 1.624 5.118 4.234 7.358.082.062.165.123.226.185zm25.072-7.543h-.781v7.543h.781v-7.543zm-2.611 0h-.781v7.543h.781v-7.543zm-3.125 0h-.781v7.543h.781v-7.543zm-4.808 0h-.781v7.543h.781v-7.543zm-5.076 0h-.781v7.543h.781v-7.543zm-7.769 0h-.781v7.543h.781v-7.543z" fill="#FFA412"/><path d="M224.641 143.718h-.781v7.543h.781v-7.543zm-6.517 0h-.781v7.543h.781v-7.543zm39.667 0h-.781v7.543h.781v-7.543zm1.643 0h-.781v7.543h.781v-7.543zm1.565 0v6.412c-.247.37-.514.761-.781 1.131v-7.543h.781zm1.192.02v4.583c-.246.391-.513.802-.781 1.192v-5.775h.473a.79.79 0 01.308 0zm1.068.699v2.179c-.247.411-.514.822-.781 1.233v-4.029c.329.124.596.35.781.617z" fill="#FFA412"/><path d="M268.624 136.668c-.184.411-.39.822-.596 1.213l-.308.616a34.47 34.47 0 01-.781 1.521l-.431.802c-.247.493-.514.966-.781 1.439-.268.493-.535.966-.802 1.438h-65.358a1.647 1.647 0 01-1.645-1.562v-4.419a1.63 1.63 0 011.439-1.541c.062 0 .123-.021.185-.021h67.845c.103 0 .206.021.288.021.103.021.206.041.308.082.021.021.062.021.083.041.02 0 .041.021.061.021.062.02.103.061.165.103.02.02.041.02.061.041 0 0 .021 0 .021.02.02.021.041.021.062.041a.835.835 0 01.184.144z" fill="#FFB93E"/><path d="M235.78 143.717h-36.337c-.781 0-1.418-.698-1.46-1.562v-4.419c.042-.801.597-1.459 1.295-1.541.062 0 .124-.021.165-.021h31.877v.021c.514 2.22 1.706 5.282 4.46 7.522zm25.074-7.543h-.781v7.543h.781v-7.543zm-2.611 0h-.781v7.543h.781v-7.543zm-3.145 0h-.781v7.543h.781v-7.543zm-4.789 0h-.781v7.543h.781v-7.543zm-5.075 0h-.781v7.543h.781v-7.543zm-7.771 0h-.781v7.543h.781v-7.543z" fill="#FFA412"/><path d="M230.169 136.174h-.781v7.543h.781v-7.543zm-6.497-.002h-.781v7.543h.781v-7.543zm39.668.002h-.781v7.543h.781v-7.543zm1.624 0h-.781v7.543h.781v-7.543zm1.584 0v4.666c-.246.493-.513.966-.781 1.438v-6.104h.781zm1.192.021v2.302a36.193 36.193 0 01-.781 1.521v-3.864h.473c.123.02.205.041.308.041zm.883.472c-.185.412-.391.823-.596 1.213v-1.603c.02.021.061.021.082.041.02 0 .041.021.061.021.062.02.103.061.165.102.02.021.041.021.062.042 0 0 .02 0 .02.02.021.021.041.021.062.041a.92.92 0 01.144.123z" fill="#FFA412"/><path d="M260.178 130.299v4.254c0 .35-.103.658-.288.925a1.73 1.73 0 01-.76.617c-.103.041-.206.061-.309.082-.041 0-.061.02-.102.02h-68.01a1.646 1.646 0 01-1.644-1.562v-4.419a1.647 1.647 0 011.644-1.562h67.927c.062 0 .144.021.206.021.103.021.205.041.308.082.041.021.103.041.144.062.021.02.062.02.082.041.021.021.062.041.083.062h.02c.021.02.041.041.082.061.062.041.103.082.165.144l.041.041s.02.021.02.041c.021.021.041.041.041.062.021.021.042.062.062.082.185.288.288.596.288.946z" fill="#FFB93E"/><path d="M226.882 136.197h-36.358c-.781 0-1.418-.698-1.459-1.562v-4.419c.041-.863.678-1.562 1.459-1.562h31.878c.02.062.02.124.041.165.534 2.199 1.726 5.159 4.439 7.378-.021-.02-.021-.02 0 0zm25.052-7.544h-.781v7.543h.781v-7.543zm-2.61 0h-.781v7.543h.781v-7.543zm-3.124 0h-.781v7.543h.781v-7.543zm-4.789 0h-.781v7.543h.781v-7.543zm-5.075 0h-.781v7.543h.781v-7.543zm-7.791 0h-.781v7.543h.781v-7.543z" fill="#FFA412"/><path d="M221.27 128.653h-.781v7.543h.781v-7.543zm-6.496.002h-.781v7.542h.781v-7.542zm39.648-.002h-.782v7.543h.782v-7.543zm1.643 0h-.781v7.543h.781v-7.543zm1.581 0h-.781v7.543h.781v-7.543zm1.193.02v7.481a1.331 1.331 0 01-.288.021h-.473v-7.543h.473c.082.021.185.021.288.041zm1.07.699v6.084a1.72 1.72 0 01-.76.616v-7.317c.308.124.575.35.76.617z" fill="#FFA412"/><path d="M265.172 122.918v4.254c0 .35-.103.658-.288.925a1.723 1.723 0 01-.76.617 1.682 1.682 0 01-.309.082c-.102.021-.185.021-.287.021h-67.846c-.267 0-.513-.062-.74-.165a1.669 1.669 0 01-.904-1.315v-4.501a1.63 1.63 0 011.439-1.542c.062 0 .123-.02.185-.02h67.845c.103 0 .185 0 .288.02.103.021.205.041.308.082a1.6 1.6 0 01.761.617c.205.267.308.596.308.925z" fill="#FFB93E"/><path d="M231.855 128.816h-36.338c-.226 0-.452-.061-.658-.164a1.662 1.662 0 01-.801-1.316v-4.501c.041-.801.596-1.459 1.295-1.541.061 0 .123-.021.164-.021h31.878v.021c.493 2.158 1.644 5.118 4.254 7.358.062.061.144.103.206.164zm25.075-7.543h-.781v7.543h.781v-7.543zm-2.61 0h-.781v7.543h.781v-7.543zm-3.125 0h-.781v7.543h.781v-7.543zm-4.807 0h-.781v7.543h.781v-7.543zm-5.078 0h-.781v7.543h.781v-7.543zm-7.769 0h-.781v7.543h.781v-7.543z" fill="#FFA412"/><path d="M226.266 121.273h-.781v7.543h.781v-7.543zm-6.515 0h-.781v7.543h.781v-7.543zm39.666 0h-.781v7.543h.781v-7.543zm1.643 0h-.781v7.543h.781v-7.543zm1.584 0h-.781v7.543h.781v-7.543zm1.172.021v7.481a1.331 1.331 0 01-.288.021h-.473v-7.523h.473c.103 0 .206.021.288.021zm1.066.699v6.083a1.723 1.723 0 01-.76.617v-7.317c.308.123.575.349.76.617z" fill="#FFA412"/><path d="M260.18 115.396v4.255c0 .349-.103.657-.288.924a1.716 1.716 0 01-.76.617 1.682 1.682 0 01-.309.082c-.041 0-.061.021-.103.021h-68.009a1.647 1.647 0 01-1.644-1.562v-4.419a1.647 1.647 0 011.644-1.562h67.845c.103 0 .185 0 .288.02.103.021.205.041.308.083.308.123.576.328.761.616.164.267.267.576.267.925z" fill="#FFB93E"/><path d="M226.884 121.295h-36.358c-.781 0-1.418-.699-1.459-1.562v-4.419c.041-.863.678-1.562 1.459-1.562h31.877c.514 2.22 1.706 5.282 4.481 7.543-.021-.021-.021 0 0 0zm25.053-7.544h-.781v7.543h.781v-7.543zm-2.61 0h-.781v7.543h.781v-7.543zm-3.125 0h-.781v7.543h.781v-7.543zm-4.789 0h-.781v7.543h.781v-7.543zm-5.074 0h-.781v7.543h.781v-7.543zm-7.791 0h-.781v7.543h.781v-7.543z" fill="#FFA412"/><path d="M221.272 113.751h-.781v7.543h.781v-7.543zm-6.494.001h-.781v7.543h.781v-7.543zm39.646-.001h-.781v7.543h.781v-7.543zm1.644 0h-.781v7.543h.781v-7.543zm1.582 0h-.781v7.543h.781v-7.543zm1.191.021v7.481c-.102.02-.185.02-.287.02h-.473v-7.543h.473c.082.021.185.021.287.042zm1.071.699v6.083a1.72 1.72 0 01-.761.617v-7.317c.309.123.576.349.761.617z" fill="#FFA412"/><path d="M235.678 99.713l-32.987-36.831c-3.556-3.967-10.133-1.46-10.133 3.884v92.797s43.12 5.981 43.12 0v-59.85z" fill="#ED7D2B"/><path d="M177.863 158.269l14.449-1.85s-1.213-8.9.843-20.944c1.521-8.879 4.809-19.484 11.694-29.452 11.736-16.997 48.238-27.746 48.238-27.746l-.082-2.138-1.336-.082s.555-.432 1.295-.678l-.206-5.036c-1.089.02-2.651.164-4.172.575.863-.246 2.672-.74 4.152-.924l-.103-2.652c-53.376 3.638-69.469 36.646-73.908 61.844-2.816 16.134-.864 29.083-.864 29.083z" fill="#82B378"/><path d="M114.19 156.192l63.673 2.076c-.082-9.783 2.055-19.998 4.213-27.767 2.158-7.769 4.316-13.092 4.316-13.092 17.265-42.38 66.263-50.067 66.263-50.067L197.08 47.22c-26.308 3.083-44.312 16.524-56.603 32.967-24.067 32.227-26.287 76.004-26.287 76.004z" fill="#A8D29F"/><path opacity=".5" d="M114.19 156.192l63.673 2.076 14.449-1.85s-1.213-8.899.843-20.943c-3.104-1.706-6.762-3.371-11.099-4.995-1.13-.431-2.24-.863-3.309-1.294-41.188-16.977-38.619-46.183-38.27-48.999-24.067 32.227-26.287 76.005-26.287 76.005z" fill="#82B378"/><path d="M196.855 50.488h-.164c-.473 0-11.859.308-26.184 7.83-8.407 4.399-16.052 10.4-22.753 17.8a94.012 94.012 0 00-7.337 9.228c-2.59 3.7-4.994 7.645-7.194 11.859a111.777 111.777 0 00-3.329 6.865c-.082.205-.185.411-.288.637a149.147 149.147 0 00-2.302 5.528c-.288.699-4.953 12.456-7.481 24.458a81.974 81.974 0 00-.719 3.803c-.144.863-.268 1.706-.391 2.548-.288 2.158-.473 4.275-.493 6.248-.021 1.049.02 2.056.082 3.022v.02l.493 4.995.103 1.068.164 1.604.165 1.623.062.576.082.74 40.345-2.508 3.33-.205.39-.021 2.179-.123 2.179-.124 8.097-.493-.246-1.089c-.041-.144-2.734-12.537.452-28.302.082-.37.164-.76.247-1.13a58.17 58.17 0 01.863-3.535c.246-.925.514-1.85.801-2.795a73.928 73.928 0 011.007-2.98l.124-.37a69.664 69.664 0 016.104-12.579c.123-.205.267-.431.39-.637a72.196 72.196 0 014.913-6.865 42.755 42.755 0 011.993-2.343 68.41 68.41 0 013.556-3.76 82.584 82.584 0 014.85-4.42l.021-.02c4.275-3.556 9.043-6.803 14.284-9.722.432-.246.884-.493 1.336-.74h.041c6.701-3.576 14.161-6.638 22.341-9.125l2.754-.843-44.867-15.723zm33.933 17.347c-6.042 2.22-11.653 4.789-16.812 7.666-7.358 4.11-13.791 8.879-19.238 14.284-.739.74-1.479 1.5-2.178 2.261a80.046 80.046 0 00-4.399 5.159c-5.056 6.536-8.919 13.791-11.55 21.683-.103.288-.185.576-.267.843a8.738 8.738 0 00-.124.411c-.555 1.809-1.048 3.576-1.438 5.323-.144.617-.288 1.213-.412 1.809-.143.699-.287 1.377-.411 2.055a81.726 81.726 0 00-1.274 16.525c.123 4.727.637 8.18.925 9.845l-8.262.493-2.179.123-.473.021-3.268.205-11.879.72h-.021l-26.451 1.623-.247-2.487-.637-6.309c-.082-.884-.103-1.83-.082-2.857.061-3.494.616-7.728 1.664-12.599a134.08 134.08 0 012.426-9.434c2.343-7.975 4.85-14.264 4.871-14.325a141.476 141.476 0 012.836-6.783 114.483 114.483 0 013.432-6.926 112.8 112.8 0 015.365-8.982 91.962 91.962 0 018.385-10.79c6.536-7.235 13.997-13.092 22.177-17.388 8.879-4.686 16.73-6.495 21.272-7.214a14.68 14.68 0 017.112.658l31.096 10.913c1.644.576 1.665 2.878.041 3.474z" fill="#82B378"/><path d="M147.138 94.615c.39 9.311 6.083 14.716 15.394 14.346 9.31-.39 18.724-6.412 18.354-15.723-.391-9.31-5.776-14.674-15.086-14.284-9.331.37-19.053 6.35-18.662 15.661z" fill="#82B378"/><path d="M235.678 99.713v74.957a65.196 65.196 0 01-3.638 2.096c-.946.514-1.912 1.007-2.878 1.5-1.48.72-2.98 1.418-4.521 2.056-.247.102-.514.205-.781.328-.453.185-.905.37-1.357.535l-1.973.74a83.39 83.39 0 01-4.501 1.48c-.534.164-1.089.328-1.624.472a89.518 89.518 0 01-6.453 1.562c-1.686.432-3.412.74-5.139.925-4.007.617-8.139 1.007-12.455 1.192a35.95 35.95 0 01-2.117.062c-1.027.02-2.076.041-3.124.041-1.253 0-2.528-.021-3.802-.041-10.729-.247-21.827-1.48-32.556-3.782-.801-.164-1.624-.349-2.425-.534-9.516-2.179-18.683-5.18-26.986-9.043a8.703 8.703 0 00-.637-.288 99.639 99.639 0 01-6.084-3.124V99.713a2.54 2.54 0 012.528-2.528h118.036c.102 0 .185 0 .287.02 1.213.144 2.2 1.213 2.2 2.508z" fill="#F99746"/><path d="M123.337 104.05h-2.097a.316.316 0 00-.308.308c0 .185.144.309.308.309h2.097a.316.316 0 00.308-.309.316.316 0 00-.308-.308zm4.193 0h-2.097a.316.316 0 00-.308.308c0 .185.144.309.308.309h2.097a.303.303 0 00.308-.309.316.316 0 00-.308-.308zm4.398.082c-.062-.041-.123-.082-.206-.082h-2.096a.302.302 0 00-.308.308c0 .165.144.309.308.309h2.117a.316.316 0 00.308-.309.312.312 0 00-.123-.226zm3.987-.082h-2.096a.303.303 0 00-.309.308c0 .185.144.309.309.309h2.096a.316.316 0 00.308-.309c.021-.164-.123-.308-.308-.308zm4.213 0h-2.096a.302.302 0 00-.308.308c0 .185.144.309.308.309h2.096a.317.317 0 00.309-.309.316.316 0 00-.309-.308zm4.193 0h-2.096a.315.315 0 00-.308.308c0 .185.143.309.308.309h2.096a.303.303 0 00.309-.309.316.316 0 00-.309-.308zm4.193 0h-2.096a.316.316 0 00-.309.308c0 .185.144.309.309.309h2.096a.303.303 0 00.308-.309.302.302 0 00-.308-.308zm4.193 0h-2.097c-.123 0-.205.062-.267.165a.392.392 0 00-.041.164c0 .185.144.308.308.308h2.097a.316.316 0 00.308-.308c.021-.185-.123-.329-.308-.329zm4.213 0h-2.096a.302.302 0 00-.308.308c0 .185.143.309.308.309h2.096a.317.317 0 00.309-.309.316.316 0 00-.309-.308zm4.193 0h-2.096a.303.303 0 00-.309.308c0 .185.144.309.309.309h2.096a.303.303 0 00.308-.309.316.316 0 00-.308-.308zm4.193 0h-2.097a.316.316 0 00-.308.308c0 .185.144.309.308.309h2.097a.303.303 0 00.308-.309.316.316 0 00-.308-.308zm4.193 0h-2.097a.316.316 0 00-.308.308c0 .185.144.309.308.309h2.097a.303.303 0 00.308-.309c.02-.164-.123-.308-.308-.308zm4.192 0h-2.096a.316.316 0 00-.308.308c0 .185.144.309.308.309h2.096a.317.317 0 00.309-.309c.02-.164-.124-.308-.309-.308zm4.214 0h-2.097c-.164 0-.308.123-.308.288v.02c0 .185.144.309.308.309h2.097a.316.316 0 00.308-.309.316.316 0 00-.308-.308zm4.193 0h-2.097a.302.302 0 00-.308.308c0 .185.144.309.308.309h2.097a.316.316 0 00.308-.309.316.316 0 00-.308-.308zm4.192 0h-2.096a.316.316 0 00-.308.308c0 .185.144.309.308.309h2.096a.303.303 0 00.309-.309.303.303 0 00-.309-.308zm4.193 0h-2.096a.315.315 0 00-.308.308c0 .185.143.309.308.309h2.096a.317.317 0 00.309-.309c.02-.164-.124-.308-.309-.308zm4.193 0h-2.137c-.165.021-.288.144-.288.308 0 .165.123.288.288.309h2.137a.303.303 0 00.308-.309c.021-.164-.123-.308-.308-.308zm4.213 0h-2.096a.302.302 0 00-.308.308c0 .185.144.309.308.309h2.096a.317.317 0 00.309-.309.316.316 0 00-.309-.308zm4.193 0h-2.096a.303.303 0 00-.309.308c0 .185.144.309.309.309h2.096a.316.316 0 00.308-.309.315.315 0 00-.308-.308zm4.193 0h-2.096a.303.303 0 00-.309.308c0 .185.144.309.309.309h2.096a.316.316 0 00.308-.309.302.302 0 00-.308-.308zm4.193 0h-2.097a.316.316 0 00-.308.308c0 .185.144.309.308.309h2.097a.303.303 0 00.308-.309c.021-.164-.123-.308-.308-.308zm4.213 0h-2.117a.316.316 0 00-.308.308c0 .185.144.309.308.309h2.097a.303.303 0 00.308-.309c.02-.164-.123-.308-.288-.308zm4.193 0h-2.096a.316.316 0 00-.309.308c0 .185.144.309.309.309h2.096a.316.316 0 00.308-.309.316.316 0 00-.308-.308zm4.193 0h-2.097a.302.302 0 00-.308.308c0 .185.144.309.308.309h2.097a.316.316 0 00.308-.309.316.316 0 00-.308-.308zm2.076.987a.303.303 0 00-.432-.062.304.304 0 00-.062.432c.247.329.391.719.391 1.13v.678c0 .185.144.309.308.309a.316.316 0 00.308-.309v-.678c0-.534-.185-1.048-.513-1.5zm-106.526-.021c-.144-.103-.329-.082-.432.062a2.556 2.556 0 00-.493 1.48v.719c0 .185.144.308.308.308a.316.316 0 00.308-.308v-.719c0-.411.124-.781.37-1.11.103-.144.083-.329-.061-.432zm106.711 4.008a.303.303 0 00-.309.308v2.097c0 .164.144.308.309.308a.316.316 0 00.308-.308v-2.097c.02-.164-.123-.308-.308-.308zM119 109.065a.302.302 0 00-.308.308v2.097c0 .164.144.308.308.308a.316.316 0 00.308-.308v-2.097a.302.302 0 00-.308-.308zm107.328 4.152a.303.303 0 00-.309.308v2.096c0 .165.144.309.309.309a.316.316 0 00.308-.309v-2.096c.02-.164-.123-.308-.308-.308zM119 113.258a.302.302 0 00-.308.308v2.097c0 .164.144.308.308.308a.316.316 0 00.308-.308v-2.097a.316.316 0 00-.308-.308zm107.328 4.152a.303.303 0 00-.309.308v2.117c0 .185.144.308.309.308a.316.316 0 00.308-.308v-2.097c.02-.185-.123-.328-.308-.328zM119 117.451a.302.302 0 00-.308.308v2.096c0 .185.144.309.308.309a.316.316 0 00.308-.309v-2.096a.316.316 0 00-.308-.308zm107.328 4.151c-.021 0-.062 0-.083.021a.334.334 0 00-.226.308v2.097c0 .144.103.267.226.308.021 0 .062.02.083.02a.302.302 0 00.308-.308v-2.096c.02-.206-.123-.35-.308-.35zM119 121.643a.303.303 0 00-.308.309v2.096c0 .185.144.308.308.308a.315.315 0 00.308-.308v-2.096a.316.316 0 00-.308-.309zm107.328 4.173c-.021 0-.062 0-.083.02a.335.335 0 00-.226.309v2.096c0 .144.103.267.226.308.021 0 .062.021.083.021a.302.302 0 00.308-.308v-2.097c.02-.205-.123-.349-.308-.349zm-107.328.02a.303.303 0 00-.308.309v2.117c0 .082.02.143.061.185a.294.294 0 00.247.123.316.316 0 00.308-.308v-2.097c0-.185-.144-.329-.308-.329zm107.328 4.173a.303.303 0 00-.309.308v2.096c0 .165.144.309.309.309a.316.316 0 00.308-.309v-2.096c.02-.165-.123-.308-.308-.308zM119 130.05a.302.302 0 00-.308.308v2.096c0 .165.144.309.308.309a.316.316 0 00.308-.309v-2.096a.316.316 0 00-.308-.308zm107.328 4.151a.303.303 0 00-.309.309v2.096c0 .164.144.308.309.308a.316.316 0 00.308-.308v-2.096c.02-.165-.123-.309-.308-.309zM119 134.242a.303.303 0 00-.308.309v2.096c0 .165.144.308.308.308a.315.315 0 00.308-.308v-2.096a.316.316 0 00-.308-.309zm107.328 4.152a.303.303 0 00-.309.308v2.097c0 .185.144.308.309.308a.316.316 0 00.308-.308v-2.097c.02-.164-.123-.308-.308-.308zm-107.205.062c-.041-.021-.082-.021-.123-.021a.303.303 0 00-.308.309v2.096c0 .062.02.103.041.164a.32.32 0 00.267.165.316.316 0 00.308-.308v-2.117a.321.321 0 00-.185-.288zm107.205 4.152a.303.303 0 00-.309.308v2.096a.29.29 0 00.206.288c.041.02.082.02.123.02a.302.302 0 00.308-.308v-2.096c0-.185-.143-.308-.328-.308zm-107.328.02a.302.302 0 00-.308.308v2.097c0 .164.144.308.308.308a.316.316 0 00.308-.308v-2.097a.316.316 0 00-.308-.308zm107.328 4.172a.303.303 0 00-.309.309v2.096c0 .185.144.308.309.308a.316.316 0 00.308-.308v-2.096c.02-.165-.123-.309-.308-.309zM119 146.841a.303.303 0 00-.308.309v2.096c0 .165.144.308.308.308a.315.315 0 00.308-.308v-2.096a.303.303 0 00-.308-.309zm107.656 4.419a.217.217 0 00-.102-.185.268.268 0 00-.206-.082c-.082 0-.164.021-.205.082-.062.041-.083.103-.103.185v2.138c0 .164.144.308.308.308a.315.315 0 00.308-.308v-2.138zM119 151.034a.303.303 0 00-.308.309v2.096c0 .164.144.308.308.308a.316.316 0 00.308-.308v-2.096a.316.316 0 00-.308-.309zm107.328 4.152a.303.303 0 00-.309.308v2.097c0 .164.144.308.309.308a.316.316 0 00.308-.308v-2.097c.02-.164-.123-.308-.308-.308zM119 155.227a.392.392 0 00-.164.041.35.35 0 00-.144.267v2.097c0 .164.144.308.308.308.041 0 .062 0 .103-.021a.334.334 0 00.226-.308v-2.096a.353.353 0 00-.329-.288zm107.328 4.152a.303.303 0 00-.309.308v2.096c0 .185.144.309.309.309a.316.316 0 00.308-.309v-2.075c.02-.185-.123-.329-.308-.329zm-107.061.185c-.061-.083-.144-.124-.267-.124a.303.303 0 00-.308.309v2.096c0 .164.144.308.308.308a.316.316 0 00.308-.308v-2.096a.402.402 0 00-.041-.185zm107.061 4.028a.303.303 0 00-.309.308v2.097c0 .041 0 .061.021.103v.02a.34.34 0 00.205.206c.021 0 .062.02.083.02a.29.29 0 00.287-.205v-.021c.021-.02.021-.062.021-.103v-2.096c.02-.206-.123-.329-.308-.329zM119 163.613a.302.302 0 00-.308.308v2.096c0 .185.144.309.308.309a.316.316 0 00.308-.309v-2.096a.315.315 0 00-.308-.308zm107.328 4.172c-.021 0-.062 0-.083.02a.336.336 0 00-.226.309v2.076c0 .143.103.267.226.308.021 0 .062.02.083.02a.302.302 0 00.308-.308v-2.096c.02-.185-.123-.329-.308-.329zM119 167.826a.302.302 0 00-.308.308v2.097c0 .185.144.308.308.308a.316.316 0 00.308-.308v-2.097a.316.316 0 00-.308-.308zm107.328 4.152c-.021 0-.062 0-.083.02a.335.335 0 00-.226.309v2.096c0 .185.144.308.309.308a.316.316 0 00.308-.308v-2.096c.02-.185-.123-.329-.308-.329zM119 172.019a.302.302 0 00-.308.308v1.644c.205.103.411.206.637.288v-1.952a.353.353 0 00-.329-.288zm107.636 4.398c-.021-.144-.165-.247-.308-.247a.303.303 0 00-.309.309v2.096c0 .165.144.308.309.308a.315.315 0 00.308-.308v-2.096c.02-.021.02-.041 0-.062zm-78.04 6.824H146.5c-.062 0-.144.02-.185.061.801.185 1.603.37 2.425.535a.323.323 0 00.185-.288c-.02-.164-.164-.308-.329-.308zm4.193 0h-2.096a.316.316 0 00-.309.308c0 .164.144.308.309.308h2.096a.315.315 0 00.308-.308.315.315 0 00-.308-.308zm4.193 0h-2.096a.316.316 0 00-.309.308c0 .164.144.308.309.308h2.096a.316.316 0 00.308-.308.302.302 0 00-.308-.308zm4.193 0h-2.097a.316.316 0 00-.308.308c0 .164.144.308.308.308h2.097a.316.316 0 00.308-.308c.021-.164-.123-.308-.308-.308zm4.213 0h-2.096a.316.316 0 00-.309.308c0 .164.144.308.309.308h2.096a.316.316 0 00.308-.308.316.316 0 00-.308-.308zm4.193 0h-2.097a.316.316 0 00-.308.308c0 .164.144.308.308.308h2.097a.316.316 0 00.308-.308.316.316 0 00-.308-.308zm4.193 0h-2.097a.302.302 0 00-.308.308c0 .164.144.308.308.308h2.097a.302.302 0 00.308-.308.316.316 0 00-.308-.308zm4.192 0h-2.096a.316.316 0 00-.308.308c0 .164.144.308.308.308h2.096a.303.303 0 00.309-.308.303.303 0 00-.309-.308zm4.193 0h-2.096c-.082 0-.144.041-.206.082a.333.333 0 00-.102.226c0 .164.143.308.308.308h2.096a.316.316 0 00.309-.308c.02-.164-.124-.308-.309-.308zm4.214 0h-2.097a.302.302 0 00-.308.308c0 .164.144.308.308.308h2.097a.316.316 0 00.308-.308.316.316 0 00-.308-.308zm4.192 0h-2.096a.302.302 0 00-.308.308c0 .164.144.308.308.308h2.096a.316.316 0 00.309-.308.316.316 0 00-.309-.308zm4.193 0h-2.096a.302.302 0 00-.308.308c0 .164.143.308.308.308h2.096a.303.303 0 00.309-.308.303.303 0 00-.309-.308zm4.193 0h-2.096a.316.316 0 00-.309.308c0 .164.144.308.309.308h2.096a.302.302 0 00.308-.308c.021-.164-.123-.308-.308-.308zm4.193 0h-2.097a.316.316 0 00-.308.308c0 .164.144.308.308.308h2.097a.302.302 0 00.308-.308c.021-.164-.123-.308-.308-.308zm4.213 0h-2.096a.303.303 0 00-.309.308c0 .164.144.308.309.308h2.096a.315.315 0 00.308-.308.315.315 0 00-.308-.308zm4.193 0h-2.096a.303.303 0 00-.309.308c0 .164.144.308.309.308h2.096a.316.316 0 00.308-.308.316.316 0 00-.308-.308zm4.193 0h-2.097c-.164 0-.308.123-.308.287v.021c0 .164.144.308.308.308h.74c.555-.144 1.09-.308 1.624-.472-.041-.083-.144-.144-.267-.144z" fill="#ED7D2B"/><path d="M123.272 147.252h-18.867c-2.652 0-4.83-2.178-4.83-4.829v-2.919c0-2.651 2.178-4.83 4.83-4.83h18.867c2.652 0 4.83 2.179 4.83 4.83v2.919c.021 2.651-2.158 4.829-4.83 4.829z" fill="#ED7D2B"/><path d="M242.152 151.075v.185a39.347 39.347 0 01-.884 7.296v.041c-.185.843-.39 1.665-.637 2.508a38.761 38.761 0 01-1.767 4.973v.021a39.754 39.754 0 01-3.166 5.899c-.37.555-.74 1.089-1.13 1.644a37.044 37.044 0 01-2.528 3.145c-.945.513-1.911 1.007-2.877 1.5a82.347 82.347 0 01-4.522 2.055c-.247.103-.514.206-.781.329-.452.185-.904.37-1.357.534l-1.973.74a81.662 81.662 0 01-4.501 1.48c-.534.165-1.089.329-1.623.473a89.674 89.674 0 01-6.454 1.562c-1.685.431-3.412.74-5.138.925-4.008.616-8.139 1.007-12.455 1.192-.699.041-1.398.062-2.117.062a40.12 40.12 0 01-7.523-3.741c-.288-.185-.555-.37-.842-.555-5.098-3.432-9.475-8.098-12.661-13.853a39.48 39.48 0 01-4.152-11.263 3.028 3.028 0 01-.082-.452 17.104 17.104 0 01-.247-1.418c-1.705-10.955 1.254-22.197 8.078-30.871a39.796 39.796 0 015.57-5.754 37.78 37.78 0 012.692-2.097 38.83 38.83 0 012.364-1.562c.267-.164.555-.329.822-.493.226-.123.452-.247.657-.37a40.703 40.703 0 015.632-2.569 37.194 37.194 0 014.008-1.233 39.499 39.499 0 019.639-1.172 40.204 40.204 0 0116.401 3.515 39.78 39.78 0 011.912.925c.267.123.514.267.781.411.637.349 1.295.719 1.911 1.109a36.916 36.916 0 012.857 1.932c.206.165.411.309.637.473.37.288.761.596 1.131.904.267.206.513.432.781.658.431.37.842.761 1.253 1.131l.021.02a36.234 36.234 0 012.96 3.165c.267.309.513.637.781.946.76.945 1.479 1.952 2.137 3 .062.083.103.165.164.268.042.061.083.123.103.164.124.206.247.391.37.596.308.493.596.987.863 1.48a39.21 39.21 0 012.426 5.282v.021a39.53 39.53 0 012.014 7.522c.329 2.405.493 4.871.452 7.317z" fill="#E2810E"/><path d="M238.534 158.556v.062a39.516 39.516 0 01-2.055 7.481v.021a32.976 32.976 0 01-.801 1.932 38.097 38.097 0 01-2.138 4.172c-.247.431-.514.842-.781 1.254a1.963 1.963 0 00-.103.164 37.976 37.976 0 01-3.514 4.624 81.614 81.614 0 01-4.522 2.056c-.247.102-.514.205-.781.329-.452.184-.904.369-1.356.534l-1.974.74a83.101 83.101 0 01-4.501 1.48c-.534.164-1.089.328-1.623.472a89.674 89.674 0 01-6.454 1.562c-1.685.432-3.412.74-5.138.925-4.008.617-8.139 1.007-12.455 1.192-.699.041-1.398.062-2.117.062-1.028.021-2.076.041-3.124.041-1.254 0-2.528-.02-3.803-.041a39.82 39.82 0 01-17.141-16.463c-2.24-4.09-3.72-8.386-4.439-12.743a82.508 82.508 0 01-.124-.76c-.061-.37-.102-.74-.143-1.11a40.05 40.05 0 0110.214-31.672 40.509 40.509 0 016.105-5.426c.287-.206.555-.391.842-.596a52.682 52.682 0 012.549-1.603c.226-.124.452-.268.678-.391a27.009 27.009 0 011.542-.801c.267-.124.534-.268.801-.391.247-.103.473-.226.72-.329a37.709 37.709 0 014.747-1.767c.144-.041.309-.083.452-.124 1.46-.431 2.939-.76 4.419-1.007a47.938 47.938 0 012.364-.329 40.238 40.238 0 016.289-.164c3.371.185 6.68.781 9.886 1.788.987.308 1.932.658 2.898 1.028.267.102.514.205.781.308.658.288 1.315.576 1.973.904a41.833 41.833 0 013.761 2.097c.268.164.514.329.781.493a40.804 40.804 0 013.597 2.692s.021 0 .021.021c.205.164.411.349.616.514.185.164.37.329.535.493.082.062.143.144.226.206.144.123.267.246.411.37a37.13 37.13 0 012.178 2.24 36.84 36.84 0 012.837 3.535v.021c.041.061.082.102.102.164a43.114 43.114 0 012.364 3.761c.514.925.987 1.87 1.418 2.836.041.103.082.185.124.288.061.165.143.308.205.473v.02c.288.658.555 1.316.781 1.994.288.781.534 1.542.781 2.323.329 1.068.596 2.137.822 3.206.288 1.418.514 2.836.637 4.254.103 1.028.165 2.076.185 3.104v.185a39.28 39.28 0 01-.555 7.296z" fill="#FFB93E"/><path d="M235.78 151.26v-.185a45.127 45.127 0 00-.082-1.685 35.454 35.454 0 00-.904-5.673 29.592 29.592 0 00-.35-1.295 34.803 34.803 0 00-2.404-6.227v-.021c-.247-.493-.494-.987-.761-1.459a38.68 38.68 0 00-2.713-4.214 35.636 35.636 0 00-.781-1.007l-.555-.678c-.041-.062-.103-.123-.144-.164-.144-.165-.267-.329-.411-.473a8.008 8.008 0 00-.411-.452c-.082-.083-.144-.165-.226-.247-.185-.185-.349-.39-.534-.575a35.581 35.581 0 00-5.735-4.81c-.246-.164-.513-.349-.781-.514-.164-.102-.308-.205-.472-.308 0 0-.021 0-.021-.02a33.853 33.853 0 00-3.72-1.994c-.247-.123-.514-.226-.781-.35a37.844 37.844 0 00-4.501-1.623 36.575 36.575 0 00-10.256-1.459c-2.24 0-4.481.226-6.68.637a41.481 41.481 0 00-3.494.842 34.095 34.095 0 00-3.062 1.069 41.084 41.084 0 00-4.193 1.973c-.432.226-.843.473-1.254.72a33.498 33.498 0 00-3.309 2.26 46.932 46.932 0 00-2.466 2.056 41.94 41.94 0 00-1.398 1.336c-4.192 4.254-7.275 9.495-8.961 15.394a36.465 36.465 0 00-1.233 14.161c.062.493.123.986.185 1.459l.062.411a36.662 36.662 0 004.069 11.654 36.132 36.132 0 0012.702 13.38c.349.226.699.431 1.069.637a36.164 36.164 0 007.995 3.37c.37.103.719.206 1.089.288 4.296-.185 8.447-.575 12.455-1.192a34.123 34.123 0 01-12.928-1.192 37.325 37.325 0 01-3.679-1.295c-.472-.205-.966-.411-1.418-.637-6.494-3.042-11.838-8.036-15.353-14.428-1.87-3.412-3.144-7.029-3.782-10.749-.02-.062-.02-.144-.041-.206-.102-.555-.164-1.11-.226-1.665a34.22 34.22 0 011.131-13.421 33.836 33.836 0 017.481-13.441c.493-.535.987-1.049 1.5-1.562.288-.288.596-.576.905-.843a31.287 31.287 0 013.411-2.693 29.99 29.99 0 013.083-1.911c.699-.39 1.398-.74 2.117-1.069a38.4 38.4 0 014.09-1.603 30.09 30.09 0 013.494-.904c1.871-.391 3.782-.596 5.694-.678a34.276 34.276 0 0110.646 1.356 34.969 34.969 0 015.015 1.87s.02 0 .02.021a33.322 33.322 0 015.056 2.918c.268.185.514.37.782.555a34.499 34.499 0 014.398 3.885c.062.062.103.123.164.164a30.777 30.777 0 011.706 1.973c.206.268.411.535.637.802.391.514.761 1.048 1.131 1.583.267.39.534.801.781 1.212.287.452.555.905.801 1.377.083.144.144.288.226.411.206.391.411.761.596 1.151a34.395 34.395 0 012.364 6.372 32.943 32.943 0 011.069 7.358v.185a33.639 33.639 0 01-.576 7.296v.062a31.066 31.066 0 01-.719 3.041c-.021.042-.021.083-.041.124a33.49 33.49 0 01-1.562 4.295v.021a34.464 34.464 0 01-4.049 6.885 8.804 8.804 0 01-.411.514c-.041.041-.062.082-.103.123-.041.062-.082.103-.123.165a34.172 34.172 0 01-1.398 1.623c-.247.288-.514.555-.781.822a34.2 34.2 0 01-5.734 4.687c-.123.082-.267.185-.391.246a33.422 33.422 0 01-3.761 2.076 5.867 5.867 0 01-.637.288 35.315 35.315 0 01-5.405 1.911 89.518 89.518 0 006.453-1.562c.555-.144 1.09-.308 1.624-.473a82.509 82.509 0 004.501-1.479c.349-.247.678-.494 1.007-.74a35.177 35.177 0 002.323-1.932c.267-.226.513-.473.781-.72.472-.452.945-.925 1.397-1.418l.617-.678a37.122 37.122 0 002.24-2.795 35.654 35.654 0 003.885-6.844c.102-.226.205-.453.287-.679v-.02a31.314 31.314 0 001.275-3.7c.143-.514.287-1.027.411-1.541.185-.74.328-1.501.472-2.24v-.062l.185-1.11a31.69 31.69 0 00.268-2.405c.061-1.192.082-2.445.061-3.699z" fill="#FFA412"/><path d="M217.757 158.618v-.062c-.124-.924-.391-1.849-.782-2.795-.082-.205-.164-.39-.246-.575-.576-1.275-1.274-2.323-2.117-3.165a89.584 89.584 0 01-.308-.309c-.144-.144-.309-.267-.453-.39-.02-.021-.061-.041-.082-.062l-.246-.185a11.222 11.222 0 00-3.022-1.603c-1.438-.493-3.062-.802-4.85-.904a66.548 66.548 0 00-5.817-.082c-1.295.041-2.404.02-3.329-.062-.925-.082-1.706-.247-2.343-.514s-1.151-.617-1.562-1.048c-.021-.021-.041-.041-.041-.062-.042-.041-.083-.103-.124-.144a5.63 5.63 0 01-.39-.575 5.562 5.562 0 01-.432-.863 6.017 6.017 0 01-.452-1.912 4.144 4.144 0 01.288-1.809 4.256 4.256 0 011.089-1.541l.041-.041c.514-.493 1.192-.904 2.035-1.233 1.192-.494 2.322-.596 3.391-.309.329.083.658.206.987.37 1.356.658 2.445 2.035 3.309 4.132l8.139-3.309c-.514-1.254-1.11-2.385-1.809-3.351v-.02c-.267-.37-.555-.72-.843-1.048-1.068-1.213-2.261-2.138-3.596-2.796a11.525 11.525 0 00-4.378-1.151c-1.583-.102-3.206.062-4.912.514l-.596-1.48-.638-1.562-1.048-2.589-.02-.062-4.501 1.829 1.048 2.549 1.233 3.042-.555.308c-.226.123-.473.267-.678.391-1.11.678-2.076 1.418-2.898 2.24-1.131 1.11-1.994 2.322-2.61 3.638a10.2 10.2 0 00-.966 4.11c-.021 1.439.267 2.898.863 4.378.699 1.706 1.582 3.062 2.672 4.07.822.76 1.747 1.356 2.774 1.829.329.144.679.287 1.028.411.699.246 1.459.431 2.261.575l.349.062c.72.123 1.459.205 2.241.247 1.788.102 3.74.102 5.837 0 1.212-.062 2.281-.062 3.185.02.905.082 1.665.247 2.323.514a4.383 4.383 0 011.623 1.11c.329.349.596.76.843 1.254 0 .02.021.041.021.061.082.165.144.329.226.493.267.638.39 1.295.39 1.932 0 .124 0 .247-.02.37a4.186 4.186 0 01-.411 1.48 5.251 5.251 0 01-1.295 1.624c-.576.493-1.295.925-2.179 1.274-.288.124-.575.206-.863.308-.021 0-.021 0-.041.021a9.389 9.389 0 01-1.48.308 5.303 5.303 0 01-2.405-.246l-.185-.062c-.02 0-.02 0-.041-.021-.699-.267-1.356-.719-1.993-1.335-.679-.679-1.275-1.645-1.788-2.898l-7.441 3.021-.698.288c.842 2.096 1.911 3.761 3.206 4.973a12.53 12.53 0 002.425 1.83 9.973 9.973 0 001.788.801c1.521.535 3.124.761 4.789.699a19.384 19.384 0 004.933-.822l.411.986 1.706 4.193 4.48-1.808-.966-2.364-1.151-2.836c1.624-.843 3.022-1.809 4.173-2.919.596-.575 1.13-1.151 1.582-1.788v-.021c.349-.493.658-.986.925-1.5.041-.103.103-.185.144-.288.349-.74.616-1.5.781-2.302.123-.575.185-1.171.205-1.788-.041-.575-.061-1.11-.143-1.644z" fill="#FFA412"/><path d="M101.962 140.799a2.983 2.983 0 012.981-2.98 2.982 2.982 0 012.98 2.98 2.982 2.982 0 01-2.98 2.98 2.983 2.983 0 01-2.981-2.98z" fill="#FFB93E"/></g><path opacity=".15" d="M406.973 71.68c6.068-24.17-8.659-48.67-32.894-54.722s-48.8 8.636-54.869 32.806c-6.068 24.17 8.659 48.67 32.895 54.722 24.235 6.052 48.8-8.636 54.868-32.806z" fill="#000"/><path d="M361.881 19.244V15.63s19.868-1.87 34.738 14.954l-2.874 2.12s-11.746-14.083-31.864-13.46zm34.738 16.949l2.999-1.87s3.498 4.736 4.998 8.724l-3.499.748c0 .124-1.624-3.614-4.498-7.602z" fill="#fff"/><path d="M365.331 101.869c23.739 0 42.984-19.194 42.984-42.87 0-23.677-19.245-42.87-42.984-42.87-23.74 0-42.985 19.193-42.985 42.87 0 23.676 19.245 42.87 42.985 42.87z" fill="url(#paint0_linear)"/><path d="M363.007 92.023c18.288 0 33.113-14.785 33.113-33.025 0-18.239-14.825-33.024-33.113-33.024s-33.113 14.785-33.113 33.024c0 18.24 14.825 33.025 33.113 33.025z" fill="url(#paint1_linear)"/><path d="M363.008 90.653c16.425 0 29.74-13.28 29.74-29.66 0-16.381-13.315-29.66-29.74-29.66-16.424 0-29.739 13.279-29.739 29.66 0 16.38 13.315 29.66 29.739 29.66z" fill="url(#paint2_linear)"/><path d="M360.881 58.999l1.749-27.417h1.625l1.624 27.417h-4.998z" fill="url(#paint3_linear)"/><path d="M363.382 60.619l-.25-4.113L381 57.38V59l-17.618 1.62z" fill="url(#paint4_linear)"/><path d="M366.756 58.25c0 1.62-1.375 2.992-2.999 2.992s-2.999-1.371-2.999-2.991 1.375-2.991 2.999-2.991 2.999 1.246 2.999 2.99z" fill="url(#paint5_linear)"/><path d="M336.766 59.995c.966 0 1.75-.78 1.75-1.744s-.784-1.745-1.75-1.745-1.749.781-1.749 1.745c0 .963.783 1.745 1.749 1.745z" fill="url(#paint6_linear)"/><path d="M389.248 59.995c.966 0 1.749-.78 1.749-1.744s-.783-1.745-1.749-1.745c-.966 0-1.749.781-1.749 1.745 0 .963.783 1.745 1.749 1.745z" fill="url(#paint7_linear)"/><path d="M363.756 33.327c.966 0 1.749-.782 1.749-1.745 0-.964-.783-1.745-1.749-1.745-.966 0-1.75.781-1.75 1.745 0 .963.784 1.745 1.75 1.745z" fill="url(#paint8_linear)"/><path opacity=".4" d="M357.134 26.223l3.749 10.468s15.869.25 23.866 9.845l7.873-3.863c-1.75-6.73-15.87-21.061-35.488-16.45z" fill="#fff"/><path opacity=".5" d="M344.012 83.923l3.873-5.359s8.747 6.107 22.242 5.234l2 5.857c-.125 0-14.995 4.736-28.115-5.732z" fill="#fff"/><path d="M284.367 281.322v74.759c0 3.765-3.089 6.723-6.716 6.723H151.256c-3.358 0-6.179-2.42-6.716-5.647-.134-.404-.134-.807-.134-1.21v-74.759c0-3.765 3.089-6.723 6.716-6.723h126.395c3.761.134 6.85 3.227 6.85 6.857z" fill="#6B48A6"/><path d="M173.417 274.599c-12.626.269-14.238 4.706-14.775 8.336-.537 3.631 0 65.482 0 65.482h-1.88s-1.075-58.624 0-65.482c1.074-6.722 5.372-8.336 5.372-8.336h11.283z" fill="#3D0B34"/><path d="M151.523 287.238c0 1.076-.672 2.017-1.612 2.017-.94 0-1.612-.941-1.612-2.017s.672-2.017 1.612-2.017c.806 0 1.612.941 1.612 2.017zm2.014 6.723c0 .538-.403 1.076-1.074 1.076-.538 0-1.075-.404-1.075-1.076 0-.538.403-1.076 1.075-1.076.537 0 1.074.538 1.074 1.076z" fill="#fff"/><path d="M312.573 281.322v74.759c0 .941-.135 1.748-.538 2.555-.94 2.42-3.358 4.168-6.313 4.168H179.327c-3.761 0-6.716-3.093-6.716-6.723v-74.759c0-3.765 3.089-6.723 6.716-6.723h126.395c3.896 0 6.851 3.093 6.851 6.723z" fill="#8B69C5"/><path d="M230.307 304.341l-6.777-1.001-2.077 14.1 6.777 1.001 2.077-14.1z" fill="#fff"/><path d="M312.572 281.322v74.759c0 .941-.134 1.748-.537 2.555H182.013s67.966-12.371 91.203-84.037h32.64c3.761 0 6.716 3.093 6.716 6.723z" fill="#CBB3FF"/><path d="M261.263 313.323c4.228 0 7.656-4.695 7.656-10.488 0-5.792-3.428-10.487-7.656-10.487-4.229 0-7.657 4.695-7.657 10.487 0 5.793 3.428 10.488 7.657 10.488zm4.566 16.807c1.039 0 1.881-1.144 1.881-2.555 0-1.41-.842-2.554-1.881-2.554-1.038 0-1.88 1.144-1.88 2.554 0 1.411.842 2.555 1.88 2.555zm-41.238-3.63c0 2.42-1.477 4.437-3.358 4.437-1.88 0-3.358-2.017-3.358-4.437 0-2.42 1.478-4.437 3.358-4.437 1.881 0 3.358 2.017 3.358 4.437zm-14.774 10.488c.891 0 1.612-1.024 1.612-2.286 0-1.263-.721-2.286-1.612-2.286-.89 0-1.611 1.023-1.611 2.286 0 1.262.721 2.286 1.611 2.286zm2.686-62.389s-33.177 1.076-35.998 4.168c-2.82 3.227-3.761 39.934-3.761 39.934v-37.379c0-3.765 3.09-6.723 6.716-6.723h33.043z" fill="#fff"/><path d="M191.146 323.407c0 1.614-.806 2.824-1.881 2.824-1.074 0-1.88-1.345-1.88-2.824 0-1.613.806-2.823 1.88-2.823 1.075 0 1.881 1.21 1.881 2.823z" fill="#FFA299"/><path d="M174.76 362.938h-23.641c-3.358 0-6.178-2.42-6.716-5.647h26.73c.134 0 .537 3.227 3.627 5.647z" fill="#8384EE"/><path d="M207.037 288.13l-8.135 1.782 2.927 13.398 8.136-1.782-2.928-13.398z" fill="#fff"/><path d="M206.583 289.19l-6.955 1.523 2.526 11.559 6.955-1.523-2.526-11.559z" fill="#B6BA2C"/><path d="M103.822 216.269l5.916-5.902c2.151-2.146 2.151-5.365 0-7.511s-5.378-2.146-7.53 0l-5.916 5.902-5.916-5.902c-2.151-2.146-5.378-2.146-7.53 0-2.151 2.146-2.151 5.365 0 7.511l5.916 5.902-5.916 5.901c-2.151 2.146-2.151 5.365 0 7.511 2.152 2.146 5.379 2.146 7.53 0l5.916-5.901 5.916 5.901c2.152 2.146 5.379 2.146 7.53 0 2.151-2.146 2.151-5.365 0-7.511l-5.916-5.901zm-26.864 53.386l3.36-3.36c1.221-1.221 1.221-3.054 0-4.275-1.222-1.222-3.055-1.222-4.276 0l-3.36 3.359-3.359-3.359c-1.221-1.222-3.054-1.222-4.275 0-1.222 1.221-1.222 3.054 0 4.275l3.36 3.36-3.36 3.359c-1.222 1.221-1.222 3.054 0 4.275 1.221 1.222 3.054 1.222 4.275 0l3.36-3.359 3.359 3.359c1.221 1.222 3.054 1.222 4.275 0 1.222-1.221 1.222-3.054 0-4.275l-3.359-3.359z" fill="#CAE0FF"/><defs><linearGradient id="paint0_linear" x1="322.395" y1="58.999" x2="408.323" y2="58.999" gradientUnits="userSpaceOnUse"><stop offset="0" stop-color="#8B69C5"/><stop offset="1" stop-color="#CBB3FF"/></linearGradient><linearGradient id="paint1_linear" x1="363.035" y1="91.975" x2="363.035" y2="26.022" gradientUnits="userSpaceOnUse"><stop stop-color="#DDCDFF"/><stop offset="1" stop-color="#9F9CFF"/></linearGradient><linearGradient id="paint2_linear" x1="363.037" y1="90.676" x2="363.037" y2="31.311" gradientUnits="userSpaceOnUse"><stop stop-color="#EEF0FF"/><stop offset="1" stop-color="#DDCDFF"/></linearGradient><linearGradient id="paint3_linear" x1="363.368" y1="58.999" x2="363.368" y2="31.633" gradientUnits="userSpaceOnUse"><stop stop-color="#1C257B"/><stop offset="1" stop-color="#482C83"/></linearGradient><linearGradient id="paint4_linear" x1="372.021" y1="60.652" x2="372.021" y2="56.533" gradientUnits="userSpaceOnUse"><stop stop-color="#1C257B"/><stop offset="1" stop-color="#482C83"/></linearGradient><linearGradient id="paint5_linear" x1="363.696" y1="61.209" x2="363.696" y2="55.203" gradientUnits="userSpaceOnUse"><stop stop-color="#1C257B"/><stop offset="1" stop-color="#482C83"/></linearGradient><linearGradient id="paint6_linear" x1="336.725" y1="59.954" x2="336.725" y2="56.459" gradientUnits="userSpaceOnUse"><stop stop-color="#1C257B"/><stop offset="1" stop-color="#482C83"/></linearGradient><linearGradient id="paint7_linear" x1="389.253" y1="59.954" x2="389.253" y2="56.459" gradientUnits="userSpaceOnUse"><stop stop-color="#1C257B"/><stop offset="1" stop-color="#482C83"/></linearGradient><linearGradient id="paint8_linear" x1="363.695" y1="33.381" x2="363.695" y2="29.886" gradientUnits="userSpaceOnUse"><stop stop-color="#1C257B"/><stop offset="1" stop-color="#482C83"/></linearGradient><filter id="filter0_d" x="61.409" y=".661" width="240.223" height="211.019" filterUnits="userSpaceOnUse" color-interpolation-filters="sRGB"><feFlood flood-opacity="0" result="BackgroundImageFix"/><feColorMatrix in="SourceAlpha" values="0 0 0 0 0 0 0 0 0 0 0 0 0 0 0 0 0 0 127 0"/><feOffset dy="4"/><feGaussianBlur stdDeviation="10"/><feColorMatrix values="0 0 0 0 0.458824 0 0 0 0 0.72549 0 0 0 0 1 0 0 0 1 0"/><feBlend in2="BackgroundImageFix" result="effect1_dropShadow"/><feBlend in="SourceGraphic" in2="effect1_dropShadow" result="shape"/></filter></defs></svg>