<svg width="433" height="303" fill="none" xmlns="http://www.w3.org/2000/svg"><path d="M32.12 247.526C3.745 212.9-18.992 192.652 23.477 133.219c37.69-52.722 77.159-31.267 113.951-19.336 26.691 8.66 53.213-7.27 86.903-60.907 45.944-73.16 205.194-28.793 176.164 83.768-14.049 54.467 7.343 28.06 13.811 110.884 6.469 82.823-345.04 45.229-382.186-.102z" fill="#EBF3FA"/><path d="M281.494 59.5l58.341-10.67a8.817 8.817 0 018.515 3.214l36.738 46.56-17.605 46.639-101.622-44.326L281.495 59.5h-.001z" fill="#5C96EF"/><path d="M337.338 114.736l-33.937 8.449L292.117 77.9l-4.748-19.08 33.929-8.445 8.878 35.62 7.162 28.741z" fill="#A8D29F"/><path d="M332.626 112.006l-26.35 6.555-14.411-57.853 26.35-6.554 14.411 57.852zm-23.316 4.944l19.868-4.948a2.503 2.503 0 001.829-3.049L318.23 57.644a2.56 2.56 0 00-3.101-1.868l-19.792 4.926a2.544 2.544 0 00-1.855 3.079l12.791 51.341a2.507 2.507 0 003.037 1.828z" fill="#82B378"/><path d="M305.159 88.12c-.98-3.917 1.409-7.883 5.323-8.861 3.914-.978 7.879 1.415 8.859 5.333.98 3.917-1.409 7.883-5.323 8.86-3.917.97-7.887-1.411-8.859-5.332z" fill="#82B378"/><path d="M337.88 113.231l-34.962 1.444-1.969-46.596-.832-19.634L335.079 47l1.554 36.655 1.247 29.575z" fill="#A8D29F"/><path d="M333.812 109.599l-27.141 1.126-2.522-59.529 27.142-1.125 2.521 59.528zm-23.852.164l20.469-.851a2.52 2.52 0 002.409-2.619l-2.231-52.797a2.56 2.56 0 00-2.666-2.453l-20.389.844a2.536 2.536 0 00-2.429 2.647l2.236 52.834a2.51 2.51 0 002.601 2.395z" fill="#82B378"/><path d="M318.071 87.65a7.301 7.301 0 008.16-6.336 7.316 7.316 0 00-6.346-8.164 7.301 7.301 0 00-8.16 6.336 7.316 7.316 0 006.346 8.163z" fill="#82B378"/><path d="M350.868 111.361l-34.981-.9 1.155-46.622.483-19.647 34.981.9-.902 36.677-.736 29.592z" fill="#A8D29F"/><path d="M347.051 107.465l-27.155-.694 1.468-59.563 27.156.694-1.469 59.563zm-23.81-1.433l20.481.521a2.518 2.518 0 002.578-2.452l1.308-52.828a2.56 2.56 0 00-2.496-2.626l-20.4-.522a2.535 2.535 0 00-2.6 2.478l-1.305 52.865a2.51 2.51 0 002.434 2.564z" fill="#82B378"/><path d="M332.814 84.51a7.3 7.3 0 008.566-5.775 7.316 7.316 0 00-5.785-8.57 7.3 7.3 0 00-8.565 5.775 7.315 7.315 0 005.784 8.57z" fill="#82B378"/><path d="M345.355 120.128l-33.439-10.307L325.61 65.24l5.768-18.787 33.44 10.307-10.767 35.072-8.696 28.296z" fill="#A8D29F"/><path d="M342.732 115.347l-25.961-7.997 17.49-56.957 25.961 7.997-17.49 56.957zm-22.539-7.806l19.58 6.029a2.518 2.518 0 003.144-1.664l15.517-50.515a2.56 2.56 0 00-1.695-3.203l-19.502-6.008a2.536 2.536 0 00-3.173 1.684l-15.523 50.552a2.508 2.508 0 001.652 3.125z" fill="#82B378"/><path d="M335.22 89.402a7.301 7.301 0 009.807-3.25c1.808-3.606.35-8-3.257-9.812a7.3 7.3 0 00-9.807 3.248 7.316 7.316 0 003.257 9.814z" fill="#82B378"/><path d="M341.39 129.703l-29.694-18.512 24.636-39.6 10.378-16.688 29.694 18.513-19.375 31.155-15.639 25.132z" fill="#A8D29F"/><path d="M340.076 124.411l-23.054-14.368 31.468-50.594 23.054 14.368-31.468 50.594zm-19.795-13.308l17.388 10.834a2.52 2.52 0 003.466-.806l27.914-44.87a2.56 2.56 0 00-.82-3.53l-17.318-10.793a2.536 2.536 0 00-3.498.817l-27.93 44.904a2.509 2.509 0 00.798 3.444z" fill="#82B378"/><path d="M339.446 97.407a7.3 7.3 0 0010.311-.634 7.315 7.315 0 00-.64-10.32 7.3 7.3 0 00-10.311.635 7.315 7.315 0 00.64 10.32z" fill="#82B378"/><path d="M332.862 135.934l-22.311-26.957 35.898-29.77 15.126-12.548 22.311 26.956-28.236 23.425-22.788 18.894z" fill="#A8D29F"/><path d="M333.292 130.498l-17.324-20.924 45.858-38.039 17.324 20.924-45.858 38.039zm-14.568-18.888l13.067 15.779a2.52 2.52 0 003.543.332l40.676-33.734a2.56 2.56 0 00.339-3.607l-13.013-15.72a2.537 2.537 0 00-3.578-.331l-40.702 33.76a2.51 2.51 0 00-.332 3.52z" fill="#82B378"/><path d="M341.237 104.681a7.301 7.301 0 009.983 2.661 7.315 7.315 0 002.657-9.992 7.3 7.3 0 00-9.982-2.66 7.315 7.315 0 00-2.658 9.991z" fill="#82B378"/><path d="M385.327 97.972l-23.539 62.357-103.593-39.104 23.538-62.357 40.027 50.731 63.567-11.627z" fill="#3C80F3"/><path d="M258.196 121.226l60.212-15.902a8.016 8.016 0 018.696 3.282l34.685 51.723-103.593-39.103z" fill="#5B97EF"/><path d="M300.01 299.56s-7.83-8.934-10.059-13.015l-6.087-11.246-7.973 1.969 10.117 14.329 10.573 8.934 3.429-.971z" fill="#FFB27D"/><path d="M249.545 79.892c-1.829-1.056-4.058-1.17-5.601-1.056.4-.4 1.171-.571 1.171-.571-.943-.143-3.086.799-3.086.799-13.317-5.11-15.403 14.443-15.117 18.981.286 4.538-4.458 6.023-11.402 9.619-13.203 6.822-14.375 15.984-14.375 15.984.115.057.2.143.315.2.657-1.113 2-3.197 3.143-3.511-.057.115-1.343 2.855-1.829 4.453 3.887 2.969 11.174 9.534 16.261 14.157-.029-.913 0-2.197.342-2.882l.629 3.767a559.965 559.965 0 014.601 4.253c-.343-3.682 16.632-23.063 25.491-28.857 2.143-3.168 2.915-8.763 2.972-9.219-.372 4.452-1.143 6.936-1.801 8.334 7.545-6.85 3.172-31.683-1.714-34.451z" fill="#163560"/><path d="M249.602 115.571c.057.028-4.287 2.255-7.516 1.37-3.058-.828-5.058-4.795-5.001-4.795 1.286-.257 1.658-2.027 1.629-9.677l.572.115 9.83 1.94s-.229 3.083-.229 5.995c.029 2.454.172 4.766.715 5.052z" fill="#9C5F33"/><path d="M238.485 83.089s4.858-5.166 10.945-.257c0 0-3.544-.6-10.945.257z" fill="#A8D29F"/><path d="M238.285 101.499s-2.886-4.567-3.572-8.449c-.486-2.769.914-13.073 11.288-11.589 0 0 3 .286 5.83 2.198 2.257 1.513 5.486 4.795 1.857 13.787l-.943 3.025-14.46 1.028z" fill="#163560"/><path d="M288.352 282.605l-5.201.171-5.658.172s-13.032-14.5-20.347-37.734c-.172-.543-.343-1.085-.543-1.627-4.001-11.646-12.288-26.289-16.661-39.533a326.175 326.175 0 01-1.886-5.965 140 140 0 00-.514-1.77c-3.229-11.189-4.144-18.524-5.001-26.374l31.577.257c-.028-.057 5.059 53.519 24.234 112.403z" fill="#80BDCC"/><path d="M261.861 173.485s-13.517 6.85-29.577 1.798c-.2-.057 1.057-62.025 5.629-63.737 1.058 1.313 4.144 2.597 6.945 2.54 3.2-.057 4.229-1.427 4.057-2.94 3.401 1.913 6.116 3.711 6.116 3.711 2.915 5.023 6.83 58.628 6.83 58.628z" fill="#F1A34F"/><path d="M232.513 153.704c-1.371 1.941-4.029 13.815-10.602 15.299 3.401-8.448 5.973-12.159 6.373-14.756.743-4.853.772-9.876.4-14.615a214.355 214.355 0 013.858-6.507c.171-.628 3.515-10.904 4.572-1.713 1.029 9.22-3.057 20.123-4.601 22.292z" fill="#5F9AA8"/><path d="M250.973 107.293s-13.031.229-13.031-7.878c0-8.106-1.686-13.53 6.63-14.015 8.315-.485 9.944 2.598 10.602 5.31.657 2.683-.801 16.298-4.201 16.583z" fill="#AB7041"/><path d="M250.487 85.172s-3.572 9.505-9.03 10.904c-5.487 1.398-7.859-.057-7.859-.057s4.201-3.34 5.058-9.134c.029 0 9.145-6.223 11.831-1.713z" fill="#163560"/><path d="M249.601 85.943s2.658 2.112 3.315 4.196c.657 2.055.943 6.308 2.172 6.165 0 0 2.686-6.45-.343-10.104-3.172-3.882-5.144-.257-5.144-.257z" fill="#163560"/><path d="M303.385 120.737s1.829-6.622 9.116-5.68c.829.257 3.286 1.227 1.715 3.853-1.143 1.913-1.658.942-3.458 3.511-1.801 2.598-3.772 3.168-6.001 2.854l-1.372-4.538z" fill="#AB7041"/><path d="M241.229 298.219c-.457-2.427-1.286-6.651-1.286-6.651l.2-14.928h-9.087l3.4 14.3c.058.657.258 3.254-.685 5.966 0 0-.886 3.967 3.029 4.053 3.915.057 4.858-.314 4.429-2.74z" fill="#FFB27D"/><path d="M241.601 302.871h-8.144c-.4-2.141.285-5.994.285-5.994 4.43 4.281 7.202-.114 7.202-.114.657 1.712.657 5.48.657 6.108zm62.21.028H293.78c-.857-.799-1.715-2.397-2.715-4.481-.6-1.199-1.914-1.884-3.258-2.226v6.707h-2.086l-1.914-7.135c-1.286-2.398-.315-4.567.6-6.48 1.057 0 4.058.714 9.402 6.851 1.743 2.026 3.686 2.74 5.601 2.683.028.028.057.028.085.028 2.973 1.427 3.973 3.112 4.316 4.053z" fill="#233862"/><path d="M303.383 120.737s-8.544 4.767-11.602 6.165c-1.743.771-5.744 2.655-8.573 3.996-1.8.857-3.944.371-5.23-1.113-4.629-5.394-16.688-17.126-29.091-18.581 0 0 7.544 18.581 7.744 22.349.229 3.768.886 61.539.886 61.539s-.457 2.655 4.658 1.541c5.087-1.113 6.43-2.226 6.43-2.226s-4.886-35.65-3.543-48.038c.257-2.455.028-5.195-.515-8.021 7.545 4.596 16.489 6.622 16.489 6.622s6.687-2.911 15.803-9.59c2.858-2.084 7.888-10.105 7.888-10.105l-1.344-4.538z" fill="#A8D29F"/><path d="M283.124 282.777l-5.658.171s-13.031-14.5-20.347-37.734c-.172-.543-.343-1.085-.543-1.627-4.001-11.646-12.288-26.288-16.66-39.532a329.003 329.003 0 01-1.887-5.966c-.171-.599-.342-1.199-.514-1.77l4.658-3.511s13.946 22.578 18.289 43.814c3.744 18.411 18.776 40.617 22.662 46.155z" fill="#5F9AA8"/><path d="M242.657 238.563c.086 10.333-.457 34.081-1.8 43.928h-5.001c-2.772 0-4.144-.028-4.144-.028-3.372-17.098-5.772-31.255-7.544-43.443-1.429-10.019-2.715-18.582-3.686-25.974-1.001-7.422-1.686-13.644-1.915-18.925l-.086-2.426a31.024 31.024 0 010-2.283l27.291-2.655c-.343 18.097-3.143 45.784-3.115 51.806z" fill="#80BDCC"/><path d="M235.857 282.492c-2.772 0-4.143-.029-4.143-.029-3.372-17.097-5.773-31.255-7.545-43.443-1.429-10.018-2.715-18.581-3.686-25.974-1-7.421-1.686-13.644-1.915-18.924l10.002 5.88s-6.401 2.255-3.944 19.295c2.458 17.04 7.859 60.768 11.231 63.195z" fill="#5F9AA8"/><path d="M237.171 193.95s-1.914 6.936-8.573 6.052c-6.658-.885-16.117-4.881-16.117-4.881s2.829-8.963 6.372-20.751c.029-.114.086-.257.115-.371 4.172-13.901 9.259-31.626 11.802-43.129.057-.257.114-.485.171-.742.686-3.254 1.172-5.966 1.344-7.907l5.629-10.675s8.116 18.439 8.573 23.063c.429 4.681-9.316 59.341-9.316 59.341z" fill="#A8D29F"/><path d="M230.513 133.953l7.373-22.378c-.029 0-9.288 2.711-13.917 5.052 0 0-2.886 3.71-4.658 12.273 0 0-1.886 20.58 2.315 28.115 0 0 13.288 2.655 34.578-4.652v-4.881s-23.262 1.227-28.034 1.77l2.343-15.299z" fill="#AB7041"/><path d="M236.229 144.371c-.286 7.421-2.029 21.75-17.26 29.628 4.172-13.901 9.258-31.626 11.802-43.129 2.772 4.224 5.601 9.59 5.458 13.501z" fill="#82B378"/><path d="M237.913 111.546s-13.603.942-16.832 8.163c-3.258 7.222-4.287 31.284-.143 38.363 0 0 5.687 1.627 15.775-.257.114-.029.257-.057.371-.057 0 0 3.201-7.85.343-9.42 0 0-8.487.457-7.601-2.369.828-2.768 8.087-34.423 8.087-34.423z" fill="#A8D29F"/><path d="M253.833 148.767s1.857-2.255 2.257-4.539c.4-2.283 1.629-3.996 4.83-4.424 3.2-.428 4.572-.457 4.572.428 0 .914-2.601 7.193-7.201 10.932-4.63 3.797-4.458-2.397-4.458-2.397z" fill="#AB7041"/><path d="M239.257 202.142h-18.032c-4.829 0-8.744-3.91-8.744-8.734v-7.535c0-4.824 3.915-8.735 8.744-8.735h18.032c4.83 0 8.745 3.911 8.745 8.735v7.535c0 4.824-3.915 8.734-8.745 8.734z" fill="#2B478B"/><path d="M205.822 187.928v5.509c0 4.823 3.915 8.734 8.744 8.734h18.032c4.83 0 8.745-3.911 8.745-8.734v-4.995l-17.747 3.225-17.774-3.739z" fill="#699DEE"/><path d="M241.344 185.873c0-4.824-3.915-8.735-8.744-8.735h-18.032c-4.83 0-8.745 3.911-8.745 8.735l17.775 3.767 17.746-3.767z" fill="#699DEE"/><path d="M223.596 189.64l-17.774-3.767v2.055l17.774 3.739 17.747-3.254v-2.54l-17.747 3.767zm11.231-41.302c-.571-1.227-4.086-.742-4.086-.742 8.202 1.97 13.374 38.248 13.374 38.248h1.629c-3.001-23.976-10.345-36.278-10.917-37.506zm-24.519 29.913l8.601-26.916.601 3.026-7.516 23.177-1.686.713z" fill="#2B478B"/><path d="M34.903 282.377a5.558 5.558 0 01-5.573 5.566 5.558 5.558 0 01-5.572-5.566 5.559 5.559 0 015.572-5.566 5.559 5.559 0 015.573 5.566z" fill="#66A357"/><path d="M37.1 282.377a5.558 5.558 0 01-5.572 5.566 5.558 5.558 0 01-5.572-5.566 5.559 5.559 0 015.572-5.566c3.058 0 5.573 2.484 5.573 5.566z" fill="#A8D29F"/><path d="M66.51 302.814a5.57 5.57 0 005.572-5.566 5.57 5.57 0 00-5.572-5.566 5.57 5.57 0 00-5.573 5.566 5.57 5.57 0 005.573 5.566z" fill="#66A357"/><path d="M68.71 302.814a5.57 5.57 0 005.572-5.566 5.57 5.57 0 00-5.573-5.566 5.57 5.57 0 00-5.572 5.566 5.57 5.57 0 005.572 5.566z" fill="#A8D29F"/><path d="M24.93 276.326l6.172 5.737c.628.571 1.343 1.056 2.143 1.37l41.58 17.269 7.715-5.566-57.61-18.81zm87.561-62.281l-1.972-1.37c9.116-13.187 26.748-39.162 28.205-43.072.915-2.483.915-4.538.029-6.165-1.457-2.569-4.83-3.254-4.858-3.254l-.114-.029-9.231-2.854c-10.573-4.196-15.088 4.082-15.289 4.453l-.057.114-24.69 37.249-2-1.313 24.661-37.192c.229-.428 1.629-2.797 4.344-4.624 2.715-1.827 7.344-3.482 13.888-.885l9.031 2.797c.6.143 4.515 1.085 6.43 4.424 1.286 2.255 1.314 4.995.143 8.192-1.944 5.11-27.434 41.959-28.52 43.529z" fill="#66A357"/><path d="M109.716 204.683l20.433 14.014s5.372 5.424-.8 16.299c-5.43 9.561-34.55 63.736-34.55 63.736s-6.058 11.275-29.663-2.825l44.58-91.224z" fill="#66A357"/><path d="M115.461 225.462l-33.035 60.512a15.457 15.457 0 01-5.486 5.765c-4.144 2.541-9.402 3.083-14.146 1.085l-20.776-8.734-.514-.228-13.002-5.452a15.047 15.047 0 01-4.258-2.683c-3.887-3.397-5.773-8.535-5.144-13.558a15.69 15.69 0 012.229-6.251l35.264-56.316c3.772-5.994 11.116-8.706 17.889-6.536l3.8 1.227.915.285.772.257 12.745 4.053 1.572.486 12.288 3.91a16.094 16.094 0 015.115 2.769c.086.085.2.171.286.228l.572.514c4.886 4.652 6.429 12.273 2.914 18.667z" fill="#A8D29F"/><path d="M76.968 291.739c-4.144 2.54-9.402 3.083-14.146 1.085l-20.775-8.734-.515-.229-13.03-5.452a15.01 15.01 0 01-3.544-2.083c-.257-.2-.486-.4-.715-.6-3.858-3.396-6.715-11.046-4.315-16.84 0 0 44.094 18.153 52.639 23.491 4.4 2.74 4.4 6.65 4.4 9.362z" fill="#82B378"/><path d="M79.968 194.807c-.114.028-12.231 1.769-15.689 6.365-3.572 4.709-38.636 62.566-38.979 63.166-.029.057-2.83 5.908.229 12.445l-.6-.429c-.258-.199-.486-.399-.715-.599-2.657-6.593.229-11.617.372-11.845 1.457-2.398 35.435-58.485 39.007-63.252 3.144-4.167 11.917-5.908 14.717-6.394l.915.286.743.257zm14.318 4.567c-1.772.342-8.773 2.083-13.06 9.019-5.058 8.078-37.207 68.904-37.55 69.503l-.029.057-.028.029c-.029.028-2.23 3.111-1.086 6.336l-.514-.228-.515-.229c-.971-3.339 1.143-6.051 1.458-6.422 1-1.884 32.52-61.482 37.521-69.531 3.715-5.965 9.316-8.249 12.231-9.077l1.572.543zm18.26 7.421c-.057 0-2.543.285-5.086 1.484-2.544 1.227-5.716 3.425-8.173 7.393-5.03 8.106-36.036 69.16-36.35 69.788l-.029.057-.028.028c-.029.029-1.858 3.797-.715 7.022l-1.314-.542c-.715-2.797 1.028-6.594 1.343-6.965 1-1.941 31.349-61.739 36.35-69.788 4.686-7.564 11.659-8.991 13.117-9.191.085.086.2.171.285.229l.6.485z" fill="#66A357"/><path d="M123.293 282.034s-4.43 4.111-3.572 7.022c.857 2.911 4.858 4.852 5.401 8.42.543 3.568 2.714 5.509 4.658 5.509h9.287s1.429-2.512-2.029-3.254-4.772-4.938-4.544-8.82c.229-3.882-.314-9.076-.314-9.076l-7.344-1.741-1.543 1.94zm80.387 20.922h-24.662c-.2-.057-.371-.085-.486-.143-1.629-.827-1.143-7.107-.943-9.048.029-.371.057-.571.057-.571s8.659-6.907 9.831-1.627c.029.172.086.314.143.486 1.486 4.938 8.201 7.193 12.088 7.82 3.001.514 3.772 2.227 3.972 3.083z" fill="#233862"/><path d="M198.707 161.268s-1.314 16.384-2.858 36.05c-2.086 26.745-4.629 59.57-4.858 65.792-.428 10.79-2.172 28.087-2.172 28.087s-4.115 4.11-12.316 2.369c0 0-7.316-24.662-9.431-50.779l-.085-1.284c-1.944-26.574-4.973-82.518-4.973-82.518l36.693 2.283z" fill="#2B478B"/><path d="M198.707 161.268s-1.314 16.384-2.858 36.05l-28.777 45.498-.085-1.285c-1.944-26.573-4.973-82.518-4.973-82.518l36.693 2.255z" fill="#233862"/><path d="M192.706 163.209s-23.69 59.284-39.265 87.171c-15.574 27.858-20.432 35.65-20.432 35.65s-8.916-3.568-9.745-5.994c0 0 5.944-53.804 16.374-66.905 5.887-7.421 12.803-29.656 13.146-37.42.314-7.764 2.115-23.177 2.115-23.177l37.807 10.675z" fill="#2B478B"/><path d="M216.655 146.854l1.343 2.683s6.887.97 5.001 8.135c0 0-1.029 2.94-2.915 2.026-1.886-.942-.971-.856-3.686-2.112-2.715-1.256-4.287-3.682-3.687-5.88l-.428-2.34 4.372-2.512zM180.561 71.7c1.057-6.222 1.085-9.876 1.085-9.876l-12.002-9.676c.457 13.301-8.087 19.695-8.087 19.695s16.003 7.878 25.262 4.966c0-.028-2.286-2.94-6.258-5.11z" fill="#FFB27D"/><path d="M184.476 61.567s-15.288 2.54-16.717-6.993c-1.429-9.533-4.372-15.613 5.315-17.64 9.688-2.026 12.145 1.342 13.403 4.396 1.257 3.054 1.943 19.352-2.001 20.237z" fill="#FFB27D"/><path d="M167.872 55.23s.314-12.759 14.231-14.814c9.545-1.398 3.772-9.362 2.658-10.618 0 0-7.287 1.399-14.746 3.026-15.66 3.425-3.801 20.522-2.143 22.406z" fill="#233862"/><path d="M215.053 150.593c2.057-2.084 3.572-4.824 3.572-4.824s-17.375-21.55-18.775-23.776c-1.401-2.227-11.946-38.077-11.946-38.077l-26.662-5.395s22.261 45.869 25.948 51.464c6.087 9.248 24.319 23.005 24.319 23.005s1.943-.742 3.544-2.397z" fill="#A53D38"/><path d="M199.736 162.638c-.286.229-.6.371-.972.371-3.486-.057-13.602 1.884-22.176.999-7.23-.685-13.631-2.825-20.489-5.908-.915-.4-3.001-1.541-2.972-2.54.028-1.114.143-2.741.286-4.767.485-7.079 1.343-19.267.514-33.31a143.252 143.252 0 01-.229-7.764c-.057-19.038 3.658-35.907 11.26-41.559.657-.456 4.686 1.57 8.373 3.368 3.372 1.656 5.744 1.627 8.944.97l4.201 3.055c3.887 3.596 8.145 8.506 10.002 15.956 1.572 6.336 2.515 17.782 3.001 29.627.228 5.367.428 10.79.457 15.928v.171c.057.514.057 1.056.057 1.57.171 13.187-.029 23.633-.257 23.833z" fill="#B64C41"/><path d="M153.413 150.793c.486-7.079 1.343-19.267.514-33.31a143.239 143.239 0 01-.228-7.764c3.172-7.678 5.744-13.244 5.744-13.244h7.973c0-.028 5.829 39.904-14.003 54.318z" fill="#A53D38"/><path d="M137.866 153.276l-1.514 2.598s2.972 6.279-4.087 8.62c0 0-3.029.77-3.286-1.342-.257-2.084.2-1.284-.257-4.224-.429-2.969.714-5.595 2.914-6.308l1.715-1.656 4.515 2.312z" fill="#FFB27D"/><path d="M133.865 153.99c2.886.571 6.001.342 6.001.342s8.545-26.317 9.631-28.714c1.086-2.398 25.348-30.855 25.348-30.855l-10.117-25.29s-26.205 43.757-28.891 49.894c-4.401 10.161-5.915 32.939-5.915 32.939s1.686 1.227 3.943 1.684z" fill="#B64C41"/><path d="M73.417 143.259l5.202-5.189c1.892-1.887 1.892-4.717 0-6.604-1.891-1.887-4.729-1.887-6.62 0l-5.203 5.189-5.202-5.189c-1.892-1.887-4.729-1.887-6.62 0-1.892 1.887-1.892 4.717 0 6.604l5.201 5.189-5.202 5.19c-1.891 1.887-1.891 4.717 0 6.604 1.892 1.887 4.73 1.887 6.621 0l5.202-5.189 5.202 5.189c1.892 1.887 4.73 1.887 6.621 0 1.892-1.887 1.892-4.717 0-6.604l-5.202-5.19zm-23.622 46.943l2.954-2.954c1.074-1.074 1.074-2.686 0-3.76-1.074-1.074-2.686-1.074-3.76 0l-2.953 2.954-2.954-2.954c-1.075-1.074-2.686-1.074-3.76 0-1.074 1.074-1.074 2.686 0 3.76l2.954 2.954-2.954 2.953c-1.074 1.075-1.074 2.686 0 3.76 1.074 1.074 2.685 1.074 3.76 0l2.953-2.954 2.954 2.954c1.075 1.074 2.686 1.074 3.76 0 1.074-1.074 1.074-2.685 0-3.76l-2.954-2.953z" fill="#CAE0FF"/><path d="M372.167 161.412v2.221c0 .18-.065.346-.18.475a1.047 1.047 0 01-.476.321.525.525 0 01-.192.038c-.065.013-.116.013-.18.013h-42.171c-.539 0-.989-.359-1.015-.809v-2.297c.026-.45.476-.809 1.015-.809h42.171c.064 0 .115 0 .18.013l.192.038c.193.065.36.18.476.321a.71.71 0 01.18.475z" fill="#FFB93E"/><path d="M351.466 164.491h-22.589c-.488 0-.886-.359-.912-.808v-2.311c.026-.449.424-.808.912-.808h19.814c.321 1.142 1.053 2.747 2.775 3.927zm15.575-3.938h-.476v3.928h.476v-3.928zm-1.62 0h-.476v3.928h.476v-3.928zm-1.953 0h-.475v3.928h.475v-3.928zm-2.98 0h-.476v3.928h.476v-3.928zm-3.147 0h-.476v3.928h.476v-3.928zm-4.833 0h-.476v3.928h.476v-3.928z" fill="#FFA412"/><path d="M347.973 160.553h-.476v3.928h.476v-3.928zm-4.035 0h-.476v3.928h.476v-3.928zm24.645 0h-.476v3.928h.476v-3.928zm1.016 0h-.475v3.928h.475v-3.928zm.99 0h-.475v3.928h.475v-3.928zm.744.013v3.902c-.064.013-.116.013-.18.013h-.296v-3.928h.296c.064 0 .128.013.18.013zm.668.372v3.17a1.042 1.042 0 01-.475.321v-3.812a.957.957 0 01.475.321z" fill="#FFA412"/><path d="M367.67 157.484v2.221a.71.71 0 01-.179.475 1.055 1.055 0 01-.476.321.526.526 0 01-.193.038c-.064.013-.115.013-.179.013h-42.171c-.54 0-.989-.359-1.015-.809v-2.297c.026-.45.475-.809 1.015-.809h42.35l.193.038c.013 0 .013 0 .026.013.013 0 .013 0 .026.013.012.013.038.013.051.026.013 0 .026.013.026.013.012 0 .012.012.025.012.013.013.039.013.052.026.013.013.038.026.051.039.013.012.026.013.039.025.012 0 .012.013.025.026.026.026.052.039.077.064l.026.026.026.026a.7.7 0 01.205.5z" fill="#FFB93E"/><path d="M346.958 160.552h-22.589c-.488 0-.886-.359-.912-.809v-2.297c.026-.45.424-.809.912-.809h19.813c.013.038.013.064.026.103.334 1.129 1.079 2.67 2.75 3.812zm15.573-3.927h-.475v3.928h.475v-3.928zm-1.619 0h-.476v3.928h.476v-3.928zm-1.953 0h-.476v3.928h.476v-3.928zm-2.981 0h-.475v3.928h.475v-3.928zm-3.149 0h-.475v3.928h.475v-3.928zm-4.829 0h-.476v3.928H348v-3.928z" fill="#FFA412"/><path d="M343.465 156.625h-.476v3.928h.476v-3.928zm-4.037 0h-.476v3.928h.476v-3.928zm24.644 0h-.475v3.928h.475v-3.928zm1.028 0h-.476v3.928h.476v-3.928zm.976 0h-.475v3.928h.475v-3.928zm.747.013v3.902c-.064.013-.115.013-.18.013h-.295v-3.928h.295c.065 0 .129 0 .18.013zm.669.359v3.17a1.04 1.04 0 01-.476.321v-3.812c.193.064.36.18.476.321z" fill="#FFA412"/><path d="M369.842 153.647v2.221c0 .18-.064.347-.18.475a1.039 1.039 0 01-.475.321.51.51 0 01-.193.038c-.064.013-.116.013-.18.013h-42.17c-.167 0-.334-.038-.476-.102-.295-.129-.514-.385-.539-.681v-2.336c.025-.449.475-.809 1.015-.809h42.17a.84.84 0 01.18.013l.193.039c.193.064.36.18.475.321a.76.76 0 01.18.487z" fill="#FFB93E"/><path d="M349.142 156.715h-22.589a.944.944 0 01-.424-.102.847.847 0 01-.488-.681v-2.336c.026-.449.424-.808.912-.808h19.813c.309 1.129 1.016 2.669 2.634 3.838.039.025.09.064.142.089zm15.576-3.929h-.476v3.928h.476v-3.928zm-1.634 0h-.475v3.928h.475v-3.928zm-1.939 0h-.475v3.928h.475v-3.928zm-2.98 0h-.476v3.928h.476v-3.928zm-3.162 0h-.475v3.928h.475v-3.928zm-4.832 0h-.475v3.928h.475v-3.928z" fill="#FFA412"/><path d="M345.648 152.786h-.476v3.928h.476v-3.928zm-4.048.002h-.475v3.927h.475v-3.927zm24.659-.002h-.476v3.928h.476v-3.928zm1.015 0h-.476v3.928h.476v-3.928zm.989 0h-.476v3.928h.476v-3.928zm.746.013v3.902c-.064.013-.116.013-.18.013h-.296v-3.928h.296a.84.84 0 01.18.013zm.668.372v3.171a1.05 1.05 0 01-.475.321v-3.812a.879.879 0 01.475.32z" fill="#FFA412"/><path d="M370.856 149.706v2.221a.705.705 0 01-.18.475 1.057 1.057 0 01-.475.321.534.534 0 01-.193.038c-.064.013-.116.013-.18.013H327.67c-.539 0-.989-.359-1.015-.809v-2.297c.026-.411.411-.758.9-.809h42.286c.064 0 .115 0 .18.013l.192.038c.193.064.36.18.476.321a.818.818 0 01.167.475z" fill="#FFB93E"/><path d="M350.144 152.785h-22.589c-.488 0-.887-.359-.912-.808v-2.298c.025-.411.372-.757.796-.809h19.916c.334 1.143 1.08 2.747 2.789 3.915zm15.573-3.926h-.476v3.928h.476v-3.928zm-1.619 0h-.475v3.928h.475v-3.928zm-1.941 0h-.476v3.928h.476v-3.928zm-2.992 0h-.476v3.928h.476v-3.928zm-3.149 0h-.476v3.928h.476v-3.928zm-4.831 0h-.475v3.928h.475v-3.928z" fill="#FFA412"/><path d="M346.661 148.859h-.475v3.928h.475v-3.928zm-4.046 0h-.476v3.928h.476v-3.928zm24.644 0h-.476v3.928h.476v-3.928zm1.03 0h-.476v3.928h.476v-3.928zm.975 0h-.476v3.928h.476v-3.928zm.745.013v3.902c-.064.013-.116.013-.18.013h-.296v-3.928h.296c.064 0 .128 0 .18.013zm.668.359v3.171a1.057 1.057 0 01-.475.321v-3.813c.192.064.359.18.475.321z" fill="#FFA412"/><path d="M367.761 145.779v2.22c0 .18-.064.347-.18.475a1.042 1.042 0 01-.475.321.516.516 0 01-.193.039c-.026 0-.039 0-.064.013H324.55c-.54 0-.99-.36-1.016-.809v-2.336c.039-.36.36-.668.771-.745h.026c.077-.013.141-.025.219-.025h42.311c.013 0 .026 0 .052.012l.193.039c.192.064.359.18.475.321.116.141.18.308.18.475z" fill="#FFB93E"/><path d="M347.047 148.859h-22.589c-.488 0-.887-.36-.912-.809v-2.336a.885.885 0 01.706-.758c.013 0 .026 0 .039-.013.051-.012.103-.012.167-.012h19.813c0 .013 0 .013.013.025.321 1.156 1.054 2.734 2.763 3.903zm15.573-3.928h-.476v3.928h.476v-3.928zm-1.619 0h-.475v3.928h.475v-3.928zm-1.953 0h-.475v3.928h.475v-3.928zm-2.979 0h-.475v3.928h.475v-3.928zm-3.149 0h-.476v3.928h.476v-3.928zm-4.833 0h-.475v3.928h.475v-3.928z" fill="#FFA412"/><path d="M343.552 144.931h-.476v3.928h.476v-3.928zm-4.034 0h-.475v3.928h.475v-3.928zm24.645 0h-.475v3.928h.475v-3.928zm1.015 0h-.475v3.928h.475v-3.928zm.989 0h-.475v3.928h.475v-3.928zm.746.012v3.903c-.064.013-.116.013-.18.013h-.295v-3.928h.295c.064 0 .129 0 .18.012zm.667.36v3.17a1.031 1.031 0 01-.475.321v-3.812c.193.064.36.18.475.321z" fill="#FFA412"/><path d="M367.672 141.876v2.22c0 .18-.064.347-.18.475a1.031 1.031 0 01-.475.321c-.052.013-.09.026-.141.039-.013 0-.026 0-.039.013-.064.012-.116.012-.18.012h-42.17c-.039 0-.09 0-.129-.012-.013 0-.038 0-.051-.013-.463-.064-.81-.398-.835-.796v-2.298c.025-.449.475-.808 1.015-.808h42.35l.193.038c.013 0 .013 0 .025.013.013 0 .013 0 .026.013s.039.013.051.025c.013.013.039.013.052.026.013.013.038.013.051.026.013.013.039.025.052.038.013.013.025.013.038.026.013 0 .013.013.026.026.026.025.051.038.077.064a.602.602 0 01.051.051l.039.039c.09.128.154.295.154.462z" fill="#FFB93E"/><path d="M346.958 144.955h-22.704c-.437-.052-.771-.385-.797-.809v-2.298c.026-.449.424-.808.912-.808h19.813c.013.038.013.064.026.102.334 1.143 1.067 2.67 2.711 3.813.013-.013.026-.013.039 0zm15.573-3.926h-.475v3.927h.475v-3.927zm-1.619 0h-.476v3.927h.476v-3.927zm-1.953 0h-.476v3.927h.476v-3.927zm-2.98 0h-.475v3.927h.475v-3.927zm-3.149 0h-.475v3.927h.475v-3.927zm-4.832 0h-.475v3.927h.475v-3.927z" fill="#FFA412"/><path d="M343.465 141.029h-.476v3.927h.476v-3.927zm-4.037 0h-.476v3.927h.476v-3.927zm24.645 0h-.475v3.927h.475v-3.927zm1.029 0h-.475v3.927h.475v-3.927zm.977 0h-.476v3.927h.476v-3.927zm.744.012v3.903c-.064.012-.115.012-.18.012h-.295v-3.927h.295a.84.84 0 01.18.012zm.669.36v3.17a1.047 1.047 0 01-.476.321v-3.812c.193.064.36.18.476.321z" fill="#FFA412"/><path d="M369.842 138.049v2.22c0 .18-.064.347-.18.475a1.031 1.031 0 01-.475.321.512.512 0 01-.193.039c-.064.013-.116.013-.18.013h-42.17c-.167 0-.334-.039-.476-.103-.295-.128-.514-.385-.539-.68v-2.324c.025-.449.475-.808 1.015-.808h42.17c.064 0 .116 0 .18.012l.193.039c.193.064.36.18.475.321.116.128.18.295.18.475z" fill="#FFB93E"/><path d="M349.14 141.118h-22.589a.944.944 0 01-.424-.102.845.845 0 01-.488-.681v-2.323c.025-.449.424-.809.912-.809h19.813c.309 1.13 1.015 2.67 2.634 3.838.039.013.09.052.142.077zm15.578-3.928h-.476v3.928h.476v-3.928zm-1.634 0h-.475v3.928h.475v-3.928zm-1.939 0h-.475v3.928h.475v-3.928zm-2.98 0h-.476v3.928h.476v-3.928zm-3.162 0h-.475v3.928h.475v-3.928zm-4.832 0h-.475v3.928h.475v-3.928z" fill="#FFA412"/><path d="M345.648 137.19h-.476v3.928h.476v-3.928zm-4.048.002h-.475v3.928h.475v-3.928zm24.659-.002h-.476v3.928h.476v-3.928zm1.015 0h-.476v3.928h.476v-3.928zm.989 0h-.476v3.928h.476v-3.928zm.746.013v3.902c-.064.013-.116.013-.18.013h-.296v-3.928h.296a.84.84 0 01.18.013zm.668.359v3.171a1.048 1.048 0 01-.475.32v-3.812c.192.064.359.18.475.321z" fill="#FFA412"/><path d="M373.286 134.109v2.221c0 .18-.065.346-.18.475a1.055 1.055 0 01-.476.321.525.525 0 01-.192.038c-.065.013-.116.013-.18.013h-42.171c-.539 0-.989-.359-1.015-.809v-2.297c.026-.411.411-.758.9-.809h42.286c.064 0 .115 0 .18.013l.192.038c.193.064.36.18.476.321.115.141.18.295.18.475z" fill="#FFB93E"/><path d="M352.586 137.19h-22.589c-.488 0-.886-.36-.912-.809v-2.298c.026-.41.373-.757.797-.808h19.916c.334 1.142 1.066 2.747 2.788 3.915zm15.573-3.94h-.475v3.928h.475v-3.928zm-1.631 0h-.475v3.928h.475v-3.928zm-1.941 0h-.476v3.928h.476v-3.928zm-2.98 0h-.475v3.928h.475v-3.928zm-3.148 0h-.475v3.928h.475v-3.928zm-4.844 0h-.475v3.928h.475v-3.928z" fill="#FFA412"/><path d="M349.091 133.25h-.475v3.928h.475v-3.928zm-4.034 0h-.475v3.928h.475v-3.928zm24.644 0h-.475v3.928h.475v-3.928zm1.017 0h-.476v3.928h.476v-3.928zm.99 0h-.476v3.928h.476v-3.928zm.743.026v3.902c-.064.013-.115.013-.18.013h-.295v-3.928h.295c.065-.013.116 0 .18.013zm.669.359v3.171a1.055 1.055 0 01-.476.321v-3.813c.193.064.36.18.476.321z" fill="#FFA412"/><path d="M367.761 130.183v2.221a.705.705 0 01-.18.475 1.048 1.048 0 01-.475.32.516.516 0 01-.193.039c-.026 0-.039 0-.064.013H324.55c-.54 0-.99-.36-1.016-.809v-2.298c.026-.449.476-.808 1.016-.808h42.234c.039 0 .09 0 .129.013l.193.038c.025.013.064.026.089.039.013.013.039.013.052.025.013.013.038.013.051.026h.013c.013.013.026.013.052.026.038.025.064.051.102.077.013.013.026.013.026.025l.013.013.026.026c.012.013.025.026.038.051a.732.732 0 01.193.488z" fill="#FFB93E"/><path d="M347.046 133.26h-22.589c-.488 0-.886-.359-.912-.809v-2.297c.026-.449.424-.809.912-.809h19.814c.012.026.012.064.025.09.334 1.13 1.067 2.67 2.75 3.825zm15.574-3.925h-.476v3.928h.476v-3.928zm-1.619 0h-.475v3.928h.475v-3.928zm-1.953 0h-.475v3.928h.475v-3.928zm-2.979 0h-.475v3.928h.475v-3.928zm-3.149 0h-.476v3.928h.476v-3.928zm-4.833 0h-.475v3.928h.475v-3.928z" fill="#FFA412"/><path d="M343.552 129.335h-.476v3.928h.476v-3.928zm-4.034 0h-.475v3.928h.475v-3.928zm24.645 0h-.475v3.928h.475v-3.928zm1.015 0h-.475v3.928h.475v-3.928zm.989 0h-.475v3.928h.475v-3.928zm.746.013v3.902c-.064.013-.116.013-.18.013h-.295v-3.928h.295c.064 0 .129 0 .18.013zm.667.359v3.171a1.046 1.046 0 01-.475.321v-3.813c.193.064.36.18.475.321z" fill="#FFA412"/><path d="M370.857 126.342v2.221a.71.71 0 01-.18.475 1.045 1.045 0 01-.476.32.507.507 0 01-.192.039c-.065.013-.116.013-.18.013h-42.158a1.23 1.23 0 01-.45-.09c-.308-.128-.527-.385-.565-.68v-2.337c.026-.41.411-.757.899-.808h42.287a.83.83 0 01.179.013l.193.038c.193.064.36.18.476.321a.766.766 0 01.167.475z" fill="#FFB93E"/><path d="M350.144 129.422h-22.589c-.141 0-.283-.038-.411-.09-.27-.128-.476-.385-.501-.68v-2.336c.025-.411.372-.758.796-.809h19.916c.309 1.13 1.015 2.67 2.647 3.838a.262.262 0 01.142.077zm15.573-3.938h-.476v3.928h.476v-3.928zm-1.619 0h-.475v3.928h.475v-3.928zm-1.941 0h-.476v3.928h.476v-3.928zm-2.992 0h-.476v3.928h.476v-3.928zm-3.149 0h-.476v3.928h.476v-3.928zm-4.831 0h-.475v3.928h.475v-3.928z" fill="#FFA412"/><path d="M346.661 125.484h-.475v3.928h.475v-3.928zm-4.046 0h-.476v3.928h.476v-3.928zm24.644 0h-.476v3.928h.476v-3.928zm1.029 0h-.476v3.928h.476v-3.928zm.976 0h-.476v3.928h.476v-3.928zm.745.013v3.902c-.064.013-.116.013-.18.013h-.296v-3.928h.296c.064 0 .128.013.18.013zm.668.372v3.171a1.057 1.057 0 01-.475.321v-3.813c.192.064.359.18.475.321z" fill="#FFA412"/><path d="M372.168 122.418v2.221c0 .18-.064.347-.18.475a1.039 1.039 0 01-.475.321.506.506 0 01-.193.038c-.025 0-.038 0-.064.013h-42.299c-.54 0-.989-.359-1.015-.808v-2.298c.026-.449.475-.809 1.015-.809h42.171a.83.83 0 01.179.013l.193.039c.193.064.36.179.476.321a.68.68 0 01.192.474z" fill="#FFB93E"/><path d="M351.466 125.495h-22.588c-.489 0-.887-.359-.913-.809v-2.297c.026-.45.424-.809.913-.809h19.813c.321 1.13 1.054 2.734 2.775 3.915 0-.013 0 0 0 0zm15.576-3.939h-.476v3.928h.476v-3.928zm-1.619 0h-.475v3.928h.475v-3.928zm-1.953 0h-.475v3.928h.475v-3.928zm-2.98 0h-.476v3.928h.476v-3.928zm-3.147 0h-.476v3.928h.476v-3.928zm-4.834 0h-.476v3.928h.476v-3.928z" fill="#FFA412"/><path d="M347.975 121.556h-.476v3.928h.476v-3.928zm-4.035 0h-.476v3.928h.476v-3.928zm24.644 0h-.476v3.928h.476v-3.928zm1.016 0h-.475v3.928h.475v-3.928zm.99 0h-.475v3.928h.475v-3.928zm.744.013v3.902c-.064.013-.116.013-.18.013h-.296v-3.928h.296c.064 0 .128.013.18.013zm.668.373v3.17a1.05 1.05 0 01-.475.321v-3.812c.192.064.359.179.475.321z" fill="#FFA412"/><path d="M272.542 83.444c9.25 0 16.748-7.593 16.748-16.958 0-9.366-7.498-16.958-16.748-16.958s-16.749 7.592-16.749 16.958c0 9.365 7.499 16.958 16.749 16.958z" fill="#FFB93E"/><path d="M271.926 81.121a16.05 16.05 0 01-11.413-4.722 15.998 15.998 0 01-4.727-11.402c0-4.312 1.677-8.353 4.727-11.4a16.03 16.03 0 0111.413-4.724 16.05 16.05 0 0111.413 4.723 15.998 15.998 0 014.727 11.401c0 4.312-1.677 8.354-4.727 11.401a16.03 16.03 0 01-11.413 4.723zm0-31.275c-8.362 0-15.166 6.798-15.166 15.151 0 8.354 6.804 15.151 15.166 15.151s15.166-6.797 15.166-15.15c.011-8.354-6.793-15.152-15.166-15.152z" fill="#FFA412"/><path d="M274.645 71.045c.041-.33.031-.628-.041-.896a1.714 1.714 0 00-.381-.741 3.785 3.785 0 00-.753-.67 9.507 9.507 0 00-1.164-.658 25.773 25.773 0 01-2.164-1.184c-.639-.402-1.186-.834-1.618-1.318a4.615 4.615 0 01-.959-1.596c-.206-.587-.258-1.276-.165-2.048.083-.67.268-1.267.577-1.792a4.067 4.067 0 011.196-1.318 5.409 5.409 0 011.7-.813 7.064 7.064 0 012.134-.247l.298-2.533 2.041.237-.309 2.564c.721.185 1.36.453 1.917.813.556.36 1.02.803 1.381 1.318.36.515.618 1.101.762 1.76.155.66.175 1.39.083 2.173l-3.679-.433c.113-.947-.011-1.678-.382-2.193-.36-.514-.896-.823-1.607-.906-.382-.04-.722-.03-1.01.041a1.808 1.808 0 00-.732.36 1.826 1.826 0 00-.474.608 2.77 2.77 0 00-.227.803 2.56 2.56 0 00.031.803c.062.247.175.484.361.71.185.227.433.443.762.67.32.216.732.453 1.216.7a26.21 26.21 0 012.134 1.215 7.44 7.44 0 011.607 1.328 4.58 4.58 0 01.949 1.606c.206.587.257 1.266.164 2.038-.082.69-.278 1.308-.587 1.823a4.276 4.276 0 01-1.195 1.307 5.325 5.325 0 01-1.711.783c-.65.175-1.371.247-2.144.226l-.278 2.358-2.03-.237.278-2.337a8.778 8.778 0 01-1.989-.7 5.359 5.359 0 01-1.628-1.236 4.886 4.886 0 01-1.021-1.832c-.226-.71-.278-1.544-.165-2.492l3.68.433c-.062.556-.042 1.04.072 1.43.113.392.288.722.525.979.237.257.516.453.845.577.33.133.66.216 1.01.257.402.051.753.041 1.072-.031a1.96 1.96 0 00.804-.34 1.72 1.72 0 00.536-.587c.155-.226.237-.494.278-.782z" fill="#FFA412"/></svg>