<svg width="381" height="201" fill="none" xmlns="http://www.w3.org/2000/svg"><path fill-rule="evenodd" clip-rule="evenodd" d="M56.491 57.075a55.605 55.605 0 01-.053-2.442C56.438 24.46 80.898 0 111.07 0c16.624 0 31.514 7.425 41.534 19.14 7.799-4.454 16.829-7 26.454-7 9.634 0 18.673 2.551 26.478 7.014 3.007-10.364 12.571-17.94 23.905-17.94a24.806 24.806 0 0117.27 6.967 47.742 47.742 0 0122.794-5.753c25.876 0 46.965 20.494 47.921 46.137 34.938.308 63.165 28.725 63.165 63.735 0 35.202-28.537 63.738-63.738 63.738a63.727 63.727 0 01-18.715-2.791c-13.308 14.408-32.361 23.43-53.521 23.43-21.349 0-40.553-9.184-53.876-23.816-13.919 16.775-34.924 27.458-58.424 27.458-27.071 0-50.83-14.175-64.26-35.509a54.76 54.76 0 01-12.833 1.516C25.05 166.326.59 141.866.59 111.693c0-30.172 24.46-54.632 54.633-54.632.423 0 .846.005 1.267.014z" fill="#EBF3FA"/></svg>