<svg width="387" height="204" fill="none" xmlns="http://www.w3.org/2000/svg"><path fill-rule="evenodd" clip-rule="evenodd" d="M56.793 145.532c-.037.823-.055 1.65-.055 2.482 0 30.655 24.85 55.506 55.506 55.506 16.889 0 32.017-7.544 42.198-19.446 7.923 4.525 17.098 7.111 26.876 7.111 9.788 0 18.971-2.591 26.901-7.125 3.055 10.529 12.772 18.226 24.287 18.226a25.201 25.201 0 0017.546-7.078 48.503 48.503 0 0023.157 5.845c26.29 0 47.716-20.822 48.688-46.874 35.495-.313 64.173-29.185 64.173-64.754 0-35.764-28.992-64.756-64.756-64.756-6.616 0-13.001.992-19.013 2.836C288.78 12.866 269.422 3.7 247.924 3.7c-21.69 0-41.201 9.33-54.737 24.197C179.047 10.852 157.706-.002 133.83-.002c-27.503 0-51.643 14.403-65.287 36.077a55.648 55.648 0 00-13.038-1.54C24.85 34.536 0 59.386 0 90.042c0 30.654 24.85 55.505 55.505 55.505.43 0 .86-.005 1.288-.015z" fill="#EBF3FA"/></svg>