<svg width="380" height="201" fill="none" xmlns="http://www.w3.org/2000/svg"><path fill-rule="evenodd" clip-rule="evenodd" d="M324.1 57.075c.035-.81.053-1.624.053-2.442C324.153 24.46 299.693 0 269.521 0c-16.624 0-31.514 7.425-41.535 19.14-7.799-4.454-16.828-7-26.453-7-9.634 0-18.673 2.551-26.478 7.014-3.007-10.364-12.571-17.94-23.905-17.94a24.804 24.804 0 00-17.27 6.967 47.745 47.745 0 00-22.794-5.753c-25.876 0-46.965 20.494-47.921 46.137C28.227 48.873 0 77.29 0 112.3c0 35.202 28.537 63.738 63.738 63.738a63.72 63.72 0 0018.714-2.791c13.309 14.408 32.362 23.43 53.522 23.43 21.349 0 40.553-9.184 53.876-23.816 13.918 16.775 34.924 27.458 58.424 27.458 27.071 0 50.83-14.175 64.261-35.509a54.75 54.75 0 0012.832 1.516c30.173 0 54.633-24.46 54.633-54.633 0-30.172-24.46-54.632-54.633-54.632-.423 0-.846.005-1.267.014z" fill="#EBF3FA"/></svg>