<svg width="1440" height="57" fill="none" xmlns="http://www.w3.org/2000/svg"><path d="M0 0h1440l-16 1-16.5 1-17.5.5-19 1.5-24 1.5-22.5 1.5-22.5 1.5-19.5 1.5-20.5 2-18 1.5-18.5 2-20 1.5-25 3-21.5 2.5-20 2.5-17.5 2-17.5 2.5-24 3.5-25.5 4-34 4-38.5 4-36.5 3-33.5 2.5-28 1.5-23.5 1-28.5 1.5-18 .5-13.5.5h-18l-26 1H650l-26.5-.5-39-.5-35-1-38.5-1-19-.5-34.5-1.5L441 51l-19.5-1-24-1-17.5-.5-23-1.5-22.5-1-22.5-1.5-21-1-22-1.5-23-1.5-24.5-1.5-19.5-1.5-24-1.5-24.5-2-16-1-14.5-1.5-17-1.5-32-2.5-25-2L32.5 24l-22-2L0 21V0z" fill="#fff"/></svg>