<svg width="791" height="488" fill="none" xmlns="http://www.w3.org/2000/svg"><path d="M266.085 177.698c-3.095 0-5.812-.603-8.19-1.811-29.474-14.643-2.113-115.144-2.113-115.144s1.396-4.528 6.755-6.944c2.793-1.245 6.643-1.924 12.002-1.018 15.511 2.566 18.492 9.02 19.134 12.642.641 3.623 14.68 112.087-27.588 112.275z" fill="#718DD0"/><path d="M257.895 175.925c-29.474-14.643-2.113-115.144-2.113-115.144s1.396-4.529 6.755-6.944c11.398 2.982 13.775 8.416 14.379 11.586.566 3.359 12.605 96.462-19.021 110.502zm60.648 207.189s6.718 6.227 5.397 10.643c-1.321 4.415-7.359 7.359-8.19 12.794-.83 5.396-4.113 8.34-7.057 8.34h-14.039s-2.189-3.812 3.057-4.944c5.246-1.132 7.208-7.51 6.906-13.397-.34-5.888.491-13.775.491-13.775l11.133-2.604 2.302 2.943zm-82.386 16.945s1.623 13.096-1.32 14.568c-2.944 1.472-38.155.981-38.155.981s0-4.415 6.076-5.397c6.076-.981 16.719-4.604 18.492-12.605 1.812-8.038 14.907 2.453 14.907 2.453z" fill="#0D0D38"/><path d="M204.306 199.964s2 24.833 4.34 54.685c3.17 40.532 7.019 90.349 7.397 99.783.641 16.379 3.283 42.571 3.283 42.571s6.227 6.227 18.681 3.585c0 0 11.095-37.4 14.266-76.989.037-.641.113-1.321.15-1.962 2.944-40.306 7.548-125.145 7.548-125.145l-55.665 3.472z" fill="#718DD0"/><path d="M204.306 199.965s2 24.832 4.34 54.684l43.589 68.988c.037-.642.113-1.321.151-1.962 2.943-40.306 7.548-125.145 7.548-125.145l-55.628 3.435z" fill="#3662C1"/><path d="M213.401 202.908s35.852 89.934 59.439 132.164c23.588 42.268 30.947 54.043 30.947 54.043s13.511-5.397 14.756-9.095c0 0-9.02-81.593-24.833-101.482-8.906-11.246-19.398-44.947-19.888-56.76-.491-11.775-3.208-35.135-3.208-35.135l-57.213 16.265z" fill="#718DD0"/><path d="M181.511 174.528l-4.869 5.774c-.943 1.132-2.189 1.925-3.585 2.416-2.868 1.056-7.623 4.038-5.548 11.774 0 0 1.548 4.454 4.416 3.057 2.868-1.396 1.472-1.283 5.585-3.208 3.095-1.434 5.208-3.849 5.661-6.378.415-2.151 1.963-3.925 3.774-5.17l5.888-3.963-11.322-4.302zm50.306-110.425c-1.585-9.435-1.66-14.983-1.66-14.983l18.19-14.68c-.679 20.152 12.266 29.851 12.266 29.851s-24.267 11.964-38.268 7.548c0 0 3.434-4.415 9.472-7.736z" fill="#FFB27D"/><path d="M225.855 48.78s23.172 3.85 25.323-10.605c2.189-14.454 6.642-23.7-8.076-26.757-14.681-3.057-18.417 2-20.304 6.68-1.849 4.642-2.906 29.323 3.057 30.682z" fill="#FFB27D"/><path d="M179.548 183.774c-3.094-3.17-5.397-7.321-5.397-7.321s26.305-32.683 28.456-36.079c2.151-3.397 18.115-57.742 18.115-57.742l40.419-8.19s-33.739 69.593-39.324 78.046c-9.247 14.002-36.834 34.872-36.834 34.872s-2.982-1.095-5.435-3.586z" fill="#4CD964"/><path d="M273.369 191.322c.037.831-.868 1.736-1.963 2.491-.868.604-1.925 1.095-2.528 1.397-3.095 1.396-6.114 2.641-9.133 3.698-7.171 2.68-14.228 4.491-21.889 5.208-8.19.83-17.323 0-24.267-.679-3.925-.453-7.095-.83-9.057-.83h-.264a2.205 2.205 0 01-1.51-.567c-.302-.188-.566-12.454-.415-28.946 0-2.302.038-4.679.038-7.17 0-.755 0-1.661.113-2.416v-.264c.038-7.736.302-15.926.679-24.002v-.151c.755-17.964 2.151-35.287 4.567-44.948 2.792-11.284 9.284-18.719 15.133-24.229l4.831-4.264c.415.113.83.15 1.245.188 4.416.718 9.133.302 13.851-2 5.51-2.717 11.586-5.736 12.567-4.981.113.113.264.188.377.302 1.699 1.32 3.246 3.056 4.642 5.057.113.037.113.037.113.113h.038a42.857 42.857 0 013.208 5.548c1.585 3.245 2.944 7.02 4.114 11.17 3.132 11.285 4.679 25.512 4.642 40.721 0 3.85-.114 7.775-.378 11.737-.037 1.133-.113 2.227-.151 3.284a341.746 341.746 0 00-.151 26.946v.264c.265 8.076.717 14.945 1.095 20.04.226 3.094.377 5.585.453 7.283z" fill="#81E7A2"/><path d="M272.953 184.076c-.754-10.755-2.037-29.21-.754-50.533.226-3.963.339-7.887.339-11.775-4.793-11.623-8.717-20.077-8.717-20.077h-12.077s-8.869 60.534 21.209 82.385z" fill="#4CD964"/><path d="M251.216 36.779s-2.378-.415-2.001-3.66c.378-3.284.378-7.549-2.264-6.756-2.679.792-2.793 2.943-3.887 1.698-1.095-1.245-1.095-6.491-9.02-6.869-7.925-.377-11.133 2.378-14.832.755-3.698-1.623-3.887-7.208-3.887-7.208s1.057 2 2.642 2.604c0 0-6.151-8.416.981-14.152 7.095-5.775 14.379-2 18.493-1.736 9.057.566 14.907 1.094 17.888 7.057 2.906 6 1.699 22.53-4.113 28.267z" fill="#0B0754"/><path d="M371.567 402.588c-1.887 4.34.189 9.359 4.567 11.209 4.377 1.849 9.472-.189 11.359-4.529 1.887-4.34-.188-9.359-4.566-11.209-4.416-1.849-9.511.189-11.36 4.529zm-62.043.113c-1.887 4.34.188 9.36 4.566 11.209 4.378 1.849 9.473-.189 11.36-4.529 1.887-4.34-.189-9.359-4.567-11.208-4.415-1.85-9.473.188-11.359 4.528z" fill="#6D89CF"/><path d="M389.418 401.494l-12.303 4.378a10.526 10.526 0 01-3.887.641l-69.781-.566-7.623-12.454 93.594 8.001zm-39.853-137.825l-19.587-47.854-.037-.075c-.114-.416-3.171-10.718-20.719-12.983h-.076l-14.454-2.679c-1.849-.491-7.246-1.283-9.737.792-1.094.906-1.547 2.34-1.359 4.378.378 4 13.398 35.06 22.078 54.911l-2.755 1.17c-2.227-5.095-21.776-50.043-22.304-55.817-.264-3.019.528-5.359 2.415-6.906 4.038-3.359 11.586-1.585 12.379-1.396l14.265 2.604c18.908 2.453 22.795 13.774 23.173 15.058l19.511 47.702-2.793 1.095z" fill="#2B276A"/><path d="M312.128 249.554l-37.627 7.511s-10.982 4.453-8.755 23.436c1.962 16.718 10.529 110.614 10.529 110.614s1.774 19.55 44.004 13.775l-8.151-155.336z" fill="#2B276A"/><path d="M291.295 275.444l10.341 105.142c.415 4.265 1.962 8.152 4.302 11.435 4.34 6.076 11.511 10.001 19.511 10.039l34.909.151h.868l21.852.075c2.189 0 4.34-.264 6.34-.792.49-.113.943-.264 1.396-.415 7.548-2.491 13.36-8.605 15.511-16.115a23.453 23.453 0 00.604-10.152L390.89 274.198c-1.699-10.718-10.567-18.945-21.512-19.964l-6.151-.566-1.472-.151-1.246-.113-20.605-1.925-2.529-.226-19.889-1.774a24.2 24.2 0 00-8.944.83c-.189.038-.377.114-.566.151l-1.132.378c-9.812 3.66-16.643 13.473-15.549 24.606z" fill="#BED2FA"/><path d="M305.938 392.021c4.34 6.076 11.511 10.001 19.511 10.039l34.91.151h.868l21.851.075c2.189 0 4.34-.264 6.34-.792.491-.114.943-.265 1.396-.416 7.548-2.49 16.266-11.586 16.379-21.171 0 0-73.856-.793-89.291 1.585-7.964 1.207-10.303 6.717-11.964 10.529z" fill="#010117"/><path d="M360.509 253.442c.151.075 16.379 9.812 18.531 18.379 2.188 8.793 17.02 111.482 17.171 112.501 0 .076.415 10.001-7.888 17.398l1.095-.264c.49-.113.943-.264 1.396-.415 7.812-7.699 6.718-16.53 6.68-16.907-.604-4.227-14.982-103.784-17.209-112.653-1.963-7.774-13.36-15.511-17.096-17.813l-1.472-.151-1.208-.075zm-23.134-2.114c2.34 1.547 11.246 8.227 13.171 20.568 2.264 14.454 11.133 119.559 11.247 120.616v.075l.037.076c0 .037 1.283 5.736-2.302 9.586h1.736c3.434-4.152 2.038-9.209 1.849-9.926-.264-3.246-9.019-106.274-11.246-120.616-1.661-10.642-8.303-17.209-11.926-20.115l-2.566-.264zm-30.569-.453c.076.038 3.434 1.925 6.34 5.171 2.906 3.245 6.076 8.265 7.171 15.322 2.264 14.454 9.359 119.181 9.397 120.238v.076l.038.075c0 .038.339 6.454-3.246 10.303h2.189c2.717-3.51 2.529-9.888 2.302-10.643-.226-3.358-7.17-105.934-9.435-120.275-2.113-13.511-11.171-19.663-13.095-20.833-.189.038-.378.114-.567.151l-1.094.415z" fill="#2B276A"/><path d="M292.729 178.302l4.491 10.605c.528 1.283.491 2.717 0 4-1.094 2.868-2 8.378 5.17 11.964 0 0 4.378 1.811 5.209-1.284.83-3.094-.001-1.962 1.283-6.302 1.132-3.812.377-7.51-1.925-9.397-.793-.679-1.17-1.736-1.283-2.755l-.717-6.756-12.228-.075z" fill="#FFB27D"/><path d="M302.541 188.907c-4.34.83-9.057.491-9.057.491s-12.907-39.929-14.567-43.552c-1.661-3.661-38.382-46.797-38.382-46.797l15.285-38.268s39.702 66.346 43.74 75.668c6.68 15.398 8.982 49.929 8.982 49.929s-2.566 1.85-6.001 2.529z" fill="#81E7A2"/><path d="M271.859 163.735v.264c-6.604-1.548-12.227-4.567-17.058-8.605-9.02-7.359-15.134-18.153-19.021-29.437-5.963-17.586-6.453-36.418-3.396-45.702.415-1.17.868-2.265 1.396-3.095 1.245-2.075 2.642-3.812 4.227-5.246 5.057-4.793 11.473-6.642 16.228-7.321a37.46 37.46 0 013.661-.302c1.434-.038 2.377 0 2.641 0h.038a42.852 42.852 0 013.208 5.548c-.943-.114-1.811-.114-2.642-.114-3.66-.113-6.793.378-9.435 1.284-4.528 1.434-7.736 4.189-9.963 7.321-6.378 8.982-4.982 21.814-4.982 21.814.529 6.755 1.548 12.793 2.869 18.077 3.057 12.152 7.85 20.832 12.793 26.908 9.209 11.435 19.285 13.926 19.285 13.926l.151 4.68z" fill="#0D0D38"/><path d="M479.389 139.846c-.34-.906-4.831-14.077-8.19-15.889-3.396-1.774-9.623-3.736-11.057-3.019-1.435.717-4.114 10.718 0 15.888 4.113 5.171 14.605 10.152 14.605 10.152l4.642-7.132z" fill="#FFB27D"/><path d="M530.639 179.057c-23.549.717-56.986-29.852-56.986-29.852s1.094-4.227 2.679-6.378c1.057-1.434 3.057-2.982 3.057-2.982 8.567 5.699 38.872 11.058 38.872 11.058 10.755 1.283 32.041 27.55 12.378 28.154z" fill="#E75755"/><path d="M480.634 134.147l-10.492 3.51c-.415.151-.83-.076-.981-.491l-8.567-25.776c-.151-.415.076-.83.491-.981l10.492-3.51c.415-.151.83.075.981.491l8.567 25.776c.151.415-.076.83-.491.981z" fill="#718DD0"/><path d="M477.804 135.09l-9.36 3.133a1.34 1.34 0 01-1.698-.868l-8.227-24.644a1.339 1.339 0 01.868-1.698l9.359-3.133a1.34 1.34 0 011.698.868l8.228 24.644a1.355 1.355 0 01-.868 1.698z" fill="#0D0D38"/><path d="M459.311 122.259s2.68-5.51 7.586-3.283c4.906 2.226 2.755 10.604-.076 13.548-2.868 2.944-3.66 4.265-3.66 4.265l-3.85-14.53z" fill="#FFB27D"/><path d="M551.245 410.098c-.189 2.114-.642 3.887-1.548 4.454h-35.965c.113-.906.905-4.001 5.774-4.68 4.604-.642 12.076-2.831 15.737-7.623a10.794 10.794 0 001.887-3.85c1.849-7.51 13.926 2.604 13.926 2.604s.151 1.321.227 3.132c.075 1.774.113 4.001-.038 5.963z" fill="#0D0D38"/><path d="M583.022 414.589h-37.476c.566-1.132 2.152-3.547 5.699-4.453a5.686 5.686 0 011.208-.226c4.038-.566 10.227-2.302 14.152-5.925 1.661-1.51 2.906-3.359 3.472-5.548 1.849-7.51 13.926 2.604 13.926 2.604s.113 1.208.226 2.906c.151 3.396.189 8.906-1.207 10.642z" fill="#0D0D38"/><path d="M566.869 211.702s-.038 1.358-.075 3.774c-.34 15.699-1.699 76.422-2.944 110.275-.038 1.245-.113 2.415-.151 3.585-.038.604-.038 1.245-.075 1.849-.755 16.379-2.982 32.381-5.209 45.212-2.868 16.341-5.774 27.474-5.774 27.474-10.906 2.227-17.964-1.924-17.964-1.924s-2.943-25.361-4.076-40.721c-.377-4.982-2.151-21.965-4.415-42.646-1.736-16.002-3.774-34.192-5.623-50.722-.114-.868-.189-1.774-.302-2.642a19063.888 19063.888 0 00-5.472-48.533l19.284-1.849 32.796-3.132z" fill="#93B3F4"/><path d="M558.378 376.397l-32.192-57.817c-1.736-16.002-3.774-34.192-5.623-50.722-.114-.868-.189-1.774-.302-2.642a19063.888 19063.888 0 00-5.472-48.533l19.284-1.849 32.721.679-8.416 160.884z" fill="#6D89CF"/><path d="M518.374 216.796s18.039 89.103 32.72 132.089c14.68 42.985 14.869 54.949 14.869 54.949s13.473 2.905 19.398-.453c0 0 3.397-81.518-5.51-103.143-5.887-14.303-10.378-44.796-8.831-55.779 1.51-10.982 2.944-32.984 2.944-32.984l-55.59 5.321z" fill="#93B3F4"/><path d="M556.868 79.387l-14.945 14.34c-4.076-3.396-7.17-7.358-9.548-11.132-2.302-3.699-3.925-7.17-4.982-9.586-.83-1.812 8.303-7.586 13.436-11.246 1.585-1.17 2.83-2.114 3.245-2.68 0 0 .415 1.019 1.095 2.566 1.132 2.491 2.943 6.19 4.679 8.605 4.454 6.151 7.02 9.133 7.02 9.133z" fill="#FFB27D"/><path d="M569.171 221.589c-4.265 3.019-10.982 4.114-18.379 4.001-8.643-.151-18.191-1.925-25.814-4.189-4.114-1.246-7.661-2.604-10.228-3.925-11.397-5.963-9.774-13.888-9.51-43.514.264-30.267 18.908-69.403 22.266-75.932 5.963-11.662 32.758-7.36 32.758-7.36 5.888 2.831 7.963 12.191 8.529 24.456.642 13.624-.603 30.796-.603 46.457 0 12.945 2.453 24.418 4.226 33.891 2.303 12.303 3.473 21.322-3.245 26.115z" fill="#FA7269"/><path d="M572.417 195.436c-5.171 10.869-15.285 23.096-21.587 30.116-8.643-.151-18.191-1.925-25.814-4.189-3.208-7.699-4.605-20.53-1.661-41.74 2.265-16.152 18.757-81.215 18.757-81.215 13.322-1.737 21.625 5.509 26.682 16.68.641 13.624-.604 30.796-.604 46.458 0 12.944 2.415 24.417 4.227 33.89zM556.566 73.575s4.566 14.454 3.661 17.02c0 0-25.324 2.944-35.362 12.756 0 0 3.811-13.7 7.812-17.209 4.038-3.51 23.889-12.567 23.889-12.567z" fill="#E75755"/><path d="M555.773 263.971c.114-3.774-1.773-7.284-4.943-9.36-5.133-3.358-13.889-7.283-25.89-6.528-20.304 1.283-24.795 12.567-25.436 21.247-.642 8.68-7.397 21.247-9.02 30.909-1.623 9.661-4.302 34.229 10.076 36.154 14.379 1.925 62.535 0 62.535 0s11.209-13.171 0-38.419c-6.642-14.945-7.473-27.436-7.322-34.003z" fill="#3A49CD"/><path d="M549.547 250.951l-3.85-.528s.151-2.718-1.207-4.718c-1.057-1.547-2.793-2.415-5.171-2.566-2.264-.151-4.038.49-5.17 1.925-1.623 2-1.661 5.057-1.661 5.094l-3.849.038c0-.226 0-5.17 2.83-8.718 1.925-2.453 4.68-3.472 8.077-3.358 3.509.226 6.151 1.698 7.925 4.377 2.415 3.661 2.113 8.265 2.076 8.454z" fill="#3A49CD"/><path d="M572.907 336.393s-48.193 1.963-62.572 0c-14.379-1.924-11.699-26.493-10.039-36.154 1.585-9.624 8.341-22.191 9.02-30.909.113-1.66.377-3.434.868-5.208 2.076-7.435 8.189-14.983 24.531-16.039 12.039-.755 20.756 3.208 25.927 6.529 3.132 2.075 5.057 5.547 4.944 9.321 0 .755-.038 1.699-.038 2.642.113 7.057 1.509 18.304 7.359 31.437 11.246 25.248 0 38.381 0 38.381z" fill="#3662C1"/><path opacity=".4" d="M506.712 303.786h28.757s1.925 21.059-11.812 21.701c-13.737.641-17.36-8.152-16.945-21.701z" fill="#C3D5FA"/><path d="M506.712 303.786s4.944 7.511 13.964 7.284c9.019-.226 14.831-7.284 14.831-7.284h-28.795z" fill="#C6D7FB"/><path opacity=".4" d="M541.319 303.786h28.758s1.924 21.059-11.813 21.701c-13.737.641-17.36-8.152-16.945-21.701z" fill="#C3D5FA"/><path d="M541.319 303.786s4.944 7.511 13.963 7.284c9.02-.226 14.832-7.284 14.832-7.284h-28.795z" fill="#C6D7FB"/><path opacity=".4" d="M565.585 263.971c0 .755-.037 1.699-.037 2.642-5.322 6.642-14.341 14.643-26.418 14.228-20.606-.604-28.909-16.681-28.909-16.681 2.076-7.435 8.19-14.983 24.531-16.039 12.039-.755 20.757 3.207 25.927 6.529 3.133 2.037 5.02 5.547 4.906 9.321z" fill="#C3D5FA"/><path d="M538.451 284.992a2.392 2.392 0 01-2.378-2.378v-2.151a2.392 2.392 0 012.378-2.377 2.39 2.39 0 012.377 2.377v2.151a2.368 2.368 0 01-2.377 2.378z" fill="#C3D5FA"/><path d="M535.13 224.458s-6.982 13.435-3.472 18.681c3.472 5.245 15.926-1.51 16.945-4.491.981-2.982 0-17.436 0-17.436l-13.473 3.246z" fill="#FFB27D"/><path d="M564.944 119.315s-2.604 36.985-2.566 52.307c.038 15.285-12.152 56.006-12.152 56.006s-8.076.641-11.209.226c-3.661-.453-5.812-2.151-5.812-2.151s2.68-48.08-2.415-66.535c-5.095-18.417-5.359-55.439-5.359-55.439s2.83-8 19.813-5.472c20.115 3.019 19.7 21.058 19.7 21.058z" fill="#FA7269"/><path d="M545.169 61.65s-3.095 16.454-12.794 20.907c-2.302-3.699-3.925-7.17-4.982-9.586-.83-1.812 8.303-7.586 13.436-11.246 2.604 0 4.34-.076 4.34-.076z" fill="#E08A8A"/><path d="M524.487 77.613s23.21-4.076 20.455-18.492c-2.755-14.417-1.623-24.682-16.567-22.682-14.945 2-16.757 8.039-17.021 13.096-.226 5.02 7.02 28.757 13.133 28.078z" fill="#FFB27D"/><path d="M546.037 63.498s-2.038-1.811 4.076-8.906c3.17-3.66 6-7.095 3.359-14.19-2.642-7.095-1.623-12.341-11.587-13.85-9.963-1.473-10.265-6.265-15.586-5.397-5.321.868-10.944 7.623-15.511 8.378-4.566.755-11.246 23.02-1.208 23.889 0 0 4.001-1.321 6.152-4.076 2.113-2.755 11.624-8.34 14.001-5.699 2.34 2.642 10.945 19.172 16.304 19.851z" fill="#0D0D38"/><path d="M762.57 406.456c-1.471 3.322.114 7.171 3.548 8.605 3.434 1.434 7.397-.113 8.869-3.434 1.472-3.321-.113-7.171-3.548-8.605-3.434-1.434-7.397.113-8.869 3.434zm-48.382 0c-1.471 3.322.114 7.171 3.548 8.605 3.434 1.434 7.397-.113 8.869-3.434 1.472-3.321-.114-7.171-3.548-8.605-3.434-1.434-7.397.113-8.869 3.434z" fill="#6D89CF"/><path d="M776.496 405.626l-9.585 3.359a9.226 9.226 0 01-3.02.49l-54.42-.528-5.925-9.548 72.95 6.227zm-30.871-105.633l-15.209-36.683-.037-.075c-.076-.34-2.453-8.228-16.153-9.964h-.075l-11.247-2.075c-1.472-.378-5.661-.981-7.585.566-.868.717-1.208 1.811-1.057 3.359.302 3.094 10.378 26.87 17.134 42.117l-2.151.906c-1.736-3.925-16.908-38.381-17.323-42.797-.226-2.302.415-4.114 1.887-5.283 3.132-2.567 9.02-1.208 9.661-1.057l11.096 2.038c14.756 1.924 17.775 10.567 18.077 11.586l15.134 36.569-2.152.793z" fill="#2B276A"/><path d="M716.453 289.124l-29.362 5.699s-8.566 3.396-6.868 17.964c1.509 12.831 8.038 84.763 8.038 84.763s1.359 14.982 34.306 10.642l-6.114-119.068z" fill="#2B276A"/><path d="M700.187 308.9l7.888 80.573c.339 3.246 1.509 6.265 3.358 8.756 3.397 4.642 8.945 7.661 15.209 7.699l27.248.151h.68l17.058.113c1.698 0 3.359-.189 4.944-.604.377-.075.717-.188 1.094-.302 5.888-1.887 10.454-6.566 12.115-12.303a17.89 17.89 0 00.49-7.774l-12.378-77.102c-1.321-8.227-8.227-14.53-16.757-15.322l-4.793-.453-1.132-.113-.981-.076-16.077-1.509-1.962-.189-15.511-1.434c-2.454-.227-4.793 0-6.982.641-.151.038-.302.076-.415.114l-.906.302c-7.699 2.792-13.02 10.302-12.19 18.832z" fill="#BED2FA"/><path d="M711.433 398.267c3.397 4.642 8.945 7.661 15.209 7.699l27.248.15h.68l17.058.114c1.698 0 3.359-.189 4.944-.604.377-.076.717-.189 1.094-.302 5.888-1.887 12.719-8.831 12.794-16.228 0 0-57.591-.717-69.629 1.057-6.265.981-8.115 5.17-9.398 8.114z" fill="#010117"/><path d="M754.192 292.181c.114.075 12.756 7.548 14.417 14.114 1.698 6.756 13.095 85.443 13.209 86.235 0 .076.339 7.661-6.152 13.322l.868-.189c.378-.075.717-.188 1.095-.301 6.113-5.888 5.283-12.643 5.245-12.945-.452-3.246-11.51-79.517-13.246-86.31-1.51-5.963-10.416-11.888-13.284-13.7l-1.133-.113-1.019-.113zm-18.039-1.699c1.811 1.208 8.755 6.303 10.227 15.776 1.736 11.095 8.529 91.593 8.567 92.424v.113c0 .038.981 4.378-1.812 7.321h1.359c2.68-3.17 1.623-7.057 1.434-7.585-.226-2.491-6.868-81.442-8.604-92.424-1.284-8.152-6.454-13.209-9.284-15.436l-1.887-.189zm-23.852-.377c.038.038 2.68 1.472 4.944 3.963 2.265 2.491 4.718 6.34 5.548 11.737 1.736 11.095 7.095 91.33 7.17 92.16v.075l.038.076c0 .037.264 4.944-2.528 7.887h1.698c2.113-2.679 2-7.585 1.811-8.151-.188-2.567-5.434-81.178-7.17-92.16-1.623-10.341-8.68-15.096-10.19-15.964-.151.038-.302.075-.415.113l-.906.264z" fill="#2B276A"/><path d="M665.845 59.554c-3.435-2.113-8.907.415-8.907.415 1.887-2.68 8.831-1.811 8.831-1.811-13.775-2.944-16.643 5.887-16.907 6.718-10.001-9.02-26.003 10.227-26.003 10.227l22.984 30.456s2.113-4.831 4.868-3.321c4.302 2.34 12.68-7.17 10.001-19.738a37.862 37.862 0 00-1.019-3.736c.906.377 1.925.717 2.868.717 2.529 0 6.303-6.416 6.831-8.567.453-2.189-.113-9.246-3.547-11.36zm29.512 153.223c-.491 1.245-2.718 2.339-5.888 3.132-7.133 1.774-19.134 2-27.927-1.245-9.397-3.472-16.228-53.175-19.134-78.612-1.019-8.869-1.547-14.831-1.547-14.831s5.396-8.454 26.304-5.624c20.908 2.831 23.021 9.85 24.87 22.531 1.887 12.68 4.944 70.648 3.322 74.649z" fill="#0B0754"/><path d="M689.469 215.909c-7.133 1.774-19.134 2-27.927-1.245-9.397-3.472-16.228-53.175-19.134-78.612 2.491-8.755 4.453-14.53 4.453-14.53s26.229-3.17 31.362 4.756c4.566 7.057 10.114 75.29 11.246 89.631z" fill="#718DD0"/><path d="M623.501 193.982c-15.511.491-37.815-17.36-37.815-17.36l3.056-4.68c5.624 3.737 25.588 7.284 25.588 7.284a149.218 149.218 0 01-3.284-12.529c-5.434-26.192 1.812-37.513 3.888-40.117.339-.416.528-.642.528-.642s.076.189.189.528c.264.755.755 2.265 1.434 4.34 5.095 15.511 19.36 62.799 6.416 63.176z" fill="#FFB27D"/><path d="M670.448 218.966c-7.17-16.115-10.642-20.681-10.755-25.738-.114-4.001 1.887-8.341 5.736-18.946.906-2.49 1.51-5.057 1.925-7.661 3.019-20.455-8.794-42.57-16.153-44.08-2.038-.528-5.51-7.925-5.472-19.851l-.906.189-15.473 3.057s.34 4.868.377 9.473c0 3.811-.226 7.434-1.094 7.925-1.132.113-1.774.151-1.774.151s-12.907 17.926-14.001 34.607c-1.095 16.681 10.341 23.927-.076 57.213-10.68 34.041 61.629 12.567 57.666 3.661z" fill="#FFB27D"/><path d="M629.312 105.936s.34 4.868.378 9.473c8.68-.227 13.246-8.152 15.133-12.53l-15.511 3.057z" fill="#DE8181"/><path d="M646.408 101.181s4.529-7.17 5.624-13.322c.792-4.378-1.435-20.606-17.776-18.266 0 0-4.755.453-9.208 3.472-3.548 2.378-8.643 7.548-2.944 21.7l1.472 4.793 22.832 1.623z" fill="#0D0D38"/><path d="M626.444 110.276s20.493.34 20.493-12.416 2.679-21.323-10.416-22.078c-13.096-.754-15.625 4.114-16.681 8.379-1.019 4.264 1.245 25.7 6.604 26.115z" fill="#FFB27D"/><path d="M627.199 75.48s5.623 14.983 14.228 17.21c8.605 2.226 12.341-.076 12.341-.076s-6.605-5.246-7.963-14.416c-.038-.038-14.379-9.85-18.606-2.718z" fill="#0B0754"/><path d="M628.558 76.688s-4.189 3.359-5.208 6.605c-1.019 3.245-1.472 9.925-3.435 9.699 0 0-4.226-10.19.529-15.927 5.057-6.113 8.114-.377 8.114-.377z" fill="#0B0754"/><path d="M652.296 373.623c-5.17 20.53-12.907 36.23-12.907 36.23l-6.755-.453s3.321-15.775 3.132-37.06c-.151-14.908-1.962-32.494-7.85-49.288-20.228-57.742-16.945-99.784-16.945-99.784l38.042 4.454 1.773.226c.151 17.473.604 41.174 1.019 59.704.34 16.681.642 29.173.642 29.173 7.246 15.699 4.604 37.928-.151 56.798z" fill="#A74541"/><path d="M697.092 236.1l-6.151 1.849s-20.304-33.664-22.153-42.457c-.604-2.868-2.076-8.567-3.812-14.945-3.547-13.246-8.152-29.437-8.152-29.437l-1.509-6.566-5.17-22.38s9.887 1.019 15.661 3.434c1.925.793 3.359 1.736 3.888 2.869 4.264 9.359 8.491 32.946 11.472 49.778 1.661 9.397 2.944 16.643 3.586 18.19 1.887 4.265 7.51 27.965 12.34 39.665z" fill="#FFB27D"/><path d="M674.109 370.339c-2.189 23.323-11.812 38.419-11.812 38.419l-3.246 2.34s-3.057-16.454-5.208-36.003c-2.076-18.606-4.868-38.268-8.076-44.269-12.681-23.814-16.492-113.709-16.492-113.709l38.569-1.925c3.888 6.529 5.586 17.209 5.963 29.361 1.019 30.683-6.189 70.687-7.283 76.461a1.89 1.89 0 00.264 1.283c7.661 15.284 8.755 32.645 7.321 48.042z" fill="#A83F3F"/><path d="M627.803 77.178s4 15.7 14.869 20.72c0 0-10.869-9.624-11.775-20.002-.943-10.341-3.094-.718-3.094-.718z" fill="#0D0D38"/><path d="M696.677 235.043s1.887 4.416 3.812 5.623c1.962 1.246 3.812 4.189 4.189 6.567.755 4.378-2.604 7.057-5.057 7.057-2.453 0-4.831-3.359-6.265-11.359-.075-.453-2.415-5.02-2.415-5.02l5.736-2.868z" fill="#FFB27D"/><path d="M675.279 230.59c.076 1.283 0 2.34-.226 3.094-.831 2.567-3.623 3.774-10.454 3.057-4.152-.415-6.001-7.397-6.831-13.36-2.491 8.53-6.001 13.285-10.529 14.304-6.605 1.472-39.929 5.51-42.08-10.303-2.415-17.398 4.793-48.269 5.17-64.874-.981-5.888-1.321-11.02-1.207-15.398.264-11.85 3.736-18.493 6.415-21.172.755-.566 1.51-.944 4.567-1.472 1.547-.264 3.698-.566 6.755-.981 0 0 1.246-.151 1.208-.113-.566 1.019-8.114 12.416-7.51 15.36.604 3.057 27.361.302 29.21-1.397 1.849-1.698 4.755-14.643 4.755-14.643s9.473 1.019 14.115 4.416c0 0 0 .038-.038.075.566.416.981.831 1.208 1.284 4.944 9.397 9.888 33.173 13.36 50.118-8.416 4.642-15.776 3.245-18.04 2.641 2.944 19.512 9.699 40.495 10.152 49.364z" fill="#FFB93E"/><path d="M588.742 171.943c-.226-.604-3.17-9.284-5.397-10.454-2.226-1.17-6.34-2.453-7.283-2-.944.453-2.718 7.057 0 10.454 2.717 3.396 9.623 6.679 9.623 6.679l3.057-4.679z" fill="#EA8888"/><path d="M626.821 123.485s.001.038-.037.076c-.906 1.434-15.134 24.153-16.492 38.947-.982-5.888-1.321-11.02-1.208-15.398 1.811-5.585 6.265-18.002 10.982-22.606.604-.641 6.755-1.019 6.755-1.019z" fill="#0B0754"/><path d="M592.63 171.943l-9.397 3.132c-.302.113-.642-.075-.755-.377l-5.963-17.927c-.113-.301.075-.641.377-.754l9.397-3.133c.302-.113.642.076.755.378l5.963 17.926c.113.302-.075.642-.377.755z" fill="#FA7269"/><path d="M590.177 172.735l-8.53 2.831c-.566.188-1.132-.114-1.321-.68l-5.66-17.058c-.189-.566.113-1.132.679-1.321l8.529-2.83c.566-.189 1.132.113 1.321.679l5.661 17.058c.188.529-.113 1.133-.679 1.321z" fill="#C3D5FA"/><path d="M674.109 370.339c-2.189 23.323-11.813 38.419-11.813 38.419l-3.283 2.982s-2.981-17.096-5.17-36.645c2.302.188 12.341.566 20.266-4.756zm-21.813 3.284c-5.171 20.53-12.907 36.23-12.907 36.23l-6.756-.453s3.321-15.775 3.133-37.06c2.264 1.132 7.019 2.302 16.53 1.283z" fill="#EA8888"/><path d="M643.277 415.551h-4.303c-1.434-.226-2.528-.641-4-.83-2.264-.302-3.283.642-3.51.83l-.038.038h-18.341c-.453-.642 0-2.189.415-3.321.302-.755.944-1.359 1.698-1.585 1.963-.566 5.775-1.057 9.284-4.227 1.963-1.774 9.548-6.567 9.548-6.567h.038c.151 0 .944.265 4.378 3.133 1.774 1.509 4.793-2.114 4.793-2.114s.566.453.981 1.359a4.41 4.41 0 01.378 2.83c-.265 1.661.603 4.718 1.32 6.794.416 1.245.793 2.151.793 2.151s.264 1.019-3.434 1.509z" fill="#0D0D38"/><path d="M644.295 402.267c-1.019.717-3.208 2.151-4.642 2.34-1.962.264-5.585-4.718-5.585-4.718h.038c.151 0 .943.264 4.377 3.133 1.774 1.509 4.793-2.114 4.793-2.114s.566.491 1.019 1.359zm-1.019 13.284h-4.302c-1.434-.226-2.529-.641-4.001-.83-2.264-.302-3.283.641-3.509.83l-.038.038h-18.341c-.453-.642-.001-2.189.415-3.321.566-.491.717 2.151 1.019 2.566.302.415 14.944.151 15.813-.453.83-.604 3.396-1.698 6.906-.83 3.095.717 7.623-1.132 8.755-1.661.416 1.246.793 2.152.793 2.152s.189 1.019-3.51 1.509z" fill="#0B0754"/><path d="M666.298 415.551h-4.303c-1.434-.226-2.528-.641-4-.83-2.264-.302-3.283.642-3.51.83l-.038.038h-18.341c-.453-.642 0-2.189.415-3.321.302-.755.944-1.359 1.698-1.585 1.963-.566 5.775-1.057 9.284-4.227 1.963-1.774 9.548-6.567 9.548-6.567h.038c.151 0 .944.265 4.378 3.133 1.774 1.509 4.793-2.114 4.793-2.114s.566.453.981 1.359a4.41 4.41 0 01.378 2.83c-.265 1.661.603 4.718 1.32 6.794.416 1.245.793 2.151.793 2.151s.264 1.019-3.434 1.509z" fill="#0D0D38"/><path d="M667.317 402.267c-1.019.717-3.208 2.151-4.642 2.34-1.963.264-5.586-4.718-5.586-4.718h.038c.151 0 .943.264 4.378 3.133 1.773 1.509 4.793-2.114 4.793-2.114s.566.491 1.019 1.359zm-1.02 13.284h-4.302c-1.434-.226-2.528-.641-4-.83-2.265-.302-3.284.641-3.51.83l-.038.038h-18.341c-.453-.642 0-2.189.415-3.321.566-.491.717 2.151 1.019 2.566.302.415 14.945.151 15.813-.453.83-.604 3.396-1.698 6.906-.83 3.095.717 7.623-1.132 8.756-1.661.415 1.246.792 2.152.792 2.152s.189 1.019-3.51 1.509z" fill="#0B0754"/><path d="M675.279 230.59c-4.567-1.51-10.454-5.586-17.511-14.719-18.681-24.115-1.585-52.495.717-53.024 2.302-.528 6.604 18.342 6.604 18.342 2.982 19.549 9.737 40.532 10.19 49.401z" fill="#FFA412"/><path d="M664.825 120.994s-18.794 12.794-20.19 39.929c-1.397 27.134 23.021 32.644 23.021 32.644L666.071 185s-19.776-7.17-14.606-28.757c5.171-21.587 22.757-34.041 22.757-34.041l-9.397-1.208z" fill="#0B0754"/><path d="M575.533 160.357s1.774-3.623 4.982-2.189c3.246 1.471 1.812 6.981-.075 8.906-1.887 1.925-2.416 2.831-2.416 2.831l-2.491-9.548z" fill="#FFB27D"/><path d="M409.91 221.627s16.454-7.472 28.908-.943c12.454 6.566 4.831 60.609-12.944 65.855-.038 0-38.23 46.458-15.964-64.912z" fill="#0D0D38"/><path d="M380.775 227.892c-.793-6.34.755-17.776.755-17.776s-5.586-.301-8.718 7.095c-6.491 15.285-3.661 48.232-3.283 52.949 0 0-2.227 9.359 1.094 25.587-.491 1.17-1.132 2.642-1.547 3.246-.076.076-.113.151-.151.227a1.884 1.884 0 00-.038 2.075l2.151 3.397c.189.339.491.566.793.717l.339.113 2.642.642.264-9.058h-.037c.943-8.982 6.491-63.402 5.736-69.214zm-6.869 69.78l-.037-.075.113.075h-.076z" fill="#FFB27D"/><path d="M428.138 406.928l-2.113 7.624h-17.851c0 .037-5.321-9.737 19.964-7.624zm-38.306 0l-2.113 7.624h-17.851c0 .037-5.321-9.737 19.964-7.624z" fill="#0D0D38"/><path d="M424.666 176.793c1.17-5.057-.264-8.794-2.604-12.379-2.227-3.434-5.359-3.585-8.378-6.529-2.831-2.755-8.114-4.566-12.303-4.566-13.435 0-25.097 8.227-22.417 22.19.83 4.416.113 7.926 3.736 13.096 4.491 6.454 9.925 11.662 18.719 11.662 4.642 0 8.717-1.057 12.303-4.454 1.962-1.849 4.755-2.075 6.453-4.076 3.472-4.075 3.246-9.397 4.491-14.944z" fill="#0B0754"/><path d="M392.097 193.322s2.944 11.398-3.019 16.266l16.756 8.567 2.189-11.095s-3.17-8.643-2.302-20.719l-13.624 6.981z" fill="#FFB27D"/><path d="M391.644 199.059s17.134 2.076 17.511-10.001c.378-12.077-6.793-19.927-11.548-19.813-9.51.188-11.096 4.038-12.19 8.038-1.094 4.001-1.661 20.946 6.227 21.776z" fill="#FFB27D"/><path d="M375.303 290.389l33.89 2.792s3.963 59.44-18.304 114.54l-18.983-.377 3.397-116.955z" fill="#3662C1"/><path d="M427.874 293.785s10.416 40.495 1.962 114.426h-23.021l-11.02-95.971c-.415-2.831-5.774-6.793-5.774-6.793l-.226-10.983 38.079-.679z" fill="#718DD0"/><path d="M428.666 233.704l2.227-18.191c-.34-.452-.604-.868-.943-1.283-3.888-4.755-18.87-6.868-21.889-7.17-.038.038-.151.264-.566.717-2.755 2.491-6.492 5.132-11.473 4.453-4.227-.528-4.906-2.755-4.793-5.17-8.869 1.472-13.926 4.264-13.926 4.264-9.02 3.397-10.831 33.4-10.831 33.4 1.207-.34 7.208.679 9.963 1.208l-1.132 44.494c21.549 9.398 52.609 3.359 52.609 3.359l-.076-.264-2.076-35.588 1.963-16.266.943-7.963z" fill="#FC9290"/><path d="M396.248 192.115s-.377 1.509-4.113 1.245c0 0-3.17-.226-3.019-1.887-.038-.037 3.019-1.17 7.132.642z" fill="#fff"/><path d="M414.816 292.313c1.472 1.849 8.68 2.491 13.02 1.132l-2.113-35.55 2.906-24.191-2.793-1.321s-12.341 9.888-10.907 17.775c1.472 7.963-2 39.815-.113 42.155z" fill="#FA7269"/><path d="M441.347 235.515s-9.548 3.548-13.624 6.114c-.792.453-1.359.868-1.66 1.283l-13.021-25.927-2.49-4.906-2.303-4.642-.188-.415s.188 0 .528.075c1.283.151 4.416.529 8.076 1.359 2.303.528 4.756 1.132 6.982 2h.076c2.679 1.019 4.981 2.302 6.264 3.774.34.415.604.793.944 1.283 4.302 6.265 10.416 20.002 10.416 20.002z" fill="#FC9290"/><path d="M427.308 283.671s-46.42-49.628-16.794-71.592c1.736-1.359 3.774-2.566 6.113-3.623 2.303.528 4.756 1.132 6.982 2-2.415.68-6.982 2.416-10.605 6.529-7.17 8.001-10.529 24.984 13.889 60.383l.415 6.303z" fill="#718DD0"/><path d="M393.38 169.358s14.643 0 11.284 10.039c-2.113 6.34 4.944 7.321 4.944 7.321l3.396-10.152-2.113-7.925-17.511.717z" fill="#0B0754"/><path d="M440.932 235.629c-4.529 1.396-11.36 4.453-13.435 6.491 2.302 5.283 3.585 8.793 3.585 8.793-1.736-.755-10.68-1.509-15.322-1.811-.529-.038-4.756-1.434-4.756-1.434s-.037-7.246-8.34-7.813c0 0-3.434.038-2.755 2.378.717 2.34.793 1.321 1.698 4.68.906 3.359 3.321 5.887 5.888 6.038 12.303 10.341 29.248 10.416 34.38 10.19a2.01 2.01 0 001.887-1.585c1.925-8.378.604-17.134-2.83-25.927z" fill="#FFB27D"/><path d="M109.885 487.176s-36.275-37.195-13.174-80.934c23.1-43.739 54.1-21.727 52.617-72.646-1.483-50.918 71.328-55.267 94.499-40.496 23.17 14.773 23.025 32.554 70.871 26.687 47.846-5.868 92.494 28.436 99.851 57.127 7.357 28.691 13.242 110.262-48.37 110.35-61.611.088-256.294-.088-256.294-.088z" fill="#EBF3FA"/><path d="M383.782 359.063l-32.197 52.357-.499-.208-54.253-22.368s27.499 1.797 31.067-.576c3.36-2.236 40.019-29.628 48.951-31.168.549-.096.991-.091 1.317.021l5.614 1.942z" fill="#739AF0"/><path d="M351.086 411.212l-54.253-22.369s27.499 1.798 31.067-.576c3.36-2.235 40.018-29.627 48.95-31.168-9.801 8.215-32.765 28.119-34.043 35.402-1.221 6.938 5.044 15.058 8.279 18.711z" fill="#2B478B"/><path d="M352.404 430.03c-2.097.124-8.327.342-16.819.452-24.415.309-67.524-.276-84.899-6.489-15.585-5.573-97.945-35.301-154.734-56.523 20.93-20.824 42.274-29.616 60.418-32.654 66.268 24.335 152.866 56.402 163.549 61.705 17.565 8.727 41.381 18.464 41.381 18.464s-.042.797-.212 2.037c-.553 4.022-2.462 12.627-8.684 13.008z" fill="#E58638"/><path d="M360.235 421.218c-.042.136-.083.286-.127.426-.903 3.072-2.486 6.339-5.218 7.718a3.396 3.396 0 01-.285.134 6.066 6.066 0 01-.584.225l-.004-.001-.001.004c-.096.03-.199.058-.308.089-.098.025-.202.053-.312.075l-.004-.001a4.5 4.5 0 01-.321.059c-.109.017-.218.035-.335.046a5.847 5.847 0 01-.338.028c-.036.003-.066.003-.101.003l-.001.004c-.035-.001-.07.002-.106.005-.036.003-.074.001-.11.004l-.001.004c-.039-.002-.078 0-.118.002l-.001.005a.566.566 0 00-.123.005 2.61 2.61 0 00-.128.003l-.004-.001-.001.004a1.478 1.478 0 00-.132.007c-.048 0-.093.005-.141.005l-.004-.001-.145.007c-.049.004-.101.003-.15.006-.106.006-.216.01-.326.015l-.004-.001-.163.007-.004-.002-.001.004a9.76 9.76 0 01-.171.005l-.127.004c-.463.02-.978.043-1.54.061-.105.001-.205.004-.319.007-1.477.052-3.266.104-5.319.149-.21.003-.424.009-.643.013-.36.01-.727.016-1.1.026-.078 0-.157.004-.244.002-.11.005-.232.006-.346.009-.114.003-.227.002-.349.003l-.354.007c-.114.003-.236.004-.358.005l-.358.005c-.122.001-.246.006-.368.007s-.248.001-.366.003c-.004-.001-.005.003-.005.003l-.37.001c-.088.002-.175.004-.272.008-.034-.005-.069-.002-.105.001h-.378c-.634.011-1.286.022-1.948.026-.381.007-.768.009-1.162.017-.336.003-.672.005-1.012.011a95.64 95.64 0 01-.773.008c-1.007.008-2.04.013-3.099.02-.217.001-.426 0-.635.002-.371.002-.74 0-1.111.006-.336.002-.671.001-1.016.006a107.59 107.59 0 00-1.136.002c-12.645.008-27.892-.284-41.828-1.286-.486-.035-.975-.075-1.463-.106l-.724-.057c-.485-.038-.965-.08-1.446-.118a258.711 258.711 0 01-4.259-.379l-1.389-.137-.689-.073c-.456-.048-.912-.1-1.366-.143-.451-.052-.901-.107-1.347-.161-.443-.053-.885-.105-1.326-.162a80.164 80.164 0 01-1.307-.167c-.436-.06-.863-.117-1.287-.174l-1.268-.181-.622-.094c-.827-.125-1.644-.255-2.435-.383-.2-.034-.399-.067-.594-.104l-1.169-.206a95.67 95.67 0 01-2.249-.441 53.053 53.053 0 01-1.614-.347c-.353-.076-.7-.159-1.039-.239-.51-.12-1.011-.246-1.493-.375a50.144 50.144 0 01-1.878-.524c-.306-.089-.597-.183-.889-.277a8.663 8.663 0 01-.431-.141 28.056 28.056 0 01-1.139-.394c-.024-.007-.047-.017-.072-.024-.062-.026-.13-.049-.197-.072-.257-.093-.524-.184-.812-.29-.076-.026-.15-.055-.234-.082l-.292-.108a18.533 18.533 0 01-.46-.162c-.082-.031-.166-.059-.253-.091-.084-.028-.17-.061-.257-.093-.174-.062-.353-.124-.53-.191-.179-.062-.364-.131-.551-.196-.094-.035-.19-.066-.289-.102-.237-.087-.475-.17-.724-.261-.115-.041-.234-.082-.348-.127-.246-.085-.495-.176-.752-.269-.106-.038-.214-.073-.328-.117-.317-.114-.633-.228-.966-.346-.914-.327-1.887-.679-2.919-1.052-.122-.047-.253-.092-.383-.141-.259-.089-.516-.182-.785-.278-.391-.143-.795-.286-1.207-.434-.165-.064-.335-.124-.497-.182-.389-.138-.784-.282-1.18-.422a17.352 17.352 0 00-.435-.156c-.273-.101-.546-.198-.827-.298l-.909-.33a264.96 264.96 0 01-1.678-.604c-1.416-.51-2.891-1.044-4.426-1.596-.225-.084-.443-.161-.673-.243-.339-.124-.683-.25-1.028-.371-.798-.291-1.618-.583-2.444-.882a2464.646 2464.646 0 00-2.472-.893l-14.103-5.111-.759-.276a501.929 501.929 0 01-3.061-1.108 2813.424 2813.424 0 01-2.055-.748c-.744-.267-1.495-.54-2.246-.813-.092-.03-.181-.068-.281-.1-1.321-.479-2.66-.967-4.016-1.46l-1.039-.379-.321-.115c-1.182-.428-2.38-.864-3.58-1.305a219.53 219.53 0 01-1.578-.572c-.351-.128-.699-.254-1.048-.377a379.54 379.54 0 00-2.134-.778 533.756 533.756 0 01-3.22-1.175c-.096-.031-.19-.07-.29-.102-.445-.167-.889-.324-1.331-.486-.031-.013-.064-.022-.095-.035-1.324-.48-2.651-.969-3.991-1.454l-.11-.043c-.138-.051-.277-.099-.416-.15-.787-.283-1.577-.572-2.367-.86-.593-.216-1.195-.431-1.791-.652-.372-.134-.743-.267-1.114-.405-1.555-.561-3.106-1.134-4.671-1.703l-.04-.015c-2.586-.951-5.19-1.899-7.809-2.859-.36-.13-.716-.259-1.074-.393l-.076-.025c-1.15-.419-2.291-.839-3.444-1.263a96 96 0 01-1.062-.39c-.988-.36-1.98-.722-2.967-1.087-2.009-.739-4.023-1.48-6.03-2.214-1.272-.465-2.544-.931-3.811-1.399-.797-.295-1.594-.589-2.389-.879-1.904-.697-3.794-1.395-5.686-2.088l-.272-.102c-1.185-.436-2.374-.87-3.549-1.309-1.682-.618-3.362-1.244-5.032-1.859l-2.006-.738c-.205-.074-.406-.152-.608-.225-1.35-.496-2.686-.996-4.025-1.489l-.588-.215c-.915-.341-1.828-.676-2.733-1.018a8745.105 8745.105 0 01-11.33-4.208c-.447-.163-.888-.329-1.333-.496-.272-.101-.54-.201-.81-.298-.361-.139-.721-.269-1.084-.404-.718-.269-1.432-.532-2.142-.798-13.767-5.144-26.032-9.794-35.477-13.471-.963-.371-1.902-.735-2.799-1.093a585.3 585.3 0 01-6.132-2.442c-5.215-2.097-8.742-3.626-10.096-4.392-7.31-4.16-18.978-13.003-25.516-20.641-3.94-4.61-6.014-8.777-4.14-11.224 2.385-3.11 6.046-4.375 9.637-5.055 3.11-.595 6.168-.749 8.292-1.304l.362-.096a6.332 6.332 0 001.072-.416c.052-.029.101-.05.163-.085.894-.449 2.367-1.211 4.416-2.013a44.923 44.923 0 014.856-1.586c.014-.005.018-.004.028-.01 8.171-2.168 21.14-3.265 38.694 2.989 0 0 34.295 12.478 77.046 28.182l.004.001c4.261 1.563 8.604 3.161 13.007 4.781l.004.001c1.465.536 2.942 1.08 4.422 1.625 2.22.815 4.453 1.642 6.693 2.463l.004.001c3.734 1.378 7.493 2.758 11.267 4.151.753.279 1.511.558 2.266.833 1.512.557 3.019 1.118 4.532 1.672 3.026 1.121 6.05 2.237 9.076 3.358 1.508.557 3.01 1.116 4.519 1.669 5.379 1.99 10.726 3.971 15.995 5.931l.025.007a9526.018 9526.018 0 0142.752 15.982l.004.001c.686.255 1.363.512 2.037.764 7.59 2.868 14.573 5.52 20.719 7.883 2.939 1.136 5.695 2.199 8.231 3.189 9.189 3.58 15.569 6.182 18.005 7.392 6.329 3.145 13.466 6.422 20.007 9.321.538.24 1.077.476 1.605.709.026.016.054.024.081.036.81.359 1.609.711 2.397 1.055l.069.033c.909.395 1.797.784 2.663 1.159 1.267.547 2.484 1.071 3.635 1.564.498.212.98.419 1.455.62a791.486 791.486 0 009.466 3.966s-.005.111-.024.319l-.001.052c-.007.055-.01.115-.016.183-.014.131-.027.288-.049.46a20.15 20.15 0 01-.097.791s-.001.004.003.005c-.011.071-.019.147-.032.226-.034.247-.071.507-.119.789-.031.192-.067.399-.102.603-.022.111-.042.232-.065.347-.023.128-.051.26-.077.387l-.119.572c-.018.078-.035.156-.057.236-.029.136-.064.278-.097.413-.016.074-.035.142-.054.211-.034.138-.07.285-.108.422-.014.079-.035.156-.051.23z" fill="#D7E2FF"/><path d="M360.234 421.218c-.042.136-.083.285-.126.426-.904 3.072-2.487 6.339-5.219 7.718a6.066 6.066 0 01-.869.359l-.004-.001-.001.004c-.096.03-.199.058-.308.089-.098.025-.201.053-.312.074l-.004-.001a3.537 3.537 0 01-.321.059 5.408 5.408 0 01-.673.075.856.856 0 01-.101.002l-.001.004c-.034-.001-.07.003-.106.006-.036.003-.074.001-.11.004l-.001.004c-.039-.002-.078 0-.118.002l-.001.004a.64.64 0 00-.123.005l-.128.004-.004-.001-.001.004c-.043.001-.087.002-.132.007-.048 0-.093.005-.141.005l-.004-.002c-.049.004-.092.005-.145.008-.049.004-.101.002-.15.006-.106.006-.216.01-.326.014l-.004-.001-.163.007-.004-.001-.001.004-.171.005-.127.004c-.463.02-.978.042-1.54.061-.105.001-.205.004-.319.007-1.477.052-3.266.104-5.319.149-.21.003-.424.008-.643.013-.36.009-.727.016-1.099.026-.079 0-.158.004-.245.002-.11.004-.232.005-.346.009-.114.003-.227.002-.349.003l-.354.006c-.114.003-.236.004-.358.005-.118.003-.24.004-.358.006-.122.001-.246.006-.368.007s-.248 0-.366.002c-.004-.001-.005.003-.005.003l-.37.002c-.088.002-.175.004-.272.008-.034-.005-.069-.002-.105.001h-.378c-.634.011-1.286.022-1.948.026-.381.007-.768.009-1.162.017-.336.003-.672.005-1.012.011a95.64 95.64 0 01-.773.008c-1.007.008-2.04.013-3.099.02-.217.001-.426-.001-.635.002-.371.002-.74 0-1.111.006-.336.002-.671.001-1.016.005-.378 0-.756 0-1.136.003-12.645.007-27.892-.284-41.828-1.287-.486-.034-.975-.074-1.463-.105l-.724-.057c-.485-.039-.965-.08-1.446-.118a258.711 258.711 0 01-4.259-.379l-1.389-.137-.689-.073c-.456-.048-.912-.101-1.365-.144-.452-.051-.902-.106-1.348-.16-.442-.053-.885-.106-1.326-.163a70.525 70.525 0 01-1.307-.166c-.436-.06-.863-.117-1.287-.174-.427-.062-.849-.122-1.268-.181l-.622-.094c-.827-.125-1.644-.256-2.435-.383-.2-.034-.399-.068-.593-.104l-1.17-.207a90.858 90.858 0 01-2.249-.44 56.265 56.265 0 01-1.614-.347c-.353-.076-.7-.159-1.039-.24a47.841 47.841 0 01-1.493-.374 51.495 51.495 0 01-2.767-.801c-.144-.045-.288-.089-.43-.141a28.129 28.129 0 01-1.14-.394c-.024-.007-.047-.018-.072-.024-.062-.026-.13-.049-.197-.072-.257-.093-.523-.185-.812-.291-.075-.025-.15-.054-.234-.082a26.44 26.44 0 00-.752-.269c-.082-.031-.166-.059-.253-.092a5.816 5.816 0 01-.257-.093 28.602 28.602 0 01-.53-.19c-.179-.063-.364-.131-.55-.196-.095-.035-.191-.066-.29-.102-.237-.087-.475-.171-.724-.261-.115-.041-.234-.082-.347-.127a73.662 73.662 0 01-.752-.269c-.107-.039-.215-.073-.329-.117-.317-.114-.633-.228-.966-.346-.914-.327-1.887-.679-2.919-1.052-.122-.047-.253-.092-.383-.141-.258-.089-.516-.182-.785-.278-.391-.143-.795-.286-1.206-.435-.166-.063-.336-.123-.498-.181-.388-.138-.784-.282-1.18-.422a17.352 17.352 0 00-.435-.156 52.218 52.218 0 00-.827-.298l-.909-.33-.487-.174-.455-.166c-.246-.085-.487-.174-.736-.264-1.416-.51-2.891-1.045-4.426-1.596a40.707 40.707 0 00-.672-.243c-.34-.124-.684-.25-1.029-.371-.798-.291-1.618-.583-2.444-.882a1679.39 1679.39 0 00-2.472-.893l-14.103-5.111-.759-.276a579.21 579.21 0 01-3.06-1.108l-1.949-.71c-.036-.01-.071-.024-.107-.038-.744-.267-1.495-.54-2.246-.814-.091-.029-.181-.067-.281-.099l-4.016-1.46a938.34 938.34 0 01-1.039-.38l-.321-.114a848.078 848.078 0 01-3.58-1.305c-.526-.19-1.048-.378-1.577-.572-.352-.128-.7-.255-1.049-.377-.71-.262-1.418-.519-2.134-.778-1.071-.389-2.143-.777-3.22-1.175-.096-.031-.19-.07-.289-.102-.446-.167-.889-.325-1.332-.486-.031-.013-.064-.022-.095-.035-1.324-.48-2.651-.969-3.991-1.454l-.11-.043c-.138-.051-.277-.099-.415-.15 35.445-8.61 52.357-35.565 52.357-35.565l.024.006a9435.203 9435.203 0 0142.752 15.982l.004.001c.686.256 1.363.513 2.038.765a3764.525 3764.525 0 0120.718 7.883c2.94 1.136 5.695 2.199 8.231 3.189 9.189 3.58 15.569 6.182 18.005 7.392 6.33 3.144 13.466 6.422 20.007 9.321.538.24 1.078.476 1.605.709.026.016.054.024.081.036.81.359 1.609.711 2.397 1.055l.069.032c.909.396 1.797.785 2.664 1.16 1.267.547 2.483 1.071 3.634 1.563.499.212.981.42 1.456.621 5.674 2.415 9.465 3.965 9.465 3.965s-.005.112-.024.32l-.001.052c-.006.055-.01.115-.016.183-.014.13-.027.288-.049.46a20.15 20.15 0 01-.097.791s-.001.004.003.005c-.011.071-.019.147-.032.226-.034.247-.071.507-.119.789-.031.192-.067.399-.101.603-.023.111-.043.231-.066.347-.023.128-.05.26-.077.387l-.119.572a4.728 4.728 0 01-.057.236c-.029.136-.064.278-.097.413-.016.074-.035.142-.054.211-.034.138-.07.285-.108.422-.018.082-.04.159-.056.233z" fill="#F99746"/><path opacity=".5" d="M352.405 430.026c-2.098.128-8.326.343-16.815.453.415-11.706-6.769-18.632-6.769-18.632l32.268 5.175c-.552 4.018-2.462 12.627-8.684 13.004z" fill="#E27727"/><path d="M189.069 369.185c-.998-.372-1.47-1.59-1.048-2.704l.809-2.15c.423-1.119 1.583-1.728 2.581-1.356.998.372 1.469 1.59 1.048 2.704l-.809 2.151c-.423 1.118-1.583 1.727-2.581 1.355zm-9.359-3.483c-.998-.372-1.469-1.59-1.048-2.704l.809-2.151c.423-1.118 1.584-1.727 2.581-1.355.998.372 1.47 1.59 1.048 2.704l-.809 2.151c-.422 1.118-1.583 1.727-2.581 1.355zm-9.357-3.48c-.997-.372-1.469-1.59-1.047-2.704l.809-2.15c.422-1.118 1.583-1.728 2.581-1.356.997.372 1.469 1.59 1.047 2.704l-.808 2.151c-.422 1.114-1.583 1.723-2.582 1.355zm-9.358-3.483c-.998-.372-1.469-1.59-1.048-2.704l.809-2.151c.422-1.114 1.583-1.727 2.581-1.355.998.372 1.47 1.59 1.048 2.704l-.809 2.15c-.422 1.114-1.582 1.724-2.581 1.356zm-9.355-3.483c-.998-.372-1.47-1.59-1.048-2.704l.809-2.15c.421-1.114 1.583-1.727 2.581-1.355.998.372 1.469 1.59 1.048 2.704l-.809 2.15c-.423 1.118-1.584 1.727-2.581 1.355zm-9.36-3.484c-.997-.372-1.469-1.59-1.048-2.704l.809-2.151c.422-1.114 1.584-1.727 2.581-1.355.998.372 1.47 1.59 1.048 2.704l-.809 2.15c-.423 1.118-1.583 1.728-2.581 1.356zm-9.354-3.482c-.998-.372-1.47-1.59-1.048-2.704l.809-2.151c.421-1.114 1.583-1.727 2.581-1.355.997.372 1.469 1.59 1.048 2.704l-.809 2.15c-.423 1.118-1.584 1.728-2.581 1.356zm-9.36-3.485c-.998-.372-1.469-1.59-1.048-2.704l.809-2.15c.423-1.118 1.584-1.728 2.581-1.356.998.372 1.47 1.59 1.048 2.704l-.809 2.151c-.423 1.118-1.583 1.727-2.581 1.355zm-9.356-3.483c-.997-.372-1.469-1.59-1.048-2.704l.809-2.15c.422-1.114 1.584-1.727 2.582-1.355.997.372 1.469 1.59 1.047 2.704l-.808 2.15c-.423 1.118-1.584 1.728-2.582 1.355zm-9.172-3.414c-.997-.372-1.469-1.59-1.048-2.704l.809-2.151c.422-1.114 1.584-1.727 2.582-1.355.997.372 1.469 1.59 1.048 2.704l-.809 2.151c-.423 1.118-1.584 1.727-2.582 1.355zm-9.358-3.479c-.998-.372-1.47-1.59-1.048-2.704l.809-2.151c.422-1.114 1.584-1.727 2.581-1.355.998.372 1.47 1.59 1.048 2.704l-.809 2.15c-.421 1.114-1.582 1.724-2.581 1.356zm-9.359-3.484c-.997-.372-1.47-1.59-1.047-2.704l.808-2.151c.423-1.118 1.584-1.727 2.582-1.355.997.372 1.469 1.59 1.047 2.704l-.808 2.151c-.422 1.114-1.584 1.727-2.582 1.355zm-11.56-4.428c-.998-.373-1.47-1.59-1.048-2.704l.81-2.151c.42-1.114 1.583-1.727 2.58-1.355.998.372 1.47 1.59 1.048 2.704l-.809 2.15c-.422 1.118-1.583 1.728-2.58 1.356zm216.095 81.787c-.997-.372-1.469-1.59-1.048-2.704l.813-2.15c.422-1.114 1.584-1.727 2.581-1.355.998.372 1.47 1.59 1.048 2.704l-.809 2.15c-.427 1.117-1.587 1.727-2.585 1.355zm-9.356-3.484c-.997-.372-1.469-1.59-1.047-2.704l.808-2.15c.422-1.115 1.584-1.728 2.582-1.356.997.372 1.469 1.59 1.048 2.704l-.809 2.151c-.423 1.118-1.584 1.727-2.582 1.355zm-9.36-3.48c-.997-.372-1.469-1.59-1.047-2.704l.808-2.15c.422-1.114 1.584-1.728 2.581-1.356.998.372 1.469 1.59 1.048 2.704l-.809 2.151c-.422 1.114-1.582 1.723-2.581 1.355zM42.3 304.226l-8.24 4.354-3.97-.826c.398-.12.758-.255 1.072-.416l.167-.084c.895-.453 2.371-1.209 4.417-2.013a45.71 45.71 0 014.885-1.6l1.67.585zm1.361.62l-8.104 4.458 6.82 3.541 4.254-6.467-2.97-1.532zm3.591 1.939l-3.534 6.206 5.793-.04 1.631-4.554-3.89-1.612zm116.576 87.353c3.122-.323 5.217-5.013 3.469-7.764-1.746-2.745-4.349-5.74-7.866-6.993-7.222-2.574-8.387 13.256-6.029 14.244 1.391.585 6.27.941 10.426.513z" fill="#2B478B"/><path d="M329.015 408.696c.406-.319 30.346-1.759 47.19 7.138l-20.281 6.086-27.102-10.077c-.001.004-1.838-1.562.193-3.147z" fill="#355DAF"/><path d="M333.297 341.731s-29.604 35.487-34.804 40.675c-5.201 5.192-13.935 7.004-13.935 7.004l-.049.004-54.136 6.286s-59.369-21.598-72.174-26.715l-.004-.001c-1.16-.465-1.938-.798-2.254-.959-3.775-1.968-5.139-4.346-3.962-5.599 1.177-1.248 97.592 13.41 108.243 15.12.1.015.205.031.304.05 10.385 1.602 12.266-1.561 12.266-1.561l50.718-33.449c.719-.679 1.697-1.069 2.754-1.272 3.156-.605 7.033.417 7.033.417z" fill="#D7E2FF"/><path d="M326.271 341.32c-13.842 9.7-52.101 36.432-55.478 38.036-3.629 1.731-91.094-8.009-112.591-10.366l-.004-.001c-1.159-.465-1.937-.798-2.253-.959-3.775-1.968-5.14-4.346-3.962-5.599 1.177-1.248 97.591 13.41 108.242 15.12 10.651 1.711 12.57-1.511 12.57-1.511l50.718-33.449c.718-.675 1.696-1.065 2.758-1.271z" fill="#739AF0"/><path d="M333.297 341.731s-29.603 35.488-34.803 40.675c-5.201 5.192-13.935 7.005-13.935 7.005l-.049.004c-10.5-3.183-18.735-8.086-23.985-11.815 10.386 1.602 12.267-1.56 12.267-1.56l50.718-33.449c.718-.68 1.697-1.07 2.754-1.273 3.157-.608 7.033.413 7.033.413z" fill="#D7E2FF"/><path d="M162.08 376.305l-7.515 19.956s-8.603.648-20.657-3.395c-7.376-2.474-11.912-5.496-14.32-7.467-1.525-1.249-2.196-2.079-2.196-2.079l7.877-20.916c.853-.394 1.93-.557 3.179-.529 10.356.198 32.356 13.194 32.356 13.194l1.276 1.236z" fill="#E9F0FF"/><path d="M128.455 361.869l-8.862 23.527c-1.524-1.249-2.195-2.078-2.195-2.078l7.877-20.917c.849-.395 1.929-.557 3.18-.532z" fill="#FF9843"/><path d="M405.392 412.93c-.98-1.393-2.165-2.682-3.403-3.919-1.237-1.237-2.526-2.424-3.919-3.403C390.387 399.472 380.952 396 371 396c-11.705 0-22.688 4.709-30.989 13.011C331.71 417.312 327 428.295 327 440c0 10.003 3.472 19.439 9.608 27.122a39.74 39.74 0 003.403 3.867 39.506 39.506 0 003.867 3.403C351.561 480.528 360.997 484 371 484c11.705 0 22.688-4.709 30.989-13.011C410.291 462.687 415 451.705 415 440c0-9.952-3.472-19.387-9.608-27.07zM337.484 440c0-8.972 3.507-17.377 9.797-23.719 6.342-6.29 14.747-9.797 23.719-9.797 7.219 0 14.076 2.269 19.749 6.446l-46.768 46.818c-4.228-5.672-6.497-12.529-6.497-19.748zm57.235 23.719c-6.342 6.29-14.747 9.797-23.719 9.797-7.219 0-14.076-2.269-19.749-6.497l46.819-46.767c4.177 5.671 6.446 12.529 6.446 19.748 0 8.972-3.507 17.377-9.797 23.719z" fill="#FF696F"/><path d="M402.722 470.769a4.09 4.09 0 004.1 4.095 4.09 4.09 0 004.1-4.095 4.09 4.09 0 00-4.1-4.094 4.089 4.089 0 00-4.1 4.094z" fill="#66A357"/><path d="M401.105 470.769a4.09 4.09 0 004.1 4.095 4.089 4.089 0 004.099-4.095 4.089 4.089 0 00-4.099-4.094c-2.25 0-4.1 1.827-4.1 4.094z" fill="#A8D29F"/><path d="M379.47 485.804a4.097 4.097 0 01-4.1-4.095 4.097 4.097 0 014.1-4.094 4.096 4.096 0 014.099 4.094 4.097 4.097 0 01-4.099 4.095z" fill="#66A357"/><path d="M377.852 485.804a4.097 4.097 0 01-4.1-4.095 4.097 4.097 0 014.1-4.094c2.264 0 4.1 1.833 4.1 4.094a4.097 4.097 0 01-4.1 4.095z" fill="#A8D29F"/><path d="M410.06 466.318l-4.541 4.22c-.463.42-.988.777-1.577 1.008l-30.589 12.704-5.676-4.094 42.383-13.838zm-64.417-45.819l1.451-1.008c-6.706-9.701-19.678-28.809-20.75-31.686-.673-1.827-.673-3.339-.021-4.536 1.072-1.889 3.553-2.393 3.574-2.393l.084-.021 6.791-2.1c7.778-3.087 11.1 3.002 11.247 3.275l.042.084 18.164 27.403 1.472-.966-18.143-27.36c-.168-.315-1.199-2.058-3.196-3.402-1.997-1.344-5.403-2.562-10.217-.651l-6.643 2.058c-.442.105-3.322.798-4.731 3.254-.946 1.659-.967 3.675-.105 6.027 1.43 3.759 20.183 30.867 20.981 32.022z" fill="#66A357"/><path d="M347.685 413.612l-15.032 10.31s-3.952 3.99.589 11.99c3.994 7.035 25.417 46.89 25.417 46.89s4.457 8.294 21.822-2.079l-32.796-67.111z" fill="#66A357"/><path d="M343.458 428.899l24.303 44.516a11.427 11.427 0 0014.443 5.04l15.284-6.426.378-.168 9.566-4.01a11.037 11.037 0 002.606-1.533c.19-.147.358-.294.526-.441 2.859-2.499 4.247-6.279 3.784-9.974a11.545 11.545 0 00-1.64-4.599l-25.942-41.43a11.428 11.428 0 00-13.161-4.808l-2.796.903-.673.21-.567.189-9.377 2.981-1.156.357-9.04 2.877a11.848 11.848 0 00-3.763 2.037 1.471 1.471 0 01-.21.168l-.421.378c-3.595 3.423-4.73 9.029-2.144 13.733z" fill="#A8D29F"/><path d="M371.776 477.657a11.427 11.427 0 0010.407.798l15.284-6.426.378-.168 9.587-4.01a11.063 11.063 0 002.607-1.533c.189-.147.357-.294.525-.441 2.838-2.499 4.941-8.127 3.175-12.389 0 0-32.439 13.355-38.725 17.281-3.238 2.016-3.238 4.893-3.238 6.888z" fill="#82B378"/><path d="M369.569 406.346c.084.021 8.998 1.302 11.542 4.683 2.628 3.465 28.423 46.028 28.676 46.469.021.042 2.081 4.347-.168 9.156l.441-.315c.189-.147.357-.294.526-.441 1.955-4.851-.169-8.547-.274-8.715-1.072-1.763-26.068-43.025-28.696-46.532-2.313-3.066-8.767-4.347-10.827-4.703l-.673.209-.547.189zm-10.533 3.36c1.304.252 6.454 1.533 9.608 6.636 3.721 5.942 27.372 50.69 27.624 51.131l.021.042.021.021c.021.021 1.64 2.289.799 4.661l.379-.168.378-.168c.715-2.456-.841-4.451-1.072-4.724-.736-1.386-23.925-45.231-27.604-51.152-2.733-4.389-6.853-6.069-8.998-6.678l-1.156.399zm-13.434 5.46c.042 0 1.872.21 3.743 1.092 1.871.903 4.204 2.52 6.012 5.438 3.7 5.964 26.51 50.879 26.742 51.341l.021.042.021.021c.021.021 1.366 2.793.525 5.166l.967-.399c.526-2.058-.756-4.851-.988-5.124-.735-1.428-23.062-45.419-26.741-51.341-3.448-5.564-8.578-6.614-9.65-6.761a1.471 1.471 0 01-.21.168l-.442.357z" fill="#66A357"/><path d="M330.339 470.517s3.259 3.024 2.628 5.166c-.631 2.142-3.574 3.57-3.973 6.194-.4 2.625-1.998 4.053-3.427 4.053h-6.833s-1.051-1.848 1.493-2.394 3.511-3.633 3.343-6.488c-.168-2.856.231-6.678.231-6.678l5.403-1.281 1.135 1.428zm-59.138 15.392h18.143c.147-.042.273-.063.357-.105 1.198-.609.841-5.229.694-6.657-.021-.273-.042-.42-.042-.42s-6.37-5.081-7.232-1.197c-.021.126-.063.231-.105.357-1.093 3.633-6.034 5.292-8.893 5.754-2.208.378-2.775 1.638-2.922 2.268z" fill="#233862"/><path d="M274.859 381.674s.967 12.053 2.102 26.52c1.535 19.676 3.406 43.824 3.574 48.402.316 7.937 1.598 20.662 1.598 20.662s3.027 3.024 9.061 1.743c0 0 5.382-18.143 6.938-37.356l.063-.945c1.429-19.55 3.658-60.706 3.658-60.706l-26.994 1.68z" fill="#2B478B"/><path d="M274.859 381.673s.967 12.053 2.102 26.521l21.171 33.471.063-.944c1.429-19.55 3.658-60.707 3.658-60.707l-26.994 1.659z" fill="#233862"/><path d="M279.274 383.101s17.428 43.614 28.886 64.129c11.457 20.494 15.031 26.227 15.031 26.227s6.56-2.625 7.169-4.41c0 0-4.372-39.582-12.046-49.22-4.331-5.459-9.418-21.817-9.671-27.529-.231-5.711-1.555-17.05-1.555-17.05l-27.814 7.853z" fill="#2B478B"/><path d="M261.656 371.069l-.989 1.974s-5.066.714-3.679 5.985c0 0 .757 2.163 2.145 1.491 1.387-.693.715-.63 2.712-1.554 1.997-.924 3.153-2.709 2.712-4.326l.315-1.722-3.216-1.848zm26.553-55.288c-.778-4.578-.799-7.266-.799-7.266l8.83-7.118c-.336 9.785 5.949 14.489 5.949 14.489s-11.773 5.795-18.584 3.654c0-.021 1.682-2.163 4.604-3.759z" fill="#FFB27D"/><path d="M285.328 308.326s11.248 1.869 12.299-5.144c1.051-7.014 3.216-11.486-3.911-12.977-7.126-1.491-8.934.987-9.859 3.234-.925 2.246-1.43 14.236 1.471 14.887z" fill="#FFB27D"/><path d="M297.544 303.665s-.232-9.387-10.47-10.899c-7.022-1.028-2.775-6.887-1.955-7.811 0 0 5.361 1.029 10.848 2.226 11.521 2.52 2.796 15.098 1.577 16.484z" fill="#233862"/><path d="M262.834 373.82c-1.513-1.533-2.628-3.549-2.628-3.549s12.783-15.854 13.813-17.491c1.03-1.638 8.787-28.012 8.787-28.012l19.615-3.969s-16.377 33.744-19.089 37.86c-4.478 6.804-17.891 16.925-17.891 16.925s-1.429-.546-2.607-1.764z" fill="#A53D38"/><path d="M274.102 382.681c.211.168.442.273.715.273 2.565-.042 10.007 1.386 16.314.735 5.319-.504 10.028-2.079 15.074-4.346.672-.294 2.207-1.134 2.186-1.869-.021-.819-.105-2.016-.21-3.507-.357-5.208-.988-14.174-.379-24.505.106-1.932.169-3.843.169-5.712.042-14.005-2.691-26.415-8.283-30.573-.484-.336-3.448 1.155-6.16 2.478-2.481 1.218-4.226 1.197-6.581.714l-3.09 2.246c-2.859 2.646-5.992 6.258-7.358 11.739-1.156 4.661-1.85 13.082-2.207 21.796-.169 3.948-.316 7.937-.337 11.717v.126c-.042.378-.042.777-.042 1.155-.126 9.701.021 17.386.189 17.533z" fill="#B64C41"/><path d="M308.181 373.967c-.358-5.207-.988-14.174-.379-24.505.105-1.932.169-3.843.169-5.711-2.334-5.649-4.226-9.744-4.226-9.744h-5.866c0-.021-4.288 29.356 10.302 39.96z" fill="#A53D38"/><path d="M319.618 375.794l1.114 1.911s-2.186 4.62 3.006 6.341c0 0 2.229.567 2.418-.986.189-1.533-.147-.945.189-3.108.316-2.184-.525-4.116-2.144-4.641l-1.261-1.218-3.322 1.701z" fill="#FFB27D"/><path d="M322.561 376.319c-2.123.42-4.415.252-4.415.252s-6.285-19.361-7.084-21.124c-.799-1.764-18.648-22.7-18.648-22.7l7.442-18.604s19.279 32.19 21.255 36.705c3.237 7.475 4.352 24.232 4.352 24.232s-1.241.903-2.902 1.239z" fill="#B64C41"/><path d="M343.921 474.357c7.678 6.158 17.109 9.643 27.106 9.643 11.697 0 22.674-4.727 30.97-13.059 8.296-8.332 13.003-19.356 13.003-31.104 0-9.988-3.47-19.459-9.602-27.17-1.74-2.916-5.928-6.435-7.673-7.667L337 466.956c1.237 1.242 5.581 6.365 6.921 7.401zm54.16-54.341c4.174 5.693 6.441 12.576 6.441 19.821 0 9.005-3.504 17.441-9.791 23.807-6.338 6.314-14.738 9.833-23.704 9.833-7.215 0-14.068-2.277-19.737-6.521l46.791-46.94z" fill="#F9585E"/></svg>