<svg width="85" height="34" viewBox="0 0 85 34" fill="none" xmlns="http://www.w3.org/2000/svg">
<path d="M5.06057 10.0552V14.6663H0.172852V0H5.87037C11.1485 0 13.4695 2.30552 13.4695 5.02762C13.4695 7.74971 11.1485 10.0552 5.87037 10.0552H5.06057ZM8.43714 5.02762C8.44962 4.6911 8.39148 4.35568 8.26642 4.04269C8.14136 3.7297 7.95211 3.44597 7.71071 3.20955C7.46931 2.97313 7.18103 2.78919 6.8642 2.66941C6.54737 2.54963 6.20893 2.49664 5.87037 2.51381H5.06057V7.54142H5.87037C6.20683 7.55558 6.5426 7.5003 6.85647 7.37908C7.17035 7.25785 7.45552 7.07331 7.69399 6.8371C7.93246 6.60089 8.11905 6.31814 8.24198 6.0067C8.36491 5.69526 8.42151 5.36188 8.40822 5.02762H8.43714Z" fill="#219653"/>
<path d="M14.3164 0.0718994H18.7486V4.61112H18.9583C19.7058 4.01056 20.636 3.67895 21.5974 3.67023C24.2292 3.67023 26.0296 5.45145 26.0296 7.75697V14.6735H21.5974V7.75697C21.6162 7.56481 21.5958 7.37085 21.5375 7.18669C21.4791 7.00252 21.384 6.83193 21.2578 6.68511C21.1316 6.53828 20.9769 6.41824 20.8029 6.33215C20.629 6.24606 20.4393 6.19568 20.2453 6.18404C19.6881 6.22939 19.1701 6.48669 18.7992 6.90227V14.6592H14.3164V0.0718994Z" fill="#219653"/>
<path d="M28.8201 5.86808C29.3666 5.16636 30.0713 4.60191 30.8776 4.22018C31.6838 3.83845 32.569 3.6501 33.4619 3.67029C36.947 3.67029 39.0438 5.74598 39.0438 8.38907V11.5277C39.053 12.5895 39.1938 13.6461 39.4631 14.6736H34.9442L34.8357 13.8333H34.626C33.896 14.5584 32.9107 14.973 31.8785 14.9896C29.2394 14.9896 27.4463 13.2084 27.4463 11.2189C27.4463 9.43768 29.2394 7.62774 31.8785 7.62774C32.8446 7.60166 33.798 7.85089 34.626 8.34597C34.626 6.90951 33.7801 6.03327 32.5148 6.03327C31.6058 6.08731 30.7454 6.45872 30.0854 7.08189L28.8201 5.86808ZM34.6043 10.3786C34.1666 10.1181 33.6684 9.97459 33.1583 9.96199C32.9921 9.96199 32.8276 9.9945 32.6741 10.0577C32.5205 10.1208 32.381 10.2134 32.2636 10.3301C32.1461 10.4468 32.0529 10.5854 31.9893 10.7379C31.9257 10.8904 31.893 11.0538 31.893 11.2189C31.893 11.384 31.9257 11.5474 31.9893 11.6999C32.0529 11.8524 32.1461 11.9909 32.2636 12.1077C32.381 12.2244 32.5205 12.317 32.6741 12.3801C32.8276 12.4433 32.9921 12.4758 33.1583 12.4758C33.7138 12.4248 34.2299 12.1685 34.6043 11.7576V10.3786Z" fill="#219653"/>
<path d="M4.96002 33.3619C3.9904 33.3953 3.02792 33.1858 2.16117 32.7528C1.29441 32.3198 0.55122 31.6771 0 30.884L1.26531 29.5912C1.60235 29.9957 2.02099 30.3254 2.49423 30.5592C2.96748 30.793 3.48481 30.9257 4.01284 30.9487C5.27816 30.9487 5.78428 30.4244 5.78428 29.9001C5.78428 28.8514 0.636271 29.0669 0.636271 25.3968C0.636271 23.8238 2.4294 22.0426 5.59629 22.0426C6.45235 21.9986 7.30595 22.1673 8.07985 22.5335C8.85374 22.8997 9.52349 23.4518 10.0285 24.1399L8.75595 25.3968C8.47042 25.0968 8.12788 24.8561 7.74812 24.6884C7.36837 24.5207 6.95893 24.4295 6.54347 24.42C5.69752 24.42 5.1697 24.9515 5.1697 25.368C5.1697 26.4166 10.3394 26.2084 10.3394 29.8713C10.3394 31.6023 8.54627 33.3619 4.96002 33.3619Z" fill="#219653"/>
<path d="M16.7819 28.8514C16.7819 30.216 17.5049 30.9486 18.4738 30.9486C18.99 30.9016 19.4746 30.6812 19.8476 30.3237L20.9032 31.7602C20.4461 32.2604 19.8877 32.6591 19.2647 32.9302C18.6418 33.2013 17.9682 33.3386 17.288 33.3331C14.2296 33.3331 12.3352 31.4442 12.3352 28.8226V24.8724H10.665L15.184 19.6293H16.7819V22.3585H19.5222L19.0956 24.8724H16.7819V28.8514Z" fill="#219653"/>
<path d="M33.1655 29.8999C33.1753 30.9593 33.3162 32.0134 33.5849 33.0386H29.0515L28.9213 32.2055H28.7116C27.9509 32.9463 26.9282 33.3615 25.8629 33.3618C23.2238 33.3618 21.4307 31.5806 21.4307 29.2751V22.3585H25.8846V29.2751C25.8604 29.4718 25.8775 29.6713 25.9348 29.8611C25.9921 30.0509 26.0882 30.2268 26.2172 30.3779C26.3463 30.529 26.5054 30.652 26.6845 30.7391C26.8637 30.8261 27.059 30.8755 27.2583 30.8839C27.8139 30.8329 28.33 30.5766 28.7044 30.1657V22.3585H33.1366L33.1655 29.8999Z" fill="#219653"/>
<path d="M47.3006 29.8999C47.3104 30.9592 47.4512 32.0133 47.7199 33.0385H43.1865L43.0781 32.1982H42.8684C42.1077 32.9391 41.0849 33.3543 40.0196 33.3546C39.2815 33.3531 38.5513 33.2041 37.8724 32.9166C37.1934 32.629 36.5797 32.2086 36.0677 31.6806C35.5556 31.1525 35.1558 30.5275 34.8919 29.8428C34.6281 29.1581 34.5056 28.4276 34.5318 27.6949C34.5056 26.9622 34.6281 26.2317 34.8919 25.547C35.1558 24.8623 35.5556 24.2373 36.0677 23.7092C36.5797 23.1812 37.1934 22.7608 37.8724 22.4733C38.5513 22.1857 39.2815 22.0367 40.0196 22.0352C40.9497 22.0241 41.8642 22.273 42.6587 22.7535H42.8684V18.4441H47.3006V29.8999ZM42.8684 30.1153V24.98C42.4326 24.7142 41.9336 24.568 41.4223 24.5562C40.157 24.5562 39.1014 25.6049 39.1014 27.7021C39.1014 29.7993 40.1281 30.8838 41.3717 30.8838C41.9531 30.8338 42.491 30.5576 42.8684 30.1153Z" fill="#219653"/>
<path d="M52.059 21.1017C51.6463 21.082 51.2485 20.9425 50.9149 20.7004C50.5813 20.4584 50.3265 20.1244 50.1821 19.7398C50.0377 19.3553 50.01 18.9371 50.1026 18.5372C50.1951 18.1372 50.4038 17.773 50.7027 17.4896C51.0016 17.2063 51.3776 17.0163 51.7841 16.9432C52.1907 16.8701 52.6099 16.9171 52.9898 17.0784C53.3697 17.2396 53.6937 17.5081 53.9215 17.8505C54.1493 18.1928 54.271 18.5941 54.2715 19.0045C54.2563 19.5735 54.0151 20.1134 53.6006 20.5063C53.1861 20.8993 52.6318 21.1133 52.059 21.1017ZM54.2642 33.0387H49.832V22.5669H54.2642V33.0387Z" fill="#219653"/>
<path d="M62.8098 22.0425C66.6057 22.0425 69.2448 24.664 69.2448 27.7021C69.2448 30.7403 66.6057 33.3618 62.8098 33.3618C59.0139 33.3618 56.3965 30.7403 56.3965 27.7021C56.3965 24.664 59.0139 22.0425 62.8098 22.0425ZM62.8098 31.0563C63.757 31.0563 64.7114 30.1154 64.7114 27.7021C64.7114 25.2889 63.757 24.348 62.8098 24.348C61.8626 24.348 60.9082 25.2889 60.9082 27.7021C60.9082 30.1154 61.8626 31.0563 62.8098 31.0563Z" fill="#219653"/>
<path d="M48.8775 3.69893C48.7185 3.69893 48.5594 3.69893 48.3931 3.69893C47.3355 3.69225 46.3166 4.09399 45.5516 4.81937H45.3347L45.2262 3.98623H40.6855L41.1121 7.1249V14.6735H45.5516V7.1249C46.0899 6.69116 46.7536 6.43952 47.4459 6.40666C48.2359 6.31826 49.032 6.50897 49.6946 6.94534L48.8775 3.69893Z" fill="#219653"/>
<path d="M57.6769 7.75692C57.6769 6.70831 57.1491 6.184 56.4116 6.184C56.1441 6.19824 55.8827 6.26981 55.6456 6.39378C55.4085 6.51775 55.2012 6.6912 55.0379 6.90223V14.6591H50.6129V5.39395L50.2441 3.59119H53.4472L54.8065 4.81936H55.0379C55.389 4.44894 55.8141 4.1554 56.2859 3.95752C56.7578 3.75964 57.266 3.66177 57.7782 3.67019C58.463 3.62973 59.1478 3.7512 59.7762 4.02462C60.4047 4.29805 60.9589 4.71565 61.3933 5.24312H61.603C62.0098 4.772 62.5099 4.38919 63.0722 4.11856C63.6345 3.84794 64.2468 3.69531 64.8711 3.67019C65.43 3.6399 65.9891 3.72319 66.5144 3.91496C67.0397 4.10674 67.5201 4.40296 67.9262 4.78551C68.3323 5.16806 68.6556 5.62889 68.8762 6.13981C69.0968 6.65073 69.2102 7.20099 69.2094 7.75692V14.6735H64.7482V7.75692C64.7482 6.70831 64.2204 6.184 63.4829 6.184C63.2153 6.19824 62.954 6.26981 62.7169 6.39378C62.4798 6.51775 62.2725 6.6912 62.1091 6.90223V14.6591H57.6769V7.75692Z" fill="#219653"/>
<path d="M80.9362 12.6335V12.2097C80.9362 11.7297 81.1282 11.2693 81.4699 10.9299C81.8116 10.5905 82.275 10.3998 82.7583 10.3998H83.1487C83.388 10.4036 83.6257 10.3605 83.8482 10.2731C84.0707 10.1856 84.2737 10.0555 84.4456 9.89006C84.6175 9.72465 84.7549 9.52723 84.85 9.30907C84.945 9.09091 84.9959 8.85628 84.9997 8.61858C85.0026 8.37665 84.9567 8.1366 84.8646 7.9126C84.7725 7.68861 84.6362 7.48523 84.4636 7.31448C84.2911 7.14374 84.0858 7.00909 83.8599 6.91851C83.6341 6.82792 83.3922 6.78324 83.1487 6.7871H79.0852C78.6033 6.79466 78.1439 6.99165 77.8079 7.33492C77.4718 7.67819 77.2863 8.13977 77.2921 8.61858V12.655C77.2921 13.1351 77.4841 13.5954 77.8258 13.9349C78.1675 14.2743 78.6309 14.465 79.1142 14.465C79.3553 14.465 79.594 14.4175 79.8165 14.3252C80.039 14.2329 80.2408 14.0976 80.4103 13.9273C80.5798 13.7569 80.7135 13.5548 80.8038 13.3327C80.8941 13.1107 80.9391 12.873 80.9362 12.6335Z" fill="#219653"/>
<path d="M77.2785 4.5608V4.97019C77.2785 5.45021 77.0866 5.91058 76.7449 6.25001C76.4032 6.58944 75.9397 6.78013 75.4565 6.78013H75.0444C74.802 6.77914 74.5619 6.82619 74.3381 6.91851C74.1143 7.01083 73.9113 7.14658 73.7409 7.3178C73.5706 7.48902 73.4363 7.69227 73.346 7.91567C73.2558 8.13906 73.2112 8.3781 73.2151 8.6188C73.2151 8.85709 73.2624 9.09304 73.3545 9.3131C73.4465 9.53316 73.5813 9.733 73.7513 9.90117C73.9213 10.0693 74.123 10.2025 74.3449 10.293C74.5668 10.3836 74.8045 10.4297 75.0444 10.4287H79.1006C79.5838 10.4287 80.0473 10.2381 80.389 9.89862C80.7307 9.55919 80.9226 9.09883 80.9226 8.6188V4.5608C80.9226 4.08077 80.7307 3.6204 80.389 3.28097C80.0473 2.94154 79.5838 2.75085 79.1006 2.75085C78.6174 2.75085 78.1539 2.94154 77.8122 3.28097C77.4705 3.6204 77.2785 4.08077 77.2785 4.5608Z" fill="#219653"/>
</svg>
