<svg width="197" height="68" viewBox="0 0 197 68" fill="none" xmlns="http://www.w3.org/2000/svg">
<path d="M196.006 43.1196C195.693 43.4364 195.319 43.6865 194.907 43.855C194.495 44.0234 194.053 44.1068 193.607 44.0999C193.165 44.1033 192.727 44.019 192.318 43.8518C191.909 43.6847 191.537 43.438 191.224 43.1261C190.911 42.8141 190.662 42.4432 190.494 42.0347C190.325 41.6262 190.239 41.1883 190.241 40.7463C190.234 40.299 190.317 39.8549 190.485 39.4404C190.654 39.026 190.904 38.6498 191.221 38.3343C191.53 38.015 191.901 37.7622 192.312 37.5914C192.722 37.4206 193.163 37.3354 193.607 37.3411C194.054 37.3411 194.496 37.4293 194.908 37.6005C195.321 37.7718 195.695 38.0229 196.01 38.3392C196.326 38.6556 196.575 39.0311 196.745 39.4442C196.915 39.8572 197.001 40.2997 196.999 40.7463C197.005 41.1888 196.92 41.6276 196.749 42.0359C196.578 42.4441 196.325 42.8129 196.006 43.1196ZM195.748 38.6051C195.471 38.32 195.139 38.0934 194.772 37.9387C194.405 37.784 194.012 37.7042 193.614 37.7042C193.216 37.7042 192.822 37.784 192.455 37.9387C192.088 38.0934 191.757 38.32 191.479 38.6051C191.192 38.8819 190.967 39.2151 190.816 39.5836C190.665 39.9522 190.592 40.3481 190.602 40.7463C190.602 41.1404 190.68 41.5305 190.831 41.8944C190.982 42.2584 191.204 42.5888 191.483 42.8669C191.762 43.1449 192.093 43.365 192.458 43.5147C192.823 43.6643 193.213 43.7404 193.607 43.7387C194.405 43.7422 195.173 43.4293 195.741 42.8684C196.309 42.3076 196.631 41.5445 196.638 40.7463C196.643 40.3477 196.566 39.9524 196.413 39.5843C196.26 39.2162 196.034 38.8831 195.748 38.6051ZM195.361 42.4747C195.225 42.5567 195.069 42.597 194.91 42.5908C194.856 42.5945 194.802 42.5873 194.751 42.5695C194.7 42.5518 194.653 42.5239 194.613 42.4876C194.463 42.3217 194.364 42.1155 194.329 41.8943L194.226 41.5331C194.214 41.4349 194.182 41.3402 194.132 41.2547C194.082 41.1693 194.015 41.0948 193.935 41.0358C193.856 40.9768 193.765 40.9344 193.669 40.9113C193.573 40.8881 193.473 40.8847 193.375 40.9011H192.678V42.5263H192.266V38.7728H193.556C194.484 38.7728 194.949 39.0953 194.949 39.766C194.95 39.9008 194.925 40.0346 194.873 40.1592C194.822 40.2838 194.745 40.3967 194.649 40.4908C194.552 40.5849 194.438 40.6584 194.312 40.7068C194.186 40.7551 194.051 40.7774 193.917 40.7721C194.368 40.8366 194.549 41.1204 194.665 41.5718V41.7782C194.742 42.1006 194.858 42.2683 195 42.2683C195.086 42.2603 195.17 42.2339 195.245 42.1909L195.361 42.4747ZM193.672 39.1211H192.678V40.5915H193.439C194.188 40.5915 194.51 40.3593 194.51 39.8305C194.51 39.3017 194.226 39.1211 193.672 39.1211Z" fill="white"/>
<path d="M156.538 30.6598L156.344 30.4792L156.009 30.9565L156.538 30.6598Z" fill="white"/>
<path d="M9.71293 47.9177L12.7699 48.0983L13.1181 48.6658L10.5771 48.4336L9.02931 51.2842L8.70684 50.7554L10.0483 48.382L9.14539 48.2788L7.71366 49.1817L7.41699 48.7303L11.5316 46.1377L11.8154 46.5891L9.71293 47.9177Z" fill="white"/>
<path d="M14.0343 49.7756L14.4986 50.3174L11.6222 54.4836L11.2482 54.0192L12.0737 52.8326L11.1063 51.6717L9.81644 52.2909L9.44238 51.8265L14.0343 49.7756ZM13.9569 50.2916L11.5706 51.4524L12.3832 52.4456L13.9569 50.2916Z" fill="white"/>
<path d="M15.7513 51.6715L14.9129 52.5744C14.4614 53.0516 14.4872 53.3096 14.9902 53.7869C15.185 53.9775 15.3965 54.1502 15.6223 54.3028L16.9895 52.8324L17.3894 53.2064L14.0616 56.8309L13.6875 56.4053L15.3127 54.6769C15.0655 54.4969 14.8287 54.3031 14.6033 54.0964C14.4507 54.0013 14.3232 53.8708 14.2316 53.7161C14.14 53.5614 14.0869 53.3869 14.0768 53.2074C14.0666 53.0278 14.0998 52.8485 14.1735 52.6845C14.2472 52.5204 14.3592 52.3765 14.5001 52.2648L15.3901 51.3232L15.7513 51.6715Z" fill="white"/>
<path d="M20.0074 55.1537L19.7237 55.5536L18.1758 54.4443L17.2601 55.7341L18.7047 56.766L18.4209 57.1659L16.9763 56.1211L15.9186 57.6044L17.4664 58.7266L17.1827 59.1135L15.1963 57.6818L18.034 53.7349L20.0074 55.1537Z" fill="white"/>
<path d="M21.8253 57.8366C22.1091 57.3207 22.1607 56.8047 21.5673 56.5467C20.7418 56.1082 20.1098 57.2691 19.8002 57.8366C19.3359 58.7008 18.8329 59.7456 19.6197 60.1712C20.4065 60.5969 20.6128 60.0422 21.0514 59.3586L21.5286 59.6166C20.9353 60.5711 20.342 61.0999 19.4262 60.6098C18.1363 59.9391 18.7555 58.5976 19.2972 57.5786C19.8389 56.5597 20.5871 55.502 21.8769 56.134C22.0414 56.2309 22.184 56.361 22.2956 56.5159C22.4073 56.6707 22.4856 56.8471 22.5256 57.0338C22.5656 57.2205 22.5664 57.4134 22.528 57.6005C22.4896 57.7875 22.4129 57.9645 22.3026 58.1204L21.8253 57.8366Z" fill="white"/>
<path d="M23.1398 62.1063L22.6367 61.9128L24.2103 57.824L23.0366 57.3725L23.2043 56.9082L26.0677 58.0175L25.8871 58.4689L24.7134 58.0175L23.1398 62.1063Z" fill="white"/>
<path d="M26.4685 58.1206L27.7583 58.4302C27.9314 58.4433 28.0992 58.4955 28.2492 58.5828C28.3991 58.6701 28.5274 58.7903 28.6242 58.9343C28.721 59.0783 28.784 59.2424 28.8082 59.4142C28.8325 59.5861 28.8175 59.7612 28.7644 59.9264C28.7339 60.1569 28.6225 60.3691 28.45 60.525C28.2775 60.681 28.0552 60.7705 27.8228 60.7777C28.0469 60.898 28.2221 61.0924 28.3186 61.3277C28.4151 61.5631 28.4268 61.8246 28.3516 62.0675C28.3222 62.2532 28.2525 62.4302 28.1475 62.586C28.0426 62.7419 27.9048 62.873 27.7438 62.9701C27.5828 63.0671 27.4026 63.1279 27.2157 63.148C27.0289 63.1681 26.8398 63.1471 26.6619 63.0865L25.3721 62.7641L26.4685 58.1206ZM25.9525 62.4932L26.7264 62.6867C27.294 62.8286 27.6164 62.6867 27.7583 62.0031C27.8077 61.8893 27.8295 61.7655 27.8219 61.6417C27.8143 61.5179 27.7776 61.3977 27.7147 61.2908C27.6519 61.1839 27.5646 61.0934 27.4601 61.0266C27.3556 60.9599 27.2368 60.9188 27.1134 60.9067L26.3782 60.7003L25.9525 62.4932ZM26.4942 60.2489L27.1521 60.4165C27.668 60.5455 28.0163 60.4165 28.1582 59.8232C28.1996 59.7243 28.2167 59.6168 28.208 59.5099C28.1993 59.4029 28.1651 59.2996 28.1083 59.2087C28.0514 59.1177 27.9735 59.0417 27.8812 58.987C27.7889 58.9324 27.6848 58.9006 27.5777 58.8945L26.8812 58.7139L26.4942 60.2489Z" fill="white"/>
<path d="M29.3713 61.2938C29.4874 60.1716 29.8098 58.7915 31.2158 58.9463C32.6217 59.1011 32.6733 60.507 32.5056 61.6163C32.3767 62.9061 32.0671 64.196 30.6483 63.9896C29.2294 63.7832 29.1778 62.6223 29.3584 61.2938H29.3713ZM31.1513 59.4106C30.3258 59.3332 30.042 60.1587 29.9388 61.2422C29.797 62.6481 29.8615 63.4092 30.7514 63.4994C31.6414 63.5897 31.8736 62.8674 32.0413 61.4615C32.1445 60.378 32.0413 59.5009 31.1771 59.4106" fill="white"/>
<path d="M37.3812 60.4167C37.3812 59.8234 37.0845 59.3719 36.4138 59.4364C35.4722 59.5267 35.6012 60.8552 35.6657 61.4873C35.7559 62.4676 35.9236 63.6026 36.8136 63.5252C37.5101 63.4478 37.5617 62.8674 37.5488 62.0548H38.0777C38.0777 63.177 37.9358 63.9509 36.9039 64.0541C35.4722 64.1959 35.2142 62.7642 35.0981 61.6033C34.982 60.4425 35.0981 59.1268 36.388 59.0236C36.5847 59.0034 36.7834 59.0254 36.971 59.0879C37.1585 59.1505 37.3306 59.2522 37.4758 59.3865C37.621 59.5207 37.736 59.6842 37.8131 59.8663C37.8901 60.0484 37.9276 60.2448 37.9229 60.4425L37.3812 60.4167Z" fill="white"/>
<path d="M41.2372 59.4108L40.244 59.7074L40.1279 59.2947C40.7987 59.0883 41.1211 58.869 40.9792 58.1209L41.3791 57.9919L42.7592 62.6612L42.2433 62.816L41.2372 59.4108Z" fill="white"/>
<path d="M45.9329 58.6367C46.3328 59.5653 47.0035 61.1261 45.7136 61.6936C45.5748 61.7649 45.4223 61.8053 45.2664 61.8122C45.1105 61.819 44.955 61.7921 44.8105 61.7334C44.666 61.6746 44.5359 61.5853 44.4291 61.4715C44.3222 61.3578 44.2412 61.2224 44.1916 61.0745L44.6946 60.8681C44.716 60.9568 44.758 61.0392 44.8171 61.1087C44.8763 61.1781 44.951 61.2327 45.0352 61.2678C45.1193 61.303 45.2106 61.3179 45.3016 61.3112C45.3926 61.3044 45.4807 61.2764 45.5588 61.2293C46.1909 60.9455 45.8168 59.8362 45.5588 59.1526C45.5596 59.3447 45.5054 59.5331 45.4026 59.6954C45.2997 59.8577 45.1525 59.9871 44.9784 60.0684C44.8142 60.1197 44.6413 60.1377 44.47 60.1212C44.2987 60.1047 44.1324 60.0541 43.9809 59.9724C43.8295 59.8907 43.6959 59.7794 43.5881 59.6453C43.4803 59.5111 43.4004 59.3568 43.3532 59.1913C42.9533 58.2368 43.1984 57.4113 43.8691 57.1146C45.0687 56.5987 45.6491 57.7209 46.049 58.6367H45.9329ZM44.0884 57.5532C43.5209 57.7982 43.637 58.4303 43.8304 58.843C44.0239 59.2558 44.3851 59.7975 44.9655 59.5524C45.5459 59.3074 45.4944 58.7785 45.288 58.2626C45.0816 57.7467 44.6817 57.2049 44.0884 57.4629" fill="white"/>
<path d="M47.3127 57.7465C47.8544 57.424 48.0866 57.0758 47.7641 56.5211C47.4417 55.9665 47.2095 55.9149 46.771 56.1729C46.3324 56.4308 46.4098 56.9081 46.6549 57.3466L46.2163 57.6046C46.1087 57.4617 46.032 57.2979 45.9912 57.1237C45.9503 56.9495 45.9461 56.7687 45.9788 56.5928C46.0116 56.4169 46.0806 56.2498 46.1814 56.102C46.2823 55.9542 46.4127 55.829 46.5646 55.7343C46.6978 55.6442 46.8488 55.5837 47.0073 55.5571C47.1659 55.5304 47.3284 55.5381 47.4838 55.5797C47.6391 55.6213 47.7837 55.6958 47.9077 55.7981C48.0318 55.9004 48.1324 56.0283 48.2027 56.1729C48.3386 56.3646 48.405 56.5969 48.3909 56.8314C48.3768 57.066 48.2831 57.2887 48.1253 57.4627C48.3894 57.3789 48.6752 57.3958 48.9277 57.5101C49.1801 57.6244 49.3813 57.8281 49.4926 58.0819C49.6008 58.2312 49.6758 58.402 49.7125 58.5828C49.7492 58.7635 49.7466 58.9501 49.7051 59.1298C49.6635 59.3095 49.5839 59.4782 49.4716 59.6245C49.3592 59.7708 49.2169 59.8913 49.054 59.9779C48.2543 60.4552 47.5707 60.0811 47.1321 59.3072L47.5836 59.0363C47.8544 59.5007 48.2414 59.9006 48.8734 59.5652C48.9733 59.512 49.0602 59.4376 49.1282 59.3472C49.1962 59.2568 49.2435 59.1526 49.2669 59.0419C49.2902 58.9313 49.2891 58.8168 49.2634 58.7067C49.2378 58.5965 49.1883 58.4933 49.1185 58.4043C48.6928 57.6691 48.3317 57.6949 47.6223 58.1077L47.3127 57.7465Z" fill="white"/>
<path d="M50.1503 56.0698C49.924 56.175 49.6667 56.1923 49.4283 56.1185C49.19 56.0446 48.9876 55.8847 48.8605 55.67C48.6723 55.4151 48.5931 55.096 48.6403 54.7827C48.6874 54.4694 48.8571 54.1878 49.112 53.9996C49.3668 53.8115 49.686 53.7323 49.9992 53.7794C50.3125 53.8266 50.5942 53.9963 50.7823 54.2511C50.9335 54.4321 51.0162 54.6603 51.0162 54.8961C51.0162 55.1318 50.9335 55.3601 50.7823 55.541C51.0429 55.4279 51.3361 55.4154 51.6053 55.506C51.8745 55.5965 52.1006 55.7836 52.2399 56.0311C52.3712 56.1648 52.4718 56.3255 52.5347 56.502C52.5976 56.6786 52.6213 56.8667 52.6041 57.0533C52.5869 57.2399 52.5293 57.4205 52.4352 57.5826C52.3411 57.7446 52.2128 57.8842 52.0593 57.9917C51.914 58.11 51.7448 58.1952 51.5633 58.2414C51.3818 58.2876 51.1923 58.2938 51.0082 58.2594C50.8241 58.225 50.6497 58.151 50.4971 58.0424C50.3444 57.9338 50.2173 57.7932 50.1245 57.6305C49.9374 57.4111 49.8345 57.1321 49.8345 56.8437C49.8345 56.5553 49.9374 56.2764 50.1245 56.0569L50.1503 56.0698ZM49.3764 55.3862C49.6602 55.7603 49.9955 55.9021 50.3567 55.6313C50.7178 55.3604 50.6276 54.9863 50.3567 54.651C50.0858 54.3156 49.7634 54.1479 49.4022 54.4188C49.041 54.6897 49.0797 55.025 49.4022 55.3862H49.3764ZM50.692 57.2823C51.0403 57.7337 51.4144 57.9788 51.9045 57.6047C52.3946 57.2307 52.2657 56.8179 51.9045 56.3149C51.5433 55.8119 51.1564 55.6571 50.7049 55.9924C50.2535 56.3278 50.3954 56.8566 50.7049 57.2823" fill="white"/>
<path d="M5.65063 32.1947L3.2257 30.1567L3.2773 29.4602L5.25077 31.2273L8.29482 29.8214L8.24323 30.4663L5.65063 31.6014L6.33425 32.2463L8.08845 32.3882L8.03685 32.9428L3.03223 32.543L3.08382 31.9754L5.65063 32.1947Z" fill="white"/>
<path d="M8.52631 28.8542L8.39733 29.3959L3.50879 28.2995L3.80545 26.9323C3.81424 26.7312 3.86998 26.5349 3.96822 26.3592C4.06646 26.1834 4.20447 26.0332 4.3712 25.9203C4.53793 25.8075 4.72876 25.7353 4.92841 25.7094C5.12806 25.6836 5.33098 25.7048 5.52095 25.7714C6.65602 26.0294 6.81081 26.7904 6.60443 27.6675L6.44965 28.3898L8.52631 28.8542ZM5.94661 28.2737L6.06269 27.7449C6.23038 26.9968 6.21748 26.455 5.37907 26.339C4.54067 26.2229 4.39878 26.5195 4.2569 27.1774L4.10212 27.861L5.94661 28.2737Z" fill="white"/>
<path d="M4.7334 23.6172L4.97847 22.9207L10.1379 23.3076L9.9315 23.8751L8.52556 23.7591L7.98383 25.2553L9.27368 26.0937L9.0673 26.6741L4.7334 23.6172ZM5.23644 23.4237L7.53237 24.9457L7.98383 23.6559L5.23644 23.4237Z" fill="white"/>
<path d="M8.37197 19.2058C7.84313 18.9221 7.30139 18.8705 6.97893 19.4767C6.52748 20.3409 7.72704 20.9858 8.26878 21.2954C9.17168 21.7727 10.2423 22.2757 10.6679 21.4631C11.0936 20.6505 10.5389 20.4312 9.8295 19.9927L10.0875 19.5025C11.0807 20.0958 11.6353 20.715 11.1323 21.6566C10.4486 22.9464 9.05559 22.366 8.01081 21.8113C6.96603 21.2567 5.85676 20.4312 6.50169 19.2316C6.59407 19.0511 6.72407 18.8925 6.88293 18.7665C7.04179 18.6405 7.22582 18.55 7.42261 18.5011C7.6194 18.4522 7.82438 18.4461 8.02375 18.4831C8.22311 18.5201 8.41223 18.5994 8.57835 18.7157L8.37197 19.2058Z" fill="white"/>
<path d="M10.087 17.632L11.2221 16.0842L9.49366 14.833L9.81613 14.3816L13.8792 17.3354L13.5567 17.7868L11.6219 16.3809L10.4997 17.9287L12.4216 19.3346L12.0992 19.7861L8.03613 16.8323L8.37149 16.3809L10.087 17.632Z" fill="white"/>
<path d="M12.5632 14.9882C11.7506 14.1756 10.8606 13.0147 11.8925 11.9828C12.9244 10.951 14.0852 11.8281 14.9108 12.6407C15.7363 13.4533 16.6392 14.6399 15.6073 15.6718C14.5754 16.7037 13.5564 15.9685 12.5632 14.9882ZM12.2408 12.344C11.6345 12.9502 12.1118 13.7241 12.9115 14.5109C13.9434 15.5428 14.6012 15.9685 15.2461 15.3236C15.891 14.6786 15.4654 14.0337 14.4335 12.9889C13.6467 12.2021 12.8599 11.6991 12.2408 12.344Z" fill="white"/>
<path d="M16.0332 8.55151L16.3427 8.95137L14.9239 10.0477L17.6971 13.6206L17.2585 13.9689L14.1758 9.99615L16.0332 8.55151Z" fill="white"/>
<path d="M18.1221 10.1381C17.5417 9.1449 16.9742 7.80345 18.2382 7.06824C19.5023 6.33302 20.4052 7.48099 20.9856 8.47417C21.6821 9.66084 22.1465 10.8475 20.8824 11.5827C19.6184 12.3179 18.8445 11.3376 18.1221 10.1381ZM18.4833 7.55838C17.7352 7.98403 18.006 8.84823 18.5736 9.81562C19.3088 11.1055 19.8634 11.6601 20.6244 11.1958C21.3855 10.7314 21.1662 9.9962 20.4439 8.74505C19.8763 7.77766 19.2443 7.10693 18.4833 7.55838Z" fill="white"/>
<path d="M23.438 10.1255L22.9091 10.3448L21.0518 5.67554L22.3416 5.1596C22.512 5.05154 22.7053 4.98496 22.9061 4.96519C23.1069 4.94542 23.3095 4.97303 23.4976 5.04579C23.6858 5.11854 23.8543 5.23443 23.9895 5.38412C24.1248 5.53382 24.223 5.71315 24.2764 5.90771C24.702 7.00409 24.1603 7.54582 23.3219 7.88118L22.6383 8.15205L23.438 10.1255ZM22.4577 7.68771L22.9607 7.49423C23.6702 7.19756 24.0571 6.92669 23.7347 6.12698C23.4122 5.32728 23.0252 5.43047 22.4448 5.67554L21.787 5.93351L22.4577 7.68771Z" fill="white"/>
<path d="M27.7071 5.08181C27.5653 4.48848 27.2557 4.06283 26.5721 4.23051C25.6305 4.46268 25.9529 5.79122 26.1077 6.42325C26.3528 7.41644 26.6881 8.55151 27.591 8.33224C28.2876 8.16456 28.2618 7.55832 28.1199 6.73282L28.6616 6.60384C28.8809 7.7389 28.7906 8.56441 27.7458 8.80948C26.3141 9.17064 25.8368 7.7389 25.5531 6.57804C25.2693 5.41717 25.1403 4.06283 26.4818 3.72747C26.6842 3.67815 26.8949 3.67359 27.0992 3.71411C27.3035 3.75463 27.4966 3.83925 27.6648 3.96207C27.8331 4.08488 27.9725 4.24294 28.0734 4.42519C28.1743 4.60745 28.2341 4.80953 28.2489 5.01732L27.7071 5.08181Z" fill="white"/>
<path d="M30.0794 5.76569L31.6272 3.01831L32.3238 2.94092L30.9436 5.19816L32.8913 7.93264L32.2464 7.99714L30.6598 5.66251L30.1439 6.46221L30.3245 8.20351L29.7698 8.25511L29.2539 3.26338L29.8085 3.19889L30.0794 5.76569Z" fill="white"/>
<path d="M36.7107 3.05693L36.4786 8.07445H35.9239L36.1303 3.55997L34.4406 3.48258L34.3245 5.44315C34.3245 6.56532 34.1826 8.02286 33.2152 8.02286C33.1038 8.0351 32.9913 8.0351 32.8799 8.02286V7.53271C32.9481 7.54504 33.018 7.54504 33.0863 7.53271C33.6022 7.53271 33.6796 6.7846 33.757 5.17228L33.8602 2.99243L36.7107 3.05693Z" fill="white"/>
<path d="M40.7597 3.71439L40.6694 4.20453L38.7346 3.85627L38.438 5.45569L40.2438 5.79105L40.1535 6.29409L38.3477 5.95873L37.9994 7.80322L39.9342 8.16438L39.8439 8.65452L37.3545 8.20307L38.2703 3.26294L40.7597 3.71439Z" fill="white"/>
<path d="M41.8045 6.69429L44.3455 4.8111L45.0162 5.01748L42.8364 6.51371L43.4942 9.80283L42.8751 9.60935L42.372 6.83617L41.5981 7.33921L41.0435 9.00312L40.5146 8.83544L42.0754 4.06299L42.6171 4.23067L41.8045 6.69429Z" fill="white"/>
<path d="M47.3504 7.81622C47.6212 7.27448 47.647 6.73275 47.0279 6.43608C46.1508 6.01043 45.5446 7.23579 45.2608 7.82912C44.8223 8.75781 44.345 9.84129 45.1834 10.2411C45.8284 10.5636 46.2024 10.0735 46.6152 9.35114L47.1182 9.59622C46.5507 10.6023 45.9573 11.1827 45.0028 10.7184C43.713 10.0735 44.216 8.66753 44.732 7.59695C45.2479 6.52637 46.0218 5.3913 47.3117 5.99753C47.4956 6.08416 47.6587 6.2093 47.7901 6.36448C47.9214 6.51965 48.0179 6.70124 48.0729 6.89694C48.1279 7.09264 48.1403 7.29789 48.1091 7.49877C48.0779 7.69966 48.0039 7.89149 47.8921 8.06129L47.3504 7.81622Z" fill="white"/>
<path d="M47.403 11.8539L46.9258 11.5315L49.7248 7.36523L50.8727 8.13914C51.0571 8.21881 51.2203 8.34043 51.3494 8.49431C51.4784 8.6482 51.5698 8.83009 51.6161 9.02551C51.6625 9.22093 51.6625 9.42447 51.6163 9.61992C51.5701 9.81537 51.4789 9.99734 51.35 10.1513C50.705 11.1316 49.944 10.9897 49.183 10.4867L48.5768 10.0739L47.403 11.8539ZM48.8606 9.66117L49.312 9.95783C49.944 10.3964 50.3955 10.5512 50.8727 9.82885C51.35 9.10653 51.0404 8.84856 50.4858 8.539L49.9053 8.13914L48.8606 9.66117Z" fill="white"/>
<path d="M55.1409 11.5311L54.8055 11.9052L53.3351 10.6153L52.2516 11.8278L53.6318 13.0531L53.2964 13.4272L51.9163 12.2147L50.678 13.6207L52.1484 14.9234L51.8131 15.2975L49.917 13.6336L53.2448 9.86719L55.1409 11.5311Z" fill="white"/>
<path d="M58.1732 14.8979L54.7422 17.8517L54.9615 18.1354L53.6717 19.2189L53.3234 18.8191L54.2134 18.058L52.3818 15.8911L51.4918 16.665L51.1436 16.2523L52.4334 15.1688L52.6527 15.4139C53.7235 15.1121 54.6913 14.5234 55.4517 13.7112L56.4319 12.8857L58.1732 14.8979ZM56.419 13.6081L55.4259 14.4594C54.752 15.0995 53.94 15.5761 53.0525 15.8524L54.3424 17.4002L57.3864 14.8205L56.419 13.6081Z" fill="white"/>
<path d="M59.075 18.9736C59.591 18.6511 59.9005 18.2126 59.5265 17.6837C59.0105 16.8582 57.8497 17.5805 57.2821 17.9417C56.4308 18.4834 55.4505 19.1542 55.9923 19.941C56.534 20.7278 56.9468 20.3408 57.682 19.941L57.9786 20.4182C56.9597 20.9728 56.16 21.1405 55.5924 20.2376C54.8056 18.9478 56.0181 18.0836 57.0242 17.4515C58.0302 16.8195 59.2814 16.2778 60.0166 17.4515C60.128 17.6222 60.2013 17.8148 60.2316 18.0162C60.2619 18.2177 60.2484 18.4234 60.1921 18.6192C60.1358 18.815 60.038 18.9964 59.9054 19.151C59.7727 19.3057 59.6083 19.4299 59.4233 19.5153L59.075 18.9736Z" fill="white"/>
<path d="M57.3074 23.256L57.0752 22.7401L61.1769 20.8569L60.6352 19.6831L61.0995 19.4639L62.4152 22.3402L61.9508 22.5466L61.422 21.3728L57.3074 23.256Z" fill="white"/>
<path d="M62.7906 23.3975L63.1776 24.6873C63.2585 24.8475 63.3019 25.0239 63.3048 25.2033C63.3076 25.3827 63.2698 25.5604 63.194 25.723C63.1183 25.8856 63.0067 26.029 62.8675 26.1423C62.7284 26.2555 62.5654 26.3358 62.3908 26.377C62.1665 26.4789 61.9132 26.4971 61.6767 26.4285C61.4401 26.3599 61.2359 26.209 61.1009 26.003C61.1214 26.2789 61.0393 26.5526 60.8702 26.7716C60.7012 26.9906 60.4572 27.1395 60.1851 27.1896C60.0062 27.2689 59.8116 27.3065 59.616 27.2995C59.4204 27.2924 59.229 27.241 59.0562 27.149C58.8835 27.057 58.7339 26.927 58.6189 26.7686C58.5038 26.6103 58.4263 26.4279 58.3923 26.2351L57.9795 24.9453L62.7906 23.3975ZM58.6373 25.2548L58.8824 26.0417C59.063 26.6221 59.4112 26.7898 60.0433 26.5963C60.1687 26.578 60.2881 26.5307 60.3919 26.458C60.4958 26.3854 60.5812 26.2895 60.6413 26.1779C60.7015 26.0664 60.7347 25.9423 60.7384 25.8156C60.742 25.6889 60.716 25.5631 60.6624 25.4483L60.4431 24.7002L58.6373 25.2548ZM60.9204 24.5841L61.1267 25.2548C61.2815 25.7837 61.5653 26.0288 62.1844 25.8353C62.2923 25.8162 62.3942 25.7725 62.4823 25.7074C62.5705 25.6424 62.6423 25.5578 62.6923 25.4604C62.7423 25.3629 62.769 25.2552 62.7704 25.1457C62.7718 25.0362 62.7478 24.9279 62.7004 24.8292L62.4811 24.1069L60.9204 24.5841Z" fill="white"/>
<path d="M64.0924 28.4541L64.2085 29.1764L59.4748 31.3821L59.3716 30.7759L60.7388 30.1567L60.4937 28.596L59.0104 28.4541L58.9072 27.8479L64.0924 28.4541ZM63.7442 28.8798L61.0097 28.6347L61.2161 29.9246L63.7442 28.8798Z" fill="white"/>
<path d="M56.032 58.701C49.7548 64.3101 41.602 67.3607 33.1847 67.2501C24.7673 67.1395 16.6975 63.8757 10.5699 58.1037C4.44222 52.3316 0.702403 44.4712 0.0893448 36.0754C-0.523713 27.6797 2.03459 19.3593 7.25877 12.7584C12.4829 6.15741 19.993 1.75603 28.305 0.42384C36.6171 -0.908348 45.1264 0.925575 52.1519 5.56325C59.1773 10.2009 64.2077 17.305 66.2491 25.4718C68.2906 33.6387 67.1946 42.2741 63.1778 49.6721C61.3342 53.0712 58.9166 56.1259 56.032 58.701ZM11.6611 9.10625C5.58795 14.5247 1.72803 21.9938 0.821061 30.082C-0.0859048 38.1703 2.02389 46.3088 6.74609 52.9377C11.4683 59.5667 18.4707 64.2199 26.4114 66.0055C34.3521 67.791 42.6724 66.5834 49.7778 62.614C56.8832 58.6447 62.2738 52.1928 64.9166 44.4948C67.5594 36.7969 67.2684 28.3944 64.0994 20.8978C60.9305 13.4011 55.1064 7.33755 47.7435 3.86922C40.3805 0.400891 31.9966 -0.228257 24.1984 2.10235C19.5564 3.4897 15.2762 5.88079 11.6611 9.10625Z" fill="white"/>
<path d="M49.2859 51.1684C46.3476 53.7966 42.7931 55.6402 38.9522 56.5283C35.1113 57.4164 31.1084 57.3201 27.3146 56.2485C23.5208 55.1769 20.059 53.1646 17.2504 50.3982C14.4418 47.6318 12.3772 44.201 11.2482 40.4239C10.0566 36.412 9.96347 32.1539 10.9785 28.0938C11.9936 24.0337 14.0796 20.3204 17.019 17.3413C19.9584 14.3622 23.6433 12.2265 27.6895 11.157C31.7356 10.0876 35.9946 10.1235 40.0221 11.2612C44.0496 12.3988 47.698 14.5964 50.5866 17.6248C53.4752 20.6531 55.4983 24.4011 56.4446 28.4778C57.3909 32.5544 57.2259 36.8104 55.9667 40.8015C54.7076 44.7927 52.4004 48.3728 49.2859 51.1684ZM18.394 16.6261C16.4228 18.4022 14.7734 20.5055 13.5183 22.8432C10.8583 27.8358 10.1652 33.6438 11.5756 39.1221C12.986 44.6005 16.3976 49.3517 21.1378 52.439C25.8781 55.5264 31.603 56.7259 37.1838 55.8011C42.7647 54.8762 47.7967 51.8941 51.2876 47.4427C54.7785 42.9913 56.4752 37.3936 56.043 31.7531C55.6108 26.1127 53.0813 20.8387 48.9529 16.9711C44.8246 13.1035 39.3971 10.9228 33.7405 10.8589C28.0839 10.795 22.6085 12.8527 18.394 16.6261Z" fill="white"/>
<path d="M34.5304 34.3229L34.0273 34.2842L34.4917 36.0255L34.5304 34.3229Z" fill="white"/>
<path d="M34.026 34.2843L34.0131 34.2327L33.9873 34.2714L34.026 34.2843Z" fill="white"/>
<path d="M33.4086 33.5485L33.3828 33.5356V33.5743L33.4215 33.5614H33.4086V33.5485Z" fill="white"/>
<path d="M50.8339 44.6546C50.8339 44.3837 50.8339 40.785 49.6859 39.7661L50.6533 38.9664C50.6533 38.9664 48.4477 34.7872 46.6161 34.2584L47.2997 33.3168C46.2177 32.5583 44.9492 32.1094 43.6309 32.0185C42.3126 31.9276 40.9945 32.1981 39.8186 32.8009L39.638 32.9041C38.7031 33.4425 37.8369 34.0921 37.0583 34.8388C36.9289 34.9864 36.8083 35.1414 36.6971 35.3032L37.987 36.1674C38.1987 36.301 38.4402 36.3804 38.6899 36.3984C38.9397 36.4164 39.19 36.3725 39.4187 36.2706L44.088 34.2068C44.1245 34.2889 44.1444 34.3775 44.1467 34.4673C44.1489 34.5572 44.1334 34.6466 44.1011 34.7305C44.0687 34.8144 44.0202 34.891 43.9582 34.9561C43.8962 35.0212 43.8219 35.0734 43.7397 35.1097L39.38 37.0445L41.031 38.1022C41.18 38.1812 41.3461 38.2225 41.5147 38.2225C41.6834 38.2225 41.8494 38.1812 41.9984 38.1022L45.5197 36.5414C45.5579 36.625 45.5788 36.7155 45.5812 36.8073C45.5836 36.8992 45.5675 36.9906 45.5338 37.0761C45.5 37.1616 45.4494 37.2394 45.385 37.3049C45.3205 37.3704 45.2435 37.4222 45.1585 37.4572L42.1919 38.7471L43.7913 39.7661C43.9474 39.8519 44.1227 39.8969 44.3008 39.8969C44.4789 39.8969 44.6542 39.8519 44.8103 39.7661L46.8998 38.7342C46.9799 38.9002 46.9909 39.0911 46.9304 39.2651C46.87 39.4392 46.743 39.5822 46.5774 39.6629L44.9651 40.4497L47.4029 41.9975C47.4673 42.0522 47.5096 42.1284 47.522 42.2119C47.5344 42.2955 47.516 42.3807 47.4703 42.4517C47.4245 42.5227 47.3545 42.5746 47.2733 42.5979C47.1921 42.6211 47.1052 42.614 47.0288 42.5779L44.6426 41.1849V42.952C44.6409 43.0435 44.6212 43.1337 44.5847 43.2176C44.5481 43.3014 44.4954 43.3773 44.4295 43.4408C44.3636 43.5043 44.2859 43.5541 44.2007 43.5876C44.1156 43.621 44.0247 43.6373 43.9332 43.6356V41.3397C43.9337 41.1602 43.8891 40.9834 43.8035 40.8256C43.7178 40.6678 43.5939 40.5341 43.443 40.4368L41.8436 39.4178V42.6424C41.8453 42.7339 41.829 42.8248 41.7956 42.91C41.7621 42.9952 41.7123 43.0729 41.6488 43.1388C41.5853 43.2046 41.5095 43.2574 41.4256 43.2939C41.3417 43.3305 41.2515 43.3502 41.16 43.3519V39.4823C41.1547 39.3225 41.1109 39.1664 41.0323 39.0271C40.9537 38.8879 40.8426 38.7697 40.7086 38.6826L39.0318 37.612L39.122 42.3587C39.1255 42.4489 39.1107 42.5389 39.0786 42.6233C39.0464 42.7077 38.9976 42.7847 38.9349 42.8497C38.8723 42.9147 38.7972 42.9665 38.7141 43.0018C38.631 43.0371 38.5416 43.0553 38.4513 43.0552L38.3352 37.7023C38.3367 37.5394 38.2959 37.3788 38.2168 37.2364C38.1376 37.094 38.0229 36.9745 37.8838 36.8897L36.3231 35.9094C36.1425 35.7933 35.9748 35.6772 35.8071 35.587L35.188 35.1742L35.0719 35.0968L34.5818 34.813C42.8884 30.6468 41.4696 23.0109 41.4696 23.0109L40.3861 22.8303C40.1793 20.9724 39.5048 19.1973 38.4255 17.6709L37.3807 18.045C36.9809 16.6777 34.0013 14.4205 33.7692 14.2915C33.408 14.4979 30.364 16.4843 30.1447 17.8128L29.0483 17.4129C27.8411 19.157 27.1037 21.1827 26.9071 23.2947H26.0043C26.0043 23.2947 24.7918 27.2674 29.719 29.8987C30.6169 30.378 31.5698 30.7462 32.5567 30.9951H32.6986H32.8792L33.1629 31.0725V29.5891C33.1739 29.3357 33.119 29.0837 33.0038 28.8576C32.8885 28.6316 32.7167 28.4393 32.5051 28.2993L28.2873 25.4229C28.3378 25.3462 28.4033 25.2805 28.4798 25.2297C28.5564 25.1789 28.6423 25.144 28.7326 25.1271C28.8229 25.1103 28.9157 25.1118 29.0054 25.1316C29.0951 25.1514 29.1799 25.1891 29.2547 25.2423L33.1887 27.9252V25.9647C33.1884 25.7967 33.1471 25.6314 33.0685 25.4831C32.9898 25.3347 32.8761 25.2078 32.7373 25.1134L29.5513 22.9335C29.6579 22.7841 29.8183 22.6819 29.9986 22.6482C30.179 22.6145 30.3654 22.6521 30.5187 22.7529L33.3048 24.5845V22.6884C33.3056 22.5106 33.261 22.3356 33.1752 22.1798C33.0894 22.0241 32.9653 21.8928 32.8147 21.7984L30.8541 20.5086C30.9015 20.4324 30.9635 20.3662 31.0365 20.314C31.1095 20.2617 31.192 20.2243 31.2795 20.2039C31.3669 20.1836 31.4575 20.1806 31.5461 20.1953C31.6346 20.2099 31.7195 20.2419 31.7957 20.2893L33.3177 21.2438V18.3674C33.3209 18.2761 33.3586 18.1894 33.4233 18.1247C33.4879 18.0601 33.5746 18.0224 33.666 18.0192C33.7583 18.0192 33.8469 18.0559 33.9122 18.1212C33.9775 18.1865 34.0142 18.2751 34.0142 18.3674V21.2438L35.5363 20.3409C35.615 20.2943 35.7022 20.2636 35.7928 20.2507C35.8834 20.2378 35.9756 20.2429 36.0643 20.2656C36.1529 20.2884 36.2362 20.3284 36.3094 20.3834C36.3826 20.4383 36.4442 20.5072 36.4907 20.586L34.5173 21.7468C34.3618 21.8381 34.2326 21.968 34.1422 22.1239C34.0518 22.2799 34.0032 22.4566 34.0013 22.6368V24.5329L36.71 22.7787C36.786 22.7287 36.8711 22.6943 36.9605 22.6776C37.0499 22.6609 37.1417 22.6622 37.2306 22.6814C37.3195 22.7006 37.4037 22.7374 37.4782 22.7895C37.5527 22.8417 37.616 22.9082 37.6645 22.9851L34.427 25.0747C34.2938 25.1616 34.184 25.2801 34.1075 25.4196C34.031 25.5591 33.9901 25.7153 33.9884 25.8744V27.8736L37.9741 25.2939C38.1285 25.1963 38.315 25.1632 38.4935 25.2018C38.6721 25.2404 38.8283 25.3476 38.9286 25.5003L34.3883 28.4541C34.254 28.544 34.143 28.6646 34.0645 28.8059C33.986 28.9472 33.9422 29.1051 33.9368 29.2667V31.2144V32.6203V33.6651C25.9398 27.706 20.2386 33.162 20.2386 33.162L20.6901 34.181C19.4002 34.5938 16.9753 38.3859 16.9753 38.3859L17.8266 39.1727C16.7689 39.908 16.1885 43.8162 16.1885 44.0742C16.4078 44.2161 19.7227 45.8155 20.9351 45.5317L21.1931 46.8216C21.1931 46.8216 25.8495 46.6797 27.2812 45.6994L27.7713 46.7442C27.7713 46.7442 31.9247 44.7449 32.015 40.3852C32.015 40.3852 32.015 40.2562 32.015 40.1917C31.9296 39.1974 31.735 38.2155 31.4345 37.2638C31.4345 37.1864 31.4345 37.109 31.4345 37.0316C31.4345 36.9413 31.4345 36.8381 31.3571 36.7349L29.9512 37.3282C29.7304 37.4414 29.5414 37.6081 29.4017 37.8132C29.262 38.0183 29.176 38.2551 29.1515 38.502L28.6097 43.584C28.5186 43.576 28.43 43.5498 28.3492 43.5069C28.2684 43.4641 28.197 43.4054 28.1393 43.3345C28.0815 43.2635 28.0386 43.1817 28.0131 43.0938C27.9876 43.006 27.9799 42.9139 27.9906 42.823L28.4937 38.0893L26.7524 38.9922C26.6037 39.0711 26.4766 39.1853 26.3821 39.3247C26.2877 39.4641 26.2288 39.6245 26.2106 39.7919L25.8108 43.6614C25.6281 43.6419 25.4605 43.5509 25.3445 43.4084C25.2285 43.2659 25.1736 43.0833 25.1916 42.9004L25.5399 39.6629L23.8502 40.54C23.6922 40.622 23.558 40.7435 23.4608 40.8926C23.3637 41.0418 23.3067 41.2136 23.2956 41.3913L23.1408 43.713C22.9582 43.6998 22.7883 43.6152 22.6676 43.4776C22.5469 43.3401 22.4852 43.1605 22.4959 42.9778L22.6119 41.1849L20.0322 42.4748C19.9921 42.5057 19.9457 42.5276 19.8963 42.5387C19.8469 42.5499 19.7956 42.5502 19.7461 42.5395C19.6965 42.5288 19.6499 42.5075 19.6095 42.4769C19.5691 42.4464 19.5358 42.4074 19.512 42.3626C19.4882 42.3179 19.4744 42.2685 19.4717 42.2179C19.469 42.1673 19.4773 42.1167 19.4961 42.0696C19.515 42.0226 19.5438 41.9802 19.5807 41.9455C19.6176 41.9108 19.6617 41.8845 19.7098 41.8685L22.2895 40.5787L20.7674 39.6629C20.6131 39.5645 20.5027 39.4102 20.4594 39.2323C20.4162 39.0544 20.4433 38.8667 20.5353 38.7084L22.4959 39.8951C22.6535 39.9832 22.8312 40.0294 23.0118 40.0294C23.1924 40.0294 23.37 39.9832 23.5277 39.8951L25.2045 39.018L22.3282 37.483C22.1681 37.3934 22.0499 37.2442 21.9992 37.0679C21.9485 36.8916 21.9694 36.7024 22.0573 36.5414L25.4367 38.4117C25.5782 38.4852 25.7352 38.5236 25.8946 38.5236C26.054 38.5236 26.2111 38.4852 26.3525 38.4117L28.1067 37.483L24.005 35.1742C23.8449 35.0845 23.7267 34.9354 23.676 34.7591C23.6253 34.5828 23.6462 34.3936 23.7341 34.2326L28.4292 36.8123C28.5745 36.8881 28.736 36.9276 28.9 36.9276C29.0639 36.9276 29.2254 36.8881 29.3708 36.8123L31.0734 35.9094C31.0734 35.9094 31.9376 35.4451 32.1955 35.3419L32.3374 35.2645L32.8663 34.9549C32.8663 35.3591 32.8405 35.746 32.7889 36.1158C32.6495 38.324 33.2037 40.5206 34.3739 42.3984C35.5441 44.2763 37.2718 45.7415 39.3155 46.5894L39.9862 45.6091C41.2761 46.3959 45.481 46.8087 45.481 46.8087L45.9712 45.5188C47.0675 45.9961 50.4469 44.7707 50.7823 44.603L50.8339 44.6546Z" fill="white"/>
<path d="M7.31385 40.6044C7.31385 40.7907 7.25863 40.9727 7.15516 41.1276C7.0517 41.2824 6.90464 41.4031 6.73259 41.4743C6.56054 41.5456 6.37121 41.5643 6.18856 41.5279C6.00591 41.4916 5.83814 41.4019 5.70645 41.2702C5.57477 41.1386 5.48509 40.9708 5.44876 40.7881C5.41243 40.6055 5.43107 40.4162 5.50234 40.2441C5.57361 40.072 5.69429 39.925 5.84914 39.8215C6.00398 39.7181 6.18603 39.6628 6.37226 39.6628C6.62199 39.6628 6.86148 39.762 7.03806 39.9386C7.21465 40.1152 7.31385 40.3547 7.31385 40.6044Z" fill="white"/>
<path d="M108.515 24.5844C104.723 24.5844 100.931 25.9903 100.931 29.9631C100.931 32.9168 102.891 34.8129 106.864 34.8129C109.663 34.8129 111.946 34.0003 113.146 31.627C113.365 33.7036 114.655 34.8129 117.015 34.8129C117.94 34.7778 118.858 34.635 119.75 34.3873L119.879 30.2339C118.486 30.2339 118.434 29.6406 118.434 28.6474V22.5851C118.434 18.0964 114.564 16.0198 109.973 16.0198C106.864 16.0198 104.026 16.7937 102.504 18.3673C102.193 18.6512 101.942 18.9952 101.766 19.3787C101.591 19.7622 101.496 20.1773 101.485 20.5987C101.489 21.003 101.572 21.4026 101.73 21.7746C101.888 22.1466 102.118 22.4837 102.407 22.7665C102.696 23.0494 103.038 23.2724 103.413 23.4228C103.788 23.5731 104.19 23.6479 104.594 23.6428C104.998 23.6448 105.398 23.5651 105.77 23.4082C106.143 23.2514 106.48 23.0208 106.76 22.7304C107.041 22.4399 107.26 22.0956 107.404 21.7181C107.549 21.3407 107.615 20.938 107.599 20.5343C107.603 20.0884 107.506 19.6476 107.315 19.2444C108.019 19.113 108.744 19.1443 109.433 19.3359C110.123 19.5274 110.76 19.8742 111.295 20.3497C111.831 20.8252 112.25 21.4167 112.521 22.0791C112.793 22.7416 112.909 23.4573 112.862 24.1716V25.01C111.43 24.6914 109.968 24.5313 108.502 24.5328L108.515 24.5844ZM112.539 29.3697C111.523 30.2442 110.216 30.7046 108.876 30.6596C107.883 30.6596 106.58 30.35 106.58 29.1247C106.58 27.6413 107.87 27.2286 109.65 27.2286C110.624 27.2349 111.594 27.3562 112.539 27.5897V29.3697Z" fill="white"/>
<path d="M123.091 19.9925V40.6301H132.223C132.041 39.7442 131.61 38.9283 130.982 38.2775C130.354 37.6267 129.554 37.1677 128.676 36.954V32.9039C130.283 34.1515 132.265 34.8197 134.299 34.8C139.033 34.8 142.4 31.0723 142.4 25.0874C142.4 19.1025 139.149 16.0584 134.725 16.0584C133.56 16.0281 132.405 16.2741 131.353 16.7763C130.302 17.2785 129.384 18.0226 128.676 18.9477V16.5615H120.317C120.429 17.3297 120.745 18.0538 121.233 18.6575C121.721 19.2613 122.363 19.7224 123.091 19.9925ZM128.676 22.0691C129.789 21.0636 131.215 20.4716 132.713 20.3923C134.841 20.3923 136.582 21.5919 136.582 25.384C136.582 28.2088 135.809 30.35 132.713 30.35C131.307 30.3914 129.921 30.0046 128.74 29.2407L128.676 22.0691Z" fill="white"/>
<path d="M182.733 51.362L187.996 43.1199H182.449L177.084 51.7748H176.839V43.1457H167.81C167.937 43.9173 168.302 44.6296 168.855 45.1826C169.408 45.7355 170.121 46.1013 170.892 46.2284V61.5905H176.851V53.4L182.836 61.5905H190.111L182.733 51.362Z" fill="white"/>
<path d="M178.336 24.5844C174.544 24.5844 170.752 25.9903 170.752 29.9631C170.752 32.9168 172.7 34.8129 176.672 34.8129C179.471 34.8129 181.767 34.0003 182.967 31.627C183.173 33.7036 184.476 34.8129 186.836 34.8129C187.761 34.7778 188.679 34.635 189.571 34.3873L189.7 30.2339C188.307 30.2339 188.255 29.6406 188.255 28.6474V22.5851C188.255 18.0964 184.386 16.0198 179.794 16.0198C176.685 16.0198 173.848 16.7937 172.313 18.3673C172.003 18.6518 171.754 18.9963 171.581 19.3798C171.408 19.7634 171.315 20.1781 171.307 20.5987C171.308 21.0024 171.39 21.4017 171.547 21.7736C171.703 22.1456 171.932 22.4828 172.22 22.7658C172.508 23.0488 172.849 23.272 173.223 23.4225C173.598 23.573 173.999 23.6479 174.402 23.6428C174.814 23.6573 175.224 23.5867 175.607 23.4355C175.99 23.2842 176.338 23.0556 176.628 22.7638C176.919 22.472 177.146 22.1234 177.296 21.7398C177.445 21.3561 177.514 20.9457 177.498 20.5343C177.504 20.0867 177.402 19.6443 177.201 19.2444C177.901 19.13 178.618 19.1754 179.299 19.3771C179.979 19.5787 180.604 19.9315 181.129 20.409C181.654 20.8866 182.064 21.4765 182.328 22.1347C182.593 22.793 182.705 23.5025 182.657 24.2103V25.0487C181.226 24.7301 179.764 24.57 178.298 24.5715L178.336 24.5844ZM182.335 29.4084C181.314 30.2837 180.002 30.7441 178.659 30.6983C177.666 30.6983 176.376 30.3887 176.376 29.1634C176.376 27.68 177.666 27.2673 179.446 27.2673C180.419 27.2736 181.389 27.3948 182.335 27.6284V29.4084Z" fill="white"/>
<path d="M89.5414 34.9807C89.3401 34.3565 88.9777 33.7965 88.4908 33.3572C88.0039 32.9178 87.4097 32.6147 86.7682 32.4784V31.1886C87.6969 31.2789 88.574 31.3305 89.2705 31.3305C94.804 31.3305 99.0734 28.6605 99.0734 22.7013C99.0734 17.3485 95.0491 13.9174 88.9094 13.9174C88.2902 13.9174 87.6195 13.9174 86.7682 14.0077V10.1382H78.281C78.5285 10.7479 78.9077 11.2954 79.3916 11.7414C79.8755 12.1874 80.4521 12.5208 81.08 12.7179V14.0077C80.19 14.0077 79.3516 13.9046 78.6679 13.9046C72.5282 13.9046 68.5039 17.3356 68.5039 22.6884C68.5039 28.6476 72.7733 31.3176 78.3068 31.3176C79.2335 31.3117 80.1593 31.2557 81.08 31.1499V34.9033L89.5414 34.9807ZM87.2068 18.0063C90.225 18.0063 93.0756 19.2961 93.0756 22.7658C93.0756 26.6354 90.3153 27.4609 87.2712 27.4609H86.7295V18.0063H87.2068ZM80.2287 27.4609C77.1846 27.4609 74.4243 26.6483 74.4243 22.7658C74.4243 19.2445 77.2749 18.0063 80.2931 18.0063H81.0413V27.4222H80.2287" fill="white"/>
<path d="M145.561 34.0521H151.133V25.1522L154.745 31.0081H157.144L161.014 24.9329V34.078H169.372C168.82 32.7861 167.853 31.715 166.624 31.0339V16.3296H161.065L156.009 24.2493L151.133 16.3296H142.736C142.966 17.0216 143.335 17.6591 143.821 18.2027C144.307 18.7463 144.899 19.1843 145.561 19.4897V34.0521Z" fill="white"/>
<path d="M114.901 42.3972C108.98 42.3972 104.904 46.2667 104.904 52.4064C104.904 59.6167 109.728 61.9642 116.036 61.9642C118.637 61.9407 121.219 61.5053 123.685 60.6744L123.323 56.4179C121.331 56.9732 119.277 57.2765 117.209 57.3208C114.385 57.3208 111.715 56.4823 111.147 53.4512H124.046C124.172 52.7792 124.237 52.097 124.239 51.4132C124.239 45.9185 120.37 42.3843 114.888 42.3843L114.901 42.3972ZM111.121 50.7296C111.508 47.8661 112.85 46.8601 114.694 46.8601C116.539 46.8601 117.803 47.9564 117.803 50.7296H111.121Z" fill="white"/>
<path d="M125.646 43.1199V47.802H131.451V58.2369C129.944 58.8613 128.747 60.0583 128.123 61.5647H140.596C139.954 60.0685 138.77 58.8705 137.281 58.2111V47.802H143.047V43.1199H125.646Z" fill="white"/>
<path d="M98.1061 52.2128V51.9032C101.086 51.426 102.053 49.8266 102.053 47.9176C102.053 44.809 99.4734 43.0291 94.559 43.0291H81.3896C81.5873 43.8133 81.9605 44.5424 82.4812 45.1613C83.0018 45.7803 83.6562 46.2729 84.395 46.6019V61.59H95.1911C99.2928 61.59 103.02 60.8032 103.02 56.4306C103.02 53.8509 101.421 52.3934 98.1061 52.2644V52.2128ZM90.1993 47.3758H93.6561C95.32 47.3758 95.9134 48.0595 95.9134 49.2203C95.9134 50.3812 94.9073 51.168 93.5659 51.168H90.238L90.1993 47.3758ZM93.5272 57.8108H90.2251V53.9412H93.9657C95.9005 53.9412 96.5454 54.7667 96.5454 55.9534C96.5454 57.14 95.578 57.8623 93.5143 57.8623" fill="white"/>
<path d="M78.4618 38.7727H69.6521C69.9375 39.4008 70.3459 39.9653 70.8532 40.4327C71.3606 40.9002 71.9565 41.2612 72.6058 41.4943V56.4824H63.4479V38.7727H55.4121C55.4241 39.3912 55.6388 39.9887 56.0233 40.4734C56.4078 40.9581 56.9408 41.3032 57.5404 41.4556V61.5902H76.4238C77.1944 63.3422 78.3494 64.8984 79.8032 66.1434L80.6932 66.2078V56.4437H78.4876L78.4618 38.7727Z" fill="white"/>
<path d="M164.999 58.3014V43.1199H159.839L153.558 53.2839V43.1199H144.812C144.944 43.8912 145.291 44.6095 145.814 45.1916C146.336 45.7738 147.013 46.1958 147.766 46.409V61.5905H152.926H153.016L159.555 51.0654L159.194 61.5905H167.94C167.703 60.8692 167.319 60.2047 166.813 59.6386C166.307 59.0726 165.689 58.6173 164.999 58.3014Z" fill="white"/>
</svg>
