<svg width="16" height="10" viewBox="0 0 16 10" fill="none" xmlns="http://www.w3.org/2000/svg">
<path d="M2.44466 0.470447C2.44466 0.470447 0.993077 0.470443 0.646268 0.499192C0.29946 0.52794 -0.129757 0.492463 0.0371734 0.952381C0.204103 1.4123 1.51621 3.91147 2.69819 5.55826C4.20428 7.65662 5.67164 8.57645 6.65426 9.20883C7.86807 9.82685 8.00142 9.86517 8.39157 9.94182C8.70948 9.96099 8.49641 9.98782 9.00505 9.94182C9.5137 9.89583 9.59269 9.49149 9.56861 9.29507C9.56861 8.66269 9.69705 8.24589 9.79981 8.07342C10.031 7.68537 10.2333 7.64225 10.479 7.65662C10.8113 7.67607 11.3918 8.43578 12.054 9.16572C12.5887 9.75498 13.2486 9.98015 13.5424 9.99931C14.2649 9.99931 14.8472 10.0121 15.3408 9.92745C16.0331 9.80874 16.1406 9.7619 15.8465 9.10823C15.6145 8.59235 14.0692 6.938 13.2166 6.13315C12.8554 5.70198 13.112 5.27734 13.3467 4.96899C15.3263 2.3676 15.8176 1.60587 15.8899 1.05972C15.9528 0.584069 15.8966 0.47619 15.4419 0.499195H14.0482C13.08 0.52794 12.965 0.369844 12.7476 0.887248C11.9384 2.81314 11.3793 3.41858 10.7724 4.28571C10.2843 5 9.72796 5.01786 9.42739 4.86839C9.12683 4.71891 9.07096 4.2887 9.08059 4.09228V0.844128C8.93609 0.0249038 8.36978 0.0900314 7.59222 0.0249041C6.896 -0.0334105 6.34621 0.0149525 5.91271 0.12551C5.34915 0.269236 5.00547 0.678204 5.20465 0.714776C6.14391 0.887246 6.17281 1.56275 6.23061 1.83582C6.28841 2.10889 6.38018 3.1587 6.38018 4.09228C6.38018 4.82763 6.11634 4.94388 5.92387 4.86839C4.89791 4.46596 3.31044 1.13157 3.20929 0.844128C3.12837 0.61417 3.20929 0.47619 2.44466 0.470447Z" fill="white"/>
</svg>
